<svg width="367" height="326" viewBox="0 0 367 326" fill="none" xmlns="http://www.w3.org/2000/svg">
<g clip-path="url('#clip0_2_431')">
<path d="M2.52277 228.255C2.54312 213.935 2.61496 184.627 2.61496 174.214C2.61496 174.214 2.61496 174.068 2.60779 173.786C67.1418 136.629 164.315 80.4207 208.449 54.8548C245.82 76.4904 321.031 119.985 364.543 145C364.543 157.148 364.455 193.139 364.462 203.817C324.772 226.817 220.838 286.943 156.941 323.713C111.582 297.617 37.4166 254.722 2.51675 234.506V233.956C2.51675 232.562 2.51917 230.612 2.52277 228.255Z" fill="#F9F6F1"></path>
<path d="M209.309 55.3497C246.828 77.074 320.824 119.865 364.073 144.731C331.3 163.727 212.798 232.288 157.867 263.818C117.757 240.812 29.9251 190.032 2.61487 174.21C2.61487 174.21 2.6149 174.064 2.6077 173.782C67.1418 136.626 164.315 80.4171 208.449 54.8512L209.309 55.3497Z" fill="#EDD351"></path>
<path d="M0.128113 228.255C0.141663 218.589 0.160004 208.923 0.183167 199.257C0.199921 190.772 0.398712 182.265 0.213135 173.782C0.213165 173.364 0.322601 172.953 0.530548 172.59C0.738464 172.228 1.03769 171.926 1.39844 171.714C29.894 155.306 58.3756 138.875 86.8432 122.419C115.08 106.108 143.311 89.7858 171.535 73.4528C183.438 66.5653 195.34 59.6749 207.241 52.7818C207.608 52.5698 208.025 52.4582 208.449 52.4582C208.873 52.4582 209.29 52.5698 209.658 52.7818C228.624 63.7666 247.594 74.7418 266.57 85.7074C288.794 98.555 311.024 111.392 333.259 124.219C344.086 130.463 354.916 136.701 365.75 142.932C366.11 143.145 366.408 143.447 366.616 143.809C366.824 144.172 366.934 144.582 366.935 145C366.935 158.841 366.915 172.682 366.873 186.522C366.867 189.938 366.862 193.355 366.858 196.772C367.037 199.224 367.022 201.686 366.811 204.135C366.535 205.769 364.748 206.419 363.458 207.169L360.175 209.069L352.953 213.25C340.846 220.265 328.735 227.276 316.618 234.283C301.722 242.901 286.825 251.516 271.925 260.129C256.088 269.282 240.247 278.433 224.403 287.58C209.178 296.368 193.949 305.155 178.715 313.942C171.95 317.84 165.281 322.098 158.343 325.674C156.297 326.729 154.375 325.004 152.622 323.997L147.594 321.104C144.066 319.072 140.538 317.039 137.01 315.006C121.294 305.95 105.584 296.883 89.8807 287.806C74.1124 278.699 58.3481 269.586 42.5877 260.468C29.6833 253.002 16.7804 245.533 3.87921 238.06C2.51309 237.268 0.448975 236.542 0.167603 234.818C-0.0202026 232.633 -0.0325928 230.436 0.130524 228.249C0.130524 225.166 4.91968 225.16 4.91968 228.249C4.91968 230.332 4.91968 232.416 4.91968 234.5L3.73434 232.431C21.9739 242.996 40.2186 253.554 58.4685 264.103C80.5786 276.884 102.692 289.657 124.809 302.422C135.923 308.833 147.039 315.238 158.159 321.637H155.741C184.83 304.898 213.901 288.129 242.956 271.332C271.657 254.752 300.354 238.161 329.046 221.557C340.448 214.958 351.848 208.357 363.247 201.752L362.061 203.821C362.052 187.868 362.11 171.916 362.133 155.962C362.139 152.31 362.142 148.658 362.143 145.005L363.329 147.075C342.883 135.32 322.449 123.541 302.028 111.739C280.21 99.133 258.392 86.519 236.574 73.8974C226.795 68.2408 217.017 62.5819 207.241 56.9206H209.658C186.038 70.603 162.411 84.2751 138.778 97.9367C109.187 115.049 79.5884 132.148 49.9833 149.235C34.5981 158.114 19.2086 166.986 3.81458 175.852L5.0011 173.782C5.18668 182.265 4.98792 190.772 4.97116 199.257C4.952 208.923 4.93362 218.589 4.91608 228.255C4.91248 231.339 0.123322 231.344 0.128113 228.255Z" fill="#211715"></path>
<path d="M159.785 263.657C159.785 280.222 159.756 296.787 159.698 313.351C159.693 316.706 159.689 320.057 159.687 323.403C159.687 326.488 154.897 326.492 154.897 323.403C154.897 307.227 154.957 291.051 154.984 274.874C154.99 271.133 154.994 267.392 154.995 263.651C154.995 260.568 159.785 260.562 159.785 263.651V263.657Z" fill="#211715"></path>
<path d="M362.892 148.173C353.226 153.779 343.557 159.379 333.886 164.975C320.287 172.849 306.684 180.717 293.079 188.581C277.636 197.511 262.191 206.438 246.744 215.361C231.547 224.137 216.347 232.909 201.145 241.674C188.287 249.087 175.424 256.49 162.556 263.885L158.598 266.162C155.921 267.698 153.505 263.559 156.182 262.023C168.619 254.885 181.05 247.736 193.473 240.574C208.502 231.913 223.527 223.246 238.547 214.572C254.076 205.599 269.604 196.624 285.13 187.646C299.074 179.584 313.016 171.518 326.958 163.449C337.225 157.506 347.49 151.561 357.753 145.613L360.475 144.03C363.147 142.481 365.561 146.621 362.892 148.169V148.173Z" fill="#211715"></path>
<path d="M157.363 281.779C168.091 275.622 178.813 269.453 189.528 263.273C202.6 255.74 215.668 248.2 228.733 240.655C242.209 232.875 255.682 225.09 269.153 217.299C281.314 210.27 293.474 203.236 305.632 196.198C314.544 191.039 323.457 185.879 332.368 180.717L334.745 179.339C337.417 177.791 339.831 181.931 337.162 183.478C328.774 188.34 320.384 193.199 311.992 198.055C300.13 204.92 288.268 211.782 276.405 218.643C263.003 226.391 249.6 234.137 236.195 241.879C222.972 249.517 209.746 257.149 196.519 264.775C185.424 271.174 174.32 277.565 163.208 283.947L159.78 285.915C157.102 287.452 154.687 283.312 157.363 281.776V281.779Z" fill="#211715"></path>
<path d="M170.506 293.617C180.898 287.653 191.275 281.662 201.636 275.643C204.308 274.094 206.722 278.235 204.053 279.782C193.687 285.79 183.311 291.782 172.924 297.756C170.245 299.293 167.83 295.153 170.506 293.617Z" fill="#211715"></path>
<path d="M68.3678 279.333C73.8969 282.511 91.8275 292.879 99.9835 297.577C107.853 293.054 121.811 285.003 132.234 278.984C122.385 273.314 111.552 267.071 100.594 260.74C89.8975 266.921 75.8521 275.034 68.3678 279.333Z" fill="#9CC2D3"></path>
<path d="M132.234 281.381H132.222L133.43 281.054C123.416 286.848 113.393 292.63 103.362 298.398C102.442 299.088 101.405 299.607 100.302 299.931C99.1046 300.093 97.9935 299.196 97.0022 298.625C95.1144 297.537 93.2267 296.448 91.339 295.357C87.0479 292.881 82.7568 290.404 78.4657 287.928C74.6982 285.754 70.9295 283.58 67.1596 281.407C66.804 281.192 66.5099 280.888 66.3058 280.525C66.1017 280.163 65.9945 279.754 65.9945 279.338C65.9945 278.922 66.1017 278.513 66.3058 278.15C66.5099 277.788 66.804 277.484 67.1596 277.268C77.9121 271.09 88.6538 264.892 99.3848 258.675C102.06 257.13 104.473 261.27 101.802 262.814C91.0648 269.02 80.3231 275.218 69.577 281.407V277.264C80.1251 283.327 90.6613 289.409 101.185 295.508H98.7694C104.037 292.477 109.306 289.442 114.574 286.401C117.527 284.698 120.48 282.995 123.434 281.291L127.83 278.751C129.06 278.04 130.779 276.583 132.232 276.583C135.314 276.583 135.319 281.376 132.232 281.376L132.234 281.381Z" fill="#211715"></path>
<path d="M23.6046 213.472C38.3376 222.011 53.0767 230.538 67.8218 239.052C87.6497 250.51 107.485 261.957 127.327 273.393C137.589 279.305 147.854 285.21 158.123 291.109C160.797 292.641 158.387 296.784 155.705 295.247C136.742 284.383 117.802 273.474 98.8867 262.521C80.1443 251.708 61.4075 240.883 42.6762 230.049C35.5132 225.904 28.3506 221.757 21.1884 217.609C18.522 216.064 20.931 211.92 23.6058 213.471L23.6046 213.472Z" fill="#211715"></path>
<path d="M156.396 265.736C135.588 253.802 114.801 241.83 94.0341 229.822C71.6304 216.892 49.2334 203.951 26.8432 190.999C18.364 186.095 9.88603 181.188 1.40921 176.28C-1.25716 174.734 1.15176 170.59 3.82652 172.141C21.5169 182.389 39.2137 192.625 56.9169 202.85C80.1762 216.292 103.444 229.722 126.719 243.138C137.415 249.3 148.113 255.453 158.815 261.598C161.488 263.131 159.078 267.275 156.396 265.736Z" fill="#211715"></path>
<path d="M53.0113 140.41C53.0269 129.719 53.0807 107.839 53.0807 100.062C53.0807 100.062 53.0807 99.9534 53.0747 99.7437C101.251 72.003 173.799 30.0402 206.746 10.9544C234.643 27.1093 290.796 59.5807 323.28 78.2566C323.28 87.325 323.213 114.193 323.219 122.165C293.587 139.336 215.995 184.223 168.289 211.675C134.425 192.192 79.0572 160.17 53.0029 145.077V144.666C53.0077 143.625 53.0089 142.169 53.0113 140.41Z" fill="#F9F6F1"></path>
<path d="M208.838 12.1647C237.369 28.6849 291.587 60.0324 323.28 78.2566C323.28 87.325 323.213 114.193 323.219 122.165C310.332 129.633 288.377 142.343 263.749 156.58C263.767 145.638 263.814 121.463 263.819 112.265C213.732 83.3097 171.535 58.8905 147.735 45.101C171.313 31.4685 192.653 19.1193 206.746 10.9508L208.838 12.1647Z" fill="#99B305"></path>
<path d="M50.6168 140.41C50.6371 126.87 50.976 113.284 50.6802 99.7437C50.6802 99.3251 50.7897 98.9138 50.9979 98.5507C51.2061 98.1877 51.5056 97.8855 51.8668 97.6743C73.1339 85.4282 94.3918 73.1661 115.641 60.888C136.718 48.7113 157.79 36.5291 178.858 24.3413C187.749 19.188 196.643 14.0359 205.538 8.88504C205.906 8.67305 206.322 8.56147 206.747 8.56147C207.171 8.56147 207.588 8.67305 207.955 8.88504C222.134 17.0971 236.317 25.3027 250.504 33.5019C267.053 43.068 283.607 52.6268 300.165 62.1785C308.27 66.8517 316.378 71.5213 324.488 76.1873C324.848 76.3995 325.147 76.7019 325.355 77.0648C325.563 77.4276 325.673 77.8383 325.674 78.2566C325.674 88.7102 325.658 99.1645 325.626 109.62C325.622 112.15 325.618 114.681 325.616 117.212C325.616 118.916 325.983 121.144 325.527 122.803C325.04 124.574 321.708 125.81 320.199 126.684L314.692 129.877C294.511 141.563 274.325 153.241 254.134 164.909C230.975 178.296 207.809 191.67 184.637 205.029L176.708 209.597L173.058 211.699C171.834 212.515 170.552 213.238 169.221 213.864C167.64 214.475 166.163 213.21 164.844 212.451L160.861 210.158C158.176 208.612 155.491 207.066 152.807 205.518C141.114 198.778 129.425 192.033 117.738 185.281C96.3354 172.917 74.939 160.543 53.549 148.157C52.2415 147.399 50.7401 146.809 50.618 145.076C50.509 143.537 50.618 141.952 50.618 140.41C50.618 137.326 55.4072 137.321 55.4072 140.41C55.4072 141.965 55.4072 143.521 55.4072 145.076L54.2206 143.007C67.8075 150.877 81.3984 158.742 94.9932 166.6C111.531 176.162 128.074 185.717 144.621 195.266C152.915 200.049 161.21 204.829 169.507 209.604H167.089C188.779 197.123 210.455 184.621 232.119 172.099C253.526 159.733 274.927 147.359 296.323 134.976C304.888 130.017 313.45 125.057 322.009 120.096L320.824 122.165C320.817 110.29 320.86 98.4124 320.878 86.5366C320.878 83.7758 320.88 81.0158 320.885 78.2566L322.07 80.3248C306.786 71.5376 291.511 62.7325 276.246 53.9094C259.994 44.5246 243.745 35.1331 227.501 25.7349C220.179 21.501 212.857 17.264 205.538 13.0238H207.955C190.326 23.2369 172.693 33.4412 155.054 43.6367C132.967 56.4093 110.875 69.1723 88.7781 81.9257C77.2841 88.556 65.7861 95.1863 54.2841 101.817L55.4694 99.7473C55.7663 113.288 55.4263 126.869 55.4059 140.414C55.4012 143.493 50.612 143.499 50.6168 140.41Z" fill="#211715"></path>
<path d="M171.022 166.84C171.022 176.981 170.951 187.123 170.949 197.263C170.949 200.348 166.16 200.353 166.16 197.263C166.16 187.123 166.232 176.981 166.233 166.84C166.233 163.755 171.022 163.751 171.022 166.84Z" fill="#211715"></path>
<path d="M166.959 165.359C185.131 154.93 203.285 144.47 221.419 133.978C240.983 122.68 260.543 111.372 280.097 100.054C287.507 95.7691 294.912 91.4813 302.313 87.1908C304.984 85.6415 307.399 89.7826 304.73 91.3296C289.281 100.284 273.827 109.228 258.367 118.162C238.054 129.905 217.735 141.639 197.41 153.365C188.071 158.75 178.726 164.127 169.376 169.498C166.698 171.034 164.283 166.895 166.959 165.359Z" fill="#211715"></path>
<path d="M167.579 168.916C154.446 161.383 141.326 153.828 128.218 146.249C114.128 138.116 100.042 129.977 85.9596 121.832C80.567 118.717 75.1755 115.596 69.7853 112.47C67.1178 110.926 69.5267 106.782 72.2015 108.332C83.3674 114.802 94.5374 121.263 105.711 127.714C120.335 136.167 134.964 144.611 149.598 153.046C156.395 156.96 163.195 160.871 169.996 164.778C172.67 166.311 170.26 170.454 167.579 168.916Z" fill="#211715"></path>
<path d="M262.476 114.256C244.949 104.125 227.424 93.9913 209.903 83.8549C195.674 75.6269 181.445 67.3925 167.217 59.1517C161.132 55.6288 155.047 52.1048 148.962 48.5795C146.296 47.035 148.704 42.8914 151.38 44.442C163.147 51.2592 174.916 58.0737 186.688 64.8853C202.521 74.048 218.355 83.2082 234.19 92.3661C244.427 98.2838 254.66 104.202 264.889 110.119C267.558 111.662 265.149 115.805 262.473 114.258L262.476 114.256Z" fill="#211715"></path>
<path d="M266.219 112.245C266.204 125.837 266.146 139.429 266.145 153.02C266.145 156.105 261.356 156.109 261.356 153.02C261.356 139.429 261.414 125.837 261.43 112.245C261.43 109.161 266.219 109.156 266.219 112.245Z" fill="#211715"></path>
<path d="M190.446 113.149C190.577 115.716 191.228 118.229 192.362 120.536C194.74 125.209 199.328 128.407 204.159 130.444C208.99 132.481 209.682 131.953 214.68 133.531C218.578 134.761 222.658 136.534 224.328 140.481C225.028 142.503 225.444 144.613 225.563 146.75C225.922 154.835 225.857 163.245 225.958 171.566C225.951 172.146 226.13 172.714 226.468 173.186C226.806 173.658 227.286 174.009 227.837 174.19C233.536 175.852 239.541 176.172 245.384 175.126C245.988 174.926 246.526 174.564 246.94 174.08C247.572 173.483 248.028 172.724 248.257 171.886C248.707 168.109 248.924 164.471 249.052 160.829C253.234 161.758 258.014 163.364 262.462 162.278C265.555 161.522 268.454 159.163 268.927 156.012L269.32 153.41C270.011 140.686 270.702 142.288 271.391 129.565C271.624 125.283 271.81 120.769 269.856 116.953C268.173 114.1 265.848 111.678 263.068 109.88C257.706 105.957 251.892 102.695 245.75 100.164C245.75 100.164 198.448 111.515 190.446 113.149Z" fill="#9CC2D3"></path>
<path d="M200.121 117.413C197.368 115.87 193.82 114.132 190.396 112.078C184.713 108.677 179.311 104.375 178.194 98.603C177.812 96.1054 177.824 93.5633 178.23 91.0695C179.323 82.236 181.411 70.9593 186.912 63.6931C190.264 59.2452 195.556 53.5079 200.716 50.861C200.716 50.861 209.669 46.5233 218.366 45.9566C232.329 45.0447 239.474 51.0024 239.474 51.0024C247.565 57.1381 253.176 65.9865 255.278 75.926L257.713 89.96L258.594 95.0214L200.121 117.413Z" fill="#F9F6F1"></path>
<path d="M256.094 186.568C256.349 185.313 256.328 184.018 256.032 182.773C255.737 181.527 255.174 180.361 254.383 179.356C252.571 177.2 250.359 175.418 247.869 174.106C245.355 176.077 235.14 176.457 227.829 174.19C227.581 174.113 227.346 174 227.131 173.853C227.041 174.708 226.984 175.235 226.984 175.235C226.224 182.185 230.43 184.979 233.1 186.569C236.279 188.46 239.704 189.903 243.277 190.858C245.424 191.52 247.683 191.742 249.918 191.508C251.033 191.376 252.106 191.003 253.062 190.413C254.018 189.823 254.834 189.032 255.453 188.094C255.736 187.618 255.952 187.104 256.094 186.568Z" fill="#F9F6F1"></path>
<path d="M277.481 171.508C277.157 170.592 276.695 169.731 276.112 168.954C274.144 166.668 271.747 164.79 269.058 163.426C267.688 162.481 266.134 161.836 264.499 161.532C263.847 161.858 263.161 162.11 262.454 162.284C258.006 163.37 253.227 161.765 249.044 160.835C248.954 163.461 248.815 166.083 248.577 168.757L250.456 169.067C250.315 172.063 252.97 174.4 255.546 175.932C258.62 177.76 261.931 179.155 265.386 180.077C267.462 180.719 269.646 180.931 271.807 180.7C272.886 180.576 273.924 180.216 274.848 179.647C275.773 179.077 276.561 178.311 277.158 177.402C277.638 176.503 277.916 175.509 277.972 174.491C278.027 173.473 277.86 172.455 277.481 171.508Z" fill="#F9F6F1"></path>
<path d="M238.589 27.5981C238.921 34.6081 236.573 41.4814 232.022 46.8205C227.896 51.5554 222.069 54.4672 215.808 54.9219C209.547 55.3766 203.36 53.3373 198.595 49.2482C195.303 49.4207 192.059 48.404 189.454 46.3831C188.286 45.4733 187.368 44.281 186.788 42.9184C186.207 41.5558 185.983 40.0678 186.136 38.5945C186.322 37.5723 186.756 36.6115 187.4 35.7967C188.044 34.9818 188.878 34.3378 189.829 33.9213C188.032 29.2442 187.829 24.1039 189.251 19.2991C190.673 14.4944 193.641 10.2942 197.693 7.35127C208.346 -0.22168 223.404 0.8208 232.157 10.7843C236.167 15.4836 238.438 21.4207 238.589 27.5981Z" fill="#F9F6F1"></path>
<path d="M235.121 14.9781C236.677 17.7679 237.731 20.8099 238.234 23.965C231.904 24.5264 225.526 23.7575 219.51 21.7075C219.342 21.6503 219.163 21.6287 218.986 21.644C218.808 21.6592 218.636 21.7111 218.48 21.7962C217.725 22.2216 218.636 23.8716 219.063 24.6265C216.381 25.3826 209.814 24.1472 206.911 22.5511C205.299 26.4766 203.651 28.522 200.488 30.0042L191.997 33.3893C191.247 33.4306 190.511 33.6114 189.827 33.9225C188.032 29.2442 187.83 24.1036 189.253 19.2989C190.676 14.4941 193.644 10.2938 197.697 7.35008C208.346 -0.221678 223.404 0.820801 232.157 10.7843C233.289 12.0749 234.282 13.4805 235.121 14.9781Z" fill="#F9F6F1"></path>
<path d="M229.383 175.238C229.141 176.741 229.301 178.281 229.848 179.7C230.395 181.12 231.309 182.37 232.496 183.321C235.939 185.775 239.818 187.549 243.926 188.55C247.247 189.43 253.847 190.008 253.912 184.912C253.97 180.358 249.274 177.722 245.883 175.714C243.231 174.146 245.644 170.001 248.3 171.575C252.308 173.945 256.332 176.608 258.028 181.161C258.883 183.249 258.939 185.578 258.184 187.703C257.43 189.829 255.919 191.601 253.94 192.681C249.338 195.093 243.914 193.8 239.291 192.121C235.513 190.871 231.981 188.972 228.855 186.508C227.278 185.123 226.064 183.372 225.322 181.408C224.579 179.444 224.329 177.327 224.595 175.244C224.612 174.614 224.869 174.014 225.315 173.568C225.76 173.122 226.36 172.864 226.99 172.848C227.623 172.853 228.23 173.107 228.678 173.555C229.126 174.003 229.38 174.61 229.384 175.244L229.383 175.238Z" fill="#211715"></path>
<path d="M265.454 159.263C267.571 159.836 269.575 160.769 271.377 162.019C273.172 163.052 274.85 164.276 276.382 165.67C279.329 168.483 281.268 172.872 279.963 176.934C278.585 181.231 274.079 183.317 269.817 183.204C265.221 183.085 260.509 181.249 256.464 179.177C252.483 177.14 248.024 174.046 248.057 169.065C248.078 165.982 252.868 165.975 252.847 169.065C252.823 172.585 258.014 174.708 260.636 175.883C262.529 176.723 264.492 177.395 266.503 177.89C268.527 178.553 270.704 178.591 272.75 177.999C276.211 176.7 276.124 172.933 274.154 170.308C272.906 168.812 271.395 167.558 269.696 166.606C268.033 165.38 266.165 164.459 264.18 163.885C261.163 163.269 262.44 158.649 265.454 159.263Z" fill="#211715"></path>
<path d="M246.387 97.8481C253.193 100.618 259.608 104.266 265.47 108.699C268.404 110.727 270.772 113.471 272.348 116.673C273.641 120.035 274.168 123.644 273.89 127.236C273.717 132.407 273.22 137.541 272.6 142.673C272.039 147.311 272.067 152.037 271.236 156.632C270.867 158.27 270.102 159.794 269.008 161.068C267.915 162.342 266.526 163.329 264.963 163.941C260.94 165.67 256.509 165.027 252.372 164.091C249.367 163.412 250.639 158.79 253.645 159.469C258.115 160.481 265.658 161.267 266.651 155.138C267.307 151.094 267.302 146.922 267.795 142.811C268.312 138.498 268.737 134.202 268.977 129.864C269.315 126.81 269.211 123.723 268.668 120.699C267.87 117.79 266.135 115.226 263.731 113.406C258.113 108.841 251.837 105.154 245.116 102.47C244.514 102.284 244.005 101.876 243.694 101.328C243.383 100.781 243.291 100.135 243.439 99.522C243.611 98.9105 244.016 98.3914 244.568 98.0773C245.119 97.7632 245.772 97.6795 246.385 97.8445L246.387 97.8481Z" fill="#211715"></path>
<path d="M246.884 120.958C250.987 123.812 252.017 128.287 252.091 132.992C252.166 137.764 251.913 142.533 251.764 147.301C251.569 153.556 251.597 159.819 251.178 166.066C250.984 168.958 251.197 172.494 249.36 174.892C247.6 177.193 245.44 177.676 242.709 177.963C240.088 178.219 237.447 178.21 234.827 177.936C232.102 177.772 229.411 177.243 226.827 176.362C223.702 175.144 223.566 172.146 223.538 169.246C223.506 165.952 223.494 162.656 223.461 159.363C223.43 156.105 223.381 152.847 223.273 149.59C223.344 146.922 222.993 144.261 222.233 141.703C220.635 137.371 214.961 135.944 210.966 134.979C205.787 133.729 200.801 132.104 196.489 128.836C193.881 126.885 191.759 124.358 190.287 121.451C188.816 118.544 188.035 115.337 188.005 112.078C187.885 108.994 192.674 108.999 192.794 112.078C192.805 114.531 193.371 116.949 194.452 119.15C195.532 121.351 197.098 123.278 199.031 124.786C202.457 127.349 206.407 129.124 210.598 129.984C214.866 130.933 219.4 132.141 222.894 134.897C226.774 137.952 227.732 142.622 227.98 147.327C228.295 153.267 228.258 159.232 228.298 165.181C228.308 166.636 228.32 168.091 228.333 169.545C228.251 170.223 228.259 170.907 228.356 171.582C228.491 171.967 228.435 171.822 228.688 171.962C229.786 172.397 230.941 172.67 232.117 172.775C233.332 172.994 234.558 173.149 235.79 173.237C238.094 173.429 240.411 173.41 242.713 173.182C243.467 173.176 244.213 173.021 244.907 172.727C246.022 172.063 245.992 170.777 246.105 169.66C246.653 164.019 246.74 158.349 246.853 152.685C246.961 147.305 247.235 141.928 247.307 136.547C247.333 134.521 247.367 132.479 247.211 130.456C247.198 130.288 247.185 130.121 247.168 129.954C247.119 129.475 247.199 130.1 247.155 129.875C247.037 129.236 246.864 128.609 246.636 128.001C246.218 126.846 245.468 125.839 244.481 125.108C241.967 123.36 244.361 119.203 246.897 120.97L246.884 120.958Z" fill="#211715"></path>
<path d="M240.686 48.933C249.288 55.4094 255.285 64.7584 257.588 75.2826C258.228 78.2914 253.613 79.5771 252.97 76.5575C251.017 67.2281 245.805 58.9011 238.27 53.0718C237.736 52.7372 237.35 52.2117 237.191 51.6024C237.031 50.993 237.109 50.3457 237.41 49.7922C237.733 49.2466 238.258 48.8506 238.872 48.6898C239.485 48.529 240.136 48.6164 240.686 48.933Z" fill="#211715"></path>
<path d="M255.374 100.153C258.037 98.4915 259.144 95.684 259.579 92.704C260.066 89.362 259.495 85.1094 254.639 83.8944C252.894 83.5471 251.082 83.8857 249.579 84.8398C247.998 85.761 246.717 87.1203 245.89 88.7538C245.064 90.3873 244.727 92.2253 244.92 94.046C245.249 98.0002 248.98 101.637 252.91 101.063C253.786 100.935 254.625 100.625 255.374 100.153Z" fill="#F9F6F1"></path>
<path d="M254.166 98.0841C254.715 97.7325 255.201 97.2905 255.603 96.7768C255.388 97.044 255.7 96.6318 255.744 96.5647C255.857 96.393 255.965 96.2176 256.067 96.0387C256.149 95.8961 256.227 95.7499 256.307 95.6025C256.307 95.6025 256.602 94.9279 256.468 95.2658C256.738 94.5567 256.946 93.8254 257.089 93.0802C257.132 92.8701 257.172 92.6596 257.208 92.4487C257.236 92.2858 257.299 91.7058 257.231 92.3481C257.262 92.0461 257.293 91.743 257.309 91.4386C257.332 90.8792 257.32 90.3189 257.272 89.7611C257.238 89.3117 257.272 89.761 257.284 89.8413C257.253 89.688 257.229 89.5346 257.195 89.3812C257.12 89.0445 257.012 88.7258 256.905 88.3974C257.08 88.9367 256.802 88.1985 256.713 88.038C256.623 87.8774 256.137 87.2735 256.491 87.6665C256.295 87.4469 256.088 87.2374 255.871 87.0386C255.593 86.787 256.338 87.307 255.785 86.9751C255.599 86.8637 255.426 86.7439 255.229 86.6408C255.098 86.5701 254.961 86.5006 254.823 86.4407C255.167 86.5905 254.79 86.4407 254.732 86.4191C254.376 86.302 254.014 86.2056 253.646 86.1303C254.182 86.2214 253.425 86.1459 253.227 86.1495C253.03 86.1531 252.832 86.1639 252.636 86.1855C252.467 86.201 252.474 86.201 252.656 86.1855C252.529 86.2082 252.405 86.2346 252.28 86.2657C251.581 86.4309 250.927 86.748 250.365 87.1944C250.337 87.2136 250.005 87.464 250.245 87.2711C250.116 87.3717 249.991 87.4784 249.868 87.585C249.538 87.8712 249.226 88.1774 248.934 88.5017C248.166 89.3581 247.642 90.4057 247.418 91.5345C247.426 91.4949 247.284 92.239 247.337 91.9047C247.389 91.5704 247.296 92.3397 247.3 92.2954C247.273 92.6646 247.265 93.0349 247.277 93.4049C247.283 93.617 247.294 93.8303 247.312 94.0424C247.303 93.937 247.224 93.635 247.323 94.1275C247.406 94.5252 247.513 94.9174 247.644 95.3018C247.884 96.0207 247.541 95.1208 247.738 95.5163C247.847 95.7355 247.962 95.9512 248.087 96.1609C248.232 96.4539 248.424 96.7214 248.655 96.953C248.924 97.2544 249.217 97.5348 249.529 97.7917C249.269 97.5796 249.577 97.8253 249.62 97.8528C249.822 97.9823 250.021 98.1129 250.231 98.2291C250.761 98.517 251.348 98.6843 251.95 98.7192C252.736 98.7443 253.511 98.5199 254.162 98.0781C254.711 97.7573 255.364 97.6677 255.979 97.8289C256.593 97.9901 257.118 98.389 257.439 98.9379C257.759 99.4867 257.849 100.14 257.688 100.755C257.527 101.37 257.128 101.896 256.58 102.217C252.15 104.853 247.001 103.063 244.217 98.99C243.066 97.1594 242.459 95.039 242.467 92.8763C242.476 90.7136 243.098 88.5979 244.263 86.7762C246.635 83.1263 251.088 80.4123 255.518 81.6441C257.38 82.1601 259.027 83.2652 260.21 84.7944C261.394 86.3236 262.051 88.1949 262.085 90.1289C262.381 94.7242 260.512 99.6682 256.577 102.217C256.029 102.538 255.376 102.627 254.761 102.466C254.147 102.305 253.622 101.906 253.301 101.357C252.98 100.808 252.891 100.154 253.052 99.5396C253.213 98.9246 253.612 98.3989 254.16 98.0781L254.166 98.0841Z" fill="#211715"></path>
<path d="M239.974 68.5316V95.2442C239.974 98.3285 235.185 98.3333 235.185 95.2442V68.5316C235.185 65.4473 239.974 65.4425 239.974 68.5316Z" fill="#211715"></path>
<path d="M238.411 99.788C245.775 101.038 253.292 103.914 264.153 105.717C257.459 108.952 244.869 115.148 232.83 121.174C222.369 116.911 219.392 116.168 212.845 113.657C223.798 108.001 238.389 99.7844 238.411 99.788Z" fill="#F9F6F1"></path>
<path d="M239.047 97.4778C247.729 98.9828 256.084 101.938 264.788 103.406C266.781 103.742 267.148 106.922 265.359 107.785C258.282 111.203 251.231 114.686 244.199 118.181C242.085 119.23 239.973 120.281 237.864 121.334C236.757 121.886 235.657 122.452 234.546 122.992C233.979 123.3 233.342 123.458 232.697 123.45C232.052 123.442 231.419 123.269 230.86 122.948C227.557 121.615 224.232 120.342 220.884 119.128C217.989 118.084 215.083 117.07 212.208 115.97C210.437 115.293 209.648 112.615 211.636 111.591C217.309 108.656 222.923 105.609 228.518 102.531C231.401 100.946 234.236 99.1494 237.2 97.7186C239.965 96.3862 242.397 100.518 239.618 101.857C236.653 103.288 233.818 105.084 230.935 106.67C225.339 109.748 219.725 112.794 214.053 115.73L213.481 111.349C220.132 113.894 226.864 116.182 233.465 118.867L231.62 119.106C242.036 113.894 252.453 108.707 262.942 103.649L263.514 108.028C254.81 106.561 246.457 103.606 237.773 102.101C237.163 101.928 236.645 101.522 236.331 100.97C236.018 100.419 235.933 99.7661 236.096 99.1529C236.277 98.5467 236.685 98.0339 237.235 97.7217C237.785 97.4095 238.434 97.3221 239.047 97.4778Z" fill="#211715"></path>
<path d="M219.128 110.887C218.422 105.16 212.433 100.384 204.743 103.698C203.582 107.271 201.564 112.673 200.324 117.188C202.014 118.557 203.476 119.746 203.476 119.746C205.951 122.735 211.414 122.197 214.386 120.387C215.998 119.42 217.3 118.012 218.14 116.329C218.98 114.646 219.323 112.758 219.128 110.887Z" fill="#F9F6F1"></path>
<path d="M205.572 100.841C208.78 99.8176 212.261 100.078 215.282 101.569C217.87 102.946 219.859 105.231 220.866 107.986C223.236 114.217 219.488 121.234 213.387 123.469C209.656 124.837 204.551 124.637 201.783 121.432C201.348 120.975 201.105 120.368 201.105 119.737C201.105 119.106 201.348 118.499 201.783 118.042C202.235 117.598 202.843 117.349 203.476 117.349C204.11 117.349 204.717 117.598 205.169 118.042C205.289 118.175 205.409 118.297 205.528 118.428C205.607 118.517 205.97 118.805 205.598 118.523C205.851 118.704 206.117 118.867 206.394 119.009C206.514 119.071 206.932 119.207 206.496 119.061C206.631 119.106 206.763 119.154 206.899 119.195C207.245 119.299 207.597 119.379 207.953 119.435C207.474 119.359 207.953 119.435 208.081 119.435C208.267 119.442 208.451 119.457 208.637 119.461C208.973 119.461 209.307 119.443 209.644 119.43C209.763 119.43 210.253 119.369 209.786 119.43C209.933 119.411 210.081 119.384 210.227 119.358C210.624 119.285 211.017 119.191 211.405 119.079C211.714 118.989 212.014 118.882 212.315 118.771C211.854 118.941 212.631 118.617 212.76 118.549C213.034 118.398 213.299 118.232 213.554 118.049C214.137 117.644 213.361 118.217 213.681 117.952C213.846 117.815 214.009 117.677 214.167 117.532C214.397 117.322 214.619 117.105 214.831 116.877C214.922 116.78 215.012 116.68 215.101 116.579C215.101 116.579 215.511 116.076 215.288 116.363C215.064 116.651 215.442 116.144 215.444 116.139C215.516 116.035 215.587 115.93 215.654 115.823C215.837 115.537 216.005 115.241 216.156 114.936C216.224 114.801 216.286 114.663 216.348 114.527C216.316 114.598 216.176 115.006 216.31 114.602C216.401 114.322 216.502 114.048 216.578 113.763C216.638 113.54 216.686 113.315 216.733 113.089C216.741 113.045 216.823 112.489 216.77 112.899C216.718 113.296 216.782 112.704 216.787 112.626C216.809 112.095 216.799 111.562 216.754 111.032C216.785 111.57 216.767 111.114 216.715 110.847C216.652 110.521 216.572 110.199 216.475 109.882C216.411 109.671 216.327 109.466 216.257 109.257C216.09 108.747 216.454 109.578 216.272 109.296C216.2 109.184 216.152 109.043 216.091 108.925C215.978 108.703 215.855 108.487 215.725 108.276C215.64 108.137 215.068 107.36 215.485 107.877C215.174 107.486 214.835 107.118 214.469 106.777C214.379 106.694 213.803 106.221 214.069 106.425C214.381 106.665 213.931 106.333 213.902 106.314C213.76 106.22 213.62 106.126 213.474 106.037C213.234 105.888 212.978 105.752 212.722 105.626C212.692 105.612 212.171 105.386 212.533 105.534C212.874 105.675 212.315 105.459 212.245 105.435C211.936 105.329 211.621 105.238 211.302 105.165C211.091 105.117 210.259 105.01 210.853 105.064C210.144 105.007 209.432 105.001 208.723 105.044C208.62 105.044 208.253 105.099 208.75 105.029C208.542 105.06 208.335 105.095 208.129 105.136C207.699 105.222 207.276 105.334 206.856 105.459C206.553 105.543 206.236 105.566 205.924 105.527C205.612 105.488 205.311 105.388 205.037 105.233C204.764 105.077 204.523 104.87 204.33 104.621C204.137 104.373 203.994 104.089 203.911 103.785C203.827 103.482 203.804 103.165 203.843 102.853C203.882 102.54 203.982 102.239 204.137 101.965C204.293 101.691 204.5 101.451 204.748 101.257C204.997 101.064 205.28 100.921 205.584 100.838L205.572 100.841Z" fill="#211715"></path>
<path d="M198.239 84.0322C198.33 83.3923 198.275 83.7542 198.239 84.1269C198.213 84.4408 198.188 84.7548 198.165 85.0687C198.102 85.965 198.054 86.8661 198.012 87.7624C197.922 89.7299 197.856 91.7034 197.903 93.6721C197.911 94.058 197.924 94.4426 197.949 94.8273C197.964 95.0513 197.978 95.9057 197.976 95.2634C197.976 95.8985 198.193 95.2634 197.887 95.2119C198.224 95.2742 198.868 95.9632 199.219 96.2472C201.626 98.1919 203.966 100.219 206.378 102.158C206.684 102.454 206.902 102.827 207.011 103.238C207.119 103.649 207.113 104.082 206.994 104.49C205.498 109.03 203.807 113.507 202.545 118.121C202.443 118.473 202.264 118.797 202.019 119.069C201.775 119.341 201.472 119.554 201.134 119.692C200.795 119.831 200.43 119.891 200.065 119.868C199.7 119.844 199.345 119.739 199.027 119.559C189.098 114 175.222 108.336 175.517 94.85C175.775 88.9186 176.706 83.0357 178.292 77.3148C179.537 71.8609 181.848 66.7076 185.093 62.1521C189.02 56.9996 193.703 51.8579 199.501 48.7964C202.226 47.3585 204.65 51.4937 201.918 52.9352C197.292 55.3772 193.518 59.3111 190.231 63.3192C187.155 67.149 184.884 71.5603 183.552 76.2891C182.134 81.2197 181.141 86.2628 180.584 91.3631C180.242 94.2174 179.971 97.2921 181.089 100.018C182.062 102.131 183.491 104.002 185.273 105.495C189.979 109.766 195.956 112.347 201.444 115.42L197.927 116.858C199.189 112.244 200.88 107.767 202.376 103.227L202.992 105.558C200.412 103.485 197.918 101.306 195.33 99.2428C193.534 97.8157 193.217 96.4221 193.129 94.2233C192.95 90.3984 193.113 86.5652 193.615 82.7692C193.787 82.1578 194.192 81.6386 194.743 81.3245C195.295 81.0104 195.948 80.9267 196.561 81.0917C197.165 81.2737 197.676 81.6813 197.988 82.23C198.3 82.7788 198.389 83.4266 198.237 84.0394L198.239 84.0322Z" fill="#211715"></path>
<path d="M187.146 33.5511C185.582 28.6483 185.547 23.3851 187.045 18.4618C188.544 13.5385 191.505 9.18869 195.535 5.99126C199.507 2.95144 204.197 0.99013 209.15 0.297352C214.103 -0.395427 219.15 0.203819 223.804 2.03703C233.622 6.06795 239.778 15.2418 240.846 25.6761C241.418 30.8541 240.61 36.0914 238.505 40.8558C236.399 45.6202 233.071 49.7419 228.859 52.8022C219.058 59.6526 204.885 58.4471 196.217 50.317C193.962 48.2033 197.354 44.8194 199.603 46.9271C202.815 49.8111 206.809 51.6765 211.081 52.2872C215.352 52.8979 219.709 52.2264 223.599 50.3577C231.659 46.328 236.16 37.6718 236.209 28.8347C236.256 20.3403 232.217 12.0736 224.735 7.78145C221.133 5.79633 217.082 4.76825 212.97 4.79531C208.857 4.82237 204.821 5.90367 201.244 7.93602C197.094 10.2685 193.881 13.9692 192.151 18.4073C190.422 22.8454 190.284 27.7463 191.761 32.2749C192.709 35.2166 188.087 36.4772 187.143 33.5487L187.146 33.5511Z" fill="#211715"></path>
<path d="M191.993 35.7894C191.429 35.8301 192.255 35.6851 191.754 35.817C191.54 35.8721 191.325 35.9176 191.114 35.9847C190.994 36.0242 190.504 36.2579 190.866 36.0734C190.669 36.174 190.472 36.2759 190.284 36.3933C190.198 36.446 189.729 36.7863 190.045 36.5335C189.872 36.6732 189.708 36.8224 189.552 36.9805C189.393 37.1362 189.245 37.3015 189.106 37.4753C189.386 37.1159 189.02 37.6347 188.971 37.715C188.855 37.9045 188.751 38.101 188.66 38.3033C188.85 37.8767 188.618 38.4699 188.59 38.5669C188.526 38.783 188.477 39.0032 188.443 39.226C188.511 38.7539 188.45 39.4165 188.443 39.516C188.443 39.7556 188.454 39.9833 188.467 40.2181C188.496 40.7537 188.386 40.0348 188.517 40.5129C188.624 40.9035 188.832 41.6584 188.902 41.8202C189.23 42.5316 189.659 43.1922 190.175 43.7817C190.761 44.4414 191.465 44.9853 192.252 45.385C193.053 45.8622 193.919 46.2195 194.823 46.4454C195.325 46.5872 195.835 46.7004 196.35 46.7845C196.52 46.8109 196.52 46.8109 196.35 46.7845C196.477 46.8001 196.604 46.8121 196.731 46.8229C197.024 46.8481 197.317 46.86 197.611 46.8672C198.246 46.8672 198.855 47.1197 199.304 47.5692C199.753 48.0186 200.005 48.6281 200.005 49.2637C200.005 49.8993 199.753 50.5089 199.304 50.9583C198.855 51.4077 198.246 51.6602 197.611 51.6602C191.898 51.52 186.126 48.425 184.185 42.8171C183.721 41.5396 183.554 40.173 183.698 38.8213C183.841 37.4695 184.29 36.1682 185.012 35.0165C185.786 33.8538 186.819 32.886 188.029 32.1887C189.24 31.4914 190.594 31.0833 191.988 30.9964C192.622 30.9998 193.229 31.2534 193.678 31.7021C194.126 32.1508 194.379 32.7584 194.383 33.3929C194.368 34.0238 194.111 34.6247 193.665 35.071C193.219 35.5172 192.619 35.7745 191.988 35.7894H191.993Z" fill="#211715"></path>
<path d="M223.484 36.3166C223.514 36.8771 223.669 37.4239 223.936 37.9175C224.203 38.4111 224.576 38.8392 225.029 39.1709C225.671 39.5833 226.449 39.7302 227.197 39.5807C227.708 39.4899 228.19 39.2798 228.605 38.9675C229.019 38.6552 229.355 38.2495 229.583 37.7833C229.914 37.0354 230 36.2018 229.828 35.4022C229.656 34.6025 229.235 33.8781 228.625 33.333C228.031 32.8386 227.272 32.5874 226.501 32.6298C225.729 32.6723 225.002 33.0052 224.466 33.5618C224.108 33.9194 223.835 34.3521 223.665 34.8285C223.495 35.305 223.433 35.8133 223.484 36.3166Z" fill="#211715"></path>
<path d="M208.926 39.2919C208.957 39.8523 209.111 40.3989 209.379 40.8925C209.646 41.386 210.019 41.8142 210.471 42.1461C211.113 42.5594 211.891 42.7067 212.64 42.5571C213.151 42.466 213.633 42.2557 214.047 41.9435C214.462 41.6312 214.797 41.2257 215.025 40.7597C215.356 40.0117 215.442 39.1779 215.27 38.378C215.098 37.5782 214.677 36.8536 214.068 36.3082C213.474 35.8138 212.715 35.5627 211.943 35.6053C211.172 35.648 210.445 35.9813 209.909 36.5383C209.552 36.8958 209.278 37.3282 209.108 37.8044C208.938 38.2806 208.876 38.7887 208.926 39.2919Z" fill="#211715"></path>
<path d="M209.216 23.1922C208.447 25.2374 207.362 27.1491 206 28.8575C204.809 30.2255 203.339 31.3232 201.69 32.0772C201.126 32.3844 200.468 32.4699 199.845 32.3169C199.39 32.1917 198.983 31.9351 198.674 31.5792C198.364 31.2234 198.167 30.784 198.106 30.3163C198.045 29.8485 198.123 29.3731 198.331 28.9497C198.539 28.5263 198.867 28.1737 199.274 27.936C200.084 27.5604 200.853 27.0993 201.565 26.5605L201.086 26.9355C201.778 26.3929 202.398 25.7657 202.934 25.0686L202.56 25.5539C203.43 24.357 204.148 23.0575 204.7 21.6848L204.46 22.2563C204.508 22.1437 204.556 22.0299 204.603 21.9148C204.788 21.3205 205.178 20.8111 205.703 20.4769C205.975 20.3179 206.275 20.2141 206.587 20.1713C206.898 20.1285 207.216 20.1476 207.52 20.2275C207.824 20.3074 208.11 20.4465 208.36 20.6369C208.611 20.8274 208.822 21.0653 208.98 21.3373C209.146 21.6116 209.253 21.9174 209.294 22.2353C209.335 22.5532 209.31 22.8762 209.22 23.1838L209.216 23.1922Z" fill="#211715"></path>
<path d="M208.119 20.4901C210.853 21.928 215.527 23.0484 218.426 22.3234L216.989 25.8439C216.067 24.1951 215.061 21.9028 216.602 20.272C218.38 18.3884 220.912 19.7148 222.948 20.272C227.678 21.5051 232.577 21.9628 237.453 21.6273C240.532 21.4559 240.523 26.2489 237.453 26.4203C234.209 26.6131 230.955 26.5007 227.732 26.0847C226.214 25.8846 224.707 25.6258 223.215 25.2759C222.441 25.0962 221.674 24.8965 220.912 24.6768C220.485 24.557 220.061 24.4192 219.639 24.2814C219.469 24.2275 219.299 24.1711 219.13 24.1124C218.794 23.9926 218.791 23.9926 219.118 24.1124L220.174 23.4965L219.995 23.6583L220.611 22.6014C220.85 22.0287 220.402 22.079 220.675 22.5595C220.835 22.8423 220.972 23.1382 221.132 23.4222C221.312 23.7408 221.417 24.096 221.44 24.4612C221.463 24.8263 221.404 25.192 221.265 25.5308C221.127 25.8695 220.914 26.1726 220.642 26.4171C220.37 26.6616 220.046 26.8413 219.695 26.9427C217.357 27.387 214.952 27.3462 212.631 26.8229C210.217 26.4611 207.876 25.7194 205.694 24.6253C202.966 23.1874 205.384 19.0474 208.111 20.4865L208.119 20.4901Z" fill="#211715"></path>
</g>
<defs>
<clipPath id="clip0_2_431">
<rect width="367" height="326" fill="white" transform="matrix(-1 0 0 1 367 0)"></rect>
</clipPath>
</defs>
</svg>
