<svg width="389" height="73" viewBox="0 0 389 73" fill="none" xmlns="http://www.w3.org/2000/svg">
<path d="M31 27H25V60H31V27Z" fill="#6C4B3A"></path>
<path d="M43 15.5C43 23.5106 36.7296 30 29 30C21.2704 30 15 23.5106 15 15.5C15 7.48944 21.2704 1 29 1C36.7296 1 43 7.48944 43 15.5Z" fill="#D9D9D9" stroke="#676767" stroke-width="2"></path>
<path d="M39 15.5C39 21.303 34.295 26 28.5 26C22.705 26 18 21.303 18 15.5C18 9.69705 22.705 5 28.5 5C34.295 5 39 9.69705 39 15.5Z" fill="white" stroke="#676767" stroke-width="2"></path>
<path d="M28.5 20C30.433 20 32 17.9853 32 15.5C32 13.0147 30.433 11 28.5 11C26.567 11 25 13.0147 25 15.5C25 17.9853 26.567 20 28.5 20Z" fill="black"></path>
<path d="M9.61224 60C8.30611 60 7.12247 59.8731 6.06122 59.6192C5.04083 59.4075 4.14284 59.048 3.36735 58.5402C2.59185 58.0324 1.93876 57.3764 1.40816 56.5726C0.918367 55.7689 0.551021 54.7955 0.306123 53.653C0.102039 52.5106 0 51.1777 0 49.6544V17.9196C0 17.2849 0.0408147 16.756 0.122449 16.3329C0.244898 15.9097 0.510206 15.5924 0.918367 15.3808C1.32651 15.1269 1.89796 15 2.63265 15C3.449 15 4.04082 15.1058 4.40816 15.3173C4.81631 15.5289 5.08163 15.8463 5.20408 16.2694C5.32653 16.6925 5.38775 17.2003 5.38775 17.7927V49.591C5.38775 50.4374 5.4694 51.1777 5.63265 51.8124C5.7959 52.405 6.0408 52.9127 6.36735 53.3357C6.73469 53.7586 7.18369 54.0552 7.71429 54.2243C8.24488 54.3933 8.87755 54.4781 9.61224 54.4781C10.102 54.4781 10.5102 54.5416 10.8367 54.6685C11.2041 54.7955 11.4898 55.0494 11.6939 55.4302C11.898 55.811 12 56.4036 12 57.2073C12 58.0538 11.898 58.6885 11.6939 59.1114C11.4898 59.4922 11.2041 59.7248 10.8367 59.8096C10.5102 59.9365 10.102 60 9.61224 60Z" fill="black"></path>
<path d="M50.7013 60.2903C49.9052 60.2903 49.2981 60.1613 48.8795 59.9032C48.5026 59.688 48.2513 59.3654 48.1256 58.9355C48.0417 58.5055 48 57.9894 48 57.3871V31.7742C48 31.2151 48.0628 30.7419 48.1885 30.3548C48.3141 29.9677 48.5654 29.6667 48.9423 29.4516C49.361 29.2365 49.9681 29.129 50.7641 29.129C51.3923 29.129 51.8738 29.2151 52.209 29.3871C52.5859 29.5161 52.8372 29.7097 52.9629 29.9677C53.1302 30.2258 53.2348 30.5054 53.277 30.8065C53.3187 31.1075 53.3398 31.3871 53.3398 31.6452L53.2141 34.6129C53.6328 33.8817 54.1565 33.1935 54.7847 32.5484C55.4129 31.8602 56.1456 31.2581 56.9834 30.7419C57.8207 30.1828 58.7213 29.7527 59.6847 29.4516C60.6898 29.1506 61.7578 29 62.8886 29C64.731 29 66.4272 29.3441 67.9771 30.0323C69.5265 30.6774 70.8457 31.6452 71.9348 32.9355C73.0656 34.1828 73.924 35.6882 74.5105 37.4516C75.1387 39.2151 75.4528 41.2151 75.4528 43.4516V57.4516C75.4528 58.0539 75.3899 58.5701 75.2643 59C75.1804 59.4299 74.9291 59.7525 74.5105 59.9677C74.1335 60.183 73.547 60.2903 72.7515 60.2903C71.9137 60.2903 71.2855 60.1613 70.8668 59.9032C70.4899 59.688 70.2386 59.3654 70.113 58.9355C69.9873 58.5055 69.9245 57.9894 69.9245 57.3871V43.3871C69.9245 41.5806 69.631 40.0107 69.045 38.6774C68.4585 37.3441 67.579 36.3118 66.4065 35.5806C65.2336 34.8065 63.747 34.4194 61.9463 34.4194C60.229 34.4194 58.7213 34.8065 57.4231 35.5806C56.1667 36.3118 55.1822 37.3441 54.4706 38.6774C53.8001 40.0107 53.4654 41.5806 53.4654 43.3871V57.4516C53.4654 58.0539 53.4026 58.5701 53.277 59C53.1513 59.4299 52.8789 59.7525 52.4603 59.9677C52.0834 60.183 51.4969 60.2903 50.7013 60.2903ZM95.7214 73C94.2554 73 92.8522 72.8281 91.5124 72.4839C90.172 72.1396 88.9995 71.688 87.9944 71.129C86.9893 70.5701 86.1932 69.9677 85.6072 69.3226C85.0207 68.6774 84.7277 68.0751 84.7277 67.5161C84.7277 67.0862 84.7905 66.7203 84.9162 66.4194C85.0418 66.1613 85.2303 65.8815 85.4815 65.5806C85.9002 65.1507 86.2354 64.8493 86.4867 64.6774C86.738 64.5055 87.0727 64.4194 87.4918 64.4194C87.9105 64.4194 88.3291 64.5912 88.7482 64.9355C89.1669 65.3226 89.6694 65.7314 90.2559 66.1613C90.8842 66.6346 91.638 67.0428 92.5175 67.3871C93.4387 67.7742 94.5695 67.9677 95.9098 67.9677C97.2919 67.9677 98.5272 67.7525 99.6163 67.3226C100.705 66.8926 101.647 66.2475 102.443 65.3871C103.239 64.5267 103.846 63.4733 104.265 62.2258C104.684 61.0217 104.893 59.6452 104.893 58.0968L104.768 31.2581C104.809 30.4409 105.039 29.8602 105.459 29.5161C105.919 29.172 106.631 29 107.595 29C108.39 29 108.955 29.129 109.291 29.3871C109.668 29.6022 109.898 29.9247 109.982 30.3548C110.107 30.7419 110.17 31.2365 110.17 31.8387V58.5484C110.17 60.8281 109.814 62.8493 109.102 64.6129C108.39 66.4194 107.385 67.9461 106.087 69.1935C104.788 70.441 103.26 71.3871 101.501 72.0323C99.7419 72.6774 97.8151 73 95.7214 73ZM95.5329 59.6452C93.5226 59.6452 91.6586 59.2797 89.9418 58.5484C88.2663 57.7742 86.7797 56.6991 85.4815 55.3226C84.2251 53.9461 83.2406 52.3332 82.529 50.4839C81.8585 48.6346 81.5238 46.6129 81.5238 44.4194C81.5238 42.2258 81.8585 40.2043 82.529 38.3548C83.2406 36.5054 84.2251 34.8925 85.4815 33.5161C86.738 32.1398 88.2035 31.086 89.879 30.3548C91.5958 29.5806 93.4598 29.1935 95.4701 29.1935C97.3125 29.1935 98.9881 29.5591 100.496 30.2903C102.003 31.0215 103.28 32.0753 104.328 33.4516C105.416 34.7849 106.233 36.3764 106.778 38.2258C107.322 40.0753 107.595 42.1398 107.595 44.4194C107.595 47.5161 107.113 50.2041 106.15 52.4839C105.186 54.7636 103.804 56.5267 102.003 57.7742C100.202 59.0217 98.0457 59.6452 95.5329 59.6452ZM95.847 54.3548C97.5221 54.3548 99.0298 53.9249 100.37 53.0645C101.71 52.2041 102.778 51.0217 103.574 49.5161C104.37 48.0106 104.768 46.2688 104.768 44.2903C104.768 42.3548 104.37 40.6559 103.574 39.1935C102.778 37.6882 101.689 36.5269 100.307 35.7097C98.9669 34.8925 97.4381 34.4839 95.7214 34.4839C94.0041 34.4839 92.4753 34.8925 91.1354 35.7097C89.7951 36.5269 88.7482 37.6882 87.9944 39.1935C87.2822 40.6559 86.9264 42.3764 86.9264 44.3548C86.9264 46.3333 87.3034 48.0751 88.0572 49.5806C88.8111 51.0428 89.8579 52.2041 91.1983 53.0645C92.5381 53.9249 94.088 54.3548 95.847 54.3548ZM130.488 60.4194C128.645 60.4194 126.928 60.0751 125.337 59.3871C123.787 58.6991 122.426 57.7313 121.254 56.4839C120.081 55.2364 119.159 53.7314 118.49 51.9677C117.861 50.2041 117.547 48.2041 117.547 45.9677V31.9677C117.547 31.3656 117.61 30.8494 117.736 30.4194C117.861 29.9893 118.113 29.6667 118.49 29.4516C118.908 29.1936 119.515 29.0645 120.311 29.0645C121.107 29.0645 121.693 29.1936 122.07 29.4516C122.489 29.7097 122.761 30.0538 122.887 30.4839C123.013 30.914 123.075 31.4301 123.075 32.0323V46.0323C123.075 47.7959 123.368 49.3654 123.955 50.7419C124.541 52.0751 125.42 53.1074 126.593 53.8387C127.808 54.5701 129.274 54.9355 130.991 54.9355C132.75 54.9355 134.258 54.5701 135.514 53.8387C136.812 53.1074 137.796 52.0751 138.467 50.7419C139.178 49.3654 139.535 47.7959 139.535 46.0323V31.9677C139.535 31.3656 139.597 30.8494 139.723 30.4194C139.849 29.9893 140.1 29.6667 140.477 29.4516C140.896 29.1936 141.503 29.0645 142.299 29.0645C143.094 29.0645 143.681 29.1936 144.058 29.4516C144.476 29.7097 144.728 30.0538 144.812 30.4839C144.937 30.914 145 31.4301 145 32.0323V57.6452C145 58.1613 144.937 58.6346 144.812 59.0645C144.728 59.4516 144.476 59.7525 144.058 59.9677C143.681 60.183 143.094 60.2903 142.299 60.2903C141.712 60.2903 141.231 60.2258 140.854 60.0968C140.519 59.9677 140.267 59.7959 140.1 59.5806C139.932 59.3654 139.806 59.129 139.723 58.871C139.681 58.5701 139.66 58.2686 139.66 57.9677L139.912 55.1936C139.492 55.7097 138.99 56.2686 138.404 56.871C137.817 57.4733 137.126 58.0539 136.331 58.6129C135.577 59.129 134.718 59.559 133.755 59.9032C132.792 60.2475 131.703 60.4194 130.488 60.4194Z" fill="black"></path>
<path d="M156.826 60.3885C155.988 60.3885 155.36 60.2605 154.942 60.0044C154.565 59.7909 154.314 59.4708 154.188 59.0442C154.063 58.5745 154 58.0414 154 57.4437V18.585C154 17.4753 154.209 16.7285 154.628 16.3444C155.088 15.9176 155.884 15.7042 157.014 15.7042H182.258C182.844 15.7042 183.347 15.7682 183.766 15.8962C184.184 16.0243 184.498 16.3017 184.708 16.7285C184.917 17.1552 185.022 17.7954 185.022 18.649C185.022 19.5026 184.896 20.1428 184.645 20.5695C184.435 20.9536 184.121 21.2097 183.703 21.3377C183.284 21.4658 182.781 21.5298 182.196 21.5298H159.652V34.7815H175.351C175.937 34.7815 176.418 34.8455 176.795 34.9735C177.214 35.1015 177.528 35.3576 177.737 35.7417C177.946 36.1258 178.051 36.7233 178.051 37.5342C178.051 38.3024 177.946 38.8786 177.737 39.2627C177.528 39.6468 177.214 39.9029 176.795 40.0309C176.376 40.1163 175.853 40.1589 175.225 40.1589H159.652V54.6269H182.258C182.844 54.6269 183.347 54.6909 183.766 54.819C184.184 54.947 184.498 55.2246 184.708 55.6512C184.917 56.0353 185.022 56.654 185.022 57.5077C185.022 58.3615 184.896 59.0016 184.645 59.4283C184.435 59.8124 184.121 60.0684 183.703 60.1965C183.284 60.3245 182.781 60.3885 182.196 60.3885H156.826ZM215.732 29.8521C216.318 30.3216 216.716 30.7697 216.925 31.1965C217.134 31.5806 217.155 32.0287 216.988 32.5408C216.82 33.0103 216.443 33.5865 215.858 34.2693L196.014 59.1722C195.469 59.8124 194.988 60.239 194.57 60.4525C194.151 60.7086 193.732 60.7726 193.314 60.6446C192.937 60.5166 192.476 60.239 191.932 59.8124C191.388 59.3427 191.011 58.9161 190.802 58.532C190.634 58.1054 190.634 57.6573 190.802 57.1876C191.011 56.718 191.388 56.1419 191.932 55.4592L211.776 30.5563C212.613 29.6174 213.283 29.1052 213.785 29.0199C214.288 28.8918 214.936 29.1693 215.732 29.8521ZM192.058 29.8521C192.602 29.4253 193.062 29.1479 193.439 29.0199C193.858 28.8918 194.256 28.9559 194.632 29.2119C195.009 29.468 195.449 29.9161 195.951 30.5563L215.795 55.4592C216.381 56.1419 216.757 56.718 216.925 57.1876C217.134 57.6573 217.134 58.1054 216.925 58.532C216.757 58.9161 216.381 59.3427 215.795 59.8124C215.292 60.239 214.832 60.5166 214.413 60.6446C214.036 60.7726 213.639 60.7086 213.22 60.4525C212.801 60.239 212.32 59.8124 211.776 59.1722L191.932 34.2693C191.346 33.5865 190.969 33.0103 190.802 32.5408C190.634 32.0287 190.634 31.5806 190.802 31.1965C191.011 30.7697 191.43 30.3216 192.058 29.8521ZM238.724 60.1325C236.673 60.1325 234.81 59.7483 233.135 58.9801C231.461 58.2119 230.037 57.1451 228.865 55.7793C227.693 54.3709 226.772 52.7279 226.102 50.8499C225.474 48.9719 225.181 46.9022 225.223 44.6402C225.223 42.4209 225.537 40.3723 226.165 38.4945C226.793 36.6166 227.693 34.9949 228.865 33.6291C230.079 32.2208 231.503 31.1538 233.135 30.4283C234.81 29.66 236.673 29.2759 238.724 29.2759C240.65 29.2759 242.45 29.66 244.125 30.4283C245.841 31.1965 247.327 32.2848 248.583 33.6932C249.881 35.0589 250.886 36.702 251.598 38.6225C252.351 40.543 252.728 42.613 252.728 44.8322C252.728 47.0515 252.351 49.0999 251.598 50.9779C250.886 52.8559 249.881 54.4774 248.583 55.8433C247.327 57.2091 245.841 58.2759 244.125 59.0442C242.45 59.7699 240.65 60.1325 238.724 60.1325ZM225.663 73C224.867 73 224.26 72.872 223.842 72.6159C223.465 72.4023 223.192 72.0822 223.025 71.6556C222.9 71.229 222.837 70.7169 222.837 70.1192V32.2848C222.837 31.6873 222.9 31.1751 223.025 30.7483C223.151 30.3216 223.402 30.0015 223.779 29.7881C224.197 29.532 224.804 29.404 225.6 29.404C226.521 29.404 227.19 29.5534 227.609 29.8521C228.07 30.1508 228.342 30.6843 228.426 31.4525V70.0552C228.467 70.6529 228.426 71.165 228.3 71.5916C228.175 72.0612 227.902 72.4023 227.484 72.6159C227.107 72.872 226.5 73 225.663 73ZM237.908 54.883C239.666 54.883 241.257 54.4564 242.681 53.6026C244.104 52.7064 245.213 51.4901 246.009 49.9536C246.846 48.4172 247.265 46.6674 247.265 44.7042C247.265 42.6983 246.846 40.9485 246.009 39.4547C245.213 37.961 244.104 36.8087 242.681 35.9978C241.299 35.1442 239.708 34.7174 237.908 34.7174C236.15 34.7174 234.559 35.1442 233.135 35.9978C231.754 36.8514 230.644 38.025 229.807 39.5188C229.011 41.0125 228.614 42.741 228.614 44.7042C228.614 46.6674 229.011 48.4172 229.807 49.9536C230.644 51.4901 231.754 52.7064 233.135 53.6026C234.559 54.4564 236.15 54.883 237.908 54.883ZM268.943 60.3885C267.603 60.3885 266.389 60.2605 265.301 60.0044C264.254 59.7909 263.333 59.4283 262.538 58.9161C261.742 58.404 261.073 57.7423 260.528 56.9316C260.026 56.1208 259.649 55.1391 259.398 53.9868C259.189 52.8344 259.084 51.4901 259.084 49.9536V17.9448C259.084 17.3046 259.126 16.7711 259.21 16.3444C259.335 15.9176 259.607 15.5975 260.026 15.3841C260.445 15.128 261.031 15 261.784 15C262.621 15 263.229 15.1067 263.606 15.3201C264.024 15.5335 264.296 15.8536 264.422 16.2804C264.548 16.7071 264.61 17.2193 264.61 17.8168V49.8896C264.61 50.7434 264.694 51.4901 264.861 52.1302C265.029 52.7279 265.28 53.24 265.615 53.6667C265.992 54.0933 266.452 54.3924 266.997 54.5629C267.541 54.7335 268.19 54.819 268.943 54.819C269.446 54.819 269.864 54.883 270.199 55.011C270.576 55.1391 270.869 55.3951 271.078 55.7793C271.287 56.1634 271.392 56.761 271.392 57.5717C271.392 58.4255 271.287 59.0657 271.078 59.4923C270.869 59.8764 270.576 60.1109 270.199 60.1965C269.864 60.3245 269.446 60.3885 268.943 60.3885ZM290.812 60.7726C288.76 60.7726 286.793 60.367 284.909 59.5563C283.067 58.7456 281.413 57.6358 279.948 56.2274C278.483 54.7765 277.331 53.0905 276.495 51.17C275.657 49.2495 275.239 47.1582 275.239 44.8962C275.239 42.677 275.636 40.6284 276.432 38.7506C277.227 36.83 278.336 35.1442 279.76 33.6932C281.183 32.2421 282.816 31.1111 284.658 30.3002C286.542 29.4466 288.551 29.0199 290.687 29.0199C293.575 29.0199 296.17 29.7241 298.473 31.1325C300.817 32.4982 302.681 34.376 304.062 36.766C305.444 39.156 306.135 41.8448 306.135 44.8322C306.135 47.1795 305.716 49.335 304.879 51.298C304.041 53.2185 302.911 54.883 301.488 56.2914C300.064 57.6998 298.431 58.8096 296.589 59.6203C294.747 60.3885 292.822 60.7726 290.812 60.7726ZM290.687 55.2031C292.445 55.2031 294.078 54.755 295.585 53.8587C297.092 52.9625 298.306 51.7246 299.227 50.1457C300.148 48.5668 300.608 46.7741 300.608 44.7682C300.608 42.7623 300.169 40.9912 299.29 39.4547C298.452 37.9183 297.28 36.7233 295.773 35.8698C294.266 35.0162 292.549 34.5894 290.624 34.5894C288.782 34.5894 287.107 35.0375 285.6 35.9338C284.135 36.83 282.941 38.0464 282.021 39.5828C281.141 41.1192 280.702 42.869 280.702 44.8322C280.702 46.8808 281.162 48.6948 282.083 50.2737C283.004 51.8102 284.219 53.0265 285.726 53.9227C287.274 54.7765 288.928 55.2031 290.687 55.2031ZM314.962 60.3885C314.166 60.3885 313.559 60.2605 313.141 60.0044C312.764 59.7909 312.513 59.4708 312.387 59.0442C312.303 58.5745 312.262 58.0414 312.262 57.4437V32.2208C312.262 31.5806 312.324 31.0471 312.45 30.6203C312.576 30.1935 312.827 29.8948 313.204 29.7241C313.58 29.5107 314.187 29.404 315.025 29.404C315.778 29.404 316.343 29.5107 316.72 29.7241C317.139 29.8948 317.411 30.1722 317.536 30.5563C317.704 30.8977 317.788 31.3032 317.788 31.7726L317.536 33.6932C317.829 33.1384 318.164 32.5835 318.541 32.0287C318.96 31.4739 319.462 30.9831 320.048 30.5563C320.676 30.0868 321.409 29.7027 322.246 29.404C323.125 29.1052 324.193 28.9558 325.449 28.9558C326.077 28.9558 326.663 29.0199 327.207 29.1479C327.793 29.2333 328.338 29.3826 328.84 29.596C329.384 29.8094 329.845 30.0655 330.221 30.3642C330.598 30.6203 330.891 30.919 331.101 31.2605C331.352 31.5592 331.477 31.922 331.477 32.3488C331.477 33.2877 331.184 34.0986 330.598 34.7815C330.012 35.4216 329.405 35.7417 328.777 35.7417C328.233 35.7417 327.835 35.6777 327.584 35.5497C327.333 35.379 327.082 35.2082 326.83 35.0375C326.621 34.8668 326.307 34.7174 325.888 34.5894C325.469 34.4187 324.8 34.3333 323.879 34.3333C323.251 34.3333 322.581 34.4614 321.869 34.7174C321.199 34.9735 320.551 35.3576 319.923 35.8698C319.295 36.3392 318.771 36.9581 318.353 37.7263C317.976 38.4945 317.788 39.3907 317.788 40.415V57.5717C317.788 58.1694 317.725 58.6816 317.599 59.1082C317.474 59.5348 317.201 59.8549 316.783 60.0684C316.406 60.282 315.799 60.3885 314.962 60.3885ZM350.126 60.7086C347.615 60.7086 345.375 60.282 343.407 59.4283C341.439 58.5745 339.765 57.4222 338.384 55.9713C337.044 54.4774 336.018 52.7704 335.306 50.8499C334.595 48.9294 334.239 46.8594 334.239 44.6402C334.239 41.6954 334.909 39.0706 336.248 36.766C337.588 34.4614 339.43 32.6475 341.775 31.3245C344.161 29.9588 346.882 29.2759 349.938 29.2759C352.031 29.2759 353.894 29.6174 355.527 30.3002C357.201 30.9404 358.625 31.8153 359.797 32.9249C360.969 34.0346 361.869 35.2722 362.497 36.638C363.125 38.0037 363.439 39.3694 363.439 40.7351C363.439 42.9117 362.937 44.4481 361.932 45.3444C360.927 46.198 359.692 46.6247 358.227 46.6247H340.079C340.037 48.5027 340.519 50.1242 341.523 51.4901C342.57 52.8129 343.867 53.8372 345.417 54.5629C347.007 55.2886 348.598 55.6512 350.189 55.6512C351.361 55.6512 352.366 55.5872 353.204 55.4592C354.04 55.3311 354.773 55.1606 355.401 54.947C356.029 54.7335 356.573 54.5204 357.034 54.3068C357.494 54.0933 357.892 53.8802 358.227 53.6667C358.604 53.4531 358.96 53.3041 359.295 53.2185C359.672 53.133 360.027 53.176 360.362 53.3466C360.739 53.4746 361.032 53.7522 361.241 54.1788C361.493 54.5204 361.66 54.8405 361.744 55.1391C361.827 55.4377 361.869 55.7577 361.869 56.0993C361.869 56.697 361.367 57.3582 360.362 58.0839C359.358 58.8096 357.955 59.4283 356.155 59.9404C354.397 60.4525 352.387 60.7086 350.126 60.7086ZM340.079 42.8477H355.841C356.636 42.8477 357.222 42.741 357.599 42.5276C358.018 42.3142 358.227 41.738 358.227 40.7991C358.227 39.6041 357.871 38.5371 357.16 37.5982C356.448 36.6166 355.464 35.8271 354.208 35.2296C352.994 34.6321 351.591 34.3333 350.001 34.3333C348.159 34.3333 346.463 34.7174 344.914 35.4857C343.407 36.2112 342.214 37.2141 341.335 38.4945C340.456 39.7748 340.037 41.2259 340.079 42.8477ZM372.484 60.3885C371.689 60.3885 371.082 60.2605 370.663 60.0044C370.287 59.7909 370.035 59.4708 369.91 59.0442C369.826 58.5745 369.784 58.0414 369.784 57.4437V32.2208C369.784 31.5806 369.847 31.0471 369.973 30.6203C370.098 30.1935 370.349 29.8948 370.726 29.7241C371.103 29.5107 371.71 29.404 372.547 29.404C373.301 29.404 373.866 29.5107 374.243 29.7241C374.661 29.8948 374.934 30.1722 375.059 30.5563C375.226 30.8977 375.31 31.3032 375.31 31.7726L375.059 33.6932C375.352 33.1384 375.687 32.5835 376.064 32.0287C376.482 31.4739 376.985 30.9831 377.571 30.5563C378.199 30.0868 378.931 29.7027 379.769 29.404C380.648 29.1052 381.716 28.9558 382.972 28.9558C383.6 28.9558 384.185 29.0199 384.73 29.1479C385.316 29.2333 385.86 29.3826 386.363 29.596C386.907 29.8094 387.367 30.0655 387.744 30.3642C388.121 30.6203 388.414 30.919 388.623 31.2605C388.874 31.5592 389 31.922 389 32.3488C389 33.2877 388.707 34.0986 388.121 34.7815C387.535 35.4216 386.928 35.7417 386.3 35.7417C385.755 35.7417 385.358 35.6777 385.107 35.5497C384.855 35.379 384.604 35.2082 384.353 35.0375C384.144 34.8668 383.83 34.7174 383.411 34.5894C382.992 34.4187 382.322 34.3333 381.402 34.3333C380.774 34.3333 380.104 34.4614 379.392 34.7174C378.722 34.9735 378.073 35.3576 377.445 35.8698C376.817 36.3392 376.294 36.9581 375.876 37.7263C375.499 38.4945 375.31 39.3907 375.31 40.415V57.5717C375.31 58.1694 375.248 58.6816 375.122 59.1082C374.996 59.5348 374.724 59.8549 374.306 60.0684C373.929 60.282 373.321 60.3885 372.484 60.3885Z" fill="black"></path>
</svg>
