<svg width="367" height="326" fill="none" xmlns="http://www.w3.org/2000/svg"><g clip-path="url('#clip0_2_431')"><path d="M2.523 228.255c.02-14.32.092-43.628.092-54.041 0 0 0-.146-.007-.428 64.534-37.157 161.707-93.365 205.841-118.931C245.82 76.49 321.031 119.985 364.543 145c0 12.148-.088 48.139-.081 58.817-39.69 23-143.624 83.126-207.521 119.896-45.359-26.096-119.524-68.991-154.424-89.207v-.55c0-1.394.002-3.344.006-5.701Z" fill="#F9F6F1"/><path d="M209.309 55.35c37.519 21.724 111.515 64.515 154.764 89.381-32.773 18.996-151.275 87.557-206.206 119.087-40.11-23.006-127.942-73.786-155.252-89.608 0 0 0-.146-.007-.428 64.534-37.156 161.707-93.365 205.841-118.93l.86.498Z" fill="#EDD351"/><path d="M.128 228.255c.014-9.666.032-19.332.055-28.998.017-8.485.216-16.992.03-25.475a2.399 2.399 0 0 1 1.185-2.068 58391.57 58391.57 0 0 0 85.445-49.295 125336.085 125336.085 0 0 0 120.398-69.637 2.416 2.416 0 0 1 2.417 0 66631.252 66631.252 0 0 0 56.912 32.925 84698.004 84698.004 0 0 0 66.689 38.512 31751.522 31751.522 0 0 0 32.491 18.713 2.419 2.419 0 0 1 1.185 2.068c0 13.841-.02 27.682-.062 41.522-.006 3.416-.011 6.833-.015 10.25a46.41 46.41 0 0 1-.047 7.363c-.276 1.634-2.063 2.284-3.353 3.034l-3.283 1.9-7.222 4.181a49234.57 49234.57 0 0 1-36.335 21.033 115440.365 115440.365 0 0 1-137.903 79.659c-6.765 3.898-13.434 8.156-20.372 11.732-2.046 1.055-3.968-.67-5.721-1.677l-5.028-2.893-10.584-6.098a40226.016 40226.016 0 0 1-47.13-27.2 73804.68 73804.68 0 0 1-86-49.746c-1.367-.792-3.431-1.518-3.712-3.242a41.055 41.055 0 0 1-.037-6.569c0-3.083 4.789-3.089 4.789 0v6.251l-1.186-2.069a70056.148 70056.148 0 0 0 54.734 31.672c22.11 12.781 44.224 25.554 66.341 38.319 11.114 6.411 22.23 12.816 33.35 19.215h-2.418a50261.094 50261.094 0 0 0 87.215-50.305c28.701-16.58 57.398-33.171 86.09-49.775 11.402-6.599 22.802-13.2 34.201-19.805l-1.186 2.069c-.009-15.953.049-31.905.072-47.859.006-3.652.009-7.304.01-10.957l1.186 2.07a31366.091 31366.091 0 0 1-61.301-35.336c-21.818-12.606-43.636-25.22-65.454-37.842a68732.336 68732.336 0 0 1-29.333-16.976h2.417a91189.388 91189.388 0 0 1-70.88 41.016c-29.591 17.112-59.19 34.211-88.795 51.298a60422.207 60422.207 0 0 1-46.168 26.617L5 173.782c.186 8.483-.013 16.99-.03 25.475l-.055 28.998c-.004 3.084-4.793 3.089-4.788 0Z" fill="#211715"/><path d="M159.785 263.657c0 16.565-.029 33.13-.087 49.694-.005 3.355-.009 6.706-.011 10.052 0 3.085-4.79 3.089-4.79 0 0-16.176.06-32.352.087-48.529.006-3.741.01-7.482.011-11.223 0-3.083 4.79-3.089 4.79 0v.006Z" fill="#211715"/><path d="M362.892 148.173a33564.14 33564.14 0 0 1-29.006 16.802 63532.742 63532.742 0 0 1-40.807 23.606 76820.174 76820.174 0 0 1-91.934 53.093 32095.62 32095.62 0 0 1-38.589 22.211l-3.958 2.277c-2.677 1.536-5.093-2.603-2.416-4.139a22202.875 22202.875 0 0 0 37.291-21.449 57278.685 57278.685 0 0 0 45.074-26.002 165517.333 165517.333 0 0 0 88.411-51.123 66675.386 66675.386 0 0 0 30.795-17.836l2.722-1.583c2.672-1.549 5.086 2.591 2.417 4.139v.004ZM157.363 281.779c10.728-6.157 21.45-12.326 32.165-18.506a49154.53 49154.53 0 0 0 39.205-22.618c13.476-7.78 26.949-15.565 40.42-23.356a63705.049 63705.049 0 0 0 36.479-21.101c8.912-5.159 17.825-10.319 26.736-15.481l2.377-1.378c2.672-1.548 5.086 2.592 2.417 4.139-8.388 4.862-16.778 9.721-25.17 14.577a142169.85 142169.85 0 0 1-35.587 20.588 107365.44 107365.44 0 0 1-40.21 23.236 56441.56 56441.56 0 0 1-39.676 22.896 21211.19 21211.19 0 0 1-33.311 19.172l-3.428 1.968c-2.678 1.537-5.093-2.603-2.417-4.139v.003ZM170.506 293.617a6822.512 6822.512 0 0 0 31.13-17.974c2.672-1.549 5.086 2.592 2.417 4.139-10.366 6.008-20.742 12-31.129 17.974-2.679 1.537-5.094-2.603-2.418-4.139Z" fill="#211715"/><path d="M68.368 279.333c5.529 3.178 23.46 13.546 31.616 18.244 7.869-4.523 21.827-12.574 32.25-18.593-9.849-5.67-20.682-11.913-31.64-18.244a18448.752 18448.752 0 0 1-32.226 18.593Z" fill="#9CC2D3"/><path d="M132.234 281.381h-.012l1.208-.327a12949.233 12949.233 0 0 1-30.068 17.344 9.619 9.619 0 0 1-3.06 1.533c-1.197.162-2.309-.735-3.3-1.306a5380.847 5380.847 0 0 1-5.663-3.268l-12.873-7.429c-3.768-2.174-7.536-4.348-11.306-6.521a2.411 2.411 0 0 1-1.165-2.069 2.424 2.424 0 0 1 1.165-2.07 10362.394 10362.394 0 0 0 32.225-18.593c2.675-1.545 5.088 2.595 2.417 4.139a24064.664 24064.664 0 0 1-32.225 18.593v-4.143a10235.256 10235.256 0 0 1 31.608 18.244h-2.416c5.268-3.031 10.537-6.066 15.805-9.107l8.86-5.11 4.396-2.54c1.23-.711 2.949-2.168 4.402-2.168 3.082 0 3.087 4.793 0 4.793l.002.005Z" fill="#211715"/><path d="M23.605 213.472a31403.177 31403.177 0 0 0 44.217 25.58 60277.783 60277.783 0 0 0 59.505 34.341 28508.045 28508.045 0 0 0 30.796 17.716c2.674 1.532.264 5.675-2.418 4.138a14199.073 14199.073 0 0 1-56.818-32.726 59178.694 59178.694 0 0 1-56.21-32.472c-7.164-4.145-14.326-8.292-21.489-12.44-2.666-1.545-.257-5.689 2.418-4.138l-.001.001ZM156.396 265.736a20396.138 20396.138 0 0 1-62.362-35.914A77793.17 77793.17 0 0 1 1.41 176.28c-2.666-1.546-.257-5.69 2.418-4.139a47624.775 47624.775 0 0 0 53.09 30.709 71300.492 71300.492 0 0 0 69.802 40.288 25777.214 25777.214 0 0 0 32.096 18.46c2.673 1.533.263 5.677-2.419 4.138Z" fill="#211715"/><path d="M53.011 140.41c.016-10.691.07-32.571.07-40.348 0 0 0-.109-.006-.318 48.176-27.741 120.724-69.704 153.671-88.79 27.897 16.155 84.05 48.627 116.534 67.303 0 9.068-.067 35.936-.061 43.908-29.632 17.171-107.224 62.058-154.93 89.51-33.864-19.483-89.232-51.505-115.286-66.598v-.411c.005-1.041.006-2.497.008-4.256Z" fill="#F9F6F1"/><path d="M208.838 12.165c28.531 16.52 82.749 47.867 114.442 66.092 0 9.068-.067 35.936-.061 43.908a69852.205 69852.205 0 0 1-59.47 34.415c.018-10.942.065-35.117.07-44.315a155149.24 155149.24 0 0 1-116.084-67.164 70416.749 70416.749 0 0 0 59.011-34.15l2.092 1.214Z" fill="#99B305"/><path d="M50.617 140.41c.02-13.54.359-27.126.063-40.666a2.398 2.398 0 0 1 1.187-2.07 49281.11 49281.11 0 0 0 63.774-36.786c21.077-12.177 42.149-24.359 63.217-36.547 8.891-5.153 17.785-10.305 26.68-15.456a2.42 2.42 0 0 1 2.417 0 64592.53 64592.53 0 0 0 92.21 53.293 30066.4 30066.4 0 0 0 24.323 14.01 2.41 2.41 0 0 1 1.186 2.069c0 10.453-.016 20.907-.048 31.363-.004 2.53-.008 5.061-.01 7.592 0 1.704.367 3.932-.089 5.591-.487 1.771-3.819 3.007-5.328 3.881l-5.507 3.193a79244.779 79244.779 0 0 1-60.558 35.032 69806.963 69806.963 0 0 1-69.497 40.12l-7.929 4.568-3.65 2.102a29.712 29.712 0 0 1-3.837 2.165c-1.581.611-3.058-.654-4.377-1.413l-3.983-2.293c-2.685-1.546-5.37-3.092-8.054-4.64a40803.278 40803.278 0 0 1-35.069-20.237 72292.97 72292.97 0 0 1-64.189-37.124c-1.307-.758-2.809-1.348-2.931-3.081-.109-1.539 0-3.124 0-4.666 0-3.084 4.79-3.089 4.79 0v4.666l-1.187-2.069a69040.41 69040.41 0 0 0 90.4 52.259 32619.36 32619.36 0 0 0 24.886 14.338h-2.418a38727.272 38727.272 0 0 0 65.03-37.505 90659.942 90659.942 0 0 0 64.204-37.123 61991.69 61991.69 0 0 0 25.686-14.88l-1.185 2.069c-.007-11.875.036-23.753.054-35.628 0-2.761.002-5.521.007-8.28l1.185 2.068a22973.828 22973.828 0 0 1-45.824-26.416 67711.38 67711.38 0 0 1-70.708-40.885h2.417a61517.054 61517.054 0 0 1-52.901 30.613 90504.298 90504.298 0 0 1-66.276 38.289c-11.494 6.63-22.992 13.26-34.494 19.891l1.185-2.07c.297 13.541-.043 27.122-.063 40.667-.005 3.079-4.794 3.085-4.79-.004Z" fill="#211715"/><path d="M171.022 166.84c0 10.141-.071 20.283-.073 30.423 0 3.085-4.789 3.09-4.789 0 0-10.14.072-20.282.073-30.423 0-3.085 4.789-3.089 4.789 0Z" fill="#211715"/><path d="M166.959 165.359a17902.614 17902.614 0 0 0 54.46-31.381 68608.197 68608.197 0 0 0 58.678-33.924c7.41-4.285 14.815-8.573 22.216-12.863 2.671-1.55 5.086 2.592 2.417 4.139a41288.683 41288.683 0 0 1-46.363 26.832 79703.558 79703.558 0 0 1-60.957 35.203 19790.617 19790.617 0 0 1-28.034 16.133c-2.678 1.536-5.093-2.603-2.417-4.139Z" fill="#211715"/><path d="M167.579 168.916a13139.324 13139.324 0 0 1-39.361-22.667 55944.153 55944.153 0 0 1-42.258-24.417c-5.393-3.115-10.784-6.236-16.175-9.362-2.667-1.544-.258-5.688 2.416-4.138 11.166 6.47 22.336 12.931 33.51 19.382a41573.048 41573.048 0 0 0 43.887 25.332c6.797 3.914 13.597 7.825 20.398 11.732 2.674 1.533.264 5.676-2.417 4.138ZM262.476 114.256a160112.397 160112.397 0 0 1-52.573-30.401 70019 70019 0 0 1-42.686-24.703L148.962 48.58c-2.666-1.545-.258-5.689 2.418-4.138a75474.599 75474.599 0 0 0 35.308 20.443 194688.312 194688.312 0 0 0 78.201 45.234c2.669 1.543.26 5.686-2.416 4.139l.003-.002Z" fill="#211715"/><path d="M266.219 112.245c-.015 13.592-.073 27.184-.074 40.775 0 3.085-4.789 3.089-4.789 0 0-13.591.058-27.183.074-40.775 0-3.084 4.789-3.089 4.789 0Z" fill="#211715"/><path d="M190.446 113.149a18.93 18.93 0 0 0 1.916 7.387c2.378 4.673 6.966 7.871 11.797 9.908 4.831 2.037 5.523 1.509 10.521 3.087 3.898 1.23 7.978 3.003 9.648 6.95a23.088 23.088 0 0 1 1.235 6.269c.359 8.085.294 16.495.395 24.816a2.727 2.727 0 0 0 1.879 2.624 38.462 38.462 0 0 0 17.547.936 3.493 3.493 0 0 0 1.556-1.046 4.736 4.736 0 0 0 1.317-2.194c.45-3.777.667-7.415.795-11.057 4.182.929 8.962 2.535 13.41 1.449 3.093-.756 5.992-3.115 6.465-6.266l.393-2.602c.691-12.724 1.382-11.122 2.071-23.845.233-4.282.419-8.796-1.535-12.612a21.333 21.333 0 0 0-6.788-7.073 82.672 82.672 0 0 0-17.318-9.716s-47.302 11.351-55.304 12.985Z" fill="#9CC2D3"/><path d="M200.121 117.413c-2.753-1.543-6.301-3.281-9.725-5.335-5.683-3.401-11.085-7.703-12.202-13.475-.382-2.498-.37-5.04.036-7.533 1.093-8.834 3.181-20.11 8.682-27.377 3.352-4.448 8.644-10.185 13.804-12.832 0 0 8.953-4.338 17.65-4.904 13.963-.912 21.108 5.045 21.108 5.045a42.25 42.25 0 0 1 15.804 24.924l2.435 14.034.881 5.061-58.473 22.392ZM256.094 186.568a8.817 8.817 0 0 0-1.711-7.212 21.754 21.754 0 0 0-6.514-5.25c-2.514 1.971-12.729 2.351-20.04.084a2.602 2.602 0 0 1-.698-.337l-.147 1.382c-.76 6.95 3.446 9.744 6.116 11.334a40.224 40.224 0 0 0 10.177 4.289c2.147.662 4.406.884 6.641.65a7.712 7.712 0 0 0 5.535-3.414c.283-.476.499-.99.641-1.526ZM277.481 171.508a9.577 9.577 0 0 0-1.369-2.554 23.093 23.093 0 0 0-7.054-5.528 11.842 11.842 0 0 0-4.559-1.894 9.82 9.82 0 0 1-2.045.752c-4.448 1.086-9.227-.519-13.41-1.449-.09 2.626-.229 5.248-.467 7.922l1.879.31c-.141 2.996 2.514 5.333 5.09 6.865a38.85 38.85 0 0 0 9.84 4.145 15.98 15.98 0 0 0 6.421.623 7.414 7.414 0 0 0 5.351-3.298 6.998 6.998 0 0 0 .323-5.894Z" fill="#F9F6F1"/><path d="M238.589 27.598a27.618 27.618 0 0 1-6.567 19.223 23.785 23.785 0 0 1-33.427 2.428 13.74 13.74 0 0 1-9.141-2.866 8.723 8.723 0 0 1-3.318-7.789 6.343 6.343 0 0 1 3.693-4.673 22.761 22.761 0 0 1-.578-14.622 22.744 22.744 0 0 1 8.442-11.948c10.653-7.573 25.711-6.53 34.464 3.433a26.916 26.916 0 0 1 6.432 16.814Z" fill="#F9F6F1"/><path d="M235.121 14.978a27.261 27.261 0 0 1 3.113 8.987 45.57 45.57 0 0 1-18.724-2.258 1.285 1.285 0 0 0-1.03.09c-.755.425.156 2.075.583 2.83-2.682.756-9.249-.48-12.152-2.076-1.612 3.926-3.26 5.971-6.423 7.453l-8.491 3.385a6.044 6.044 0 0 0-2.17.533 22.772 22.772 0 0 1-.574-14.623 22.752 22.752 0 0 1 8.444-11.949c10.649-7.572 25.707-6.53 34.46 3.434a24.572 24.572 0 0 1 2.964 4.194Z" fill="#F9F6F1"/><path d="M229.383 175.238a8.604 8.604 0 0 0 3.113 8.083 33.256 33.256 0 0 0 11.43 5.229c3.321.88 9.921 1.458 9.986-3.638.058-4.554-4.638-7.19-8.029-9.198-2.652-1.568-.239-5.713 2.417-4.139 4.008 2.37 8.032 5.033 9.728 9.586a9.165 9.165 0 0 1-4.088 11.52c-4.602 2.412-10.026 1.119-14.649-.56a34.224 34.224 0 0 1-10.436-5.613 12.83 12.83 0 0 1-4.26-11.264 2.464 2.464 0 0 1 2.395-2.396 2.415 2.415 0 0 1 2.394 2.396l-.001-.006Z" fill="#211715"/><path d="M265.454 159.263a19.192 19.192 0 0 1 5.923 2.756 28.727 28.727 0 0 1 5.005 3.651c2.947 2.813 4.886 7.202 3.581 11.264-1.378 4.297-5.884 6.383-10.146 6.27-4.596-.119-9.308-1.955-13.353-4.027-3.981-2.037-8.44-5.131-8.407-10.112.021-3.083 4.811-3.09 4.79 0-.024 3.52 5.167 5.643 7.789 6.818a35.219 35.219 0 0 0 5.867 2.007c2.024.663 4.201.701 6.247.109 3.461-1.299 3.374-5.066 1.404-7.691a15.972 15.972 0 0 0-4.458-3.702 17.477 17.477 0 0 0-5.516-2.721c-3.017-.616-1.74-5.236 1.274-4.622Z" fill="#211715"/><path d="M246.387 97.848A84.357 84.357 0 0 1 265.47 108.7a20.928 20.928 0 0 1 6.878 7.974 24.221 24.221 0 0 1 1.542 10.563c-.173 5.171-.67 10.305-1.29 15.437-.561 4.638-.533 9.364-1.364 13.959a10.277 10.277 0 0 1-6.273 7.309c-4.023 1.729-8.454 1.086-12.591.15-3.005-.679-1.733-5.301 1.273-4.622 4.47 1.012 12.013 1.798 13.006-4.331.656-4.044.651-8.216 1.144-12.327.517-4.313.942-8.609 1.182-12.947a31.964 31.964 0 0 0-.309-9.165 13.688 13.688 0 0 0-4.937-7.293 71.662 71.662 0 0 0-18.615-10.936 2.474 2.474 0 0 1-1.677-2.948 2.413 2.413 0 0 1 2.946-1.678l.002.004Z" fill="#211715"/><path d="M246.884 120.958c4.103 2.854 5.133 7.329 5.207 12.034.075 4.772-.178 9.541-.327 14.309-.195 6.255-.167 12.518-.586 18.765-.194 2.892.019 6.428-1.818 8.826-1.76 2.301-3.92 2.784-6.651 3.071a39.173 39.173 0 0 1-7.882-.027 30.462 30.462 0 0 1-8-1.574c-3.125-1.218-3.261-4.216-3.289-7.116-.032-3.294-.044-6.59-.077-9.883a413.61 413.61 0 0 0-.188-9.773 25.323 25.323 0 0 0-1.04-7.887c-1.598-4.332-7.272-5.759-11.267-6.724-5.179-1.25-10.165-2.875-14.477-6.143a21.158 21.158 0 0 1-8.484-16.758c-.12-3.084 4.669-3.079 4.789 0a16.205 16.205 0 0 0 6.237 12.708 29.063 29.063 0 0 0 11.567 5.198c4.268.949 8.802 2.157 12.296 4.913 3.88 3.055 4.838 7.725 5.086 12.43.315 5.94.278 11.905.318 17.854.01 1.455.022 2.91.035 4.364a7.76 7.76 0 0 0 .023 2.037c.135.385.079.24.332.38 1.098.435 2.253.708 3.429.813 1.215.219 2.441.374 3.673.462 2.304.192 4.621.173 6.923-.055a5.744 5.744 0 0 0 2.194-.455c1.115-.664 1.085-1.95 1.198-3.067.548-5.641.635-11.311.748-16.975.108-5.38.382-10.757.454-16.138.026-2.026.06-4.068-.096-6.091a20.787 20.787 0 0 0-.043-.502c-.049-.479.031.146-.013-.079a11.05 11.05 0 0 0-.519-1.874 6.246 6.246 0 0 0-2.155-2.893c-2.514-1.748-.12-5.905 2.416-4.138l-.013-.012ZM240.686 48.933a45.031 45.031 0 0 1 16.902 26.35c.64 3.008-3.975 4.294-4.618 1.275a40.074 40.074 0 0 0-14.7-23.486 2.474 2.474 0 0 1-.86-3.28 2.407 2.407 0 0 1 3.276-.859Z" fill="#211715"/><path d="M255.374 100.153c2.663-1.662 3.77-4.469 4.205-7.449.487-3.342-.084-7.595-4.94-8.81a6.92 6.92 0 0 0-5.06.946 9.49 9.49 0 0 0-4.659 9.206c.329 3.954 4.06 7.591 7.99 7.017a6.34 6.34 0 0 0 2.464-.91Z" fill="#F9F6F1"/><path d="M254.166 98.084a5.79 5.79 0 0 0 1.437-1.307c-.215.267.097-.145.141-.212.113-.172.221-.347.323-.526.082-.143.16-.29.24-.436 0 0 .295-.675.161-.337.27-.71.478-1.44.621-2.186.043-.21.083-.42.119-.631.028-.163.091-.743.023-.1.031-.303.062-.606.078-.91.023-.56.011-1.12-.037-1.678-.034-.45 0 0 .012.08-.031-.153-.055-.306-.089-.46-.075-.337-.183-.655-.29-.984.175.54-.103-.199-.192-.359-.09-.16-.576-.764-.222-.371a8.787 8.787 0 0 0-.62-.628c-.278-.252.467.268-.086-.064-.186-.111-.359-.231-.556-.334a5.345 5.345 0 0 0-.406-.2c.344.15-.033 0-.091-.022a9.69 9.69 0 0 0-1.086-.289c.536.091-.221.016-.419.02a6.486 6.486 0 0 0-.591.035c-.169.016-.162.016.02 0a5.71 5.71 0 0 0-.376.08 4.886 4.886 0 0 0-1.915.93c-.028.019-.36.269-.12.076a10.62 10.62 0 0 0-1.311 1.23 6.413 6.413 0 0 0-1.516 3.034c.008-.04-.134.704-.081.37.052-.335-.041.435-.037.39a11.342 11.342 0 0 0 .012 1.747c-.009-.105-.088-.407.011.085.083.398.19.79.321 1.175.24.719-.103-.181.094.214.109.22.224.435.349.645.145.293.337.56.568.792.269.301.562.582.874.839-.26-.212.048.033.091.06.202.13.401.26.611.377.53.288 1.117.455 1.719.49.786.025 1.561-.2 2.212-.64a2.396 2.396 0 1 1 2.418 4.138c-4.43 2.636-9.579.846-12.363-3.227a11.407 11.407 0 0 1 .046-12.214c2.372-3.65 6.825-6.364 11.255-5.132a8.97 8.97 0 0 1 6.567 8.485c.296 4.595-1.573 9.54-5.508 12.088a2.393 2.393 0 0 1-3.276-.86 2.397 2.397 0 0 1 .859-3.279l.006.006ZM239.974 68.532v26.712c0 3.085-4.789 3.09-4.789 0V68.532c0-3.085 4.789-3.09 4.789 0Z" fill="#211715"/><path d="M238.411 99.788c7.364 1.25 14.881 4.126 25.742 5.929-6.694 3.235-19.284 9.431-31.323 15.457-10.461-4.263-13.438-5.006-19.985-7.517 10.953-5.656 25.544-13.873 25.566-13.869Z" fill="#F9F6F1"/><path d="M239.047 97.478c8.682 1.505 17.037 4.46 25.741 5.928 1.993.336 2.36 3.516.571 4.379a2082.854 2082.854 0 0 0-21.16 10.396c-2.114 1.049-4.226 2.1-6.335 3.153-1.107.552-2.207 1.118-3.318 1.658a3.777 3.777 0 0 1-3.686-.044 299.008 299.008 0 0 0-9.976-3.82c-2.895-1.044-5.801-2.058-8.676-3.158-1.771-.677-2.56-3.355-.572-4.379 5.673-2.935 11.287-5.982 16.882-9.06 2.883-1.585 5.718-3.382 8.682-4.812 2.765-1.333 5.197 2.799 2.418 4.138-2.965 1.431-5.8 3.227-8.683 4.813-5.596 3.078-11.21 6.124-16.882 9.06l-.572-4.381c6.651 2.545 13.383 4.833 19.984 7.518l-1.845.239c10.416-5.212 20.833-10.399 31.322-15.457l.572 4.379c-8.704-1.467-17.057-4.422-25.741-5.927a2.418 2.418 0 0 1-1.677-2.948 2.452 2.452 0 0 1 2.951-1.675Z" fill="#211715"/><path d="M219.128 110.887c-.706-5.727-6.695-10.503-14.385-7.189-1.161 3.573-3.179 8.975-4.419 13.49 1.69 1.369 3.152 2.558 3.152 2.558 2.475 2.989 7.938 2.451 10.91.641a9.891 9.891 0 0 0 4.742-9.5Z" fill="#F9F6F1"/><path d="M205.572 100.841a13.008 13.008 0 0 1 9.71.728 11.894 11.894 0 0 1 5.584 6.417c2.37 6.231-1.378 13.248-7.479 15.483-3.731 1.368-8.836 1.168-11.604-2.037a2.459 2.459 0 0 1 0-3.39 2.416 2.416 0 0 1 3.386 0c.12.133.24.255.359.386.079.089.442.377.07.095.253.181.519.344.796.486.12.062.538.198.102.052.135.045.267.093.403.134.346.104.698.184 1.054.24-.479-.076 0 0 .128 0 .186.007.37.022.556.026.336 0 .67-.018 1.007-.031.119 0 .609-.061.142 0 .147-.019.295-.046.441-.072.397-.073.79-.167 1.178-.279.309-.09.609-.197.91-.308-.461.17.316-.154.445-.222.274-.151.539-.317.794-.5.583-.405-.193.168.127-.097a11.396 11.396 0 0 0 1.42-1.373s.41-.503.187-.216c-.224.288.154-.219.156-.224a9.313 9.313 0 0 0 .712-1.203c.068-.135.13-.273.192-.409-.032.071-.172.479-.038.075.091-.28.192-.554.268-.839.06-.223.108-.448.155-.674.008-.044.09-.6.037-.19-.052.397.012-.195.017-.273.022-.531.012-1.064-.033-1.594.031.538.013.082-.039-.185a9.38 9.38 0 0 0-.24-.965c-.064-.211-.148-.416-.218-.625-.167-.51.197.321.015.039-.072-.112-.12-.253-.181-.371a9.16 9.16 0 0 0-.366-.649c-.085-.139-.657-.916-.24-.399a10.07 10.07 0 0 0-1.016-1.1c-.09-.083-.666-.556-.4-.352.312.24-.138-.092-.167-.111-.142-.094-.282-.188-.428-.277a8.794 8.794 0 0 0-.752-.411c-.03-.014-.551-.24-.189-.092.341.141-.218-.075-.288-.099a9.309 9.309 0 0 0-.943-.27c-.211-.048-1.043-.155-.449-.101a15.144 15.144 0 0 0-2.13-.02c-.103 0-.47.055.027-.015-.208.031-.415.066-.621.107-.43.086-.853.198-1.273.323a2.383 2.383 0 0 1-1.819-.226 2.399 2.399 0 0 1 .547-4.395l-.012.003Z" fill="#211715"/><path d="M198.239 84.032c.091-.64.036-.278 0 .095-.026.314-.051.628-.074.942-.063.896-.111 1.797-.153 2.693-.09 1.968-.156 3.941-.109 5.91.008.386.021.77.046 1.155.015.224.029 1.079.027.436 0 .635.217 0-.089-.051.337.062.981.751 1.332 1.035 2.407 1.945 4.747 3.972 7.159 5.911a2.333 2.333 0 0 1 .616 2.332c-1.496 4.54-3.187 9.017-4.449 13.631a2.422 2.422 0 0 1-3.518 1.438c-9.929-5.559-23.805-11.223-23.51-24.709a78.389 78.389 0 0 1 2.775-17.535 42.397 42.397 0 0 1 6.801-15.163c3.927-5.152 8.61-10.294 14.408-13.356 2.725-1.438 5.149 2.698 2.417 4.14-4.626 2.441-8.4 6.375-11.687 10.383a36.525 36.525 0 0 0-6.679 12.97 89.82 89.82 0 0 0-2.968 15.074c-.342 2.854-.613 5.93.505 8.655a15.726 15.726 0 0 0 4.184 5.477c4.706 4.271 10.683 6.852 16.171 9.925l-3.517 1.438c1.262-4.614 2.953-9.091 4.449-13.631l.616 2.331c-2.58-2.073-5.074-4.252-7.662-6.315-1.796-1.427-2.113-2.82-2.201-5.02a64.403 64.403 0 0 1 .486-11.454 2.41 2.41 0 0 1 2.946-1.677 2.457 2.457 0 0 1 1.676 2.947l.002-.007Z" fill="#211715"/><path d="M187.146 33.551a25.361 25.361 0 0 1-.101-15.09 25.34 25.34 0 0 1 8.49-12.47 29.015 29.015 0 0 1 28.269-3.954c9.818 4.031 15.974 13.205 17.042 23.64a29.517 29.517 0 0 1-11.987 27.126c-9.801 6.85-23.974 5.644-32.642-2.486-2.255-2.114 1.137-5.498 3.386-3.39a21.796 21.796 0 0 0 23.996 3.43c8.06-4.029 12.561-12.685 12.61-21.522.047-8.495-3.992-16.761-11.474-21.054a24.048 24.048 0 0 0-23.491.155 20.587 20.587 0 0 0-9.093 10.471 20.604 20.604 0 0 0-.39 13.868c.948 2.942-3.674 4.202-4.618 1.274l.003.002Z" fill="#211715"/><path d="M191.993 35.79c-.564.04.262-.105-.239.027-.214.055-.429.1-.64.168-.12.04-.61.273-.248.088-.197.101-.394.203-.582.32-.086.053-.555.393-.239.14-.173.14-.337.29-.493.447a5.489 5.489 0 0 0-.446.495c.28-.36-.086.16-.135.24-.116.19-.22.386-.311.588.19-.426-.042.167-.07.264a4.95 4.95 0 0 0-.147.659c.068-.472.007.19 0 .29 0 .24.011.467.024.702.029.536-.081-.183.05.295.107.39.315 1.145.385 1.307a8.177 8.177 0 0 0 1.273 1.962 7.045 7.045 0 0 0 2.077 1.603 9.544 9.544 0 0 0 2.571 1.06 13.8 13.8 0 0 0 1.527.34c.17.026.17.026 0 0a14.359 14.359 0 0 0 1.261.083 2.393 2.393 0 0 1 2.394 2.396 2.397 2.397 0 0 1-2.394 2.396c-5.713-.14-11.485-3.235-13.426-8.843a8.933 8.933 0 0 1-.487-3.996 8.931 8.931 0 0 1 1.314-3.804 9.057 9.057 0 0 1 6.976-4.02 2.409 2.409 0 0 1 2.395 2.396 2.456 2.456 0 0 1-2.395 2.396h.005ZM223.484 36.317a3.792 3.792 0 0 0 1.545 2.854c.642.412 1.42.56 2.168.41a3.302 3.302 0 0 0 2.386-1.798 3.872 3.872 0 0 0-.958-4.45 3.058 3.058 0 0 0-4.159.229 3.408 3.408 0 0 0-.982 2.755ZM208.926 39.292a3.792 3.792 0 0 0 1.545 2.854c.642.413 1.42.56 2.169.411a3.298 3.298 0 0 0 2.385-1.797 3.874 3.874 0 0 0-.957-4.452 3.058 3.058 0 0 0-4.159.23 3.42 3.42 0 0 0-.983 2.754ZM209.216 23.192A20.87 20.87 0 0 1 206 28.858a12.738 12.738 0 0 1-4.31 3.22 2.574 2.574 0 0 1-1.845.239 2.39 2.39 0 0 1-1.739-2 2.396 2.396 0 0 1 1.168-2.381 12.54 12.54 0 0 0 2.291-1.375l-.479.375a10.517 10.517 0 0 0 1.848-1.867l-.374.485a18.002 18.002 0 0 0 2.14-3.87l-.24.572a24.2 24.2 0 0 0 .143-.341 2.632 2.632 0 0 1 1.1-1.438 2.396 2.396 0 0 1 3.277.86 2.304 2.304 0 0 1 .24 1.847l-.004.008Z" fill="#211715"/><path d="M208.119 20.49c2.734 1.438 7.408 2.558 10.307 1.833l-1.437 3.52c-.922-1.648-1.928-3.94-.387-5.571 1.778-1.884 4.31-.557 6.346 0a45.201 45.201 0 0 0 14.505 1.355c3.079-.171 3.07 4.622 0 4.793-3.244.193-6.498.08-9.721-.335a46.196 46.196 0 0 1-4.517-.81c-.774-.179-1.541-.378-2.303-.598-.427-.12-.851-.258-1.273-.396-.17-.053-.34-.11-.509-.169-.336-.12-.339-.12-.012 0l1.056-.615-.179.161.616-1.057c.239-.572-.209-.522.064-.041.16.282.297.578.457.862a2.421 2.421 0 0 1 .133 2.109 2.42 2.42 0 0 1-1.57 1.412 17.374 17.374 0 0 1-7.064-.12 23.121 23.121 0 0 1-6.937-2.198c-2.728-1.438-.31-5.578 2.417-4.139l.008.004Z" fill="#211715"/></g><defs><clipPath id="clip0_2_431"><path fill="#fff" transform="matrix(-1 0 0 1 367 0)" d="M0 0h367v326H0z"/></clipPath></defs></svg>