<svg width="435" height="331" fill="none" xmlns="http://www.w3.org/2000/svg"><g clip-path="url('#clip0_2_509')"><path d="M362.478 292.243c1.51 4.3.83 9.16 0 12.41l-.08.42-17.71-3.4-29.28-5.64 2.41-1.5v-11.11l.25-1.27c13.66 2.73 31.65 6.39 40.91 8.25.58.12 1.16.17 1.75.17l1.75 1.67Z" fill="#F9F6F1"/><path d="m315.408 296.033 29.28 5.64-2.36 1.5c-3.72 2.15-5.46 3.15-9.46 5.46-.65.38-1.4.5-2.13.34-18.06-4.03-42.68-9.16-60.79-13.62-.92-.23-1.05-1.47-.2-1.89 9.54-4.65 44.21-21.3 58.45-28.62.21-.1.43-.14.66-.1 4.73.75 9.52 1.51 14.24 2.24-8.54 4.14-18.87 9.14-25.98 12.57-1.13.55-.92 2.22.32 2.47.21.04.42.08.63.13l-.25 1.27v11.11l-2.41 1.5Z" fill="#F9F6F1"/><path d="M295.001 172.83c23.057.873 46.113 1.747 69.17 2.617 16.924.639 33.848 1.278 50.772 1.906 5.829.216 11.658.432 17.487.641 2.574.092 2.571-3.908 0-4-12.353-.442-24.706-.908-37.059-1.372-19.91-.747-39.82-1.5-59.731-2.253L295 168.83c-2.574-.098-2.57 3.903 0 4h.001ZM6.127 161.934c13.973.46 27.944.97 41.915 1.478 21.166.769 42.331 1.555 63.496 2.345 13.847.517 27.694 1.036 41.541 1.556 2.574.097 2.57-3.903 0-4-23.842-.896-47.684-1.788-71.526-2.67-18.383-.68-36.766-1.357-55.151-2.009-6.758-.24-13.517-.477-20.275-.699-2.575-.085-2.572 3.914 0 3.999ZM375.674 73.117c.957 2.79 1.657 6 3.918 8.063 2.001 1.826 4.629 2.97 7.089 4.038l-.405-3.14c-5.361 4.217-11.978 7.12-18.822 7.843-6.844.724-14.743-.317-18.17-7.129-1.157-2.3-4.609-.277-3.454 2.02 3.972 7.892 13.066 9.923 21.201 9.152 8.135-.77 15.665-4.016 22.073-9.058.944-.743.699-2.662-.405-3.14-2.017-.877-4.293-1.79-6.015-3.184-1.911-1.547-2.392-4.31-3.153-6.528-.831-2.42-4.696-1.38-3.857 1.063Z" fill="#D9D9D9"/><path d="M348.392 86.322c.8-.265 1.6-.532 2.392-.82a29.97 29.97 0 0 0 1.08-.412l.193-.08.524-.22a1.88 1.88 0 0 1-.097.044c-.327.148-.024.022.053-.007.211-.08.418-.17.624-.262 1.461-.644 2.786-1.919 3.455-3.372.23-.5.353-.99.202-1.54-.128-.465-.486-.968-.919-1.196-.881-.465-2.269-.297-2.736.718a6.302 6.302 0 0 1-.472.821c-.158.241.118-.127.119-.15-.001.037-.113.135-.138.164a5.82 5.82 0 0 1-.335.35c-.069.066-.263.302-.365.32.035-.006.381-.276.147-.118-.074.05-.147.102-.223.15a5.375 5.375 0 0 1-.417.241c-.063.033-.127.063-.191.094-.303.15.367-.134.137-.058-.263.088-.516.2-.771.307-.219.093.462-.189.145-.063a33.155 33.155 0 0 1-1.197.454c-.754.271-1.515.525-2.275.777-.991.328-1.741 1.396-1.397 2.46.32.988 1.397 1.75 2.46 1.397l.002.001Z" fill="#D9D9D9"/><path d="M315.757 120.693c3.046-6.569 5.958-13.225 9.281-19.661 1.395-2.701 3.263-5.142 5.445-7.259 2.45-2.377 5.745-3.929 8.882-5.181 3.053-1.219 6.185-2.167 9.371-2.968 2.495-.627 1.438-4.486-1.063-3.857-6.465 1.625-13.316 3.803-18.623 7.971s-8.096 10.384-10.894 16.326c-1.974 4.192-3.903 8.406-5.852 12.609-.454.979-.276 2.155.718 2.736.864.506 2.28.267 2.736-.718l-.001.002ZM386.02 23.39c4.152 4.184 6.293 10.177 6.339 16.038.018 2.31-.262 4.691-.605 6.974-.355 2.366-.801 4.883-2.071 6.95-1.351 2.2 2.107 4.211 3.454 2.02 1.484-2.417 2.093-5.303 2.499-8.075.4-2.732.79-5.576.714-8.34-.185-6.76-2.711-13.568-7.502-18.397-1.816-1.83-4.644 1-2.828 2.83ZM375.016 76.896c2.108-1.623 4.027-3.413 5.716-5.473 1.18-1.439 2.351-2.962 3.248-4.6.502-.917.256-2.222-.718-2.736-.936-.495-2.2-.262-2.736.718-.419.765-.916 1.488-1.413 2.203-.13.186-.26.372-.395.554l-.23.304c-.147.196.222-.28-.013.017-.189.24-.378.478-.571.713a33.398 33.398 0 0 1-2.289 2.527 30.655 30.655 0 0 1-2.47 2.202c-.068.054-.472.37-.147.12-.432.332-.768.645-.919 1.194-.132.48-.072 1.116.202 1.541.526.816 1.85 1.4 2.736.718l-.001-.002ZM383.9 16.618c-4.349-3.27-9.287-5.355-14.701-5.968-4.89-.555-10.066-.03-14.75 1.476-4.414 1.418-8.509 3.797-11.815 7.061-3.635 3.59-6.105 8.35-7.395 13.267-1.497 5.706-1.442 11.953-.498 17.741.174 1.067 1.499 1.661 2.46 1.397 1.134-.312 1.571-1.39 1.397-2.46-1.435-8.794-.331-19.247 5.895-26.106 5.777-6.365 14.418-8.95 22.841-8.527 5.402.272 10.254 2.346 14.547 5.575.864.65 2.236.14 2.736-.718.599-1.023.149-2.085-.718-2.736l.001-.002Z" fill="#D9D9D9"/><path d="M368.239 75.736c-6.016 2.408-12.941 3.617-18.956.515-2.761-1.424-5.312-3.477-6.933-6.154-1.647-2.72-2.464-5.907-2.816-9.046-.499-4.45-.518-8.96-.885-13.425-.21-2.547-4.212-2.57-4 0 .652 7.908-.068 16.664 3.88 23.852 3.52 6.41 10.777 10.334 17.967 10.621 4.419.177 8.728-.873 12.807-2.506 1.002-.4 1.706-1.335 1.397-2.46-.262-.952-1.453-1.8-2.461-1.397ZM386.539 53.24c.476-.285.557-.3 1.056-.298.137 0 .273.008.409.022-.216-.025-.188-.013.085.038.083.027.802.303.479.14.097.048.676.452.297.136.147.123.267.267.406.398-.182-.17-.166-.263-.022-.006.029.051.151.353.197.37-.149-.369-.173-.42-.072-.156.038.11.072.221.101.334.022.085.121.796.086.381.046.54.027 1.07-.007 1.608-.028.443.038-.104-.037.298a11.5 11.5 0 0 1-.394 1.613c-.022.067-.289.782-.145.441-.319.758-.775 1.488-1.247 2.16-.069.098-.139.195-.211.291.125-.162.113-.15-.035.034-.174.195-.342.393-.526.58-.424.43-.691.647-1.083.902-.225.146-.47.261-.694.406-.312.2.437-.137.018-.008-.424.131-.84.244-1.274.34-.235.037-.244.04-.027.01a8.252 8.252 0 0 1-.386.032c-.264.016-.523.003-.787.003-.244-.023-.262-.02-.056.007a4.568 4.568 0 0 1-.754-.193c.18.081.163.07-.049-.036-.958-.498-2.172-.247-2.736.718-.525.898-.244 2.237.718 2.736 1.973 1.025 4.416.981 6.478.216 2.128-.789 3.819-2.44 5.054-4.307 2.075-3.135 3.492-8.375.76-11.55-1.826-2.123-5.267-2.522-7.621-1.112-.926.555-1.267 1.797-.718 2.736.542.927 1.806 1.275 2.736.718l.001-.002ZM378.976 51.612c.181-2.693-.668-5.42-1.933-7.771-1.065-1.979-2.6-4.022-4.61-5.119-.918-.501-2.222-.257-2.736.718-.494.935-.263 2.201.718 2.736.165.09.326.186.481.292.061.042.334.267.091.058-.259-.222.065.058.092.082a9.814 9.814 0 0 1 1.174 1.2c.006.008.312.377.129.153-.182-.223.091.123.124.169a15.475 15.475 0 0 1 1.429 2.41c.061.128.117.26.179.388.103.211-.105-.279.032.076.207.537.394 1.078.541 1.635.073.276.136.555.19.835.021.112.04.224.059.336.096.552-.029-.416.017.14s.062 1.105.024 1.663c-.07 1.046.97 2.046 2 2 1.144-.051 1.925-.879 2-2l-.001-.001Z" fill="#D9D9D9"/><path d="M366.31 37.837c-3.871 1.025-7.763 2.306-11.693 3.067h1.063l-.396-.069.883.514c.175.154 0-.004-.047-.201-.066-.277-.186-.555-.29-.82-.188-.479-.386-.963-.663-1.398-.661-1.039-1.593-1.861-2.785-2.228-2.481-.764-5.004.532-7.117 1.726-4.304 2.432-7.958 5.764-10.947 9.683-.656.86-.134 2.238.718 2.736 1.028.602 2.079.144 2.736-.718a30.74 30.74 0 0 1 6.203-6.108 33.264 33.264 0 0 1 3.672-2.342c.891-.488 2.687-1.694 3.738-1.08.868.507.894 2.054 1.349 2.847.965 1.682 2.703 1.409 4.3.986l10.34-2.738c2.486-.658 1.432-4.518-1.063-3.857h-.001ZM432.428 137.361c-6.227-.182-12.453-.37-18.68-.55-2.575-.074-2.573 3.926 0 4 6.227.18 12.453.368 18.68.55 2.575.075 2.573-3.925 0-4ZM377.428 135.761c-14.996-.362-29.99-.851-44.984-1.278l-14.116-.402c-2.575-.073-2.573 3.927 0 4l46.67 1.328c4.143.118 8.286.252 12.43.352 2.575.062 2.574-3.938 0-4ZM88.96 131.754a575170.282 575170.282 0 0 1 75.163 2.073c2.575.071 2.573-3.929 0-4a383265.3 383265.3 0 0 0-75.163-2.072c-2.575-.071-2.573 3.929 0 4v-.001ZM412.399 106.736c4.917.496 9.355 3.815 11.173 8.422 1.097 2.781.956 5.625.956 8.561v9.801c0 2.574 4 2.578 4 0v-10.937c0-3.488-.211-6.68-1.692-9.892-2.634-5.712-8.271-9.333-14.437-9.954-1.076-.108-2 .997-2 2 0 1.172.921 1.89 2 1.999Z" fill="#D9D9D9"/><path d="M391.738 153.364c3.625-.276 7.292-.611 10.75-1.803 3.102-1.069 6.436-2.55 8.817-4.874 2.381-2.324 3.968-5.54 4.788-8.719.972-3.771.773-7.397.184-11.199-.959-6.194-2.072-12.378-3.503-18.481-.614-2.62-1.271-5.251-2.186-7.785-.977-2.704-2.45-5.108-4.222-7.367-4.635-5.913-11.356-9.168-18.099-12.08-.991-.428-2.145-.294-2.736.718-.494.844-.279 2.306.718 2.736 5.435 2.347 11.029 4.817 15.238 9.108 1.934 1.971 3.651 4.3 4.803 6.819.067.146.211.503.361.909.202.547.388 1.1.564 1.656a69.532 69.532 0 0 1 1 3.502c1.5 5.753 2.594 11.619 3.582 17.479.476 2.823 1.117 5.711 1.044 8.583-.084 3.34-1.008 6.576-2.827 9.384-1.717 2.65-4.461 4.117-7.326 5.283-3.51 1.427-7.203 1.846-10.95 2.132-2.551.194-2.572 4.196 0 4v-.001Z" fill="#D9D9D9"/><path d="m289.358 251.331 70.012 3.702c17.732.937 35.464 1.874 53.197 2.807 6.62.348 13.24.696 19.861 1.041 2.573.134 2.565-3.866 0-4-13.563-.707-27.125-1.423-40.688-2.138a562247.84 562247.84 0 0 1-102.382-5.412c-2.572-.136-2.565 3.864 0 4Z" fill="#211715"/><path d="M151.488 65.841c1.005 2.927 1.734 6.271 4.152 8.397 2.047 1.8 4.673 2.955 7.154 4.028l-.405-3.141c-5.514 4.341-12.308 7.321-19.345 8.085-7.117.772-15.294-.308-18.838-7.361-1.156-2.301-4.608-.277-3.454 2.019 4.09 8.141 13.494 10.201 21.871 9.386 8.377-.815 16.035-4.135 22.594-9.3.942-.742.701-2.663-.405-3.141-2.037-.881-4.301-1.803-6.067-3.17-2.081-1.611-2.589-4.499-3.401-6.865-.831-2.421-4.696-1.381-3.857 1.063h.001Z" fill="#D9D9D9"/><path d="M123.392 79.512c1.621-.54 3.27-1.074 4.831-1.777 1.489-.67 2.844-1.968 3.535-3.453.232-.498.353-.993.202-1.54-.128-.465-.486-.968-.919-1.196-.884-.467-2.265-.295-2.736.718a6.45 6.45 0 0 1-.487.841c-.156.235.106-.105.113-.143-.009.048-.11.131-.143.17-.11.124-.225.244-.346.36-.087.082-.256.292-.376.33.048-.016.368-.269.139-.112-.076.052-.151.105-.229.156a5.38 5.38 0 0 1-.428.251c-.065.034-.13.065-.195.098-.305.156.358-.132.129-.05-1.386.494-2.756 1.025-4.153 1.492-.99.331-1.742 1.394-1.397 2.46.319.986 1.398 1.752 2.46 1.397v-.002ZM151.644 69.36a33.574 33.574 0 0 0 5.453-5.507c1.159-1.475 2.307-3.012 3.182-4.678.486-.926.267-2.216-.718-2.736-.922-.487-2.217-.272-2.736.718-.417.795-.916 1.548-1.415 2.293-.131.195-.262.39-.399.58-.155.215-.314.428-.473.641l-.289.381c.29-.38-.04.05-.08.1a33.39 33.39 0 0 1-5.354 5.38c-.821.655-.735 2.153 0 2.827.872.8 1.953.7 2.829 0Z" fill="#D9D9D9"/><path d="M144.353 68.679c-6.266 2.636-13.517 3.995-19.838.749-2.871-1.474-5.503-3.58-7.18-6.367-1.652-2.745-2.498-5.929-2.919-9.085-.605-4.54-.685-9.158-1.142-13.717-.108-1.075-.842-2-2-2-.998 0-2.108.919-2 2 .804 8.028.24 16.9 4.244 24.191 3.608 6.57 11.056 10.589 18.427 10.874 4.664.18 9.202-.991 13.472-2.788.995-.419 1.71-1.322 1.397-2.46-.258-.938-1.458-1.818-2.46-1.397h-.001ZM162.678 45.11c.4-.249.797-.374 1.107-.352a4.22 4.22 0 0 1 .421.016c-.206-.03-.171-.02.105.03.079.022.819.27.513.132.213.096.414.22.603.354-.26-.185-.085-.05.053.084.063.066.124.134.181.204-.179-.237-.21-.27-.093-.102.056.123.138.261.209.376.075.163.054.114-.063-.148.041.113.078.227.11.342.021.074.157.8.107.405.06.477.061.964.035 1.443-.044.835-.263 1.856-.646 2.882-.052.133-.047.125.016-.025a8.756 8.756 0 0 1-.16.34c-.095.19-.198.377-.301.563-.22.398-.453.79-.708 1.165-.038.057-.467.625-.25.356a9.455 9.455 0 0 1-.391.455c-.345.378-.779.786-1.054.983a7.368 7.368 0 0 1-.806.513c-.12.065-.603.224-.107.064-.389.126-.769.255-1.17.34a8.46 8.46 0 0 1-.386.073 8.947 8.947 0 0 1-.909.033 5.89 5.89 0 0 1-.419-.027c.186.025.158.015-.085-.028a4.605 4.605 0 0 1-.398-.11c.157.081.128.068-.087-.04-.967-.48-2.165-.26-2.736.717-.517.884-.254 2.254.718 2.736 2.06 1.022 4.554.945 6.673.11 2.167-.856 3.88-2.584 5.105-4.532 1.165-1.853 1.834-3.86 2.059-6.036.209-2.023-.115-4.228-1.522-5.78-1.894-2.092-5.39-2.459-7.745-.99-.916.57-1.274 1.784-.718 2.735.535.914 1.816 1.291 2.736.718l.003.001Z" fill="#D9D9D9"/><path d="M127.435 3.685c-6.983 1.403-13.172 5.628-16.682 11.877-4.218 7.51-3.804 16.525-2.356 24.735.188 1.064 1.489 1.664 2.46 1.397 1.123-.309 1.585-1.393 1.397-2.46-1.253-7.106-1.709-15.146 1.953-21.653 3.043-5.409 8.265-8.828 14.292-10.039 2.522-.507 1.453-4.363-1.064-3.857Z" fill="#D9D9D9"/><path d="M118.882 21.472a32.385 32.385 0 0 0-6.085 10.285c-1.487 4.083-1.849 8.353-2.045 12.663-.117 2.574 3.883 2.568 4 0 .176-3.855.497-7.598 1.782-11.264a27.197 27.197 0 0 1 5.176-8.855c1.688-1.93-1.13-4.772-2.828-2.829Z" fill="#D9D9D9"/><path d="M120.507 26.574c3.579 7.638 11.768 13.643 20.431 12.44 1.071-.149 1.656-1.516 1.397-2.46-.317-1.153-1.386-1.546-2.46-1.397-6.853.952-13.204-4.819-15.913-10.602-.458-.978-1.865-1.227-2.736-.718-1.002.586-1.177 1.755-.718 2.736l-.001.001Z" fill="#D9D9D9"/><path d="M130.628 25.544c2.162 5.378 6.662 9.204 11.501 12.171 2.264 1.388 4.575 2.555 7.062 3.478 1.706.633 4.152 1.435 4.651 3.408.631 2.494 4.49 1.437 3.857-1.063-.64-2.529-2.725-4.171-5.004-5.209-1.152-.525-2.342-.955-3.529-1.391-1.123-.412-2.181-1.043-3.224-1.627-4.472-2.503-9.466-5.878-11.456-10.831-.403-1.002-1.334-1.706-2.46-1.397-.951.261-1.802 1.452-1.397 2.46l-.001.001ZM170.49 42.627c2.81-6.19 3.273-13.312.985-19.75-.362-1.017-1.364-1.698-2.46-1.397-.985.271-1.76 1.438-1.397 2.46 1.912 5.38 1.791 11.441-.581 16.667-.446.983-.282 2.152.718 2.736.858.502 2.288.271 2.736-.718l-.001.002ZM170.149 16.98c-3.989-6.125-9.165-11.612-15.96-14.58-7.057-3.085-15.282-3.354-22.251.118-2.304 1.148-.281 4.6 2.019 3.454 5.864-2.922 13.13-2.512 18.986.23 5.856 2.74 10.278 7.463 13.751 12.796 1.399 2.15 4.864.147 3.454-2.019l.001.001ZM122.614 74.822c-5.213 1.31-10.412 3.006-15.151 5.58-5.068 2.753-8.848 7.042-11.683 12.023-1.275 2.241 2.179 4.258 3.454 2.019 2.593-4.556 5.926-8.301 10.583-10.768 4.355-2.307 9.097-3.801 13.86-4.998 2.495-.627 1.438-4.485-1.063-3.856Z" fill="#D9D9D9"/><path d="M91.4 119.602a328.94 328.94 0 0 1 3.636-13.081c1.226-4.08 2.428-8.194 4.196-12.08.447-.983.281-2.152-.718-2.736-.859-.502-2.287-.27-2.736.718-1.869 4.11-3.204 8.403-4.503 12.717a332.28 332.28 0 0 0-3.732 13.399c-.639 2.495 3.218 3.559 3.857 1.063Z" fill="#D9D9D9"/><path d="M2.02 301.586c23.943 1.719 47.893 3.357 71.842 4.991 31.472 2.147 62.946 4.27 94.421 6.39 33.812 2.278 67.625 4.55 101.437 6.833a65769.9 65769.9 0 0 1 90.865 6.183c21.566 1.486 43.133 2.969 64.691 4.574 1.728.129 3.457.259 5.185.39 2.567.195 2.555-3.806 0-4-20.112-1.53-40.235-2.915-60.357-4.307a54589.985 54589.985 0 0 0-88.542-6.04c-33.7-2.278-67.4-4.544-101.101-6.813-32.025-2.156-64.051-4.314-96.075-6.493-25.17-1.713-50.34-3.43-75.505-5.218-2.287-.162-4.574-.326-6.861-.49-2.569-.184-2.557 3.816 0 4ZM344.137 265.139c-3.729-.583-7.457-1.166-11.185-1.757-1.593-.252-3.716-1-5.284-.465-.915.312-1.786.872-2.646 1.309a1103.472 1103.472 0 0 1-11.42 5.695c-9.061 4.468-18.149 8.879-27.241 13.283-3.834 1.857-7.669 3.711-11.504 5.567-1.453.703-2.905 1.406-4.357 2.112-1.769.859-3.951 1.91-3.191 4.36.47 1.516 1.798 1.964 3.197 2.306 1.495.365 2.991.725 4.488 1.081 3.037.721 6.079 1.425 9.123 2.119a2195.8 2195.8 0 0 0 19.316 4.294c7.069 1.545 14.142 3.072 21.21 4.625 1.614.355 3.229.711 4.842 1.07 2.005.446 3.431.181 5.215-.849 2.881-1.663 5.762-3.326 8.641-4.992 2.227-1.289.215-4.747-2.019-3.454-2.386 1.381-4.774 2.76-7.162 4.139-.972.561-2.094 1.578-3.25 1.379-1.488-.256-2.967-.658-4.442-.983-5.775-1.271-11.554-2.522-17.332-3.78-11.864-2.584-23.732-5.168-35.537-8.013a461.61 461.61 0 0 1-2.03-.493c-.232-.057-.493-.15-.726-.178l-.361-.089c-.347 1.487-.214 2.056.399 1.708.503-.083 1.097-.534 1.559-.758l4.017-1.947c3.51-1.699 7.02-3.396 10.53-5.096a5009.419 5009.419 0 0 0 25.642-12.485 1421.75 1421.75 0 0 0 12.677-6.291c.852-.429 1.703-.86 2.553-1.293.344-.175.782-.514 1.163-.595-.74.158.688.225.724.231l1.427.227c3.965.629 7.932 1.249 11.899 1.87 1.066.167 2.151-.272 2.46-1.397.261-.949-.323-2.292-1.397-2.46h.002Z" fill="#211715"/><path d="M404.008 279.553c.111-.399.17-.815.17-1.24 0-2.543 0-5.085.002-7.628a4.62 4.62 0 0 0-1.531-3.441c-8.454 4.953-27.766 16.412-37.455 22.115a8.82 8.82 0 0 1-3.333 1.145c.376 1.062.615 1.742.615 1.742 1.58 4.487.773 9.59-.111 12.83l1.152.221a3.305 3.305 0 0 0 2.376-.445 70533.935 70533.935 0 0 1 36.121-22.632 4.612 4.612 0 0 0 1.994-2.668v.001Z" fill="#FFA21F"/><path d="M316.492 280.195c.116-.261.323-.489.628-.637l39.704-19.213a4.632 4.632 0 0 1 2.711-.408l40.734 6.187c.915.139 1.731.54 2.378 1.121-8.453 4.951-27.764 16.411-37.454 22.113a8.822 8.822 0 0 1-6.212 1.046c-9.405-1.887-27.81-5.632-41.546-8.384-.9-.18-1.258-1.119-.944-1.825h.001Z" fill="#FFA21F"/><path d="M395.255 269.273c-10.061 5.909-20.082 11.885-30.135 17.807-1.278.753-2.479 1.409-3.998 1.488-1.177.061-2.313-.233-3.458-.464l-6.94-1.4-16.615-3.361a27926.25 27926.25 0 0 0-12.779-2.577l-2.26-.454c-.236-.047-.502-.13-.738-.148-.423-.14-.48-.115-.17.074.249.279.286.564.111.855.086.191-.605.248.108.068.254-.064.54-.261.776-.376l1.343-.65 3.145-1.522 6.844-3.312 24.861-12.03 1.747-.845c1.016-.491 1.742-.58 2.888-.411 3.458.511 6.913 1.05 10.369 1.575l18.671 2.836 7.56 1.148c1.726.262 4.456.121 5.336 1.96.545 1.138.255 2.791.255 4.011 0 1.666.227 3.486-.015 5.132-.202 1.373-1.349 1.935-2.419 2.606l-4.621 2.893c-6.021 3.771-12.041 7.542-18.061 11.315l-9.239 5.791c-1.017.637-2.784 2.13-3.835 2.077.145.007-.134-.03-.173-.035-4.17-.623-8.318-1.602-12.458-2.399l-34.718-6.687-.701-.135.478 3.655 1.697-1.053c1.076-.668 1.673-1.269 1.71-2.656.094-3.537 0-7.09 0-10.628 0-2.574-4-2.578-4 0v11.111l.991-1.727-2.417 1.5c-1.36.844-1.291 3.315.478 3.655l33.175 6.39c4.823.929 9.642 1.891 14.472 2.787 1.056.196 2.094.304 3.155-.008 1.624-.477 3.162-1.763 4.585-2.655l5.039-3.159c6.439-4.036 12.879-8.071 19.32-12.105l4.621-2.894c1.573-.985 3.386-1.86 4.768-3.112 2.658-2.407 2.167-5.938 2.167-9.181 0-3.099.261-6.249-2.393-8.42-1.972-1.613-4.653-1.66-7.071-2.027l-17.974-2.73-10.881-1.653-5.335-.81c-1.815-.276-3.671-.757-5.489-.249-1.535.429-3.046 1.368-4.478 2.061l-5.46 2.642-14.081 6.814-14.258 6.899c-2.155 1.043-5.196 2.204-4.204 5.232.476 1.452 1.687 2.035 3.082 2.315l4.561.916c11.47 2.308 22.934 4.641 34.403 6.949 3.06.616 5.91.921 8.835-.474 2.669-1.273 5.188-3.008 7.732-4.513 5.531-3.271 11.058-6.549 16.59-9.818 2.503-1.479 5.008-2.957 7.515-4.43 2.218-1.303.208-4.762-2.019-3.454h.005Z" fill="#211715"/><path d="M360.548 292.778c.734 2.137.898 3.813.81 6.067a25.556 25.556 0 0 1-.189 2.236c.052-.392-.058.363-.07.433a30.962 30.962 0 0 1-.55 2.611c-.258 1.012.33 2.217 1.397 2.46 1.04.237 2.184-.312 2.46-1.397 1.109-4.358 1.482-9.157 0-13.474-.339-.987-1.388-1.744-2.46-1.397-.979.317-1.761 1.401-1.397 2.46l-.001.001ZM279.583 278.734c7.824-3.752 15.619-7.566 23.487-11.228.979-.456 1.226-1.866.718-2.736-.587-1.004-1.753-1.175-2.736-.718-7.868 3.661-15.662 7.476-23.487 11.228-2.32 1.113-.294 4.563 2.019 3.454h-.001Z" fill="#211715"/><path d="m281.311 273.425-.361-.467-.226-.292c-.168-.219.178.293.056.066-.205-.381-.105-.158-.117.595-.009.606.087.794-.334 1.124-.275.216-.017.035.053 0 .07-.036.143-.067.215-.1a44.511 44.511 0 0 1 .75-.331c.422-.184-.286.117-.036.014a53.48 53.48 0 0 1 1.086-.437 47.314 47.314 0 0 1 4.522-1.485c1.008-.277 1.729-1.433 1.397-2.46-.332-1.027-1.379-1.694-2.46-1.397a46.687 46.687 0 0 0-5.545 1.895c-1.076.447-2.438.833-3.087 1.884-.501.811-.433 1.867.063 2.662.34.545.8 1.047 1.194 1.557.29.375.966.586 1.414.586.491 0 1.076-.218 1.414-.586.35-.381.61-.882.586-1.414-.025-.567-.242-.97-.586-1.414h.002ZM275.574 198.225c3.657.211 7.315.399 10.974.578 3.201.157 6.499.095 9.673.546 4.845.69 9.333 3.064 12.676 6.624 3.282 3.495 5.367 8.14 5.719 12.93.274 3.736.064 7.555.064 11.299v13.995c0 2.574 4 2.578 4 0v-12.882c0-4.11.24-8.309-.064-12.411-.808-10.901-8.638-20.418-19.321-23.015-3.525-.857-7.206-.816-10.809-.991-4.305-.209-8.609-.425-12.912-.673-2.572-.148-2.563 3.852 0 4Z" fill="#211715"/><path d="M163.944 166.629c2.861-2.103 4.86-4.736 6.485-7.844 1.226-2.344 1.59-5.012 1.871-7.627 1.421-13.222 2.07-31.662 1.499-46.281-.713-21.694 4.938-37.427 13.847-46.04 5.37-5.192 17.471-12.265 31.067-12.265 8.165 0 17.715.808 26.81 8.787 10.983 7.275 17.273 16.404 18.523 33.199.171 2.299.209 7.675.271 15.073-.571 15.194-.25 35.606 1.171 49.348.281 2.718.646 5.491 1.871 7.927 1.625 3.23 4.581 5.528 7.442 7.714" fill="#6B5649"/><path d="M248.14 105.088c1.271-.822 2.825-.954 4.09-.7 2.755.552 3.699 2.176 4.066 3.097 1.095 2.754.266 7.349-1.228 10.034-1.053 1.899-2.645 4.524-5.854 6.266-1.011.546-3.547 1.27-5.829.917 1.693-1.108-2.374 4.563-2.374 4.563-1.358 1.819-2.785 3.555-4.415 5.236.571 1.672 1.146 3.347 1.721 5.021.455 1.313.91 2.644 1.631 3.837 1.948 3.21 6.086 4.91 9.459 6.558.556.272 1.172.547 1.817.823l-1.664 1.311c-9.673 7.125-21.153 11-32.669 11.017-4.409 0-8.884-.56-12.986-2.405-3.834-1.725-7.348-4.654-9.534-8.631 2.064-.69 4.068-1.38 5.493-1.981 1.931-.627 3.708-2.18 4.541-4.034.017-.037.052-.139.099-.289-6.113-.675-11.384-3.17-16.315-7.61-5.948-5.355-8.264-13.467-8.817-22.341-.242-3.886-.43-8.026-.711-12.23.598-2.22 2.001-5.977 3.385-8.069h21.469c3.95-1.415 7.225-4.542 9.255-8.214 1.642-2.97 2.546-5.332 3.308-9.302l9.879 1.124c1.136 4.538 2.53 8.885 3.795 11.3 2.567 4.897 7.056 11.664 11.697 13.497l6.692 1.207-.001-.002Z" fill="#F9F6F1"/><path d="M188.302 156.218c3.107-1.169 6.293-2.116 9.422-3.224 1.497-.531 3.121-1.033 4.503-1.82 1.656-.943 3.09-2.422 3.905-4.149.461-.976.272-2.158-.718-2.736-.87-.509-2.273-.263-2.736.718-1.289 2.729-4.022 3.441-6.697 4.369-2.909 1.01-5.86 1.901-8.743 2.986-1.01.38-1.702 1.351-1.397 2.46.266.969 1.444 1.779 2.46 1.397l.001-.001ZM234.896 135.702c.887 2.583 1.636 5.286 2.831 7.748 1.055 2.173 2.812 3.814 4.809 5.123 3.915 2.565 8.451 4.211 12.76 5.967 1.001.408 2.198-.443 2.46-1.397.315-1.145-.392-2.051-1.397-2.46-3.84-1.565-7.783-3.076-11.327-5.261-1.588-.979-2.929-2.149-3.774-3.835-1.091-2.176-1.717-4.65-2.505-6.948-.831-2.421-4.696-1.381-3.857 1.063ZM200.392 130.675c1.734.994 3.808 1.402 5.789 1.453.997.026 2.015-.066 2.987-.286.493-.112.957-.29 1.422-.486.294-.124.586-.251.877-.382l.326-.147c.034-.015.578-.242.182-.08.965-.393 1.757-1.348 1.397-2.46-.301-.931-1.423-1.82-2.46-1.397-.574.234-1.139.487-1.705.739-.038.017-.379.158-.157.07.22-.087-.108.038-.147.052a6.333 6.333 0 0 1-.538.17 7.205 7.205 0 0 1-.596.132c-.087.016-.195.015-.277.045.112-.041.377-.041.105-.019-.421.034-.84.058-1.263.052-.409-.006-.812-.047-1.219-.076-.29-.021.363.06.078.013l-.3-.048a11.365 11.365 0 0 1-.661-.133 10.134 10.134 0 0 1-1.106-.322c-.071-.025-.447-.115-.143-.047.258.057.011.006-.065-.032a8.974 8.974 0 0 1-.505-.264c-.908-.52-2.229-.243-2.736.718-.503.952-.252 2.181.718 2.736l-.003-.001ZM213.545 110.022c-.402-1.825.291-5.891 3.693-5.963 4.455.393 4.286 5.364 2.595 7.568-1.385 1.805-5.063 2.301-6.287-1.606l-.001.001ZM187.012 108.68c-.36-1.829.293-5.91 3.409-5.997 4.079.374 3.902 5.361 2.343 7.579-1.277 1.817-4.647 2.331-5.752-1.582ZM200.351 113.451c-.605.915-1.202 1.847-1.718 2.816-.211.397-.439.806-.536 1.248-.206.936-.001 1.793.633 2.517.425.485.96.787 1.548 1.021.382.152.798.174 1.202.228l-.532-.071c.06.008.119.018.178.029.534.104 1.059.08 1.541-.202.415-.243.811-.718.919-1.195.117-.512.091-1.087-.202-1.541-.27-.419-.688-.82-1.195-.919-.266-.052-.536-.078-.804-.113l.532.071a2.284 2.284 0 0 1-.576-.144l.478.202a1.974 1.974 0 0 1-.353-.211l.405.313a2.183 2.183 0 0 1-.355-.351l.313.405a.54.54 0 0 1-.06-.117l.202.478a.547.547 0 0 1-.03-.127l.071.532a1.136 1.136 0 0 1 .003-.202l-.071.532c.02-.122.055-.236.099-.351l-.202.478c.258-.607.634-1.182.977-1.744.321-.526.649-1.047.988-1.561.277-.419.332-1.068.202-1.541-.128-.464-.486-.967-.919-1.195-1.003-.53-2.12-.216-2.736.718l-.002-.003Z" fill="#211715"/><path d="M232.699 140.586c2.949-2.27 5.626-4.799 7.987-7.679 1.64-2 3.257-4.118 4.503-6.393.519-.947.233-2.181-.718-2.736-.915-.535-2.216-.233-2.736.718-.598 1.092-1.307 2.124-2.018 3.145a34.687 34.687 0 0 1-1.86 2.439c-2.125 2.592-4.541 5.024-7.178 7.054-.854.658-1.312 1.72-.718 2.736.492.841 1.875 1.381 2.736.718l.002-.002ZM223.684 140.492c-8.844 3.556-19.005 5.185-27.812.601-4.022-2.094-7.737-5.12-10.103-9.027-2.38-3.931-3.578-8.518-4.11-13.053-.758-6.453-.763-13-1.3-19.476-.211-2.547-4.213-2.57-4 0 .515 6.213.573 12.474 1.212 18.674.533 5.17 1.682 10.336 4.199 14.928 4.886 8.914 14.967 14.358 24.958 14.758 6.217.249 12.284-1.242 18.019-3.548 1.001-.403 1.706-1.334 1.397-2.46-.261-.951-1.452-1.802-2.46-1.397Z" fill="#211715"/><path d="M249.15 106.815c1.154-.691 2.539-.7 3.759-.142.923.422 1.138.744 1.561 1.587-.301-.6.089.314.127.46.067.253.121.515.153.771.093.753.063 1.542-.01 2.296a13.503 13.503 0 0 1-.938 3.789c-.953 2.306-2.637 4.607-4.736 5.97-.321.208-.65.405-.991.579-.46.235.395-.129-.179.074a11 11 0 0 1-1.818.484c-1.172.199-2.518.223-3.597-.338-2.281-1.185-4.306 2.265-2.019 3.454 2.614 1.358 5.869 1.236 8.589.223 2.816-1.049 5.071-3.288 6.704-5.755a18.15 18.15 0 0 0 2.919-7.887c.324-2.617.068-5.487-1.7-7.566-2.346-2.757-6.804-3.273-9.843-1.453-2.206 1.322-.197 4.781 2.019 3.454ZM224.028 79.616c1.372 5.43 3.082 10.596 6.052 15.37 2.676 4.301 6.024 8.82 10.837 10.824.998.415 2.2-.448 2.46-1.397.316-1.151-.395-2.043-1.397-2.46-1.824-.759-3.338-2.315-4.626-3.76-1.606-1.802-2.97-3.807-4.215-5.87-2.589-4.294-4.029-8.927-5.253-13.769-.63-2.494-4.489-1.437-3.857 1.063h-.001ZM214.149 77.43c-1.269 6.504-4.454 13.643-11.167 16.12-1.013.372-1.7 1.355-1.397 2.46.268.974 1.442 1.771 2.46 1.396 8.06-2.972 12.392-10.87 13.961-18.913.207-1.059-.3-2.159-1.397-2.46-.981-.27-2.252.33-2.46 1.396ZM200.298 77.756c-.298 6.47-3.32 12.46-8.305 16.58-.833.688-.713 2.115 0 2.827.824.824 1.993.69 2.828 0 5.79-4.786 9.133-11.944 9.477-19.408.05-1.08-.955-2-2-2-1.125 0-1.95.918-2 2.001ZM179.451 110.022c.713-5.096 1.973-10.209 4.981-14.467 3.488-4.937 6.18-10.809 5.174-16.97-.174-1.068-1.499-1.662-2.46-1.398-1.134.312-1.572 1.39-1.397 2.46.922 5.647-2.663 10.521-5.531 14.974-2.718 4.22-3.939 9.437-4.624 14.336-.149 1.068.26 2.148 1.397 2.46.936.257 2.31-.32 2.46-1.397v.002Z" fill="#211715"/><path d="M275.812 166.892c-3.14-2.401-6.299-4.975-7.451-8.915-1.067-3.649-1.156-7.649-1.426-11.423-.583-8.159-.819-16.343-.874-24.521-.056-8.233.286-16.457.201-24.688-.07-6.767-.256-13.486-2.027-20.07-1.954-7.263-5.799-13.722-11.371-18.784-1.902-1.728-4.739 1.093-2.828 2.828 4.754 4.32 8.154 9.652 10 15.813 1.942 6.484 2.151 13.106 2.222 19.814.089 8.293-.251 16.579-.199 24.874.052 8.249.287 16.505.876 24.734.312 4.367.368 9.144 1.83 13.303 1.623 4.616 5.265 7.611 9.028 10.489.859.657 2.239.133 2.736-.718.602-1.03.143-2.078-.718-2.736h.001Z" fill="#211715"/><path d="M180.782 155.551c-5.16 2.113-10.202 4.799-13.408 8.01a48.755 48.755 0 0 0-6.014 7.275c-2.886 5.551-10.233 25.25-14.657 36.361-1.45 3.642-3.702 8.958-6.993 14.5l-10.734 19.143 59.191 3.135c.097-.087.195-.174.295-.26 1.815-1.572 4.015-2.952 5.866-3.679 2.006-.788 4.619-.442 6.693.325 2.021.747 3.488 2.044 5.48 2.866 1.978.816 4.027 1.274 6.158 1.459 4.192.363 8.478.719 12.591-.033 2.934-.537 5.925.524 7.998 2.668 3.532 3.655 6.872 7.609 8.191 12.465 2.073 3.758 6.17 5.994 12.133 5.661 13.333-2.209 22.597-5.569 31.972-12.111 1.475-1.029 2.583-2.437 3.718-3.875 3.059-3.875 5.113-8.846 5.401-13.029.539-7.834.458-15.982-.425-25.443a168.382 168.382 0 0 0-3.415-21.472c-1.823-5.353-3.828-10.574-5.95-14.718-3.684-7.197-6.827-10.489-9.31-12.569-5.821-4.879-14.077-8.88-23.424-12.211l-.778.613-1.801 1.419c-9.673 7.125-21.153 11-32.669 11.017-4.409 0-8.884-.56-12.986-2.405-4.078-1.835-7.795-5.033-9.926-9.408-1.039.264-2.721.697-3.435.906-2.987.879-6.401 2.013-9.764 3.39h.002Z" fill="#9CC2D3"/><path d="M164.954 168.355a24.324 24.324 0 0 0 6.22-6.821c1.737-2.84 2.565-5.784 2.976-9.066.75-5.99 1.115-12.044 1.408-18.07.318-6.526.472-13.06.446-19.594-.026-6.407-.469-12.816-.109-19.22.575-10.226 2.788-20.823 8.423-29.53 5.224-8.072 13.962-13.244 23.078-15.84 6.191-1.765 12.707-2.035 19.081-1.242 6.768.842 12.971 3.638 18.06 8.18 1.915 1.71 4.754-1.11 2.828-2.828-4.809-4.292-10.496-7.358-16.821-8.697-5.517-1.168-11.469-1.42-17.061-.714-10.528 1.328-21.75 6.206-28.915 14.246-6.645 7.457-10.099 17.304-11.661 27.035-1.034 6.445-1.31 12.96-1.077 19.477.233 6.518.224 13.058.063 19.584-.177 7.156-.533 14.312-1.158 21.444-.299 3.407-.352 7.163-1.689 10.358-1.264 3.022-3.495 5.882-6.11 7.846-.862.648-1.307 1.728-.718 2.736.497.85 1.867 1.37 2.736.718v-.002Z" fill="#211715"/><path d="M194.324 149.104c-5.774 1.45-11.431 3.27-16.868 5.713-3.251 1.46-6.402 3.165-9.222 5.355-2.32 1.802-4.319 4.006-6.136 6.305-1.016 1.286-2.105 2.59-2.826 4.069-.425.871-.82 1.757-1.209 2.645-1.104 2.524-2.145 5.076-3.172 7.632-2.462 6.129-4.828 12.298-7.22 18.455-2.847 7.326-5.681 14.616-9.687 21.409-1.311 2.222 2.146 4.237 3.454 2.019 3.608-6.116 6.294-12.64 8.872-19.237 2.34-5.988 4.639-11.992 7.001-17.972 1.764-4.467 3.344-9.231 5.672-13.449 1.441-2.61 3.693-4.982 5.805-7.074 2.266-2.244 5.034-3.905 7.859-5.351 5.921-3.03 12.308-5.048 18.741-6.664 2.495-.627 1.438-4.485-1.063-3.857l-.001.002Z" fill="#211715"/><path d="M192.206 152.191c9.024 18.14 35.205 14.159 50.03 6.704 3.776-1.899 7.228-4.24 10.54-6.85.849-.669.7-2.128 0-2.828-.838-.838-1.977-.671-2.828 0-5.793 4.565-12.565 8.108-19.817 10.066a51.027 51.027 0 0 1-12.396 1.776c-4.383.078-8.953-.354-12.985-2.201-3.954-1.811-7.149-4.785-9.09-8.686-1.147-2.305-4.598-.281-3.454 2.019ZM1.926 236.086c21.237 1.133 42.473 2.262 63.71 3.39a649383.966 649383.966 0 0 0 122.318 6.487c2.572.136 2.565-3.864 0-4a1087619.068 1087619.068 0 0 1-152.194-8.076c-11.278-.6-22.556-1.2-33.834-1.802-2.572-.137-2.565 3.864 0 4.001Z" fill="#211715"/><path d="m60.774 283.742-3.642-.233a4.58 4.58 0 0 1-4.201-3.679c-3.658-18.362-8.773-45.561-12.602-64.005-.609-2.934 1.702-5.651 4.696-5.519 30.585 1.347 76.282 3.474 85.66 4.159 4.99.51 7.058 4.337 7.946 8.326 1.829 8.214 4.459 21.797 6.899 34.379l7.819.415c17.044.944 36.381 1.622 49.548 2.511 2.498.792 4.387 2.543 4.387 5.743 0 2.755-1.684 4.533-4.579 5.607-14.301 6.25-24.456 10.276-39.467 16.528-3.808 1.466-11.341 1.935-16.416 1.538-11.554-.941-53.511-3.686-86.048-5.771v.001Z" fill="#F9F6F1"/><path d="M164.765 266.458c-6.137-.374-13.192-.795-17.332-1.011l-.297-.015c.87 4.464 1.682 8.581 2.38 12.006.11.005.168.01.168.01.371.028 15.283-5.639 22.79-8.67.958-.387.728-1.802-.303-1.865-2.045-.126-4.631-.285-7.405-.454l-.001-.001Z" fill="#FFA21F"/><path d="M152.367 281.332c-2.9-13.491-5.344-27.083-8.013-40.621-1.251-6.347-2.334-12.794-3.94-19.063-.9-3.513-2.862-6.841-6.304-8.333-2.085-.904-4.36-.922-6.592-1.056-12.567-.757-25.148-1.317-37.723-1.911a14451.838 14451.838 0 0 0-36.807-1.689l-5.597-.249c-1.984-.088-3.926-.286-5.739.705-1.683.919-2.956 2.634-3.293 4.528-.343 1.932.287 3.884.673 5.769.835 4.077 1.651 8.159 2.459 12.242 1.735 8.765 3.432 17.538 5.133 26.31.832 4.291 1.664 8.583 2.503 12.873.377 1.929.755 3.858 1.136 5.786.365 1.85.516 3.977 1.481 5.63 2.266 3.883 7.126 3.366 11.006 3.615 4.301.276 8.601.553 12.902.831 16.55 1.069 33.1 2.148 49.646 3.273 5.757.392 11.515.786 17.27 1.213 6.336.47 12.708.829 18.964-.619 2.028-.47 3.906-1.357 5.822-2.151 2.3-.953 4.602-1.903 6.904-2.852 4.184-1.724 8.37-3.444 12.548-5.184 4.367-1.819 8.724-3.66 13.067-5.535 3.632-1.568 8.314-2.882 9.232-7.329.833-4.036-1.309-7.685-5.089-9.137-1.51-.58-3.455-.434-5.062-.53a935.796 935.796 0 0 0-5.558-.315c-8.773-.475-17.549-.882-26.325-1.303-4.371-.21-8.743-.422-13.114-.644-2.573-.131-2.566 3.869 0 4 8.657.44 17.316.841 25.973 1.263 4.127.201 8.254.406 12.38.626 1.788.095 3.576.194 5.364.298 1.533.089 3.162.04 4.677.289 2.649.434 3.913 4.011 2.111 6.026-1.284 1.436-3.641 2.018-5.349 2.758a904.53 904.53 0 0 1-6.326 2.715c-8.086 3.436-16.223 6.749-24.342 10.106-3.72 1.538-7.212 3.132-11.243 3.607-3.601.425-7.25.487-10.864.201-4.53-.358-9.063-.675-13.596-.99-15.013-1.044-30.031-2.026-45.048-3.004-8.251-.537-16.502-1.07-24.753-1.599-1.905-.122-3.924-.068-5.808-.372-1.686-.272-2.14-1.545-2.437-3.041-.751-3.777-1.49-7.555-2.227-11.335-3.193-16.381-6.298-32.781-9.651-49.13-.283-1.38-1.016-3.128-.215-4.442.864-1.416 2.316-1.26 3.767-1.195a14596.605 14596.605 0 0 1 34.784 1.577c13.517.629 27.035 1.258 40.547 1.988 2.075.112 4.15.227 6.224.353 1.917.117 3.935.074 5.578 1.229 2.438 1.713 3.001 4.87 3.59 7.585a643.91 643.91 0 0 1 1.811 8.69c2.789 13.771 5.354 27.586 8.114 41.363.484 2.417.975 4.834 1.493 7.244.541 2.515 4.398 1.451 3.857-1.063l-.001-.001Z" fill="#211715"/><path d="M181.682 270.647c-7.708 3.103-15.409 6.223-23.131 9.289-1.003.398-1.705 1.337-1.397 2.46.262.955 1.451 1.798 2.46 1.397 7.722-3.066 15.423-6.186 23.131-9.289 1.001-.403 1.706-1.334 1.397-2.46-.261-.951-1.452-1.803-2.46-1.397ZM147.432 267.447c7.478.391 14.952.863 22.425 1.322l1.199.074c.17.01.406.058.568.035.784-.11-.507.715-.511-.734-.001-.427 1.035-1.17.348-1.103-.132.013-.39.157-.497.199l-1.178.469a968.145 968.145 0 0 1-14.722 5.682c-1.327.499-2.655.996-3.988 1.478-.419.152-.838.304-1.259.447-.342.115-1.07.187-.135.131-2.558.153-2.576 4.154 0 4 .741-.044 1.44-.354 2.129-.601a294.06 294.06 0 0 0 4.055-1.499 931.459 931.459 0 0 0 11.074-4.243 609.553 609.553 0 0 0 5.339-2.107c.97-.389 1.921-.726 2.447-1.708.601-1.123.392-2.568-.485-3.486-1.321-1.383-4.216-1.023-5.987-1.132l-6.606-.402c-4.738-.286-9.476-.574-14.216-.822-2.573-.134-2.565 3.866 0 4Z" fill="#211715"/><path d="M224.487 267.599c2.66-.435 5.102-1.259 6.645-2.255l10.306-5.559c-1.319-4.857-4.659-8.811-8.191-12.465-2.073-2.145-5.063-3.205-7.998-2.668-4.114.752-8.399.397-12.591.033-2.132-.185-4.18-.643-6.158-1.459-1.992-.822-3.459-2.119-5.48-2.866-2.074-.767-4.687-1.113-6.693-.325-2.901 1.139-6.659 3.882-8.448 6.455-.929 1.126-2.165 3.604-.342 5.772.74.88 2.342.794 3.818.604-1.934 1.677-3.727 3.32-4.701 4.38-.588.64-1.256 2.81-.177 4.126 1.032 1.259 2.392 1.261 3.154 1.147 1.192-.178 2.416-.751 3.539-1.443-1.321 1.058-2.357 1.95-2.768 2.441-1.318 1.577-1.866 4.026-.387 5.599 2.524 2.683 8.263-.937 11.412-3.509 2.619-1.96 3.495-2.394 6.256-4.478l-3.952 5.06c-.714.914-1.271 1.961-1.282 3.121-.012 1.338.83 2.304 2.106 2.708 1.276.404 2.694.189 3.872-.445s2.152-1.493 3.09-2.447a70.475 70.475 0 0 0 3.181-3.421c2.55 2.281 7.458 2.601 11.787 1.893l.002.001Z" fill="#F9F6F1"/><path d="M195.224 245.544c-3.212 2.322-6.251 4.937-9.188 7.593-1.211 1.095-2.854 2.308-3.536 3.831-1.263 2.82-.362 6.111 2.674 7.271 2.918 1.115 6.136-.734 8.441-2.396.875-.631 1.3-1.741.718-2.736-.505-.864-1.856-1.353-2.736-.718-.936.675-1.93 1.365-3.006 1.799-.481.194-.983.305-1.49.403.403-.078.177-.038-.099-.026-.08.004-.161-.006-.241-.008.193.005.225.061.016-.003-.088-.027-.179-.047-.268-.074-.294-.088.218.135-.065-.031-.21-.123-.213-.129-.301-.218-.027-.028-.236-.328-.139-.109-.04-.091-.061-.197-.084-.293-.077-.312-.002.25-.01-.071-.003-.105.049-.712-.009-.366.031-.188.096-.367.136-.553.077-.356-.109.192.089-.212.196-.4-.169.121.024-.054 1.096-.992 2.115-2.076 3.221-3.063a149.435 149.435 0 0 1 4.193-3.599 130.837 130.837 0 0 1 2.691-2.174l.244-.19c-.106.082-.247.187-.057.045.267-.2.532-.402.802-.597.874-.632 1.3-1.74.718-2.736-.505-.863-1.856-1.354-2.736-.718l-.002.003ZM201.98 262.649c-1.576 2.018-3.632 4.094-3.525 6.851.11 2.835 2.529 4.563 5.19 4.717 2.725.158 5.101-1.528 6.956-3.343 1.668-1.631 3.225-3.377 4.713-5.172.689-.831.814-2.015 0-2.828-.709-.709-2.136-.836-2.828 0a72.81 72.81 0 0 1-3.675 4.118c-.69.715-1.38 1.445-2.16 2.065-.542.431-1.296.899-1.996 1.077-.459.117-.472.109-1.009.084-.252-.017-.294-.022-.126-.014l-.216-.05c-.076-.026-.581-.23-.255-.067-.072-.036-.547-.357-.39-.224.249.212-.313-.404-.113-.127.196.27-.191-.462-.072-.145.103.272-.029-.62-.018-.089-.002-.07.029-.619-.015-.297.028-.209.096-.416.161-.616.149-.463-.11.117.142-.304.112-.186.214-.374.334-.555.457-.69 1.138-1.491 1.732-2.251.664-.85.829-1.999 0-2.828-.692-.692-2.16-.856-2.828 0l-.002-.002Z" fill="#211715"/><path d="M212.158 267.813c2.855 2.021 6.79 2.31 10.17 2.047 3.334-.259 6.946-.978 9.814-2.789 2.171-1.371.166-4.834-2.019-3.454-.504.318-1.032.595-1.58.829.333-.143-.257.096-.262.098a20.274 20.274 0 0 1-1.52.501c-1.526.438-2.97.7-4.434.815-.799.063-1.602.087-2.403.067-.671-.017-1.592-.091-2.009-.163-1.554-.268-2.555-.567-3.739-1.405-.882-.624-2.225-.157-2.736.718-.586 1.002-.167 2.11.718 2.736ZM189.562 250.84c-.593.076-2.029.45-2.557.071-.623-.448-.419-1.601-.181-2.177.667-1.608 2.281-3.013 3.632-4.091 1.527-1.219 3.533-2.677 5.515-2.994 2.181-.349 4.414.457 6.268 1.533 2.17 1.26 4.285 2.362 6.751 2.939 2.565.6 5.258.739 7.882.884 2.753.152 5.493.109 8.222-.311 2.091-.322 4.02-.092 5.777 1.185 1.944 1.412 3.673 3.656 5.097 5.572 1.555 2.093 2.826 4.349 3.541 6.866.702 2.472 4.563 1.421 3.857-1.063-.788-2.772-2.125-5.336-3.823-7.657-1.598-2.186-3.401-4.434-5.443-6.225-2.022-1.774-4.612-2.855-7.32-2.857-1.441-.001-2.861.378-4.296.487-1.711.131-3.431.112-5.143.029-3.03-.147-6.129-.293-9.028-1.256-2.661-.883-4.812-2.781-7.514-3.594-2.879-.867-5.729-.747-8.44.548-2.387 1.14-4.657 2.793-6.501 4.688-1.892 1.946-3.628 4.43-3.168 7.284.23 1.426 1.024 2.911 2.298 3.667 1.36.806 3.075.666 4.573.473 1.071-.138 2-.82 2-2 0-.974-.921-2.139-2-2l.001-.001Z" fill="#211715"/><path d="M199.619 252.488a198.525 198.525 0 0 0-5.631 4.11c-1.88 1.417-3.8 2.827-5.541 4.416-2.156 1.968-3.427 5.443-1.678 8.091 2.206 3.34 6.293 2.675 9.317.979 1.745-.979 3.258-2.305 4.885-3.459 1.807-1.282 3.65-2.513 5.427-3.836.865-.644 1.306-1.731.718-2.736-.499-.853-1.865-1.366-2.736-.718-2.687 2-5.469 3.863-8.149 5.872-1.078.808-2.306 1.652-3.551 2.074a6.56 6.56 0 0 1-.914.247c-.364.066.221-.008-.136.016-.145.01-.289.011-.433.007-.348-.01.239.061-.097-.003a2.456 2.456 0 0 1-.304-.076c-.236-.077-.194-.047-.415-.248-.344-.312-.41-.57-.424-.852-.025-.489.092-.903.34-1.357.308-.564.733-.961 1.273-1.435 1.616-1.419 3.003-2.449 4.608-3.657 1.8-1.354 3.616-2.689 5.461-3.981.884-.619 1.295-1.75.718-2.736-.511-.874-1.847-1.34-2.736-.718h-.002ZM247.077 150.409c5.36 1.741 10.659 3.704 15.726 6.181 4.165 2.036 8.304 4.387 11.809 7.45 7.152 6.248 10.769 15.908 13.809 24.635 1.001 2.874 1.472 5.962 2.005 8.955.533 2.993.989 6.009 1.35 9.032a170.38 170.38 0 0 1 1.21 17.875c.036 2.672.001 5.345-.11 8.015-.103 2.489-.185 4.942-.879 7.349-1.352 4.689-4.311 9.588-8.401 12.351-9.245 6.245-19.631 9.439-30.557 11.266-1.066.178-1.662 1.496-1.397 2.46.311 1.13 1.391 1.576 2.46 1.397 10.33-1.727 20.377-4.672 29.323-10.247 2.275-1.418 4.463-2.874 6.198-4.945 1.804-2.153 3.416-4.442 4.61-6.992 1.149-2.453 1.983-5.008 2.32-7.699.333-2.657.366-5.381.418-8.056.243-12.438-1.009-24.963-3.508-37.144-1.231-6.003-3.644-11.909-6.322-17.415-2.129-4.377-4.715-8.69-8.138-12.189-3.511-3.588-7.929-6.329-12.356-8.632-5.911-3.075-12.179-5.449-18.508-7.505-2.454-.797-3.505 3.064-1.063 3.857l.001.001Z" fill="#211715"/><path d="m90.25 138.464 17.872.487c2.847.077 5.693.155 8.54.231l3.901.105c.155.004 1.663.186 1.768.047-.059.078-.335-.148-.248-.237.127-.131.024.242.016-.035-.007-.26.605-.123-.031-.082-.118.008-.245.047-.361.071-.637.131-1.276.25-1.913.375l-7.103 1.392-18.137 3.554-5.695 1.116c-.188.037-.383.092-.574.112-.461.049.425.087-.357-.054-1.098-.197-2.359-.064-3.475-.094l-4.053-.113c-11.313-.317-22.625-.659-33.939-.974-2.575-.072-2.573 3.928 0 4 10.65.297 21.299.617 31.948.918 2.694.076 5.387.151 8.081.224 1.051.028 2.08.094 3.114-.1 1.813-.341 3.621-.71 5.432-1.064l19.268-3.775 7.167-1.404c1.991-.39 3.997-.836 4.519-3.208.267-1.213-.087-2.571-.957-3.469-1.066-1.1-2.439-1.145-3.874-1.183l-9.687-.261-21.221-.578c-2.575-.07-2.573 3.93 0 4l-.001-.001Z" fill="#D9D9D9"/><path d="M93.119 140.73c-1.004-5.102-1.979-10.21-2.983-15.313a738.422 738.422 0 0 0-1.422-7.079c-.423-2.038-.701-4.235-1.691-6.094-1.138-2.135-3.169-3.257-5.527-3.464-1.298-.114-2.604-.164-3.904-.236-4.57-.253-9.143-.475-13.715-.694-6.653-.32-13.306-.625-19.959-.925-2.574-.116-2.568 3.884 0 4 10.38.467 20.76.935 31.136 1.482 1.612.085 3.224.172 4.836.269 1.185.072 2.479-.047 3.299.975 1.07 1.333 1.196 3.488 1.535 5.107.47 2.248.92 4.5 1.365 6.753 1.072 5.425 2.106 10.857 3.174 16.282.497 2.523 4.352 1.455 3.856-1.063ZM319.84 145.864c5.959.229 11.919.458 17.879.67a2222.682 2222.682 0 0 0 12.468.41c.156.005 1.667.19 1.773.05-.059.079-.335-.149-.246-.237.132-.132.017.248.021-.035.004-.264.6-.123-.027-.082-.119.008-.245.047-.361.071-.637.131-1.276.25-1.914.375l-7.106 1.392-18.142 3.554-5.697 1.116c-.188.037-.383.092-.574.112-.461.048.424.087-.357-.054-1.097-.198-2.357-.067-3.473-.101-1.351-.042-2.701-.085-4.052-.13-11.315-.378-22.626-.872-33.942-1.189-2.575-.072-2.573 3.928 0 4 10.653.299 21.301.757 31.952 1.122 2.692.092 5.385.18 8.078.258 1.051.03 2.079.096 3.113-.098 1.814-.341 3.622-.71 5.433-1.064l19.274-3.775 7.169-1.404c1.99-.39 3.993-.836 4.512-3.208.265-1.213-.088-2.57-.958-3.469-1.067-1.101-2.441-1.144-3.878-1.185-3.237-.093-6.474-.198-9.71-.31-7.079-.243-14.156-.515-21.234-.787-2.574-.099-2.57 3.901 0 4l-.001-.002Z" fill="#D9D9D9"/><path d="M322.75 148.389c-1.068-5.426-2.102-10.858-3.174-16.282a573.115 573.115 0 0 0-1.464-7.221c-.457-2.17-.822-4.4-2.27-6.167-2.356-2.875-6.701-2.398-10.057-2.515-4.749-.166-9.499-.294-14.248-.431-6.596-.19-13.191-.382-19.786-.617-2.574-.092-2.571 3.908 0 4 10.468.373 20.939.626 31.408.961 1.773.057 3.547.115 5.32.189 1.125.047 2.567-.093 3.523.358 1.632.77 1.795 3.135 2.124 4.678.474 2.224.922 4.453 1.365 6.683 1.153 5.805 2.258 11.62 3.401 17.428.497 2.523 4.353 1.455 3.857-1.063l.001-.001ZM375.125 153.04c-3.159 2.188-7.085 2.65-10.79 1.798-2.01-.462-3.77-1.418-5.494-2.528-1.051-.676-1.857-1.512-2.009-2.806-.403-3.418 3.82-4.709 6.243-5.898 3.589-1.761 7.361-3.37 11.313-4.093 1.992-.364 3.147.299 3.821 2.219a55.343 55.343 0 0 1 2.028 7.45c.507 2.527 4.363 1.454 3.857-1.063-.564-2.811-1.293-5.63-2.336-8.305-.863-2.212-2.648-3.94-5.047-4.343-2.399-.403-5.103.484-7.357 1.22-2.444.798-4.823 1.811-7.147 2.908-4.023 1.898-8.819 3.749-9.347 8.776-.528 5.027 3.953 7.875 8.022 9.557 5.137 2.123 11.648 1.759 16.264-1.437 2.102-1.456.105-4.924-2.019-3.454l-.002-.001Z" fill="#D9D9D9"/><path d="M375.125 153.04c-3.321 2.292-7.323 2.248-11.1 1.238-2.674-.715-6.775-1.607-7.064-4.973-.097-1.137.307-2.34 1.217-3.071 1.439-1.155 3.436-1.916 5.087-2.721 3.583-1.748 7.357-3.342 11.304-4.033 1.931-.338 3.006.448 3.639 2.252a55.343 55.343 0 0 1 2.028 7.45c.507 2.527 4.363 1.454 3.857-1.063-.564-2.811-1.293-5.63-2.336-8.305-.846-2.169-2.59-3.9-4.941-4.324-2.308-.417-4.885.387-7.074 1.077-2.514.792-4.957 1.824-7.342 2.942-4.043 1.895-8.946 3.733-9.415 8.813a7.818 7.818 0 0 0 1.484 5.301c1.518 2.048 3.932 3.12 6.3 3.877 5.386 1.72 11.469 2.38 16.374-1.004 2.105-1.452.107-4.921-2.019-3.454l.001-.002Z" fill="#D9D9D9"/></g><defs><clipPath id="clip0_2_509"><path fill="#fff" d="M0 0h434.359v330.954H0z"/></clipPath></defs></svg>