<svg width="655" height="750" fill="none" xmlns="http://www.w3.org/2000/svg"><g clip-path="url('#clip0_2_349')"><path d="M14.54 394.797C3 385.872-.192 370.462 13.913 361.383c-7.091-12.756-4.147-28.176 11.242-31.296-8.478-11.686-7.341-27.175 8.106-32.115-7.588-11.195-6.508-25.483 7.204-30.79-8.786-12.215-7.196-28.492 9.687-32.703-6.974-13.332-3.058-29.231 14.484-30.948-4.62-13.418.83-27.641 16.995-28.089.101-14.875 10.692-27.03 26.252-21.286 6.048-13.412 20.489-20.16 32.582-8.442 9.741-12.431 26.787-15.517 35.041-.683 12.423-8.684 28.832-6.887 32.794 9.919 14.82-7.059 32.195-1.658 31.945 16.406 15.538-.889 28.864 9.753 22.519 26.593 2.031-.03 4.563.509 6.692.525-8.111 6.447-9.054 19.989-4.055 30.847-15.654 2.641-19.402 30.59-11.171 41.082-12.639 3.08-14.697 37.118-.596 43.575-10.877 6.162-11.758 36.679 3.374 42.694-9.554 7.777-3.088 35.059 16.02 41.522-7.937 14.378 11.758 39.321 24.691 38.439-1.028 13.865 12.5 28.612 29.564 29.538l1.724.056c-1.115 6.164-5.952 10.076-13.968 12.3 2.912 13.178-3.288 26.056-17.66 26.145.596 14.224-8.678 26.373-24.042 22.382.774 15.252-9.798 28.233-27.064 21.655-5.317 12.712-18.401 19.544-31.004 9.369-8.118 10.65-21.826 14.261-31.255 3.415l-27.116-2.464c-11.905 6.14-25.834 3.466-29.611-10.639-13.483 6.394-29.075 2.179-30.72-14.116-14.416.792-26.889-8.349-23.498-23.127l.018-.073-2.58-.081c-13.478-.428-24.385-9.658-20.585-23.967-15.227.22-27.779-10.684-20.81-27.531-14.133-4.324-22.651-17.851-12.352-31.351-12-7.978-16.196-23.004-2.22-33.347Z" fill="#EDD351"/><path d="M13.417 395.918a25.754 25.754 0 0 1-10.413-18.056c-.464-7.582 4.008-13.802 10.107-17.846l-.57 2.167c-3.386-6.243-5.106-13.814-2.884-20.746a19.46 19.46 0 0 1 5.776-8.496 19.509 19.509 0 0 1 9.303-4.379l-.948 2.33a26.012 26.012 0 0 1-5.026-20.077c1.528-7.269 7.264-12.082 14.088-14.368l-.949 2.328a25.838 25.838 0 0 1-4.488-19.104 19.511 19.511 0 0 1 4.514-8.63 19.554 19.554 0 0 1 8.127-5.382l-.948 2.328c-4.197-5.96-6.669-13.574-4.881-20.833 1.869-7.581 8.234-12.281 15.516-14.198l-.948 2.327c-3.354-6.572-4.838-14.526-1.911-21.536 3.075-7.372 10.135-10.957 17.772-11.797l-1.53 2.004a25.642 25.642 0 0 1 .992-20.365c3.572-6.471 10.383-9.434 17.532-9.727l-1.587 1.584c.127-7.198 2.443-14.794 8.006-19.682 5.709-5.017 13.268-5.603 20.255-3.131l-1.786.726c3.02-6.49 8.234-12.327 15.268-14.459 7.318-2.22 14.439.65 19.806 5.701h-2.244c4.762-5.942 11.689-10.607 19.486-11.049 7.798-.441 14.265 4.101 18.056 10.696l-2.172-.568c6.057-4.146 13.75-6.537 21.048-4.696 7.565 1.917 12.26 8.263 14.077 15.56l-2.331-.947c7.211-3.347 15.776-4.555 23.215-1.218 7.591 3.409 11.111 10.971 11.111 18.993l-1.587-1.585c7.468-.35 15.534 1.692 20.776 7.315 5.496 5.893 5.919 13.976 3.274 21.285l-1.532-2.007c2.242.04 4.453.448 6.693.525 1.26.046 2.244 1.783 1.123 2.706-8.403 6.958-7.899 19.769-3.808 28.918a1.596 1.596 0 0 1 .087 1.392 1.597 1.597 0 0 1-1.037.935c-7.994 1.494-11.971 9.486-13.493 16.759-1.482 7.103-1.305 15.976 3.268 21.996a1.6 1.6 0 0 1 .095 1.394 1.598 1.598 0 0 1-1.043.933c-7.341 1.963-8.992 12.997-9.167 19.254-.21 7.491 1.389 17.793 8.959 21.426a1.598 1.598 0 0 1 .567 2.153c-.136.24-.331.44-.567.582-6.237 3.7-7.469 13.257-7.288 19.771.198 7.43 2.714 16.87 10.288 20.029.992.412 1.716 1.783.7 2.648-5.472 4.641-4.3 13.685-2.327 19.714a29.648 29.648 0 0 0 6.606 11.615 29.728 29.728 0 0 0 11.041 7.545 1.601 1.601 0 0 1 1.035.936 1.602 1.602 0 0 1-.087 1.391c-4.012 7.596.02 16.917 4.522 23.343 4.05 5.779 11.076 13.072 18.8 12.712a1.602 1.602 0 0 1 1.588 1.584c-.949 16.066 14.948 27.542 29.695 28.009a1.62 1.62 0 0 1 1.252.634 1.602 1.602 0 0 1 .279 1.373c-1.533 7.564-8.135 11.407-15.079 13.405l1.109-1.949a26.274 26.274 0 0 1-2.661 19.449 19.389 19.389 0 0 1-16.522 8.705l1.587-1.585a26.09 26.09 0 0 1-6.7 19.342c-5.173 5.191-12.429 6.265-19.352 4.569l2.01-1.527c.296 7.329-1.776 15.275-7.437 20.318-6.077 5.413-14.286 5.56-21.627 2.866l1.786-.729a24.783 24.783 0 0 1-14.016 14.099c-6.963 2.409-13.911-.05-19.481-4.409h2.244c-5.448 6.97-14.286 12.175-23.366 9.903a18.382 18.382 0 0 1-5.583-2.479 22.85 22.85 0 0 1-2.349-1.783c-.586-.509-1.121-1.058-1.665-1.612-.095-.099.822.023.482-.145a17.486 17.486 0 0 0-4.99-.451l-18.409-1.674c-.875-.079-1.75-.182-2.627-.238-1.074-.071-.653-.087-1.361.27a26.635 26.635 0 0 1-11.558 2.747 19.509 19.509 0 0 1-12.221-4.095 19.449 19.449 0 0 1-6.988-10.814l2.332.947c-6.659 3.074-14.507 4.314-21.463 1.428-7.102-2.947-10.8-9.521-11.645-16.913l1.587 1.584a27.055 27.055 0 0 1-19.969-6.582 19.286 19.286 0 0 1-5.018-8.635 19.262 19.262 0 0 1-.023-9.983l1.53 2.006c-7.24-.23-14.431-1.509-19.862-6.716a19.502 19.502 0 0 1-5.076-9.007 19.476 19.476 0 0 1 .245-10.331l1.531 2.005c-7.341.029-15.153-2.27-20.04-8.04-5.208-6.16-5.184-14.293-2.307-21.501l1.107 1.949c-6.842-2.178-13.381-6.52-16.411-13.243-3.155-6.995-1.318-14.449 3.11-20.434l.57 2.168c-5.883-3.997-10.766-9.903-11.657-17.15-.962-7.82 3.403-14.357 9.411-18.928 1.625-1.236 3.209 1.515 1.603 2.737-5.119 3.894-8.827 9.63-7.82 16.266a22.077 22.077 0 0 0 3.55 8.206 22.123 22.123 0 0 0 6.514 6.132 1.601 1.601 0 0 1 .57 2.169c-3.863 5.221-5.796 11.658-2.85 17.795a23.058 23.058 0 0 0 5.976 7.071 23.103 23.103 0 0 0 8.279 4.155 1.603 1.603 0 0 1 1.11 1.949c-2.515 6.297-2.922 13.485 1.852 18.835 4.365 4.884 11.068 6.72 17.425 6.694a1.613 1.613 0 0 1 1.55 1.288 1.6 1.6 0 0 1-.02.719 16.213 16.213 0 0 0-.17 8.942 16.236 16.236 0 0 0 4.599 7.676c4.794 4.3 11.004 5.199 17.195 5.395a1.615 1.615 0 0 1 1.547 1.287c.049.238.043.483-.018.718a15.999 15.999 0 0 0 .098 8.612 16.03 16.03 0 0 0 4.55 7.319 24.203 24.203 0 0 0 17.303 5.264 1.63 1.63 0 0 1 1.588 1.585 16.373 16.373 0 0 0 3.064 8.6 16.412 16.412 0 0 0 7.198 5.629 23.94 23.94 0 0 0 18.068-1.481 1.612 1.612 0 0 1 1.981.324c.162.179.283.391.352.622a16.288 16.288 0 0 0 6.08 9.32 16.34 16.34 0 0 0 10.654 3.252 23.046 23.046 0 0 0 5.556-.903 54.191 54.191 0 0 1 5.574-2.163 15.178 15.178 0 0 1 3.482.269l16.447 1.494 6.311.572c2.32.212 3.175 1.822 4.98 3.252 8.957 7.083 20.019 1.852 26.239-6.104a1.62 1.62 0 0 1 2.244 0c4.901 3.838 11.098 5.764 17.084 3.333a22.36 22.36 0 0 0 11.427-12.381 1.585 1.585 0 0 1 1.786-.727c6.428 2.357 13.69 2.575 18.95-2.422 4.78-4.534 6.35-11.332 6.104-17.706a1.602 1.602 0 0 1 2.01-1.529c6.049 1.482 12.264.529 16.653-4.159a23.177 23.177 0 0 0 5.379-16.696 1.61 1.61 0 0 1 1.587-1.584c2.812.07 5.593-.599 8.065-1.938a16.056 16.056 0 0 0 6.023-5.694 23.178 23.178 0 0 0 2.049-16.515 1.622 1.622 0 0 1 1.11-1.951c5.914-1.705 11.543-4.712 12.859-11.193l1.53 2.007a35.215 35.215 0 0 1-23.695-9.724 28.184 28.184 0 0 1-9.175-21.455l1.587 1.585c-8.915.424-16.853-7.588-21.542-14.283-5.22-7.453-9.097-17.878-4.52-26.541l.949 2.329a33.07 33.07 0 0 1-12.426-8.378 32.989 32.989 0 0 1-7.44-12.996c-2.315-7.085-3.204-17.412 3.145-22.798l.701 2.651c-8.866-3.698-12.235-13.626-12.602-22.559-.321-7.849 1.419-18.63 8.842-23.033v2.733c-8.753-4.199-10.864-15.976-10.517-24.679.31-7.691 2.727-19.451 11.479-21.788l-.949 2.327c-5.174-6.809-5.26-16.986-3.472-24.97 1.82-8.121 6.732-16.783 15.592-18.439l-.949 2.33c-4.631-10.371-5.252-24.852 4.306-32.767l1.121 2.703c-2.24-.077-4.451-.485-6.693-.524a1.592 1.592 0 0 1-.7-.171 1.597 1.597 0 0 1-.829-1.836c2.327-6.427 2.218-13.496-2.842-18.599-4.708-4.753-11.659-6.29-18.147-5.987a1.604 1.604 0 0 1-1.587-1.585c0-6.932-2.901-13.393-9.524-16.255-6.383-2.756-13.889-1.631-20.021 1.218a1.626 1.626 0 0 1-1.394.086 1.608 1.608 0 0 1-.939-1.033c-1.609-6.467-5.591-11.958-12.373-13.469-6.35-1.416-12.897.939-18.088 4.496a1.6 1.6 0 0 1-1.208.164 1.597 1.597 0 0 1-.974-.732c-3.374-5.859-8.929-9.706-15.874-9.076-6.746.62-12.56 4.952-16.667 10.08a1.606 1.606 0 0 1-2.244 0c-4.732-4.453-10.913-6.905-17.306-4.694-5.978 2.068-10.195 7.251-12.784 12.815a1.59 1.59 0 0 1-1.786.729c-6.089-2.153-12.677-1.896-17.585 2.696a23.635 23.635 0 0 0-6.657 17.061 1.617 1.617 0 0 1-1.588 1.585c-6.266.255-12.103 2.86-15.045 8.638a22.815 22.815 0 0 0-.417 17.444 1.603 1.603 0 0 1-.833 1.833c-.217.11-.456.169-.699.173-6.548.721-12.742 3.979-15.095 10.446a23.055 23.055 0 0 0 1.984 18.118 1.6 1.6 0 0 1-.323 1.978c-.18.162-.394.281-.626.349-6.454 1.698-11.96 5.713-13.419 12.504-1.353 6.301 1.084 12.764 4.68 17.874a1.604 1.604 0 0 1-.947 2.328 16.215 16.215 0 0 0-6.928 4.768 16.175 16.175 0 0 0-3.6 7.593 23.097 23.097 0 0 0 4.271 16.099 1.597 1.597 0 0 1-.321 1.98c-.18.161-.394.28-.627.348-6 2.006-10.855 6.257-11.969 12.688-1.051 6.085 1.334 12.199 4.81 17.099a1.586 1.586 0 0 1-.948 2.328c-6.128 1.335-11.233 4.997-13.018 11.2a23.93 23.93 0 0 0 2.726 17.775 1.622 1.622 0 0 1-.57 2.167c-5.377 3.565-9.163 9.02-8.49 15.683.627 6.22 4.673 11.475 9.439 15.252 1.58 1.256-.68 3.484-2.266 2.23Z" fill="#EDD351"/><path d="M191.405 563.679c7.794 3.764 15.754-1.501 20.492-7.556 1.427-1.822 4.102-1.188 5.614 0a14.615 14.615 0 0 0 14.484 2.84c4.99-2.01 8.23-6.649 10.292-11.406a3.955 3.955 0 0 1 4.48-1.821c5.598 2.052 11.999 2.589 16.636-1.81 4.339-4.118 5.637-10.256 5.404-16.026a4.004 4.004 0 0 1 3.223-3.872 4.027 4.027 0 0 1 1.801.051 14.15 14.15 0 0 0 14.336-3.549c3.738-3.993 4.847-9.721 4.683-15.014a4.012 4.012 0 0 1 1.178-2.785 4.033 4.033 0 0 1 2.79-1.176 13.642 13.642 0 0 0 12.028-6.453 20.663 20.663 0 0 0 1.798-14.679 4.011 4.011 0 0 1 .703-3.428 4.039 4.039 0 0 1 3.124-1.587c4.01-.292 8.693-4.459 8.758-8.531.084-5.093 8.02-5.109 7.937 0-.141 8.685-8.379 15.845-16.695 16.453l3.826-5.015c1.492 7.131 1.093 14.98-2.901 21.281a21.84 21.84 0 0 1-8.019 7.321 21.88 21.88 0 0 1-10.559 2.561l3.968-3.962a28.421 28.421 0 0 1-7.397 21.021c-5.78 5.8-13.927 7.077-21.667 5.182l5.022-3.819c.32 7.923-2.032 16.565-8.135 22-6.703 5.97-15.768 6.479-23.953 3.476l4.48-1.82a26.873 26.873 0 0 1-6.121 9.213 26.952 26.952 0 0 1-9.317 5.977c-7.828 2.672-15.564-.139-21.799-5.021h5.612c-7.183 9.178-19.104 14.124-30.112 8.796-4.593-2.224-.575-9.06 4.006-6.842Z" fill="#2A1E1E"/><path d="M198.709 743.2c0-23.683-1.49-38.738-2.419-62.404-1.714-43.65-4.873-84.774-7.056-128.349-1.115-22.235-5.178-85.659-5.488-94.695-.351-10.264.756-22.864.843-35.348 8.377-3.526 18.596-12.732 25.671-20.857 9.828-12.892 19.201-36.209 16.741-47.63a13.358 13.358 0 0 0-7.105-1.004c-2.32 5.237-8.413 23.469-14.56 31.141-8.907 11.113-13.524 15.34-21.207 16.259-.768-18.177-2.613-43.488-3.534-59.135-.492-8.319-3.051-41.114-6.415-49.183a15.379 15.379 0 0 0-7.252.396c-1.371 4.011-2.008 36.595-1.861 49.008.159 13.523-.198 25.631-.444 39.282-.161 8.865-2.52 67.561-2.566 74.474-13.328-8.87-31.884-32.414-38.739-47.404-2.851-6.233-7.962-16.559-9.994-22.224a9.406 9.406 0 0 0-6.272 1.272 116.51 116.51 0 0 0 2.744 18.522 104.168 104.168 0 0 0 15.026 33.782 139.437 139.437 0 0 0 36.221 38.771c.222 5.682.889 57.733.889 77.762 0 39.642-.079 79.329-1.804 118.842-.992 22.934-2.4 49.014-8.809 71.016" fill="#FDFAED"/><path d="M194.74 743.2c-.021-25.214-1.827-50.442-2.976-75.623-1.258-27.385-3.048-54.742-4.667-82.108-2.129-35.975-4.101-71.961-6.23-107.938-.357-6.053-.738-12.108-1.016-18.165-.565-12.314.663-24.646.776-36.958a3.899 3.899 0 0 1 1.966-3.421 63.264 63.264 0 0 0 18.149-13.165 66.974 66.974 0 0 0 12.419-16.094 95.855 95.855 0 0 0 7.979-18.737c1.502-4.993 3.024-11.092 2.039-16.016l1.824 2.377a10.129 10.129 0 0 0-5.101-.464l3.426-1.962c-.166.386-.16.37.018-.05-.096.234-.192.467-.286.701l-.474 1.189c-.438 1.111-.867 2.226-1.297 3.339a512.119 512.119 0 0 1-3.016 7.592 97.031 97.031 0 0 1-7.79 15.965 68.7 68.7 0 0 1-12.512 14.427 25.546 25.546 0 0 1-13.836 6.198c-2.193.287-3.887-2.05-3.968-3.962-.772-18.004-2.096-35.979-3.221-53.964-.75-12.011-1.652-24.01-3.158-35.952-.721-5.71-1.254-11.963-3.429-17.349l2.778 2.773a9.933 9.933 0 0 0-5.141.396l2.778-2.773c-.128.456-.228.919-.3 1.387-.185.963.06-.606-.026.198-.053.511-.109 1.02-.159 1.531-.218 2.341-.353 4.69-.472 7.038-.319 6.197-.49 12.405-.615 18.608-.294 14.459-.03 28.918-.297 43.389-.397 21.194-1.233 42.387-2.008 63.565-.318 8.658-.782 17.331-.854 25.995a3.987 3.987 0 0 1-2.009 3.41 4.01 4.01 0 0 1-3.963.01c-9.443-6.369-17.262-15.182-24.237-24.085a151.546 151.546 0 0 1-18.018-29.225c-2.899-6.154-5.964-12.29-8.3-18.684l3.806 2.888a9.838 9.838 0 0 0-2.183-.042c-.063 0-1.672.495-1.273.153l1.16-2.801a58.153 58.153 0 0 0 1.657 12.861 94.535 94.535 0 0 0 3.572 13.667 124.572 124.572 0 0 0 20.679 35.943 137.025 137.025 0 0 0 13.458 14.721 130.156 130.156 0 0 0 6.669 5.853c2.151 1.765 4.825 3.272 6.784 5.227 1.714 1.711 1.236 5.395 1.278 7.661.068 3.566.127 7.135.176 10.71.284 19.341.526 38.685.596 58.034.105 31.03 0 62.076-.78 93.093-.397 15.719-.925 31.448-1.885 47.141a296.28 296.28 0 0 1-5.484 44.51c-.75 3.469-1.616 6.91-2.598 10.322-1.409 4.89-9.069 2.81-7.653-2.108 5.701-19.807 7.233-40.523 8.254-61.005 1.12-22.428 1.675-44.881 1.949-67.332.429-34.904.325-69.81-.093-104.712-.133-11.161-.109-22.346-.528-33.501l1.966 3.42a150.709 150.709 0 0 1-36.574-38.58 112.438 112.438 0 0 1-18.056-44.397 65.584 65.584 0 0 1-1.349-10.813c.026-5.114 6.083-6.362 10.25-5.942.86.034 1.688.331 2.373.851a4.174 4.174 0 0 1 1.454 2.057c2.455 6.716 5.8 13.114 8.814 19.591a117.269 117.269 0 0 0 9.735 16.978 160.914 160.914 0 0 0 13.889 17.52 83.275 83.275 0 0 0 14.46 13.171l-5.97 3.421c.119-14.493.962-29.007 1.498-43.49.671-18.112 1.276-36.211 1.494-54.337.246-20.431-.774-41.115 1.324-61.481.088-1.366.28-2.723.575-4.06.859-3.266 4.099-3.645 6.992-3.926 3.175-.307 6.762-.174 8.086 3.217a29.924 29.924 0 0 1 1.218 4.159 223.227 223.227 0 0 1 3.956 29.15c2.078 22.129 3.237 44.396 4.415 66.585.165 3.114.316 6.229.451 9.345l-3.969-3.961a17.973 17.973 0 0 0 10.032-5.546 62.603 62.603 0 0 0 10.697-13.192c4.887-8.455 7.722-17.808 11.611-26.711a3.947 3.947 0 0 1 3.427-1.961c3.109-.22 8.111-.165 10.22 2.565 1.518 1.965 1.328 5.576 1.217 7.958a62.454 62.454 0 0 1-3.893 17.724 109.402 109.402 0 0 1-8.505 18.42 72.655 72.655 0 0 1-12.587 15.804c-5.788 5.6-12.302 11.165-19.754 14.406l1.964-3.421c-.109 11.987-1.296 23.992-.82 35.98.187 4.68.489 9.358.76 14.035.965 16.541 1.985 33.077 2.977 49.618 2.688 45.103 5.46 90.219 7.728 135.344.752 14.946 1.286 29.908 2.095 44.845.74 13.653 1.367 27.296 1.379 40.97 0 5.099-7.936 5.107-7.936 0l.019.008Z" fill="#2A1E1E"/><path d="M473.024 510.48c11.171 12.851 27.437 8.578 37.062-4.051 14.945 12.067 30.459 3.962 36.767-11.109 20.475 7.8 33.011-7.586 32.092-25.678 18.219 4.73 29.213-9.678 28.508-26.542 17.035-.107 24.388-15.38 20.933-31.005 17.009-4.724 19.695-22.533 11.13-37.063 15.31-9.112 13.026-27.221.656-38.969 14.578-10.503 10.86-28.015-2.22-38.526 16.141-10.3 12.729-28.449-.559-39.317 11.607-11.413 6.803-27.124-5.891-36.229 12.563-14.493 3.139-31.796-13.854-38.198 13.173-13.564 6.205-30.02-8.615-37.697 11.31-16.459.174-32.18-17.082-36.431 6.173-18.638-8.246-30.532-25.564-30.283 7.522-19.97-8.28-32.59-26.705-31.534.3-21.42-20.304-27.833-37.878-19.455-4.698-19.93-24.155-22.059-38.889-11.761-9.778-17.59-29.997-13.933-41.551.808-14.339-13.895-31.463-5.895-38.636 10.01-18.452-6.813-31.008 7.602-31.129 25.24-19.169.531-25.63 17.397-20.151 33.308-20.81 2.036-25.453 20.888-17.183 36.698-20.023 4.996-21.906 24.298-11.487 38.782-16.27 6.291-17.54 23.234-8.543 36.509-18.322 5.859-19.666 24.224-9.612 38.083-18.254 3.706-21.74 21.985-13.331 37.118-16.725 10.765-12.939 29.041.744 39.614-16.572 12.263-11.598 30.079 2.662 39.535-12.214 16.01-2.111 32.05 14.648 37.174-8.268 19.983 6.621 32.911 24.675 32.651-4.504 16.969 8.43 27.914 24.405 28.421l3.054.098-.022.087c-4.022 17.523 10.77 28.355 27.863 27.423 1.953 19.323 20.437 24.321 36.428 16.738 4.48 16.727 20.998 19.904 35.12 12.617" fill="#FFA21F"/><path d="M476.623 507.785c4.121 4.607 9.578 7.475 15.885 6.401 6.447-1.099 11.659-5.433 15.566-10.45 1.421-1.824 4.107-1.188 5.611 0 5.134 4.037 11.796 6.073 18.056 3.49 6.014-2.482 9.985-8.014 12.477-13.797a3.955 3.955 0 0 1 4.48-1.821c6.861 2.532 14.731 3.065 20.409-2.299 5.3-5.007 6.945-12.52 6.661-19.562a3.99 3.99 0 0 1 1.58-3.131 4.026 4.026 0 0 1 1.642-.741 4.018 4.018 0 0 1 1.802.054c6.445 1.584 13 .62 17.681-4.358 4.587-4.878 6.016-11.872 5.804-18.363a4.012 4.012 0 0 1 1.178-2.785 4.024 4.024 0 0 1 2.79-1.176c2.963.09 5.898-.599 8.51-1.998a16.891 16.891 0 0 0 6.371-5.975 25.214 25.214 0 0 0 2.234-18.024 4.052 4.052 0 0 1 2.778-4.875 16.92 16.92 0 0 0 7.959-4.441 16.88 16.88 0 0 0 4.492-7.92c1.54-6.459-.454-13.271-3.693-18.882a4.03 4.03 0 0 1 1.425-5.421c2.736-1.507 5-3.741 6.541-6.455a16.853 16.853 0 0 0 2.189-8.918c-.279-6.734-4.166-12.807-8.875-17.372a4.02 4.02 0 0 1 .804-6.222 17.037 17.037 0 0 0 5.806-6.852 17.001 17.001 0 0 0 1.511-8.847c-.809-6.734-5.246-12.423-10.343-16.604a4 4 0 0 1-1.111-3.302 3.99 3.99 0 0 1 1.905-2.919c5.655-3.708 9.415-9.391 8.768-16.319-.633-6.774-5.066-12.554-10.131-16.777a3.996 3.996 0 0 1 0-5.603 16.662 16.662 0 0 0 4.555-7.064 16.626 16.626 0 0 0 .522-8.386 25.435 25.435 0 0 0-10.165-14.568 4.045 4.045 0 0 1-.794-6.221 17.032 17.032 0 0 0 3.292-17.892c-2.742-6.495-8.972-11.193-15.395-13.684a4.023 4.023 0 0 1-2.731-2.821 4.012 4.012 0 0 1 .979-3.799c4.554-4.811 7.066-10.951 5.079-17.499-1.922-6.339-7.21-10.962-12.897-13.976a3.99 3.99 0 0 1-1.422-5.406c3.871-5.781 5.589-12.692 2.026-19.062-3.471-6.203-10.032-9.828-16.737-11.547a4.012 4.012 0 0 1-2.386-1.871 4 4 0 0 1-.392-3.004c2.066-6.483 1.824-13.469-3.147-18.57-4.809-4.953-11.873-6.735-18.591-6.7a4.001 4.001 0 0 1-3.134-1.571 3.98 3.98 0 0 1-.686-3.434c2.508-6.885 2.657-14.477-2.796-20.005-5.202-5.269-12.917-6.871-20.081-6.524a4.017 4.017 0 0 1-2.794-1.173 4.003 4.003 0 0 1-1.175-2.789c.024-7.469-3.031-14.483-10.272-17.477-6.887-2.847-15.052-1.625-21.627 1.444a4.033 4.033 0 0 1-4.955-.815 4.008 4.008 0 0 1-.875-1.562c-1.722-6.974-5.849-12.861-13.167-14.509-6.982-1.557-14.206 1.216-19.909 5.122a4.01 4.01 0 0 1-5.428-1.42c-3.616-6.322-9.473-10.44-16.969-9.733-7.463.705-13.832 5.682-18.352 11.345a4.017 4.017 0 0 1-5.611 0c-5.063-4.785-11.591-7.416-18.439-5.055-6.587 2.272-11.139 8.163-13.964 14.261a3.971 3.971 0 0 1-4.483 1.82c-6.464-2.3-13.516-2.281-18.784 2.627-5.159 4.801-7.212 11.932-7.321 18.795a4.04 4.04 0 0 1-1.185 2.779 4.052 4.052 0 0 1-2.784 1.182c-6.712.262-12.861 3.01-16.018 9.167-3.034 5.918-2.347 13.023-.307 19.126a4.02 4.02 0 0 1-.695 3.432 4.03 4.03 0 0 1-3.131 1.58c-6.78.736-13.341 4.127-15.855 10.772-2.473 6.536-1.006 13.91 2.097 19.969a4.007 4.007 0 0 1-.807 4.946 4.027 4.027 0 0 1-1.564.874c-6.967 1.814-12.852 5.995-14.443 13.32-1.502 6.915 1.389 14.063 5.328 19.641 1.629 2.305-.215 4.951-2.372 5.819a17.048 17.048 0 0 0-7.288 5.088 17.003 17.003 0 0 0-3.73 8.06c-.94 6.229 1.453 12.433 4.848 17.541a4.004 4.004 0 0 1 .226 3.483 4.007 4.007 0 0 1-2.597 2.336c-6.413 2.131-11.584 6.667-12.727 13.542-1.111 6.687 1.675 13.372 5.484 18.722a3.971 3.971 0 0 1 .238 3.487 3.977 3.977 0 0 1-2.609 2.332c-6.526 1.406-12.044 5.15-13.968 11.775a26.178 26.178 0 0 0 3.01 19.524 4.054 4.054 0 0 1-1.425 5.421c-5.754 3.797-9.814 9.632-9.042 16.749.742 6.83 5.357 12.534 10.59 16.652 2.226 1.757.992 4.866-.804 6.221-5.294 4.013-9.256 10.068-8.321 16.929.9 6.602 5.627 12.14 10.984 15.767a4 4 0 0 1 1.423 5.419c-4.12 5.546-6.485 12.336-3.407 18.951 2.938 6.317 9.224 10.359 15.685 12.405a4 4 0 0 1 2.39 1.868c.52.912.659 1.991.387 3.005-2.69 6.703-3.48 14.459 1.631 20.268 4.786 5.429 12.201 7.406 19.219 7.369a4.016 4.016 0 0 1 3.135 1.578 4 4 0 0 1 .691 3.437 17.154 17.154 0 0 0-.196 9.549 17.19 17.19 0 0 0 4.938 8.18c5.2 4.716 12.189 5.56 18.897 5.772a4.037 4.037 0 0 1 3.13 1.582 4.023 4.023 0 0 1 .697 3.433 16.893 16.893 0 0 0 4.973 16.864c5.081 4.605 12.407 5.942 19.048 5.633a4.053 4.053 0 0 1 3.968 3.961 17.275 17.275 0 0 0 3.163 8.911 17.326 17.326 0 0 0 7.385 5.92 26.066 26.066 0 0 0 19.909-1.513 4.042 4.042 0 0 1 5.83 2.367c1.656 5.899 5.371 10.854 11.44 12.625a24.73 24.73 0 0 0 17.842-2.377c4.548-2.295 8.57 4.536 4.006 6.842-7.466 3.763-16.332 5.621-24.495 3.01a25.337 25.337 0 0 1-10.536-6.89 25.277 25.277 0 0 1-5.91-11.104l5.829 2.367c-8.476 3.929-18.407 5.5-27.264 1.816-9.256-3.849-14.05-12.328-15.136-21.976l3.969 3.961c-8.991.408-18.417-2.052-25.076-8.34a24.985 24.985 0 0 1-6.553-11.208 24.953 24.953 0 0 1-.041-12.977l3.832 5.017c-9.127-.289-18.056-1.98-24.933-8.483-6.921-6.536-8.627-16.055-6.359-25.048l3.827 5.015c-9.179.05-19.084-2.899-25.199-10.101-6.669-7.868-7.046-18.254-3.31-27.562l2.778 4.875c-8.563-2.714-16.877-8.2-20.689-16.608-4.065-8.971-2.089-18.639 3.671-26.387l1.423 5.421c-7.643-5.174-13.735-12.762-14.86-22.136-1.202-10.029 4.51-18.421 12.197-24.242l-.794 6.221a32.476 32.476 0 0 1-8.894-10.051 32.397 32.397 0 0 1-4.062-12.782c-.623-9.733 5.184-17.839 13.016-23.01l-1.423 5.419c-4.274-7.849-6.423-17.43-3.649-26.155a25.122 25.122 0 0 1 7.375-11.035 25.193 25.193 0 0 1 11.977-5.748l-2.381 5.82a32.849 32.849 0 0 1-6.181-25.353c1.945-9.349 9.409-15.632 18.165-18.542l-2.381 5.82a32.701 32.701 0 0 1-5.545-24.21c1.736-8.807 8.395-14.891 16.468-18.126l-2.381 5.819c-5.302-7.504-8.23-17.144-6.01-26.258 2.363-9.691 10.536-15.909 19.87-18.341l-2.381 5.819c-4.227-8.247-6.092-18.222-2.514-27.054 3.944-9.74 13.053-14.517 23.123-15.608l-3.827 5.015c-2.778-8.329-2.933-17.852 1.363-25.711 4.563-8.345 13.413-12.253 22.619-12.61l-3.968 3.962c.143-9.038 3.107-18.619 10.066-24.779 7.299-6.457 17.064-7.49 26.088-4.282l-4.483 1.82c3.786-8.176 10.493-15.394 19.296-18.093 9.393-2.878 18.689.776 25.572 7.28h-5.611c5.988-7.498 14.78-13.14 24.53-13.71 9.997-.594 18.433 5.261 23.257 13.699l-5.431-1.42c7.619-5.23 17.37-8.095 26.527-5.782 9.67 2.432 15.873 10.561 18.194 19.92l-5.829-2.377c9.276-4.324 20.088-5.758 29.647-1.444 9.628 4.342 14.235 14.13 14.203 24.317l-3.968-3.961c9.357-.452 19.508 2.234 26.078 9.244 7.033 7.505 7.869 17.925 4.452 27.306l-3.827-5.015c8.918-.052 18.387 2.721 24.587 9.424 6.584 7.126 7.669 16.867 4.804 25.876l-2.778-4.875c8.794 2.258 17.461 7.477 21.771 15.727 4.563 8.715 3.037 18.525-2.316 26.523l-1.425-5.419c7.663 4.069 14.392 10.759 16.711 19.308 2.47 9.111-.992 17.949-7.292 24.61l-1.752-6.621c9.02 3.498 17.064 9.682 20.782 18.832 3.719 9.151 1.014 18.655-5.176 25.985l-.794-6.221c6.647 4.872 12.354 11.64 13.943 19.932a24.862 24.862 0 0 1-7.248 22.52v-5.607a33.054 33.054 0 0 1 8.619 10.202 32.994 32.994 0 0 1 3.871 12.774c.532 9.533-5.016 17.513-12.738 22.58l.803-6.222a33.45 33.45 0 0 1 8.574 9.917 33.388 33.388 0 0 1 4.097 12.444c.845 9.192-4.083 17.061-11.254 22.382l.794-6.222c6.391 6.166 11.087 14.521 11.23 23.557a24.926 24.926 0 0 1-3.425 12.512 24.978 24.978 0 0 1-9.254 9.107l1.425-5.419c4.399 7.62 6.659 16.863 4.353 25.535a24.928 24.928 0 0 1-6.608 11.055 24.997 24.997 0 0 1-11.249 6.292l2.777-4.873c1.742 8.242 1.26 17.326-3.337 24.621a25.103 25.103 0 0 1-9.242 8.458 25.141 25.141 0 0 1-12.187 2.942l3.968-3.961c.288 8.771-2.21 17.997-8.518 24.363-6.645 6.712-16.089 8.198-25.014 5.991l5.024-3.82c.385 9.192-2.328 19.212-9.389 25.535-7.739 6.932-18.28 7.451-27.727 3.961l4.482-1.82a31.287 31.287 0 0 1-7.059 10.685 31.35 31.35 0 0 1-10.755 6.971c-8.992 3.143-18.024-.113-25.185-5.744h5.613a32.37 32.37 0 0 1-20.548 12.716 24.954 24.954 0 0 1-22.125-8.666c-3.393-3.793 2.202-9.416 5.611-5.603l-.008.014Z" fill="#2A1E1E"/><path d="M485.246 741.719c0-27.853-1.754-45.556-2.845-73.393-2.016-51.34-5.73-99.703-8.3-150.949-1.309-26.146-6.089-100.745-6.454-111.371-.413-12.083.615-30.681.72-45.358a91.254 91.254 0 0 0 32.739-23.388c10.04-11.797 19.566-37.875 17.415-53.368a12.671 12.671 0 0 0-7.453-1.387c-2.728 6.16-9.45 29.455-18.056 38.659-11.442 12.237-17.827 14.727-25.199 16.26-.922-21.093-3.121-49.413-4.148-69.645-.367-7.208-4.842-48.092-7.262-56.72a18.084 18.084 0 0 0-8.532.46c-.808 6.558-1.038 41.533-1.268 55.8-.258 15.901-1.153 31.984-1.445 48.04-.188 10.426-2.964 79.46-3.018 87.581-15.675-10.433-37.5-38.125-45.56-55.753-3.353-7.329-9.365-19.476-11.754-26.145-2.419-.347-6.338.344-7.376 1.495-.23 3.221 1.939 16.347 3.227 21.788a122.403 122.403 0 0 0 17.673 39.733c15.675 20.248 28.276 33.749 42.6 45.597.26 6.685 1.043 67.903 1.043 91.459 0 46.622-.093 93.291-2.119 139.758-1.176 26.974-2.182 58.249-9.722 84.125" fill="#FDFAED"/><path d="M481.278 741.719c-.024-30.107-2.183-60.229-3.571-90.289-1.524-32.82-3.689-65.606-5.614-98.405-2.508-42.678-4.893-85.368-7.391-128.044-.367-6.271-.793-12.544-1.018-18.817-.547-15.16.596-30.358.715-45.518a3.893 3.893 0 0 1 1.964-3.421c14.842-6.653 29.098-16.273 37.259-30.685a93.424 93.424 0 0 0 8.679-21.318 54.831 54.831 0 0 0 2.25-21.332l1.966 3.418a9.878 9.878 0 0 0-5.451-.84l3.427-1.96c.427-.979-.179.453-.246.624l-.595 1.584c-.417 1.123-.82 2.25-1.224 3.377-1.086 3.015-2.171 6.027-3.32 9.016a105.184 105.184 0 0 1-9.272 19.609 62.42 62.42 0 0 1-16.139 16.177 39.181 39.181 0 0 1-14.828 6.354 4.047 4.047 0 0 1-3.437-.699 4.029 4.029 0 0 1-1.152-1.379 4.036 4.036 0 0 1-.435-1.743c-.992-22.204-2.778-44.368-3.986-66.552-.72-13.27-2.395-26.505-4.119-39.671a142.87 142.87 0 0 0-3.163-19.09l2.778 2.773a12.303 12.303 0 0 0-6.419.459l2.913-3.818c-.55 4.694-.522 9.491-.637 14.211-.183 7.527-.286 15.054-.383 22.58-.236 18.173-.772 36.316-1.363 54.481a27195.87 27195.87 0 0 1-2.381 70.545c-.361 9.86-.889 19.736-.968 29.604a3.988 3.988 0 0 1-2.01 3.408 4.01 4.01 0 0 1-3.963.01c-11.206-7.552-20.458-18.08-28.709-28.661a192.223 192.223 0 0 1-12.442-17.753 169.688 169.688 0 0 1-8.501-16.477c-3.315-7.033-6.817-14.053-9.484-21.366l3.826 2.91a9.725 9.725 0 0 0-4.564.335l1.163-2.801a69.053 69.053 0 0 0 2.006 15.485 110.629 110.629 0 0 0 4.145 15.83 118.68 118.68 0 0 0 9.22 20.056 147.267 147.267 0 0 0 15.921 21.699c5.089 6.047 10.385 11.928 15.975 17.519a218.512 218.512 0 0 0 11.815 10.975c1.371 1.189 3.358 2.324 4.074 4.021.934 2.215.448 5.625.492 7.978.079 4.281.145 8.562.198 12.841.33 22.723.617 45.449.683 68.174.105 36.815-.012 73.65-.968 110.458-.477 18.299-1.155 36.603-2.139 54.885a339.015 339.015 0 0 1-5.925 51.746 168.715 168.715 0 0 1-2.945 11.84c-1.406 4.893-9.067 2.813-7.653-2.105 6.653-23.111 7.987-47.382 9.066-71.278a2500.134 2500.134 0 0 0 2.308-79.495c.518-41.26.397-82.522-.096-123.78-.156-13.239-.125-26.506-.623-39.737l1.161 2.801a226.378 226.378 0 0 1-21.08-19.958 261.95 261.95 0 0 1-22.139-26.442 121.456 121.456 0 0 1-19.931-50.33 79.56 79.56 0 0 1-1.53-12.254c-.033-5.635 6.83-6.861 11.356-6.396a4.196 4.196 0 0 1 3.827 2.908c2.21 6.063 5.103 11.884 7.853 17.713 2.512 5.326 4.895 10.696 7.868 15.786a178.811 178.811 0 0 0 24.651 32.605 92.502 92.502 0 0 0 15.117 13.419l-5.97 3.421c.173-21.23 1.452-42.49 2.224-63.704 1.036-28.403 2.064-56.824 2.415-85.243.103-8.487.198-16.975.397-25.46.121-5.645.043-11.397.7-17.014a4.141 4.141 0 0 1 2.913-3.821c4.064-1.155 11.988-2.517 13.538 2.783a64.06 64.06 0 0 1 1.506 7.946c1.337 8.399 2.381 16.85 3.355 25.296 2.004 17.21 2.963 34.405 4.084 51.696.908 13.998 1.859 27.996 2.48 42.009l-5.024-3.819a33.174 33.174 0 0 0 13.197-5.744 51.939 51.939 0 0 0 14.052-14.8c6.083-10.22 8.928-21.74 13.639-32.554a3.95 3.95 0 0 1 3.426-1.963c3.483-.218 10.034.239 11.28 4.29.648 3.109.751 6.306.304 9.45a85.264 85.264 0 0 1-4.701 21.481c-5.031 14.471-12.682 26.959-24.774 36.593a105.775 105.775 0 0 1-22.806 13.706l1.966-3.42c-.115 13.926-.974 27.85-.793 41.781.069 5.583.446 11.161.766 16.735 1.107 19.373 2.315 38.738 3.476 58.107 1.262 21.083 2.341 42.172 3.53 63.258 1.851 32.787 4.053 65.561 5.724 98.352.907 17.826 1.532 35.652 2.496 53.479.889 16.449 1.673 32.889 1.687 49.369 0 5.098-7.937 5.106-7.937 0l-.012-.01ZM516.12 225.718c6.234-12.959 25.711-14.477 35.181-4.46a19.947 19.947 0 0 1 3.344 4.573c1.087 2.165.081 4.611-.957 6.61a15.144 15.144 0 0 1-6.268 6.18 25.585 25.585 0 0 1-17.659 1.782c-6.006-1.386-12.548-5.211-14.046-11.632a4.046 4.046 0 0 1 2.778-4.873 4.018 4.018 0 0 1 3.008.392 4.004 4.004 0 0 1 1.873 2.381c.056.234.125.462.185.693.143.543.232.397-.058-.055.292.465.562.99.842 1.46.335.578-.508-.486-.012-.026.182.17.337.376.512.555.174.178.367.358.559.528.129.115.875.686.411.353-.464-.333.244.154.363.236.23.15.462.295.696.435.528.311 1.08.563 1.619.85.596.319-.621-.218.252.109.276.103.55.198.83.301.614.21 1.235.394 1.863.553.595.148 1.19.267 1.786.378.397.073.863.121.156.04.358.041.713.079 1.07.109 1.32.109 2.648.109 3.968 0 .151-.012 1.086-.117.524-.044-.561.073.361-.065.508-.093a18.66 18.66 0 0 0 1.867-.438c.326-.095.648-.199.966-.313.139-.049.969-.396.459-.166s.293-.153.422-.218c.292-.149.578-.305.858-.473.279-.169.535-.359.809-.531.369-.23-.242.198-.254.208.141-.117.286-.228.421-.351.471-.432.913-.896 1.323-1.386-.561.667-.02-.012.173-.329.17-.281.305-.58.468-.866.218-.376-.097.268-.107.293.071-.182.145-.362.198-.548.123-.382.237-.765.332-1.155l.397 3.052a13.066 13.066 0 0 0-5.878-5.791 18.612 18.612 0 0 0-.946-.452c.794.349-.345-.109-.51-.164a18.034 18.034 0 0 0-3.183-.777c.945.149-.283-.014-.48-.027a19.607 19.607 0 0 0-2.222-.03c-.341.014-.681.051-1.02.069-.95.052.562-.129-.293.032-.778.144-1.544.299-2.306.519-.643.185-1.275.404-1.895.655.857-.348-.242.133-.411.216-.341.173-.68.357-1.012.551-.563.329-1.107.691-1.627 1.085.709-.542-.049.07-.198.198-.321.288-.629.595-.925.898-.222.231-.428.477-.639.719-.662.756.367-.638-.154.222-.397.647-.794 1.269-1.119 1.957a4.012 4.012 0 0 1-5.431 1.42 4.045 4.045 0 0 1-1.411-5.414Z" fill="#2A1E1E"/><path d="M386.887 249.243c-5.357-11.488-25.482-13.865-33.1.117 3.407 14.701 30.596 11.417 33.1-.117Z" fill="#EDD351"/><path d="M383.461 251.242a23.463 23.463 0 0 0-1.171-2.044c-.427-.701.397.396-.189-.268-.222-.253-.436-.509-.668-.752a15.96 15.96 0 0 0-.842-.824c-.127-.115-1.059-.884-.367-.351a16.267 16.267 0 0 0-1.7-1.135 18.802 18.802 0 0 0-.903-.497c-.109-.055-1.19-.563-.782-.396a8.117 8.117 0 0 1-.823-.303 21.6 21.6 0 0 0-1.002-.319 25.074 25.074 0 0 0-2.234-.511c-1.002-.198.252-.026-.528-.069-.357-.02-.71-.058-1.067-.074a15.293 15.293 0 0 0-7.763 1.537 13.81 13.81 0 0 0-6.208 6.115l.397-3.053c.145.607.332 1.202.559 1.783-.254-.636-.081-.198.108.135.188.333.414.659.595.99.345.622-.413-.396.075.113.199.198.377.428.578.632.2.204.412.396.623.594.107.097.222.182.329.277.397.353-.575-.396-.119-.099.494.311.966.638 1.482.913.26.139.53.258.794.397.397.198-.242-.094-.268-.103.186.073.371.15.559.215 1.26.436 2.555.759 3.872.965-.709-.113-.183-.024.198 0 .315.024.633.05.95.067.693.036 1.389.04 2.078.018.688-.022 1.389-.091 2.081-.148.794-.066-.555.122.216-.032.366-.073.733-.127 1.098-.198a26.787 26.787 0 0 0 3.754-1.084c.143-.051.283-.112.424-.168.534-.198-.621.295-.113.044.266-.135.538-.254.804-.396a17.99 17.99 0 0 0 1.633-.941c.143-.093.956-.66.518-.337-.439.323.319-.269.446-.382.452-.422.882-.866 1.288-1.331-.572.62-.095.126.131-.234.157-.248.284-.513.434-.765.433-.719-.081.49.04-.087.067-.321.198-.637.272-.96a3.966 3.966 0 0 1 4.881-2.767 3.958 3.958 0 0 1 2.772 4.872c-1.389 5.942-6.965 9.648-12.439 11.443a27.292 27.292 0 0 1-18.006-.167 17.419 17.419 0 0 1-7.59-5.486 15.467 15.467 0 0 1-2.381-4.463 5.26 5.26 0 0 1-.147-3.787 12.82 12.82 0 0 1 1.649-2.743 22.788 22.788 0 0 1 19.197-9.309c7.778.265 15.832 4.236 19.308 11.462a4.066 4.066 0 0 1-1.425 5.421 4.003 4.003 0 0 1-2.991.393 3.998 3.998 0 0 1-2.417-1.803Z" fill="#2A1E1E"/><path d="M545.871 153.167c1.131-12.07 18.504-20.672 29.871-10.497 1.661 14.334-23.903 20.092-29.871 10.497Z" fill="#EDD351"/><path d="M541.902 153.167c1.633-15.336 20.604-24.025 33.533-15.685a27.089 27.089 0 0 1 2.623 1.963 5.082 5.082 0 0 1 1.704 3.936 14.385 14.385 0 0 1-.488 4.423 16.013 16.013 0 0 1-4.43 7.273 26.429 26.429 0 0 1-16.042 6.693c-6.094.528-12.898-1.203-16.366-6.602a3.963 3.963 0 0 1-.413-3.004 3.963 3.963 0 0 1 3.301-2.921 3.965 3.965 0 0 1 2.938.769c.415.315.764.708 1.027 1.157.306.475.264.313-.095-.058.185.199.342.397.526.595.185.198.333.311.498.471.625.608-.627-.362.113.085.441.266.903.499 1.339.767.596.362-.716-.236-.047-.012.317.107.629.23.948.327.538.161 1.083.293 1.635.396.151.03 1.022.17.397.077-.625-.093.532.046.689.058 1.266.08 2.538.06 3.801-.062.455-.039.76-.125.094 0 .285-.055.575-.091.861-.142a25.44 25.44 0 0 0 1.996-.45 24.556 24.556 0 0 0 1.815-.563c.322-.113.637-.239.955-.358-.748.281-.092.037.246-.121a24.86 24.86 0 0 0 3.295-1.931c.611-.408-.466.44.068-.058.232-.215.482-.414.714-.631.456-.428.835-.929 1.28-1.365.3-.295-.198.263-.216.281.091-.148.198-.283.301-.43.189-.293.377-.594.546-.889.079-.149.52-1.008.256-.462-.264.547.153-.437.212-.625.091-.296.161-.595.234-.892.256-1.036.052.315.058-.273.03-.75.017-1.501-.038-2.25l1.161 2.801a15.747 15.747 0 0 0-3.74-2.361c-.257-.117-.236-.107.063.027a16.825 16.825 0 0 0-.534-.198c-.359-.111-.712-.233-1.075-.335a16.11 16.11 0 0 0-1.085-.259c-.125-.026-1.191-.198-.744-.139.446.06-.623-.041-.746-.049-.425-.024-.85-.032-1.274-.024-.361 0-.724.022-1.086.05-.188.013-1.238.162-.379.025a20.678 20.678 0 0 0-4.146 1.127c.775-.297-.286.135-.36.171a19.879 19.879 0 0 0-2.754 1.602c-.067.048-.958.747-.319.222a18.655 18.655 0 0 0-2.252 2.157c-.165.186-.659.812-.244.259-.199.274-.397.553-.595.836-.373.571-.675 1.167-1.002 1.761-.362.658.121-.489-.199.446-.105.319-.218.634-.311.956-.094.323-.157.654-.242.979-.264 1.006 0-.345-.086.45a4.072 4.072 0 0 1-1.195 2.768 4.09 4.09 0 0 1-2.773 1.193 3.992 3.992 0 0 1-3.951-3.952ZM536.805 157.16a184.893 184.893 0 0 1-13.217 37.204 226.152 226.152 0 0 1-22.685 39.277 129.53 129.53 0 0 1-15.327 17.773c-3.709 3.506-9.326-2.088-5.613-5.603a147.898 147.898 0 0 0 25.097-33.023 238.224 238.224 0 0 0 18.316-38.477 147.754 147.754 0 0 0 5.776-19.248c1.089-4.98 8.742-2.872 7.653 2.105v-.008ZM158.337 563.295c-6.457 3.247-14.126 4.873-21.179 2.591a22.042 22.042 0 0 1-9.128-5.978 21.995 21.995 0 0 1-5.135-9.618l5.83 2.367c-7.357 3.397-15.901 4.754-23.582 1.549-8.044-3.356-12.151-10.714-13.11-19.086l3.969 3.961a29.41 29.41 0 0 1-21.653-7.279 21.725 21.725 0 0 1-5.629-9.714 21.7 21.7 0 0 1-.024-11.222l3.825 5.015c-7.885-.249-15.645-1.755-21.544-7.412-5.94-5.696-7.387-13.878-5.444-21.651l3.827 5.015c-7.903.03-16.468-2.511-21.715-8.738-5.742-6.81-6.14-15.745-2.92-23.812l2.777 4.872c-7.412-2.363-14.512-7.075-17.835-14.334a22.287 22.287 0 0 1 3.111-22.834l1.423 5.419c-6.618-4.496-11.905-11.058-12.836-19.202-.992-8.715 3.923-15.905 10.591-20.98l-.803 6.223a27.95 27.95 0 0 1-7.648-8.695A27.902 27.902 0 0 1 .042 378.71c-.518-8.426 4.52-15.412 11.286-19.898l-1.425 5.419c-3.679-6.782-5.54-15.054-3.123-22.58a21.813 21.813 0 0 1 6.382-9.55 21.877 21.877 0 0 1 10.354-4.995l-2.38 5.82a28.278 28.278 0 0 1-5.266-21.907c1.7-8.085 8.178-13.496 15.744-16.028l-2.381 5.82a28.195 28.195 0 0 1-4.729-20.936c1.536-7.64 7.322-12.851 14.304-15.672l-2.37 5.82a28.354 28.354 0 0 1-4.992-10.785 28.32 28.32 0 0 1-.13-11.878c2.064-8.371 9.127-13.743 17.181-15.86l-2.381 5.819c-3.639-7.13-5.264-15.738-2.15-23.372 3.452-8.465 11.309-12.577 20.069-13.542l-3.827 5.013a27.978 27.978 0 0 1 1.254-22.194c3.968-7.211 11.619-10.577 19.587-10.903l-3.968 3.961c.137-7.786 2.684-16.073 8.704-21.362a22.199 22.199 0 0 1 22.572-3.743l-4.482 1.82a28.205 28.205 0 0 1 6.701-9.535 28.264 28.264 0 0 1 9.99-6.02c8.135-2.467 16.151.694 22.123 6.311h-5.611a29.956 29.956 0 0 1 9.344-8.101 30.02 30.02 0 0 1 11.825-3.643c8.633-.491 15.927 4.596 20.104 11.863l-5.429-1.42a28.766 28.766 0 0 1 22.882-4.936c8.351 2.115 13.728 9.141 15.742 17.22l-5.829-2.367c8.061-3.741 17.327-4.952 25.627-1.218 8.3 3.734 12.302 12.262 12.286 21.045l-3.968-3.962c8.048-.376 16.768 1.944 22.421 7.969 6.054 6.451 6.865 15.388 3.98 23.493l-3.827-5.015a27.493 27.493 0 0 1 8.28-.034 3.999 3.999 0 0 1 2.389 1.868c.52.912.659 1.991.388 3.005a4.053 4.053 0 0 1-1.882 2.365 4.075 4.075 0 0 1-2.999.408 21.648 21.648 0 0 0-6.17.317 3.999 3.999 0 0 1-3.149-1.569 3.986 3.986 0 0 1-.677-3.447c1.998-5.611 2.137-11.71-2.323-16.18-4.276-4.284-10.576-5.524-16.425-5.251a4.016 4.016 0 0 1-3.969-3.961c0-6.075-2.426-11.793-8.355-14.204a22.686 22.686 0 0 0-17.615 1.218 4.043 4.043 0 0 1-3.485.216 4.027 4.027 0 0 1-2.345-2.583c-1.423-5.708-4.722-10.474-10.714-11.809-5.701-1.271-11.602 1.074-16.257 4.257a4.011 4.011 0 0 1-5.428-1.42c-2.955-5.15-7.699-8.539-13.816-7.899-6.117.64-11.272 4.74-14.993 9.384a4.016 4.016 0 0 1-5.611 0c-4.129-3.884-9.419-6.057-14.99-4.084-5.383 1.906-9.036 6.735-11.36 11.724a3.971 3.971 0 0 1-4.482 1.82c-5.264-1.862-10.974-1.931-15.278 2.086a21.269 21.269 0 0 0-5.952 15.38 4.039 4.039 0 0 1-3.969 3.961c-5.432.222-10.482 2.417-12.988 7.462a20.611 20.611 0 0 0-.179 15.612 4.005 4.005 0 0 1-.696 3.432 4.018 4.018 0 0 1-3.13 1.583c-5.475.594-10.767 3.331-12.799 8.701a20.496 20.496 0 0 0 1.734 16.287 4.014 4.014 0 0 1 .22 3.48 4.033 4.033 0 0 1-2.59 2.34c-5.7 1.497-10.467 4.84-11.757 10.842-1.216 5.663 1.232 11.488 4.44 16.044 1.627 2.311-.214 4.951-2.37 5.819a13.73 13.73 0 0 0-8.866 10.696 21.047 21.047 0 0 0 4.032 14.261 3.997 3.997 0 0 1-2.371 5.819c-5.209 1.743-9.425 5.415-10.304 11.029-.857 5.472 1.462 10.893 4.564 15.269a3.98 3.98 0 0 1-2.381 5.819c-5.318 1.159-9.792 4.11-11.356 9.539a21.481 21.481 0 0 0 2.486 15.943 4.051 4.051 0 0 1-1.424 5.419c-4.665 3.096-7.998 7.836-7.31 13.631.665 5.588 4.472 10.185 8.74 13.562 2.227 1.763.992 4.861-.793 6.221-4.328 3.292-7.56 8.29-6.683 13.899a19.696 19.696 0 0 0 3.178 7.209 19.74 19.74 0 0 0 5.75 5.392 3.997 3.997 0 0 1 1.425 5.421c-3.353 4.532-5.339 9.977-2.85 15.396 2.38 5.174 7.573 8.458 12.83 10.134a3.997 3.997 0 0 1 2.779 4.872c-2.183 5.481-2.925 11.77 1.242 16.523 3.903 4.455 10.014 6.022 15.74 6a4.014 4.014 0 0 1 3.135 1.577 3.999 3.999 0 0 1 .69 3.436 13.842 13.842 0 0 0 3.826 14.334c4.296 3.853 9.992 4.526 15.51 4.7a4.037 4.037 0 0 1 3.131 1.582 4.02 4.02 0 0 1 .697 3.434c-.65 2.42-.616 4.972.096 7.375a13.602 13.602 0 0 0 3.938 6.242c4.208 3.753 10.156 4.807 15.619 4.567 1.045.025 2.04.45 2.78 1.187a4.055 4.055 0 0 1 1.188 2.775 13.93 13.93 0 0 0 2.56 7.176 13.962 13.962 0 0 0 5.956 4.761 21.322 21.322 0 0 0 16.233-1.241 4.038 4.038 0 0 1 5.829 2.366 13.836 13.836 0 0 0 3.263 6.346 13.873 13.873 0 0 0 5.993 3.883 20.26 20.26 0 0 0 14.527-1.955c4.549-2.288 8.573 4.544 4.006 6.839l-.002.006Z" fill="#2A1E1E"/></g><defs><clipPath id="clip0_2_349"><path fill="#fff" transform="matrix(-1 0 0 1 655 0)" d="M0 0h655v750H0z"/></clipPath></defs></svg>