<svg width="389" height="73" fill="none" xmlns="http://www.w3.org/2000/svg"><path d="M31 27h-6v33h6V27Z" fill="#6C4B3A"/><path d="M43 15.5C43 23.51 36.73 30 29 30s-14-6.49-14-14.5S21.27 1 29 1s14 6.49 14 14.5Z" fill="#D9D9D9" stroke="#676767" stroke-width="2"/><path d="M39 15.5C39 21.303 34.295 26 28.5 26S18 21.303 18 15.5 22.705 5 28.5 5 39 9.697 39 15.5Z" fill="#fff" stroke="#676767" stroke-width="2"/><path d="M28.5 20c1.933 0 3.5-2.015 3.5-4.5S30.433 11 28.5 11 25 13.015 25 15.5s1.567 4.5 3.5 4.5ZM9.612 60c-1.306 0-2.49-.127-3.55-.38-1.021-.212-1.92-.572-2.695-1.08a6.792 6.792 0 0 1-1.959-1.967c-.49-.804-.857-1.778-1.102-2.92C.102 52.511 0 51.178 0 49.654V17.92c0-.635.04-1.164.122-1.587.123-.423.388-.74.796-.952.409-.254.98-.381 1.715-.381.816 0 1.408.106 1.775.317.408.212.674.53.796.952.123.424.184.931.184 1.524V49.59c0 .846.081 1.587.245 2.221.163.593.408 1.1.734 1.524.368.423.817.72 1.347.888.53.17 1.164.254 1.898.254.49 0 .898.064 1.225.19.367.127.653.381.857.762.204.381.306.974.306 1.777 0 .847-.102 1.481-.306 1.904-.204.381-.49.614-.857.699-.327.127-.735.19-1.225.19ZM50.701 60.29c-.796 0-1.403-.129-1.822-.387a1.581 1.581 0 0 1-.753-.968A8.212 8.212 0 0 1 48 57.387V31.774c0-.559.063-1.032.188-1.42.126-.386.377-.687.754-.902.419-.216 1.026-.323 1.822-.323.628 0 1.11.086 1.445.258.377.13.628.323.754.58.167.259.272.538.314.84.042.3.063.58.063.838l-.126 2.968c.419-.731.943-1.42 1.57-2.065.629-.688 1.362-1.29 2.2-1.806.837-.56 1.737-.99 2.7-1.29A11.112 11.112 0 0 1 62.89 29c1.842 0 3.538.344 5.088 1.032a10.282 10.282 0 0 1 3.958 2.903c1.13 1.248 1.989 2.753 2.575 4.517.629 1.763.943 3.763.943 6v14c0 .602-.063 1.118-.189 1.548-.084.43-.335.752-.754.968-.377.215-.963.322-1.759.322-.837 0-1.466-.129-1.884-.387a1.58 1.58 0 0 1-.754-.968c-.126-.43-.189-.946-.189-1.548v-14c0-1.806-.293-3.376-.879-4.71-.587-1.333-1.466-2.365-2.639-3.096-1.172-.775-2.659-1.162-4.46-1.162-1.717 0-3.225.388-4.523 1.162-1.256.73-2.24 1.763-2.952 3.096-.67 1.334-1.006 2.904-1.006 4.71v14.065c0 .602-.062 1.118-.188 1.548-.126.43-.398.752-.817.968-.377.215-.963.322-1.759.322ZM95.721 73c-1.466 0-2.869-.172-4.209-.516-1.34-.344-2.513-.796-3.518-1.355-1.005-.559-1.8-1.161-2.387-1.806-.586-.646-.88-1.248-.88-1.807 0-.43.063-.796.19-1.097a4.24 4.24 0 0 1 .564-.838c.42-.43.754-.732 1.006-.904.251-.172.586-.258 1.005-.258.418 0 .837.172 1.256.517.419.387.921.795 1.508 1.225.628.474 1.382.882 2.261 1.226.922.387 2.053.58 3.393.58 1.382 0 2.617-.215 3.706-.644a7.614 7.614 0 0 0 2.827-1.936c.796-.86 1.403-1.914 1.822-3.161.419-1.204.628-2.58.628-4.13l-.125-26.838c.041-.817.271-1.398.691-1.742.46-.344 1.172-.516 2.136-.516.795 0 1.36.129 1.696.387.377.215.607.538.691.968.125.387.188.881.188 1.484v26.71c0 2.28-.356 4.3-1.068 6.064-.712 1.806-1.717 3.333-3.015 4.58-1.299 1.248-2.827 2.194-4.586 2.84-1.76.644-3.686.967-5.78.967Zm-.188-13.355c-2.01 0-3.874-.365-5.591-1.097a14.375 14.375 0 0 1-4.46-3.225c-1.257-1.377-2.241-2.99-2.953-4.84-.67-1.848-1.005-3.87-1.005-6.064 0-2.193.335-4.215 1.005-6.064.712-1.85 1.696-3.462 2.953-4.839a12.868 12.868 0 0 1 4.397-3.161c1.717-.774 3.58-1.162 5.591-1.162 1.843 0 3.518.366 5.026 1.097 1.507.732 2.784 1.785 3.832 3.162 1.088 1.333 1.905 2.924 2.45 4.774.544 1.85.817 3.914.817 6.193 0 3.097-.482 5.785-1.445 8.065-.964 2.28-2.346 4.043-4.147 5.29-1.801 1.248-3.957 1.871-6.47 1.871Zm.314-5.29c1.675 0 3.183-.43 4.523-1.29 1.34-.86 2.408-2.043 3.204-3.549.796-1.505 1.194-3.247 1.194-5.226 0-1.935-.398-3.634-1.194-5.096-.796-1.506-1.885-2.667-3.267-3.484-1.34-.818-2.869-1.226-4.586-1.226s-3.246.408-4.586 1.226c-1.34.817-2.387 1.978-3.14 3.483-.713 1.463-1.069 3.183-1.069 5.162 0 1.978.377 3.72 1.131 5.226.754 1.462 1.8 2.623 3.141 3.483 1.34.86 2.89 1.29 4.649 1.29Zm34.641 6.064c-1.843 0-3.56-.344-5.151-1.032a12.522 12.522 0 0 1-4.083-2.903c-1.173-1.248-2.095-2.753-2.764-4.516-.629-1.764-.943-3.764-.943-6v-14c0-.602.063-1.119.189-1.549.125-.43.377-.752.754-.967.418-.258 1.025-.388 1.821-.388s1.382.13 1.759.388c.419.258.691.602.817 1.032.126.43.188.946.188 1.548v14c0 1.764.293 3.333.88 4.71.586 1.333 1.465 2.365 2.638 3.097 1.215.731 2.681 1.096 4.398 1.096 1.759 0 3.267-.365 4.523-1.096a7.185 7.185 0 0 0 2.953-3.097c.711-1.377 1.068-2.946 1.068-4.71V31.968c0-.602.062-1.119.188-1.549.126-.43.377-.752.754-.967.419-.258 1.026-.388 1.822-.388.795 0 1.382.13 1.759.388.418.258.67.602.754 1.032.125.43.188.946.188 1.548v25.613c0 .516-.063.99-.188 1.42-.084.387-.336.688-.754.903-.377.215-.964.322-1.759.322-.587 0-1.068-.064-1.445-.193-.335-.13-.587-.301-.754-.516a2.28 2.28 0 0 1-.377-.71 6.53 6.53 0 0 1-.063-.903l.252-2.774c-.42.516-.922 1.075-1.508 1.677a14.65 14.65 0 0 1-2.073 1.742c-.754.516-1.613.946-2.576 1.29-.963.345-2.052.516-3.267.516ZM156.826 60.389c-.838 0-1.466-.129-1.884-.385a1.572 1.572 0 0 1-.754-.96 6.233 6.233 0 0 1-.188-1.6V18.585c0-1.11.209-1.857.628-2.24.46-.427 1.256-.64 2.386-.64h25.244c.586 0 1.089.063 1.508.191.418.128.732.406.942.832.209.427.314 1.067.314 1.921 0 .854-.126 1.494-.377 1.92-.21.385-.524.64-.942.769-.419.128-.922.192-1.507.192h-22.544v13.252h15.699c.586 0 1.067.064 1.444.192.419.128.733.384.942.768.209.384.314.981.314 1.792 0 .768-.105 1.345-.314 1.729a1.55 1.55 0 0 1-.942.768c-.419.085-.942.128-1.57.128h-15.573v14.468h22.606c.586 0 1.089.064 1.508.192.418.128.732.406.942.832.209.384.314 1.003.314 1.857 0 .853-.126 1.494-.377 1.92-.21.384-.524.64-.942.769-.419.127-.922.191-1.507.191h-25.37Zm58.906-30.537c.586.47.984.918 1.193 1.345.209.384.23.832.063 1.344-.168.47-.545 1.046-1.13 1.728l-19.844 24.903c-.545.64-1.026 1.067-1.444 1.28-.419.257-.838.32-1.256.193-.377-.128-.838-.406-1.382-.833-.544-.47-.921-.896-1.13-1.28-.168-.427-.168-.875 0-1.344.209-.47.586-1.046 1.13-1.729l19.844-24.903c.837-.939 1.507-1.45 2.009-1.536.503-.128 1.151.15 1.947.832Zm-23.674 0c.544-.427 1.004-.704 1.381-.832.419-.128.817-.064 1.193.192.377.256.817.704 1.319 1.344l19.844 24.903c.586.683.962 1.259 1.13 1.729.209.47.209.917 0 1.344-.168.384-.544.81-1.13 1.28-.503.427-.963.705-1.382.833-.377.128-.774.064-1.193-.193-.419-.213-.9-.64-1.444-1.28L191.932 34.27c-.586-.682-.963-1.259-1.13-1.728-.168-.512-.168-.96 0-1.344.209-.427.628-.875 1.256-1.345Zm46.666 30.28c-2.051 0-3.914-.384-5.589-1.152a12.327 12.327 0 0 1-4.27-3.2c-1.172-1.41-2.093-3.052-2.763-4.93-.628-1.878-.921-3.948-.879-6.21 0-2.22.314-4.268.942-6.145.628-1.878 1.528-3.5 2.7-4.866 1.214-1.408 2.638-2.475 4.27-3.2 1.675-.769 3.538-1.153 5.589-1.153 1.926 0 3.726.384 5.401 1.152a13.059 13.059 0 0 1 4.458 3.265c1.298 1.366 2.303 3.009 3.015 4.93.753 1.92 1.13 3.99 1.13 6.21 0 2.218-.377 4.267-1.13 6.145-.712 1.878-1.717 3.5-3.015 4.865a13.463 13.463 0 0 1-4.458 3.201c-1.675.726-3.475 1.089-5.401 1.089ZM225.663 73c-.796 0-1.403-.128-1.821-.384a1.834 1.834 0 0 1-.817-.96c-.125-.427-.188-.94-.188-1.537V32.285c0-.598.063-1.11.188-1.537.126-.426.377-.747.754-.96.418-.256 1.025-.384 1.821-.384.921 0 1.59.15 2.009.448.461.299.733.832.817 1.6v38.603c.041.598 0 1.11-.126 1.537-.125.47-.398.81-.816 1.024-.377.256-.984.384-1.821.384Zm12.245-18.117c1.758 0 3.349-.427 4.773-1.28 1.423-.897 2.532-2.113 3.328-3.65.837-1.536 1.256-3.286 1.256-5.249 0-2.006-.419-3.755-1.256-5.25-.796-1.493-1.905-2.645-3.328-3.456-1.382-.854-2.973-1.28-4.773-1.28-1.758 0-3.349.426-4.773 1.28-1.381.853-2.491 2.027-3.328 3.52-.796 1.495-1.193 3.223-1.193 5.186s.397 3.713 1.193 5.25c.837 1.536 1.947 2.752 3.328 3.649 1.424.853 3.015 1.28 4.773 1.28Zm31.035 5.505c-1.34 0-2.554-.127-3.642-.384-1.047-.213-1.968-.576-2.763-1.088a6.912 6.912 0 0 1-2.01-1.984c-.502-.811-.879-1.793-1.13-2.945-.209-1.153-.314-2.497-.314-4.033v-32.01c0-.64.042-1.173.126-1.6.125-.426.397-.747.816-.96.419-.256 1.005-.384 1.758-.384.837 0 1.445.107 1.822.32.418.213.69.534.816.96.126.427.188.94.188 1.537V49.89c0 .853.084 1.6.251 2.24.168.598.419 1.11.754 1.537a3.01 3.01 0 0 0 1.382.896c.544.17 1.193.256 1.946.256.503 0 .921.064 1.256.192.377.128.67.384.879.768.209.384.314.982.314 1.793 0 .853-.105 1.494-.314 1.92-.209.384-.502.619-.879.705-.335.127-.753.191-1.256.191Zm21.869.385a14.78 14.78 0 0 1-5.903-1.217 16.976 16.976 0 0 1-4.961-3.329 16.086 16.086 0 0 1-3.453-5.057c-.838-1.92-1.256-4.012-1.256-6.274 0-2.219.397-4.268 1.193-6.145a15.738 15.738 0 0 1 3.328-5.058 15.616 15.616 0 0 1 4.898-3.393c1.884-.853 3.893-1.28 6.029-1.28 2.888 0 5.483.704 7.786 2.113 2.344 1.365 4.208 3.243 5.589 5.633 1.382 2.39 2.073 5.079 2.073 8.066 0 2.347-.419 4.503-1.256 6.466-.838 1.92-1.968 3.585-3.391 4.993a16.171 16.171 0 0 1-4.899 3.33 14.86 14.86 0 0 1-5.777 1.152Zm-.125-5.57a9.413 9.413 0 0 0 4.898-1.344c1.507-.897 2.721-2.134 3.642-3.713.921-1.58 1.381-3.372 1.381-5.378 0-2.006-.439-3.777-1.318-5.313a8.975 8.975 0 0 0-3.517-3.585c-1.507-.854-3.224-1.28-5.149-1.28-1.842 0-3.517.447-5.024 1.344-1.465.896-2.659 2.112-3.579 3.649-.88 1.536-1.319 3.286-1.319 5.25 0 2.048.46 3.862 1.381 5.44a10.383 10.383 0 0 0 3.643 3.65 10.115 10.115 0 0 0 4.961 1.28Zm24.275 5.185c-.796 0-1.403-.127-1.821-.384a1.572 1.572 0 0 1-.754-.96 9.156 9.156 0 0 1-.125-1.6V32.22c0-.64.062-1.174.188-1.6.126-.427.377-.726.754-.897.376-.213.983-.32 1.821-.32.753 0 1.318.107 1.695.32.419.17.691.448.816.832.168.342.252.747.252 1.217l-.252 1.92c.293-.555.628-1.11 1.005-1.664a7.143 7.143 0 0 1 1.507-1.473 8.306 8.306 0 0 1 2.198-1.152c.879-.299 1.947-.448 3.203-.448.628 0 1.214.064 1.758.192a6.586 6.586 0 0 1 1.633.448c.544.213 1.005.47 1.381.768.377.256.67.555.88.896.251.3.376.662.376 1.089 0 .939-.293 1.75-.879 2.433-.586.64-1.193.96-1.821.96-.544 0-.942-.064-1.193-.192l-.754-.512c-.209-.171-.523-.32-.942-.449-.419-.17-1.088-.256-2.009-.256-.628 0-1.298.128-2.01.384a7.09 7.09 0 0 0-1.946 1.153c-.628.47-1.152 1.088-1.57 1.856-.377.769-.565 1.665-.565 2.689v17.157c0 .597-.063 1.11-.189 1.536-.125.427-.398.747-.816.96-.377.214-.984.32-1.821.32Zm35.164.32c-2.511 0-4.751-.426-6.719-1.28-1.968-.853-3.642-2.006-5.023-3.457a15.842 15.842 0 0 1-3.078-5.121c-.711-1.92-1.067-3.99-1.067-6.21 0-2.945.67-5.57 2.009-7.874 1.34-2.305 3.182-4.118 5.527-5.441 2.386-1.366 5.107-2.05 8.163-2.05 2.093 0 3.956.342 5.589 1.025 1.674.64 3.098 1.515 4.27 2.625 1.172 1.11 2.072 2.347 2.7 3.713.628 1.366.942 2.731.942 4.097 0 2.177-.502 3.713-1.507 4.61-1.005.853-2.24 1.28-3.705 1.28h-18.148c-.042 1.878.44 3.5 1.444 4.865a10.657 10.657 0 0 0 3.894 3.073c1.59.726 3.181 1.088 4.772 1.088 1.172 0 2.177-.064 3.015-.192a12.976 12.976 0 0 0 2.197-.512 16.736 16.736 0 0 0 1.633-.64c.46-.214.858-.427 1.193-.64a4.399 4.399 0 0 1 1.068-.449 1.533 1.533 0 0 1 1.067.129c.377.128.67.405.879.832.252.341.419.661.503.96.083.299.125.619.125.96 0 .598-.502 1.26-1.507 1.985-1.004.726-2.407 1.344-4.207 1.856-1.758.513-3.768.769-6.029.769Zm-10.047-17.86h15.762c.795 0 1.381-.107 1.758-.32.419-.214.628-.79.628-1.729a5.164 5.164 0 0 0-1.067-3.2c-.712-.982-1.696-1.772-2.952-2.37-1.214-.597-2.617-.896-4.207-.896-1.842 0-3.538.384-5.087 1.153-1.507.725-2.7 1.728-3.579 3.009-.879 1.28-1.298 2.73-1.256 4.353Zm32.405 17.54c-.795 0-1.402-.127-1.821-.384a1.57 1.57 0 0 1-.753-.96 9.15 9.15 0 0 1-.126-1.6V32.22c0-.64.063-1.174.189-1.6.125-.427.376-.726.753-.897.377-.213.984-.32 1.821-.32.754 0 1.319.107 1.696.32.418.17.691.448.816.832.167.342.251.747.251 1.217l-.251 1.92c.293-.555.628-1.11 1.005-1.664a7.12 7.12 0 0 1 1.507-1.473 8.29 8.29 0 0 1 2.198-1.152c.879-.299 1.947-.448 3.203-.448a7.67 7.67 0 0 1 1.758.192c.586.085 1.13.235 1.633.448.544.213 1.004.47 1.381.768.377.256.67.555.879.896.251.3.377.662.377 1.089 0 .939-.293 1.75-.879 2.433-.586.64-1.193.96-1.821.96-.545 0-.942-.064-1.193-.192l-.754-.512c-.209-.171-.523-.32-.942-.449-.419-.17-1.089-.256-2.009-.256-.628 0-1.298.128-2.01.384-.67.257-1.319.64-1.947 1.153-.628.47-1.151 1.088-1.569 1.856-.377.769-.566 1.665-.566 2.689v17.157c0 .597-.062 1.11-.188 1.536-.126.427-.398.747-.816.96-.377.214-.985.32-1.822.32Z" fill="#000"/></svg>