<svg width="435" height="331" viewBox="0 0 435 331" fill="none" xmlns="http://www.w3.org/2000/svg">
<g clip-path="url(#clip0_2_509)">
<path d="M362.478 292.243C363.988 296.543 363.308 301.403 362.478 304.653L362.398 305.073L344.688 301.673L315.408 296.033L317.818 294.533V283.423L318.068 282.153C331.728 284.883 349.718 288.543 358.978 290.403C359.558 290.523 360.138 290.573 360.728 290.573L362.478 292.243Z" fill="#F9F6F1"/>
<path d="M315.408 296.033L344.688 301.673L342.328 303.173C338.608 305.323 336.868 306.323 332.868 308.633C332.218 309.013 331.468 309.133 330.738 308.973C312.678 304.943 288.058 299.813 269.948 295.353C269.028 295.123 268.898 293.883 269.748 293.463C279.288 288.813 313.958 272.163 328.198 264.843C328.408 264.743 328.628 264.703 328.858 264.743C333.588 265.493 338.378 266.253 343.098 266.983C334.558 271.123 324.228 276.123 317.118 279.553C315.988 280.103 316.198 281.773 317.438 282.023C317.648 282.063 317.858 282.103 318.068 282.153L317.818 283.423V294.533L315.408 296.033Z" fill="#F9F6F1"/>
<path d="M295.001 172.83C318.058 173.703 341.114 174.577 364.171 175.447C381.095 176.086 398.019 176.725 414.943 177.353C420.772 177.569 426.601 177.785 432.43 177.994C435.004 178.086 435.001 174.086 432.43 173.994C420.077 173.552 407.724 173.086 395.371 172.622C375.461 171.875 355.551 171.122 335.64 170.369C322.093 169.856 308.547 169.343 295 168.83C292.426 168.732 292.43 172.733 295 172.83H295.001Z" fill="#D9D9D9"/>
<path d="M6.12702 161.934C20.1 162.394 34.071 162.904 48.042 163.412C69.208 164.181 90.373 164.967 111.538 165.757C125.385 166.274 139.232 166.793 153.079 167.313C155.653 167.41 155.649 163.41 153.079 163.313C129.237 162.417 105.395 161.525 81.553 160.643C63.17 159.963 44.787 159.286 26.402 158.634C19.644 158.394 12.885 158.157 6.12702 157.935C3.55202 157.85 3.55502 161.849 6.12702 161.934Z" fill="#D9D9D9"/>
<path d="M375.674 73.1171C376.631 75.9071 377.331 79.1171 379.592 81.1801C381.593 83.0061 384.221 84.1501 386.681 85.2181L386.276 82.0771C380.915 86.2951 374.298 89.1971 367.454 89.9211C360.61 90.6451 352.711 89.6041 349.284 82.7921C348.127 80.4921 344.675 82.5151 345.83 84.8111C349.802 92.7041 358.896 94.7351 367.031 93.9641C375.166 93.1931 382.696 89.9481 389.104 84.9061C390.048 84.1631 389.803 82.2441 388.699 81.7651C386.682 80.8891 384.406 79.9761 382.684 78.5821C380.773 77.0351 380.292 74.2721 379.531 72.0541C378.7 69.6331 374.835 70.6731 375.674 73.1171Z" fill="#D9D9D9"/>
<path d="M348.392 86.3222C349.192 86.0572 349.992 85.7902 350.784 85.5022C351.146 85.3712 351.507 85.2352 351.864 85.0902C351.929 85.0642 351.993 85.0372 352.057 85.0102C352.232 84.9362 352.407 84.8632 352.581 84.7892C352.676 84.7482 352.644 84.7632 352.484 84.8342C352.157 84.9822 352.46 84.8562 352.537 84.8272C352.748 84.7472 352.955 84.6562 353.161 84.5652C354.622 83.9212 355.947 82.6462 356.616 81.1932C356.846 80.6922 356.969 80.2032 356.818 79.6522C356.69 79.1882 356.332 78.6852 355.899 78.4572C355.018 77.9922 353.63 78.1602 353.163 79.1752C353.029 79.4662 352.866 79.7292 352.691 79.9962C352.533 80.2372 352.809 79.8692 352.81 79.8462C352.809 79.8832 352.697 79.9812 352.672 80.0102C352.566 80.1312 352.453 80.2482 352.337 80.3602C352.268 80.4262 352.074 80.6622 351.972 80.6802C352.007 80.6742 352.353 80.4042 352.119 80.5622C352.045 80.6122 351.972 80.6642 351.896 80.7122C351.761 80.7982 351.622 80.8792 351.479 80.9532C351.416 80.9862 351.352 81.0162 351.288 81.0472C350.985 81.1972 351.655 80.9132 351.425 80.9892C351.162 81.0772 350.909 81.1882 350.654 81.2962C350.435 81.3892 351.116 81.1072 350.799 81.2332C350.732 81.2602 350.665 81.2872 350.597 81.3142C350.267 81.4442 349.935 81.5682 349.602 81.6872C348.848 81.9582 348.087 82.2122 347.327 82.4642C346.336 82.7922 345.586 83.8602 345.93 84.9242C346.25 85.9122 347.327 86.6732 348.39 86.3212L348.392 86.3222Z" fill="#D9D9D9"/>
<path d="M315.757 120.693C318.803 114.124 321.715 107.468 325.038 101.032C326.433 98.331 328.301 95.89 330.483 93.773C332.933 91.396 336.228 89.844 339.365 88.592C342.418 87.373 345.55 86.425 348.736 85.624C351.231 84.997 350.174 81.138 347.673 81.767C341.208 83.392 334.357 85.57 329.05 89.738C323.743 93.906 320.954 100.122 318.156 106.064C316.182 110.256 314.253 114.47 312.304 118.673C311.85 119.652 312.028 120.828 313.022 121.409C313.886 121.915 315.302 121.676 315.758 120.691L315.757 120.693Z" fill="#D9D9D9"/>
<path d="M386.02 23.3891C390.172 27.5741 392.313 33.5671 392.359 39.4281C392.377 41.7371 392.097 44.1191 391.754 46.4021C391.399 48.7681 390.953 51.2851 389.683 53.3521C388.332 55.5521 391.79 57.5631 393.137 55.3711C394.621 52.9551 395.23 50.0691 395.636 47.2971C396.036 44.5651 396.426 41.7211 396.35 38.9571C396.165 32.1961 393.639 25.3891 388.848 20.5601C387.032 18.7301 384.204 21.5591 386.02 23.3891Z" fill="#D9D9D9"/>
<path d="M375.016 76.8961C377.124 75.2731 379.043 73.4831 380.732 71.4231C381.912 69.9841 383.083 68.4611 383.98 66.8231C384.482 65.9061 384.236 64.6011 383.262 64.0871C382.326 63.5921 381.062 63.8251 380.526 64.8051C380.107 65.5701 379.61 66.2931 379.113 67.0081C378.983 67.1941 378.853 67.3801 378.718 67.5621C378.642 67.6641 378.564 67.7641 378.488 67.8661C378.341 68.0621 378.71 67.5861 378.475 67.8831C378.286 68.1221 378.097 68.3611 377.904 68.5961C377.183 69.4751 376.422 70.3221 375.615 71.1231C375.193 71.5421 374.758 71.9491 374.312 72.3431C374.06 72.5661 373.804 72.7841 373.545 72.9991C373.413 73.1091 373.279 73.2171 373.145 73.3251C373.077 73.3791 372.673 73.6951 372.998 73.4441C372.566 73.7771 372.23 74.0901 372.079 74.6391C371.947 75.1181 372.007 75.7551 372.281 76.1801C372.807 76.9961 374.131 77.5801 375.017 76.8981L375.016 76.8961Z" fill="#D9D9D9"/>
<path d="M383.9 16.6182C379.551 13.3482 374.613 11.2632 369.199 10.6502C364.309 10.0952 359.133 10.6202 354.449 12.1262C350.035 13.5442 345.94 15.9232 342.634 19.1872C338.999 22.7762 336.529 27.5362 335.239 32.4542C333.742 38.1602 333.797 44.4072 334.741 50.1952C334.915 51.2622 336.24 51.8562 337.201 51.5922C338.335 51.2802 338.772 50.2022 338.598 49.1322C337.163 40.3382 338.267 29.8852 344.493 23.0262C350.27 16.6612 358.911 14.0752 367.334 14.4992C372.736 14.7712 377.588 16.8452 381.881 20.0742C382.745 20.7242 384.117 20.2132 384.617 19.3562C385.216 18.3332 384.766 17.2712 383.899 16.6202L383.9 16.6182Z" fill="#D9D9D9"/>
<path d="M368.239 75.7362C362.223 78.1442 355.298 79.3532 349.283 76.2512C346.522 74.8272 343.971 72.7742 342.35 70.0972C340.703 67.3772 339.886 64.1902 339.534 61.0512C339.035 56.6002 339.016 52.0912 338.649 47.6262C338.439 45.0792 334.437 45.0562 334.649 47.6262C335.301 55.5342 334.581 64.2902 338.529 71.4782C342.049 77.8882 349.306 81.8122 356.496 82.0992C360.915 82.2762 365.224 81.2262 369.303 79.5932C370.305 79.1922 371.009 78.2582 370.7 77.1332C370.438 76.1812 369.247 75.3322 368.239 75.7362Z" fill="#D9D9D9"/>
<path d="M386.539 53.2402C387.015 52.9552 387.096 52.9392 387.595 52.9422C387.732 52.9422 387.868 52.9502 388.004 52.9642C387.788 52.9392 387.816 52.9512 388.089 53.0022C388.172 53.0292 388.891 53.3052 388.568 53.1412C388.665 53.1902 389.244 53.5942 388.865 53.2782C389.012 53.4012 389.132 53.5452 389.271 53.6762C389.089 53.5052 389.105 53.4132 389.249 53.6702C389.278 53.7212 389.4 54.0232 389.446 54.0392C389.297 53.6712 389.273 53.6192 389.374 53.8842C389.412 53.9942 389.446 54.1052 389.475 54.2182C389.497 54.3032 389.596 55.0142 389.561 54.5992C389.607 55.1382 389.588 55.6682 389.554 56.2072C389.526 56.6502 389.592 56.1032 389.517 56.5052C389.466 56.7802 389.414 57.0542 389.347 57.3262C389.282 57.5922 389.207 57.8572 389.123 58.1182C389.101 58.1852 388.834 58.9002 388.978 58.5592C388.659 59.3172 388.203 60.0472 387.731 60.7192C387.662 60.8172 387.592 60.9142 387.52 61.0102C387.645 60.8482 387.633 60.8602 387.485 61.0442C387.311 61.2392 387.143 61.4372 386.959 61.6232C386.535 62.0532 386.268 62.2712 385.876 62.5262C385.651 62.6722 385.406 62.7872 385.182 62.9322C384.87 63.1322 385.619 62.7952 385.2 62.9242C384.776 63.0552 384.36 63.1682 383.926 63.2632C383.691 63.3012 383.682 63.3042 383.899 63.2732C383.771 63.2872 383.642 63.2982 383.513 63.3062C383.249 63.3222 382.99 63.3092 382.726 63.3092C382.482 63.2862 382.464 63.2882 382.67 63.3162C382.541 63.2952 382.414 63.2682 382.287 63.2362C382.161 63.2042 382.038 63.1662 381.916 63.1232C382.096 63.2042 382.079 63.1922 381.867 63.0872C380.909 62.5892 379.695 62.8402 379.131 63.8052C378.606 64.7032 378.887 66.0422 379.849 66.5412C381.822 67.5662 384.265 67.5222 386.327 66.7572C388.455 65.9682 390.146 64.3162 391.381 62.4502C393.456 59.3152 394.873 54.0752 392.141 50.8992C390.315 48.7772 386.874 48.3782 384.52 49.7882C383.594 50.3432 383.253 51.5852 383.802 52.5242C384.344 53.4512 385.608 53.7992 386.538 53.2422L386.539 53.2402Z" fill="#D9D9D9"/>
<path d="M378.976 51.612C379.157 48.919 378.308 46.192 377.043 43.841C375.978 41.862 374.443 39.819 372.433 38.722C371.515 38.221 370.211 38.465 369.697 39.44C369.203 40.375 369.434 41.641 370.415 42.176C370.58 42.266 370.741 42.362 370.896 42.468C370.957 42.51 371.23 42.735 370.987 42.526C370.728 42.304 371.052 42.584 371.079 42.608C371.43 42.908 371.755 43.237 372.06 43.583C372.125 43.657 372.19 43.732 372.253 43.808C372.259 43.816 372.565 44.185 372.382 43.961C372.2 43.738 372.473 44.084 372.506 44.13C372.584 44.237 372.66 44.345 372.735 44.455C373.045 44.908 373.33 45.377 373.59 45.86C373.71 46.084 373.826 46.31 373.935 46.54C373.996 46.668 374.052 46.8 374.114 46.928C374.217 47.139 374.009 46.649 374.146 47.004C374.353 47.541 374.54 48.082 374.687 48.639C374.76 48.915 374.823 49.194 374.877 49.474C374.898 49.586 374.917 49.698 374.936 49.81C375.032 50.362 374.907 49.394 374.953 49.95C374.999 50.506 375.015 51.055 374.977 51.613C374.907 52.659 375.947 53.659 376.977 53.613C378.121 53.562 378.902 52.734 378.977 51.613L378.976 51.612Z" fill="#D9D9D9"/>
<path d="M366.31 37.837C362.439 38.862 358.547 40.143 354.617 40.904H355.68L355.284 40.835L356.167 41.349C356.342 41.503 356.167 41.345 356.12 41.148C356.054 40.871 355.934 40.593 355.83 40.328C355.642 39.849 355.444 39.365 355.167 38.93C354.506 37.891 353.574 37.069 352.382 36.702C349.901 35.938 347.378 37.234 345.265 38.428C340.961 40.86 337.307 44.192 334.318 48.111C333.662 48.971 334.184 50.349 335.036 50.847C336.064 51.449 337.115 50.991 337.772 50.129C339.524 47.831 341.644 45.73 343.975 44.021C345.146 43.162 346.373 42.378 347.647 41.679C348.538 41.191 350.334 39.985 351.385 40.599C352.253 41.106 352.279 42.653 352.734 43.446C353.699 45.128 355.437 44.855 357.034 44.432C360.481 43.519 363.927 42.606 367.374 41.694C369.86 41.036 368.806 37.176 366.311 37.837H366.31Z" fill="#D9D9D9"/>
<path d="M432.428 137.361C426.201 137.179 419.975 136.991 413.748 136.811C411.173 136.737 411.175 140.737 413.748 140.811C419.975 140.991 426.201 141.179 432.428 141.361C435.003 141.436 435.001 137.436 432.428 137.361Z" fill="#D9D9D9"/>
<path d="M377.428 135.761C362.432 135.399 347.438 134.91 332.444 134.483C327.739 134.349 323.033 134.215 318.328 134.081C315.753 134.008 315.755 138.008 318.328 138.081C333.885 138.523 349.441 138.967 364.998 139.409C369.141 139.527 373.284 139.661 377.428 139.761C380.003 139.823 380.002 135.823 377.428 135.761Z" fill="#D9D9D9"/>
<path d="M88.96 131.754C108.395 132.289 127.83 132.824 147.266 133.361C152.885 133.516 158.504 133.671 164.123 133.827C166.698 133.898 166.696 129.898 164.123 129.827C144.557 129.286 124.991 128.746 105.425 128.208C99.937 128.057 94.449 127.906 88.96 127.755C86.385 127.684 86.387 131.684 88.96 131.755V131.754Z" fill="#D9D9D9"/>
<path d="M412.399 106.736C417.316 107.232 421.754 110.551 423.572 115.158C424.669 117.939 424.528 120.783 424.528 123.719C424.528 126.986 424.528 130.253 424.528 133.52C424.528 136.094 428.528 136.098 428.528 133.52C428.528 129.874 428.528 126.228 428.528 122.583C428.528 119.095 428.317 115.903 426.836 112.691C424.202 106.979 418.565 103.358 412.399 102.737C411.323 102.629 410.399 103.734 410.399 104.737C410.399 105.909 411.32 106.627 412.399 106.736Z" fill="#D9D9D9"/>
<path d="M391.738 153.364C395.363 153.088 399.03 152.753 402.488 151.561C405.59 150.492 408.924 149.011 411.305 146.687C413.686 144.363 415.273 141.147 416.093 137.968C417.065 134.197 416.866 130.571 416.277 126.769C415.318 120.575 414.205 114.391 412.774 108.288C412.16 105.668 411.503 103.037 410.588 100.503C409.611 97.799 408.138 95.395 406.366 93.136C401.731 87.223 395.01 83.968 388.267 81.056C387.276 80.628 386.122 80.762 385.531 81.774C385.037 82.618 385.252 84.08 386.249 84.51C391.684 86.857 397.278 89.327 401.487 93.618C403.421 95.589 405.138 97.918 406.29 100.437C406.357 100.583 406.501 100.94 406.651 101.346C406.853 101.893 407.039 102.446 407.215 103.002C407.583 104.159 407.908 105.329 408.215 106.504C409.715 112.257 410.809 118.123 411.797 123.983C412.273 126.806 412.914 129.694 412.841 132.566C412.757 135.906 411.833 139.142 410.014 141.95C408.297 144.6 405.553 146.067 402.688 147.233C399.178 148.66 395.485 149.079 391.738 149.365C389.187 149.559 389.166 153.561 391.738 153.365V153.364Z" fill="#D9D9D9"/>
<path d="M289.358 251.331C312.695 252.565 336.033 253.8 359.37 255.033C377.102 255.97 394.834 256.907 412.567 257.84C419.187 258.188 425.807 258.536 432.428 258.881C435.001 259.015 434.993 255.015 432.428 254.881C418.865 254.174 405.303 253.458 391.74 252.743C371.274 251.663 350.808 250.581 330.342 249.499C316.681 248.777 303.019 248.054 289.358 247.331C286.786 247.195 286.793 251.195 289.358 251.331Z" fill="#211715"/>
<path d="M151.488 65.841C152.493 68.768 153.222 72.112 155.64 74.238C157.687 76.038 160.313 77.193 162.794 78.266L162.389 75.125C156.875 79.466 150.081 82.446 143.044 83.21C135.927 83.982 127.75 82.902 124.206 75.849C123.05 73.548 119.598 75.572 120.752 77.868C124.842 86.009 134.246 88.069 142.623 87.254C151 86.439 158.658 83.119 165.217 77.954C166.159 77.212 165.918 75.291 164.812 74.813C162.775 73.932 160.511 73.01 158.745 71.643C156.664 70.032 156.156 67.144 155.344 64.778C154.513 62.357 150.648 63.397 151.487 65.841H151.488Z" fill="#D9D9D9"/>
<path d="M123.392 79.5122C125.013 78.9712 126.662 78.4382 128.223 77.7352C129.712 77.0652 131.067 75.7672 131.758 74.2822C131.99 73.7842 132.111 73.2892 131.96 72.7412C131.832 72.2772 131.474 71.7742 131.041 71.5462C130.157 71.0792 128.776 71.2512 128.305 72.2642C128.166 72.5622 127.999 72.8322 127.818 73.1052C127.662 73.3402 127.924 73.0002 127.931 72.9622C127.922 73.0102 127.821 73.0932 127.788 73.1312C127.678 73.2562 127.563 73.3762 127.442 73.4912C127.355 73.5742 127.186 73.7842 127.066 73.8212C127.114 73.8062 127.434 73.5532 127.205 73.7102C127.129 73.7622 127.054 73.8152 126.976 73.8662C126.837 73.9562 126.695 74.0402 126.548 74.1172C126.483 74.1512 126.418 74.1822 126.353 74.2152C126.048 74.3712 126.711 74.0832 126.482 74.1652C125.096 74.6592 123.726 75.1902 122.329 75.6572C121.339 75.9882 120.587 77.0512 120.932 78.1172C121.251 79.1032 122.33 79.8692 123.392 79.5142V79.5122Z" fill="#D9D9D9"/>
<path d="M151.644 69.3591C153.673 67.7401 155.492 65.8941 157.097 63.8531C158.256 62.3781 159.404 60.8411 160.279 59.1751C160.765 58.2491 160.546 56.9591 159.561 56.4391C158.639 55.9521 157.344 56.1671 156.825 57.1571C156.408 57.9521 155.909 58.7051 155.41 59.4501C155.279 59.6451 155.148 59.8391 155.011 60.0291C154.856 60.2451 154.697 60.4581 154.538 60.6711C154.442 60.7991 154.346 60.9251 154.249 61.0521C154.539 60.6711 154.209 61.1011 154.169 61.1511C152.591 63.1431 150.802 64.9461 148.815 66.5311C147.994 67.1871 148.08 68.6851 148.815 69.3591C149.687 70.1591 150.768 70.0581 151.644 69.3591Z" fill="#D9D9D9"/>
<path d="M144.353 68.679C138.087 71.315 130.836 72.674 124.515 69.428C121.644 67.954 119.012 65.848 117.335 63.061C115.683 60.316 114.837 57.132 114.416 53.976C113.811 49.436 113.731 44.818 113.274 40.259C113.166 39.184 112.432 38.259 111.274 38.259C110.276 38.259 109.166 39.178 109.274 40.259C110.078 48.287 109.514 57.159 113.518 64.45C117.126 71.02 124.574 75.039 131.945 75.324C136.609 75.504 141.147 74.333 145.417 72.536C146.412 72.117 147.127 71.214 146.814 70.076C146.556 69.138 145.356 68.258 144.354 68.679H144.353Z" fill="#D9D9D9"/>
<path d="M162.678 45.1101C163.078 44.8611 163.475 44.7361 163.785 44.7581C163.926 44.7561 164.066 44.7621 164.206 44.7741C164 44.7431 164.035 44.7531 164.311 44.8041C164.39 44.8261 165.13 45.0741 164.824 44.9361C165.037 45.0321 165.238 45.1551 165.427 45.2901C165.167 45.1051 165.342 45.2401 165.48 45.3741C165.543 45.4401 165.604 45.5081 165.661 45.5781C165.482 45.3411 165.451 45.3071 165.568 45.4761C165.624 45.5991 165.706 45.7371 165.777 45.8521C165.852 46.0151 165.831 45.9661 165.714 45.7041C165.755 45.8171 165.792 45.9311 165.824 46.0461C165.845 46.1201 165.981 46.8451 165.931 46.4511C165.991 46.9281 165.992 47.4151 165.966 47.8941C165.922 48.7291 165.703 49.7501 165.32 50.7761C165.268 50.9091 165.273 50.9011 165.336 50.7511C165.285 50.8651 165.232 50.9791 165.176 51.0911C165.081 51.2811 164.978 51.4681 164.875 51.6541C164.655 52.0521 164.422 52.4431 164.167 52.8191C164.129 52.8761 163.7 53.4441 163.917 53.1751C163.791 53.3311 163.661 53.4831 163.526 53.6301C163.181 54.0081 162.747 54.4161 162.472 54.6131C162.215 54.7981 161.945 54.9761 161.666 55.1261C161.546 55.1911 161.063 55.3501 161.559 55.1901C161.17 55.3161 160.79 55.4451 160.389 55.5301C160.261 55.5571 160.132 55.5821 160.003 55.6031C160.202 55.5811 160.177 55.5831 159.929 55.6091C159.65 55.6271 159.374 55.6441 159.094 55.6361C158.954 55.6321 158.815 55.6231 158.675 55.6091C158.861 55.6341 158.833 55.6241 158.59 55.5811C158.456 55.5501 158.323 55.5131 158.192 55.4701C158.349 55.5521 158.32 55.5391 158.105 55.4301C157.138 54.9501 155.94 55.1711 155.369 56.1481C154.852 57.0321 155.115 58.4021 156.087 58.8841C158.147 59.9061 160.641 59.8291 162.76 58.9931C164.927 58.1381 166.64 56.4101 167.865 54.4621C169.03 52.6091 169.699 50.6011 169.924 48.4261C170.133 46.4031 169.809 44.1981 168.402 42.6451C166.508 40.5541 163.012 40.1871 160.657 41.6551C159.741 42.2261 159.383 43.4401 159.939 44.3911C160.474 45.3051 161.755 45.6821 162.675 45.1091L162.678 45.1101Z" fill="#D9D9D9"/>
<path d="M127.435 3.68506C120.452 5.08806 114.263 9.31306 110.753 15.5621C106.535 23.0711 106.949 32.0871 108.397 40.2971C108.585 41.3611 109.886 41.9611 110.857 41.6941C111.98 41.3851 112.442 40.3011 112.254 39.2341C111.001 32.1281 110.545 24.0881 114.207 17.5811C117.25 12.1721 122.472 8.75306 128.499 7.54206C131.021 7.03506 129.952 3.17906 127.435 3.68506Z" fill="#D9D9D9"/>
<path d="M118.882 21.4722C116.225 24.5112 114.178 27.9632 112.797 31.7572C111.31 35.8402 110.948 40.1102 110.752 44.4202C110.635 46.9942 114.635 46.9882 114.752 44.4202C114.928 40.5652 115.249 36.8222 116.534 33.1562C117.67 29.9162 119.451 26.8842 121.71 24.3012C123.398 22.3712 120.58 19.5292 118.882 21.4722Z" fill="#D9D9D9"/>
<path d="M120.507 26.574C124.086 34.212 132.275 40.217 140.938 39.014C142.009 38.865 142.594 37.498 142.335 36.554C142.018 35.401 140.949 35.008 139.875 35.157C133.022 36.109 126.671 30.338 123.962 24.555C123.504 23.577 122.097 23.328 121.226 23.837C120.224 24.423 120.049 25.592 120.508 26.573L120.507 26.574Z" fill="#D9D9D9"/>
<path d="M130.628 25.544C132.79 30.922 137.29 34.748 142.129 37.715C144.393 39.103 146.704 40.27 149.191 41.193C150.897 41.826 153.343 42.628 153.842 44.601C154.473 47.095 158.332 46.038 157.699 43.538C157.059 41.009 154.974 39.367 152.695 38.329C151.543 37.804 150.353 37.374 149.166 36.938C148.043 36.526 146.985 35.895 145.942 35.311C141.47 32.808 136.476 29.433 134.486 24.48C134.083 23.478 133.152 22.774 132.026 23.083C131.075 23.344 130.224 24.535 130.629 25.543L130.628 25.544Z" fill="#D9D9D9"/>
<path d="M170.49 42.6272C173.3 36.4372 173.763 29.3152 171.475 22.8772C171.113 21.8602 170.111 21.1792 169.015 21.4802C168.03 21.7512 167.255 22.9182 167.618 23.9402C169.53 29.3202 169.409 35.3812 167.037 40.6072C166.591 41.5902 166.755 42.7592 167.755 43.3432C168.613 43.8452 170.043 43.6142 170.491 42.6252L170.49 42.6272Z" fill="#D9D9D9"/>
<path d="M170.149 16.9801C166.16 10.8551 160.984 5.36808 154.189 2.39908C147.132 -0.684923 138.907 -0.953923 131.938 2.51808C129.634 3.66608 131.657 7.11808 133.957 5.97208C139.821 3.05008 147.087 3.46008 152.943 6.20108C158.799 8.94208 163.221 13.6651 166.694 18.9981C168.093 21.1471 171.558 19.1451 170.148 16.9791L170.149 16.9801Z" fill="#D9D9D9"/>
<path d="M122.614 74.822C117.401 76.132 112.202 77.828 107.463 80.402C102.395 83.155 98.615 87.444 95.78 92.425C94.505 94.666 97.959 96.683 99.234 94.444C101.827 89.888 105.16 86.143 109.817 83.676C114.172 81.369 118.914 79.875 123.677 78.678C126.172 78.051 125.115 74.193 122.614 74.822Z" fill="#D9D9D9"/>
<path d="M91.4 119.602C92.523 115.216 93.733 110.857 95.036 106.521C96.262 102.441 97.464 98.3271 99.232 94.4411C99.679 93.4581 99.513 92.2891 98.514 91.7051C97.655 91.2031 96.227 91.4351 95.778 92.4231C93.909 96.5321 92.574 100.826 91.275 105.14C89.938 109.581 88.693 114.046 87.543 118.539C86.904 121.034 90.761 122.098 91.4 119.602Z" fill="#D9D9D9"/>
<path d="M2.02003 301.586C25.963 303.305 49.913 304.943 73.862 306.577C105.334 308.724 136.808 310.847 168.283 312.967C202.095 315.245 235.908 317.517 269.72 319.8C300.009 321.845 330.298 323.896 360.585 325.983C382.151 327.469 403.718 328.952 425.276 330.557C427.004 330.686 428.733 330.816 430.461 330.947C433.028 331.142 433.016 327.141 430.461 326.947C410.349 325.417 390.226 324.032 370.104 322.64C340.592 320.597 311.077 318.595 281.562 316.6C247.862 314.322 214.162 312.056 180.461 309.787C148.436 307.631 116.41 305.473 84.386 303.294C59.216 301.581 34.046 299.864 8.88103 298.076C6.59403 297.914 4.30703 297.75 2.02003 297.586C-0.548969 297.402 -0.536969 301.402 2.02003 301.586Z" fill="#211715"/>
<path d="M344.137 265.139C340.408 264.556 336.68 263.973 332.952 263.382C331.359 263.13 329.236 262.382 327.668 262.917C326.753 263.229 325.882 263.789 325.022 264.226C321.229 266.151 317.417 268.04 313.602 269.921C304.541 274.389 295.453 278.8 286.361 283.204C282.527 285.061 278.692 286.915 274.857 288.771C273.404 289.474 271.952 290.177 270.5 290.883C268.731 291.742 266.549 292.793 267.309 295.243C267.779 296.759 269.107 297.207 270.506 297.549C272.001 297.914 273.497 298.274 274.994 298.63C278.031 299.351 281.073 300.055 284.117 300.749C290.548 302.215 296.989 303.635 303.433 305.043C310.502 306.588 317.575 308.115 324.643 309.668C326.257 310.023 327.872 310.379 329.485 310.738C331.49 311.184 332.916 310.919 334.7 309.889C337.581 308.226 340.462 306.563 343.341 304.897C345.568 303.608 343.556 300.15 341.322 301.443C338.936 302.824 336.548 304.203 334.16 305.582C333.188 306.143 332.066 307.16 330.91 306.961C329.422 306.705 327.943 306.303 326.468 305.978C320.693 304.707 314.914 303.456 309.136 302.198C297.272 299.614 285.404 297.03 273.599 294.185C272.922 294.022 272.245 293.858 271.569 293.692C271.337 293.635 271.076 293.542 270.843 293.514L270.482 293.425C270.135 294.912 270.268 295.481 270.881 295.133C271.384 295.05 271.978 294.599 272.44 294.375C273.779 293.725 275.118 293.076 276.457 292.428C279.967 290.729 283.477 289.032 286.987 287.332C295.543 283.189 304.096 279.039 312.629 274.847C316.863 272.767 321.093 270.678 325.306 268.556C326.158 268.127 327.009 267.696 327.859 267.263C328.203 267.088 328.641 266.749 329.022 266.668C328.282 266.826 329.71 266.893 329.746 266.899C330.222 266.975 330.698 267.05 331.173 267.126C335.138 267.755 339.105 268.375 343.072 268.996C344.138 269.163 345.223 268.724 345.532 267.599C345.793 266.65 345.209 265.307 344.135 265.139H344.137Z" fill="#211715"/>
<path d="M404.008 279.553C404.119 279.154 404.178 278.738 404.178 278.313C404.178 275.77 404.178 273.228 404.18 270.685C404.18 269.33 403.596 268.096 402.649 267.244C394.195 272.197 374.883 283.656 365.194 289.359C364.162 289.966 363.028 290.352 361.861 290.504C362.237 291.566 362.476 292.246 362.476 292.246C364.056 296.733 363.249 301.836 362.365 305.076C363.021 305.202 363.517 305.297 363.517 305.297C364.337 305.454 365.186 305.295 365.893 304.852C377.931 297.305 389.971 289.76 402.014 282.22C403 281.602 403.703 280.645 404.008 279.552V279.553Z" fill="#FFA21F"/>
<path d="M316.492 280.195C316.608 279.934 316.815 279.706 317.12 279.558C329.31 273.659 350.976 263.175 356.824 260.345C357.666 259.938 358.61 259.797 359.535 259.937C375.977 262.434 391.431 264.782 400.269 266.124C401.184 266.263 402 266.664 402.647 267.245C394.194 272.196 374.883 283.656 365.193 289.358C363.32 290.46 361.111 290.831 358.981 290.404C349.576 288.517 331.171 284.772 317.435 282.02C316.535 281.84 316.177 280.901 316.491 280.195H316.492Z" fill="#FFA21F"/>
<path d="M395.255 269.273C385.194 275.182 375.173 281.158 365.12 287.08C363.842 287.833 362.641 288.489 361.122 288.568C359.945 288.629 358.809 288.335 357.664 288.104C355.35 287.638 353.037 287.171 350.724 286.704C345.185 285.584 339.647 284.463 334.109 283.343C331.148 282.745 328.187 282.147 325.226 281.55C323.927 281.288 322.629 281.027 321.33 280.766C320.577 280.615 319.823 280.463 319.07 280.312C318.834 280.265 318.568 280.182 318.332 280.164C317.909 280.024 317.852 280.049 318.162 280.238C318.411 280.517 318.448 280.802 318.273 281.093C318.359 281.284 317.668 281.341 318.381 281.161C318.635 281.097 318.921 280.9 319.157 280.785C319.605 280.568 320.053 280.352 320.5 280.135C321.548 279.628 322.597 279.12 323.645 278.613C325.926 277.509 328.208 276.405 330.489 275.301C338.776 271.291 347.063 267.281 355.35 263.271C355.932 262.989 356.515 262.707 357.097 262.426C358.113 261.935 358.839 261.846 359.985 262.015C363.443 262.526 366.898 263.065 370.354 263.59C376.578 264.535 382.801 265.481 389.025 266.426C391.545 266.809 394.065 267.191 396.585 267.574C398.311 267.836 401.041 267.695 401.921 269.534C402.466 270.672 402.176 272.325 402.176 273.545C402.176 275.211 402.403 277.031 402.161 278.677C401.959 280.05 400.812 280.612 399.742 281.283C398.202 282.247 396.661 283.212 395.121 284.176C389.1 287.947 383.08 291.718 377.06 295.491C373.98 297.421 370.9 299.352 367.821 301.282C366.804 301.919 365.037 303.412 363.986 303.359C364.131 303.366 363.852 303.329 363.813 303.324C359.643 302.701 355.495 301.722 351.355 300.925L316.637 294.238L315.936 294.103L316.414 297.758L318.111 296.705C319.187 296.037 319.784 295.436 319.821 294.049C319.915 290.512 319.821 286.959 319.821 283.421C319.821 280.847 315.821 280.843 315.821 283.421C315.821 287.125 315.821 290.828 315.821 294.532L316.812 292.805L314.395 294.305C313.035 295.149 313.104 297.62 314.873 297.96C325.931 300.09 336.99 302.22 348.048 304.35C352.871 305.279 357.69 306.241 362.52 307.137C363.576 307.333 364.614 307.441 365.675 307.129C367.299 306.652 368.837 305.366 370.26 304.474C371.94 303.421 373.62 302.368 375.299 301.315C381.738 297.279 388.178 293.244 394.619 289.21C396.159 288.245 397.699 287.281 399.24 286.316C400.813 285.331 402.626 284.456 404.008 283.204C406.666 280.797 406.175 277.266 406.175 274.023C406.175 270.924 406.436 267.774 403.782 265.603C401.81 263.99 399.129 263.943 396.711 263.576C390.72 262.666 384.728 261.756 378.737 260.846C375.11 260.295 371.483 259.744 367.856 259.193C366.078 258.923 364.299 258.653 362.521 258.383C360.706 258.107 358.85 257.626 357.032 258.134C355.497 258.563 353.986 259.502 352.554 260.195C350.734 261.076 348.914 261.956 347.094 262.837C342.4 265.108 337.707 267.38 333.013 269.651C328.26 271.951 323.508 274.251 318.755 276.55C316.6 277.593 313.559 278.754 314.551 281.782C315.027 283.234 316.238 283.817 317.633 284.097C319.153 284.402 320.674 284.707 322.194 285.013C333.664 287.321 345.128 289.654 356.597 291.962C359.657 292.578 362.507 292.883 365.432 291.488C368.101 290.215 370.62 288.48 373.164 286.975C378.695 283.704 384.222 280.426 389.754 277.157C392.257 275.678 394.762 274.2 397.269 272.727C399.487 271.424 397.477 267.965 395.25 269.273H395.255Z" fill="#211715"/>
<path d="M360.548 292.778C361.282 294.915 361.446 296.591 361.358 298.845C361.339 299.326 361.305 299.806 361.259 300.284C361.233 300.55 361.204 300.816 361.169 301.081C361.221 300.689 361.111 301.444 361.099 301.514C360.955 302.392 360.768 303.263 360.549 304.125C360.291 305.137 360.879 306.342 361.946 306.585C362.986 306.822 364.13 306.273 364.406 305.188C365.515 300.83 365.888 296.031 364.406 291.714C364.067 290.727 363.018 289.97 361.946 290.317C360.967 290.634 360.185 291.718 360.549 292.777L360.548 292.778Z" fill="#211715"/>
<path d="M279.583 278.734C287.407 274.982 295.202 271.168 303.07 267.506C304.049 267.05 304.296 265.64 303.788 264.77C303.201 263.766 302.035 263.595 301.052 264.052C293.184 267.713 285.39 271.528 277.565 275.28C275.245 276.393 277.271 279.843 279.584 278.734H279.583Z" fill="#211715"/>
<path d="M281.311 273.425L280.95 272.958C280.875 272.861 280.799 272.764 280.724 272.666C280.556 272.447 280.902 272.959 280.78 272.732C280.575 272.351 280.675 272.574 280.663 273.327C280.654 273.933 280.75 274.121 280.329 274.451C280.054 274.667 280.312 274.486 280.382 274.451C280.452 274.415 280.525 274.384 280.597 274.351C280.763 274.276 280.929 274.202 281.096 274.129C281.18 274.092 281.263 274.056 281.347 274.02C281.769 273.836 281.061 274.137 281.311 274.034C281.672 273.885 282.033 273.738 282.397 273.597C283.878 273.024 285.389 272.533 286.919 272.112C287.927 271.835 288.648 270.679 288.316 269.652C287.984 268.625 286.937 267.958 285.856 268.255C283.971 268.773 282.116 269.4 280.311 270.15C279.235 270.597 277.873 270.983 277.224 272.034C276.723 272.845 276.791 273.901 277.287 274.696C277.627 275.241 278.087 275.743 278.481 276.253C278.771 276.628 279.447 276.839 279.895 276.839C280.386 276.839 280.971 276.621 281.309 276.253C281.659 275.872 281.919 275.371 281.895 274.839C281.87 274.272 281.653 273.869 281.309 273.425H281.311Z" fill="#211715"/>
<path d="M275.574 198.225C279.231 198.436 282.889 198.624 286.548 198.803C289.749 198.96 293.047 198.898 296.221 199.349C301.066 200.039 305.554 202.413 308.897 205.973C312.179 209.468 314.264 214.113 314.616 218.903C314.89 222.639 314.68 226.458 314.68 230.202C314.68 234.867 314.68 239.532 314.68 244.197C314.68 246.771 318.68 246.775 318.68 244.197C318.68 239.903 318.68 235.609 318.68 231.315C318.68 227.205 318.92 223.006 318.616 218.904C317.808 208.003 309.978 198.486 299.295 195.889C295.77 195.032 292.089 195.073 288.486 194.898C284.181 194.689 279.877 194.473 275.574 194.225C273.002 194.077 273.011 198.077 275.574 198.225Z" fill="#211715"/>
<path d="M163.944 166.629C166.805 164.526 168.804 161.893 170.429 158.785C171.655 156.441 172.019 153.773 172.3 151.158C173.721 137.936 174.37 119.496 173.799 104.877C173.086 83.183 178.737 67.45 187.646 58.837C193.016 53.645 205.117 46.572 218.713 46.572C226.878 46.572 236.428 47.38 245.523 55.359C256.506 62.634 262.796 71.763 264.046 88.558C264.217 90.857 264.255 96.233 264.317 103.631C263.746 118.825 264.067 139.237 265.488 152.979C265.769 155.697 266.134 158.47 267.359 160.906C268.984 164.136 271.94 166.434 274.801 168.62" fill="#6B5649"/>
<path d="M248.14 105.088C249.411 104.266 250.965 104.134 252.23 104.388C254.985 104.94 255.929 106.564 256.296 107.485C257.391 110.239 256.562 114.834 255.068 117.519C254.015 119.418 252.423 122.043 249.214 123.785C248.203 124.331 245.667 125.055 243.385 124.702C245.078 123.594 241.011 129.265 241.011 129.265C239.653 131.084 238.226 132.82 236.596 134.501C237.167 136.173 237.742 137.848 238.317 139.522C238.772 140.835 239.227 142.166 239.948 143.359C241.896 146.569 246.034 148.269 249.407 149.917C249.963 150.189 250.579 150.464 251.224 150.74C250.812 151.065 249.56 152.051 249.56 152.051C239.887 159.176 228.407 163.051 216.891 163.068C212.482 163.068 208.007 162.508 203.905 160.663C200.071 158.938 196.557 156.009 194.371 152.032C196.435 151.342 198.439 150.652 199.864 150.051C201.795 149.424 203.572 147.871 204.405 146.017C204.422 145.98 204.457 145.878 204.504 145.728C198.391 145.053 193.12 142.558 188.189 138.118C182.241 132.763 179.925 124.651 179.372 115.777C179.13 111.891 178.942 107.751 178.661 103.547C179.259 101.327 180.662 97.5702 182.046 95.4782H203.515C207.465 94.0632 210.74 90.9362 212.77 87.2642C214.412 84.2942 215.316 81.9322 216.078 77.9622L225.957 79.0862C227.093 83.6242 228.487 87.9712 229.752 90.3852C232.319 95.2832 236.808 102.05 241.449 103.883L248.141 105.09L248.14 105.088Z" fill="#F9F6F1"/>
<path d="M188.302 156.218C191.409 155.049 194.595 154.102 197.724 152.994C199.221 152.463 200.845 151.961 202.227 151.174C203.883 150.231 205.317 148.752 206.132 147.025C206.593 146.049 206.404 144.867 205.414 144.289C204.544 143.78 203.141 144.026 202.678 145.007C201.389 147.736 198.656 148.448 195.981 149.376C193.072 150.386 190.121 151.277 187.238 152.362C186.228 152.742 185.536 153.713 185.841 154.822C186.107 155.791 187.285 156.601 188.301 156.219L188.302 156.218Z" fill="#211715"/>
<path d="M234.896 135.702C235.783 138.285 236.532 140.988 237.727 143.45C238.782 145.623 240.539 147.264 242.536 148.573C246.451 151.138 250.987 152.784 255.296 154.54C256.297 154.948 257.494 154.097 257.756 153.143C258.071 151.998 257.364 151.092 256.359 150.683C252.519 149.118 248.576 147.607 245.032 145.422C243.444 144.443 242.103 143.273 241.258 141.587C240.167 139.411 239.541 136.937 238.753 134.639C237.922 132.218 234.057 133.258 234.896 135.702Z" fill="#211715"/>
<path d="M200.392 130.675C202.126 131.669 204.2 132.077 206.181 132.128C207.178 132.154 208.196 132.062 209.168 131.842C209.661 131.73 210.125 131.552 210.59 131.356C210.884 131.232 211.176 131.105 211.467 130.974C211.576 130.925 211.684 130.876 211.793 130.827C211.827 130.812 212.371 130.585 211.975 130.747C212.94 130.354 213.732 129.399 213.372 128.287C213.071 127.356 211.949 126.467 210.912 126.89C210.338 127.124 209.773 127.377 209.207 127.629C209.169 127.646 208.828 127.787 209.05 127.699C209.27 127.612 208.942 127.737 208.903 127.751C208.726 127.816 208.547 127.872 208.365 127.921C208.168 127.974 207.969 128.017 207.769 128.053C207.682 128.069 207.574 128.068 207.492 128.098C207.604 128.057 207.869 128.057 207.597 128.079C207.176 128.113 206.757 128.137 206.334 128.131C205.925 128.125 205.522 128.084 205.115 128.055C204.825 128.034 205.478 128.115 205.193 128.068C205.093 128.051 204.993 128.037 204.893 128.02C204.671 127.982 204.451 127.938 204.232 127.887C203.858 127.8 203.488 127.694 203.126 127.565C203.055 127.54 202.679 127.45 202.983 127.518C203.241 127.575 202.994 127.524 202.918 127.486C202.747 127.402 202.579 127.317 202.413 127.222C201.505 126.702 200.184 126.979 199.677 127.94C199.174 128.892 199.425 130.121 200.395 130.676L200.392 130.675Z" fill="#211715"/>
<path d="M213.545 110.022C213.143 108.197 213.836 104.131 217.238 104.059C221.693 104.452 221.524 109.423 219.833 111.627C218.448 113.432 214.77 113.928 213.546 110.021L213.545 110.022Z" fill="#211715"/>
<path d="M187.012 108.68C186.652 106.851 187.305 102.77 190.421 102.683C194.5 103.057 194.323 108.044 192.764 110.262C191.487 112.079 188.117 112.593 187.012 108.68Z" fill="#211715"/>
<path d="M200.351 113.451C199.746 114.366 199.149 115.298 198.633 116.267C198.422 116.664 198.194 117.073 198.097 117.515C197.891 118.451 198.096 119.308 198.73 120.032C199.155 120.517 199.69 120.819 200.278 121.053C200.66 121.205 201.076 121.227 201.48 121.281L200.948 121.21C201.008 121.218 201.067 121.228 201.126 121.239C201.66 121.343 202.185 121.319 202.667 121.037C203.082 120.794 203.478 120.319 203.586 119.842C203.703 119.33 203.677 118.755 203.384 118.301C203.114 117.882 202.696 117.481 202.189 117.382C201.923 117.33 201.653 117.304 201.385 117.269L201.917 117.34C201.718 117.313 201.527 117.273 201.341 117.196L201.819 117.398C201.693 117.34 201.578 117.27 201.466 117.187L201.871 117.5C201.741 117.395 201.619 117.281 201.516 117.149L201.829 117.554C201.804 117.517 201.784 117.478 201.769 117.437L201.971 117.915C201.956 117.874 201.946 117.832 201.941 117.788L202.012 118.32C202.007 118.25 202.008 118.188 202.015 118.118L201.944 118.65C201.964 118.528 201.999 118.414 202.043 118.299L201.841 118.777C202.099 118.17 202.475 117.595 202.818 117.033C203.139 116.507 203.467 115.986 203.806 115.472C204.083 115.053 204.138 114.404 204.008 113.931C203.88 113.467 203.522 112.964 203.089 112.736C202.086 112.206 200.969 112.52 200.353 113.454L200.351 113.451Z" fill="#211715"/>
<path d="M232.699 140.586C235.648 138.316 238.325 135.787 240.686 132.907C242.326 130.907 243.943 128.789 245.189 126.514C245.708 125.567 245.422 124.333 244.471 123.778C243.556 123.243 242.255 123.545 241.735 124.496C241.137 125.588 240.428 126.62 239.717 127.641C239.055 128.592 238.587 129.189 237.857 130.08C235.732 132.672 233.316 135.104 230.679 137.134C229.825 137.792 229.367 138.854 229.961 139.87C230.453 140.711 231.836 141.251 232.697 140.588L232.699 140.586Z" fill="#211715"/>
<path d="M223.684 140.492C214.84 144.048 204.679 145.677 195.872 141.093C191.85 138.999 188.135 135.973 185.769 132.066C183.389 128.135 182.191 123.548 181.659 119.013C180.901 112.56 180.896 106.013 180.359 99.537C180.148 96.99 176.146 96.967 176.359 99.537C176.874 105.75 176.932 112.011 177.571 118.211C178.104 123.381 179.253 128.547 181.77 133.139C186.656 142.053 196.737 147.497 206.728 147.897C212.945 148.146 219.012 146.655 224.747 144.349C225.748 143.946 226.453 143.015 226.144 141.889C225.883 140.938 224.692 140.087 223.684 140.492Z" fill="#211715"/>
<path d="M249.15 106.815C250.304 106.124 251.689 106.115 252.909 106.673C253.832 107.095 254.047 107.417 254.47 108.26C254.169 107.66 254.559 108.574 254.597 108.72C254.664 108.973 254.718 109.235 254.75 109.491C254.843 110.244 254.813 111.033 254.74 111.787C254.616 113.066 254.293 114.388 253.802 115.576C252.849 117.882 251.165 120.183 249.066 121.546C248.745 121.754 248.416 121.951 248.075 122.125C247.615 122.36 248.47 121.996 247.896 122.199C247.305 122.408 246.696 122.578 246.078 122.683C244.906 122.882 243.56 122.906 242.481 122.345C240.2 121.16 238.175 124.61 240.462 125.799C243.076 127.157 246.331 127.035 249.051 126.022C251.867 124.973 254.122 122.734 255.755 120.267C257.344 117.866 258.32 115.238 258.674 112.38C258.998 109.763 258.742 106.893 256.974 104.814C254.628 102.057 250.17 101.541 247.131 103.361C244.925 104.683 246.934 108.142 249.15 106.815Z" fill="#211715"/>
<path d="M224.028 79.6161C225.4 85.0451 227.11 90.2121 230.08 94.9861C232.756 99.2871 236.104 103.806 240.917 105.81C241.915 106.225 243.117 105.362 243.377 104.413C243.693 103.262 242.982 102.37 241.98 101.953C240.156 101.194 238.642 99.6381 237.354 98.1931C235.748 96.3911 234.384 94.3861 233.139 92.3221C230.55 88.0291 229.11 83.3961 227.886 78.5541C227.256 76.0601 223.397 77.1171 224.029 79.6171L224.028 79.6161Z" fill="#211715"/>
<path d="M214.149 77.4291C212.88 83.9341 209.695 91.0731 202.982 93.5491C201.969 93.9221 201.282 94.9051 201.585 96.0091C201.853 96.9841 203.027 97.7811 204.045 97.4061C212.105 94.4341 216.437 86.5361 218.006 78.4931C218.213 77.4341 217.706 76.3341 216.609 76.0331C215.628 75.7631 214.357 76.3631 214.149 77.4291Z" fill="#211715"/>
<path d="M200.298 77.7561C200 84.2261 196.978 90.2151 191.993 94.3351C191.16 95.0241 191.28 96.4511 191.993 97.1631C192.817 97.9871 193.986 97.8531 194.821 97.1631C200.611 92.3771 203.954 85.2191 204.298 77.7551C204.348 76.6751 203.343 75.7551 202.298 75.7551C201.173 75.7551 200.348 76.6731 200.298 77.7561Z" fill="#211715"/>
<path d="M179.451 110.022C180.164 104.926 181.424 99.8132 184.432 95.5552C187.92 90.6182 190.612 84.7462 189.606 78.5842C189.432 77.5172 188.107 76.9232 187.146 77.1872C186.012 77.4992 185.574 78.5772 185.749 79.6472C186.671 85.2942 183.086 90.1682 180.218 94.6212C177.5 98.8412 176.279 104.058 175.594 108.957C175.445 110.025 175.854 111.105 176.991 111.417C177.927 111.674 179.301 111.097 179.451 110.02V110.022Z" fill="#211715"/>
<path d="M275.812 166.892C272.672 164.491 269.513 161.917 268.361 157.977C267.294 154.328 267.205 150.328 266.935 146.554C266.352 138.395 266.116 130.211 266.061 122.033C266.005 113.8 266.347 105.576 266.262 97.3451C266.192 90.5781 266.006 83.8591 264.235 77.2751C262.281 70.0121 258.436 63.5531 252.864 58.4911C250.962 56.7631 248.125 59.5841 250.036 61.3191C254.79 65.6381 258.19 70.9711 260.036 77.1321C261.978 83.6161 262.187 90.2381 262.258 96.9461C262.347 105.239 262.007 113.525 262.059 121.82C262.111 130.069 262.346 138.325 262.935 146.554C263.247 150.921 263.303 155.698 264.765 159.857C266.388 164.473 270.03 167.468 273.793 170.346C274.652 171.003 276.032 170.479 276.529 169.628C277.131 168.598 276.672 167.55 275.811 166.892H275.812Z" fill="#211715"/>
<path d="M180.782 155.551C175.622 157.664 170.58 160.35 167.374 163.561C166.245 164.692 163.837 167.164 161.36 170.836C158.474 176.387 151.127 196.086 146.703 207.197C145.253 210.839 143.001 216.155 139.71 221.697C139.71 221.697 133.807 232.224 128.976 240.84C148.304 241.863 168.206 242.917 188.167 243.975C188.264 243.888 188.362 243.801 188.462 243.715C190.277 242.143 192.477 240.763 194.328 240.036C196.334 239.248 198.947 239.594 201.021 240.361C203.042 241.108 204.509 242.405 206.501 243.227C208.479 244.043 210.528 244.501 212.659 244.686C216.851 245.049 221.137 245.405 225.25 244.653C228.184 244.116 231.175 245.177 233.248 247.321C236.78 250.976 240.12 254.93 241.439 259.786C243.512 263.544 247.609 265.78 253.572 265.447C266.905 263.238 276.169 259.878 285.544 253.336C287.019 252.307 288.127 250.899 289.262 249.461C292.321 245.586 294.375 240.615 294.663 236.432C295.202 228.598 295.121 220.45 294.238 210.989C293.562 203.768 292.424 196.59 290.823 189.517C289 184.164 286.995 178.943 284.873 174.799C281.189 167.602 278.046 164.31 275.563 162.23C269.742 157.351 261.486 153.35 252.139 150.019L251.361 150.632L249.56 152.051C239.887 159.176 228.407 163.051 216.891 163.068C212.482 163.068 208.007 162.508 203.905 160.663C199.827 158.828 196.11 155.63 193.979 151.255C192.94 151.519 191.258 151.952 190.544 152.161C187.557 153.04 184.143 154.174 180.78 155.551H180.782Z" fill="#9CC2D3"/>
<path d="M164.954 168.355C167.463 166.471 169.534 164.214 171.174 161.534C172.911 158.694 173.739 155.75 174.15 152.468C174.9 146.478 175.265 140.424 175.558 134.398C175.876 127.872 176.03 121.338 176.004 114.804C175.978 108.397 175.535 101.988 175.895 95.5841C176.47 85.3581 178.683 74.7611 184.318 66.0541C189.542 57.9821 198.28 52.8101 207.396 50.2131C213.587 48.4491 220.103 48.1791 226.477 48.9721C233.245 49.8141 239.448 52.6101 244.537 57.1521C246.452 58.8611 249.291 56.0421 247.365 54.3241C242.556 50.0321 236.869 46.9661 230.544 45.6271C225.027 44.4591 219.075 44.2071 213.483 44.9131C202.955 46.2411 191.733 51.1191 184.568 59.1591C177.923 66.6161 174.469 76.4631 172.907 86.1941C171.873 92.6391 171.597 99.1531 171.83 105.671C172.063 112.189 172.054 118.729 171.893 125.255C171.716 132.411 171.36 139.567 170.735 146.699C170.436 150.106 170.383 153.862 169.046 157.057C167.782 160.079 165.551 162.939 162.936 164.903C162.074 165.551 161.629 166.631 162.218 167.639C162.715 168.489 164.085 169.009 164.954 168.357V168.355Z" fill="#211715"/>
<path d="M194.324 149.104C188.55 150.554 182.893 152.374 177.456 154.817C174.205 156.277 171.054 157.982 168.234 160.172C165.914 161.974 163.915 164.178 162.098 166.477C161.082 167.763 159.993 169.067 159.272 170.546C158.847 171.417 158.452 172.303 158.063 173.191C156.959 175.715 155.918 178.267 154.891 180.823C152.429 186.952 150.063 193.121 147.671 199.278C144.824 206.604 141.99 213.894 137.984 220.687C136.673 222.909 140.13 224.924 141.438 222.706C145.046 216.59 147.732 210.066 150.31 203.469C152.65 197.481 154.949 191.477 157.311 185.497C159.075 181.03 160.655 176.266 162.983 172.048C164.424 169.438 166.676 167.066 168.788 164.974C171.054 162.73 173.822 161.069 176.647 159.623C182.568 156.593 188.955 154.575 195.388 152.959C197.883 152.332 196.826 148.474 194.325 149.102L194.324 149.104Z" fill="#211715"/>
<path d="M192.206 152.191C201.23 170.331 227.411 166.35 242.236 158.895C246.012 156.996 249.464 154.655 252.776 152.045C253.625 151.376 253.476 149.917 252.776 149.217C251.938 148.379 250.799 148.546 249.948 149.217C244.155 153.782 237.383 157.325 230.131 159.283C226.082 160.376 221.929 160.984 217.735 161.059C213.352 161.137 208.782 160.705 204.75 158.858C200.796 157.047 197.601 154.073 195.66 150.172C194.513 147.867 191.062 149.891 192.206 152.191Z" fill="#211715"/>
<path d="M1.92601 236.086C23.163 237.219 44.399 238.348 65.636 239.476C91.065 240.827 116.495 242.176 141.924 243.524C157.267 244.338 172.611 245.151 187.954 245.963C190.526 246.099 190.519 242.099 187.954 241.963C161.083 240.539 134.213 239.115 107.342 237.689C83.481 236.423 59.621 235.156 35.76 233.887C24.482 233.287 13.204 232.687 1.92601 232.085C-0.64599 231.948 -0.63899 235.949 1.92601 236.086Z" fill="#211715"/>
<path d="M60.774 283.742C59.546 283.663 58.331 283.586 57.132 283.509C55.059 283.376 53.337 281.868 52.931 279.83C49.273 261.468 44.158 234.269 40.329 215.825C39.72 212.891 42.031 210.174 45.025 210.306C75.61 211.653 121.307 213.78 130.685 214.465C135.675 214.975 137.743 218.802 138.631 222.791C140.46 231.005 143.09 244.588 145.53 257.17C150.01 257.408 153.349 257.585 153.349 257.585C170.393 258.529 189.73 259.207 202.897 260.096C205.395 260.888 207.284 262.639 207.284 265.839C207.284 268.594 205.6 270.372 202.705 271.446C188.404 277.696 178.249 281.722 163.238 287.974C159.43 289.44 151.897 289.909 146.822 289.512C135.268 288.571 93.311 285.826 60.774 283.741V283.742Z" fill="#F9F6F1"/>
<path d="M164.765 266.458C158.628 266.084 151.573 265.663 147.433 265.447L147.136 265.432C148.006 269.896 148.818 274.013 149.516 277.438C149.626 277.443 149.684 277.448 149.684 277.448C150.055 277.476 164.967 271.809 172.474 268.778C173.432 268.391 173.202 266.976 172.171 266.913C170.126 266.787 167.54 266.628 164.766 266.459L164.765 266.458Z" fill="#FFA21F"/>
<path d="M152.367 281.332C149.467 267.841 147.023 254.249 144.354 240.711C143.103 234.364 142.02 227.917 140.414 221.648C139.514 218.135 137.552 214.807 134.11 213.315C132.025 212.411 129.75 212.393 127.518 212.259C114.951 211.502 102.37 210.942 89.795 210.348C81.583 209.96 73.37 209.581 65.157 209.207C61.101 209.023 57.044 208.84 52.988 208.659C51.122 208.576 49.257 208.493 47.391 208.41C45.407 208.322 43.465 208.124 41.652 209.115C39.969 210.034 38.696 211.749 38.359 213.643C38.016 215.575 38.646 217.527 39.032 219.412C39.867 223.489 40.683 227.571 41.491 231.654C43.226 240.419 44.923 249.192 46.624 257.964C47.456 262.255 48.288 266.547 49.127 270.837C49.504 272.766 49.882 274.695 50.263 276.623C50.628 278.473 50.779 280.6 51.744 282.253C54.01 286.136 58.87 285.619 62.75 285.868C67.051 286.144 71.351 286.421 75.652 286.699C92.202 287.768 108.752 288.847 125.298 289.972C131.055 290.364 136.813 290.758 142.568 291.185C148.904 291.655 155.276 292.014 161.532 290.566C163.56 290.096 165.438 289.209 167.354 288.415C169.654 287.462 171.956 286.512 174.258 285.563C178.442 283.839 182.628 282.119 186.806 280.379C191.173 278.56 195.53 276.719 199.873 274.844C203.505 273.276 208.187 271.962 209.105 267.515C209.938 263.479 207.796 259.83 204.016 258.378C202.506 257.798 200.561 257.944 198.954 257.848C197.102 257.737 195.249 257.633 193.396 257.533C184.623 257.058 175.847 256.651 167.071 256.23C162.7 256.02 158.328 255.808 153.957 255.586C151.384 255.455 151.391 259.455 153.957 259.586C162.614 260.026 171.273 260.427 179.93 260.849C184.057 261.05 188.184 261.255 192.31 261.475C194.098 261.57 195.886 261.669 197.674 261.773C199.207 261.862 200.836 261.813 202.351 262.062C205 262.496 206.264 266.073 204.462 268.088C203.178 269.524 200.821 270.106 199.113 270.846C197.008 271.759 194.899 272.664 192.787 273.561C184.701 276.997 176.564 280.31 168.445 283.667C164.725 285.205 161.233 286.799 157.202 287.274C153.601 287.699 149.952 287.761 146.338 287.475C141.808 287.117 137.275 286.8 132.742 286.485C117.729 285.441 102.711 284.459 87.694 283.481C79.443 282.944 71.192 282.411 62.941 281.882C61.036 281.76 59.017 281.814 57.133 281.51C55.447 281.238 54.993 279.965 54.696 278.469C53.945 274.692 53.206 270.914 52.469 267.134C49.276 250.753 46.171 234.353 42.818 218.004C42.535 216.624 41.802 214.876 42.603 213.562C43.467 212.146 44.919 212.302 46.37 212.367C50.024 212.528 53.678 212.691 57.332 212.855C65.273 213.212 73.213 213.574 81.154 213.944C94.671 214.573 108.189 215.202 121.701 215.932C123.776 216.044 125.851 216.159 127.925 216.285C129.842 216.402 131.86 216.359 133.503 217.514C135.941 219.227 136.504 222.384 137.093 225.099C137.72 227.991 138.317 230.889 138.904 233.789C141.693 247.56 144.258 261.375 147.018 275.152C147.502 277.569 147.993 279.986 148.511 282.396C149.052 284.911 152.909 283.847 152.368 281.333L152.367 281.332Z" fill="#211715"/>
<path d="M181.682 270.647C173.974 273.75 166.273 276.87 158.551 279.936C157.548 280.334 156.846 281.273 157.154 282.396C157.416 283.351 158.605 284.194 159.614 283.793C167.336 280.727 175.037 277.607 182.745 274.504C183.746 274.101 184.451 273.17 184.142 272.044C183.881 271.093 182.69 270.241 181.682 270.647Z" fill="#211715"/>
<path d="M147.432 267.447C154.91 267.838 162.384 268.31 169.857 268.769C170.257 268.794 170.656 268.818 171.056 268.843C171.226 268.853 171.462 268.901 171.624 268.878C172.408 268.768 171.117 269.593 171.113 268.144C171.112 267.717 172.148 266.974 171.461 267.041C171.329 267.054 171.071 267.198 170.964 267.24C170.572 267.397 170.179 267.553 169.786 267.709C168.178 268.347 166.568 268.978 164.956 269.605C161.665 270.884 158.369 272.148 155.064 273.391C153.737 273.89 152.409 274.387 151.076 274.869C150.657 275.021 150.238 275.173 149.817 275.316C149.475 275.431 148.747 275.503 149.682 275.447C147.124 275.6 147.106 279.601 149.682 279.447C150.423 279.403 151.122 279.093 151.811 278.846C153.167 278.359 154.517 277.854 155.866 277.347C159.567 275.957 163.257 274.541 166.94 273.104C168.722 272.409 170.503 271.709 172.279 270.997C173.249 270.608 174.2 270.271 174.726 269.289C175.327 268.166 175.118 266.721 174.241 265.803C172.92 264.42 170.025 264.78 168.254 264.671C166.052 264.536 163.85 264.402 161.648 264.269C156.91 263.983 152.172 263.695 147.432 263.447C144.859 263.313 144.867 267.313 147.432 267.447Z" fill="#211715"/>
<path d="M224.487 267.599C227.147 267.164 229.589 266.34 231.132 265.344L241.438 259.785C240.119 254.928 236.779 250.974 233.247 247.32C231.174 245.175 228.184 244.115 225.249 244.652C221.135 245.404 216.85 245.049 212.658 244.685C210.526 244.5 208.478 244.042 206.5 243.226C204.508 242.404 203.041 241.107 201.02 240.36C198.946 239.593 196.333 239.247 194.327 240.035C191.426 241.174 187.668 243.917 185.879 246.49C184.95 247.616 183.714 250.094 185.537 252.262C186.277 253.142 187.879 253.056 189.355 252.866C187.421 254.543 185.628 256.186 184.654 257.246C184.066 257.886 183.398 260.056 184.477 261.372C185.509 262.631 186.869 262.633 187.631 262.519C188.823 262.341 190.047 261.768 191.17 261.076C189.849 262.134 188.813 263.026 188.402 263.517C187.084 265.094 186.536 267.543 188.015 269.116C190.539 271.799 196.278 268.179 199.427 265.607C202.046 263.647 202.922 263.213 205.683 261.129C204.366 262.816 203.048 264.502 201.731 266.189C201.017 267.103 200.46 268.15 200.449 269.31C200.437 270.648 201.279 271.614 202.555 272.018C203.831 272.422 205.249 272.207 206.427 271.573C207.605 270.939 208.579 270.08 209.517 269.126C210.788 267.834 211.734 266.818 212.698 265.705C215.248 267.986 220.156 268.306 224.485 267.598L224.487 267.599Z" fill="#F9F6F1"/>
<path d="M195.224 245.544C192.012 247.866 188.973 250.481 186.036 253.137C184.825 254.232 183.182 255.445 182.5 256.968C181.237 259.788 182.138 263.079 185.174 264.239C188.092 265.354 191.31 263.505 193.615 261.843C194.49 261.212 194.915 260.102 194.333 259.107C193.828 258.243 192.477 257.754 191.597 258.389C190.661 259.064 189.667 259.754 188.591 260.188C188.11 260.382 187.608 260.493 187.101 260.591C187.504 260.513 187.278 260.553 187.002 260.565C186.922 260.569 186.841 260.559 186.761 260.557C186.954 260.562 186.986 260.618 186.777 260.554C186.689 260.527 186.598 260.507 186.509 260.48C186.215 260.392 186.727 260.615 186.444 260.449C186.234 260.326 186.231 260.32 186.143 260.231C186.116 260.203 185.907 259.903 186.004 260.122C185.964 260.031 185.943 259.925 185.92 259.829C185.843 259.517 185.918 260.079 185.91 259.758C185.907 259.653 185.959 259.046 185.901 259.392C185.932 259.204 185.997 259.025 186.037 258.839C186.114 258.483 185.928 259.031 186.126 258.627C186.322 258.227 185.957 258.748 186.15 258.573C187.246 257.581 188.265 256.497 189.371 255.51C190.745 254.283 192.146 253.086 193.564 251.911C194.305 251.297 195.051 250.689 195.806 250.091C195.955 249.973 196.105 249.855 196.255 249.737C196.336 249.674 196.418 249.61 196.499 249.547C196.393 249.629 196.252 249.734 196.442 249.592C196.709 249.392 196.974 249.19 197.244 248.995C198.118 248.363 198.544 247.255 197.962 246.259C197.457 245.396 196.106 244.905 195.226 245.541L195.224 245.544Z" fill="#211715"/>
<path d="M201.98 262.649C200.404 264.667 198.348 266.743 198.455 269.5C198.565 272.335 200.984 274.063 203.645 274.217C206.37 274.375 208.746 272.689 210.601 270.874C212.269 269.243 213.826 267.497 215.314 265.702C216.003 264.871 216.128 263.687 215.314 262.874C214.605 262.165 213.178 262.038 212.486 262.874C211.311 264.292 210.09 265.667 208.811 266.992C208.121 267.707 207.431 268.437 206.651 269.057C206.109 269.488 205.355 269.956 204.655 270.134C204.196 270.251 204.183 270.243 203.646 270.218C203.394 270.201 203.352 270.196 203.52 270.204L203.304 270.154C203.228 270.128 202.723 269.924 203.049 270.087C202.977 270.051 202.502 269.73 202.659 269.863C202.908 270.075 202.346 269.459 202.546 269.736C202.742 270.006 202.355 269.274 202.474 269.591C202.577 269.863 202.445 268.971 202.456 269.502C202.454 269.432 202.485 268.883 202.441 269.205C202.469 268.996 202.537 268.789 202.602 268.589C202.751 268.126 202.492 268.706 202.744 268.285C202.856 268.099 202.958 267.911 203.078 267.73C203.535 267.04 204.216 266.239 204.81 265.479C205.474 264.629 205.639 263.48 204.81 262.651C204.118 261.959 202.65 261.795 201.982 262.651L201.98 262.649Z" fill="#211715"/>
<path d="M212.158 267.813C215.013 269.834 218.948 270.123 222.328 269.86C225.662 269.601 229.274 268.882 232.142 267.071C234.313 265.7 232.308 262.237 230.123 263.617C229.619 263.935 229.091 264.212 228.543 264.446C228.876 264.303 228.286 264.542 228.281 264.544C228.119 264.605 227.956 264.663 227.792 264.72C227.451 264.838 227.107 264.945 226.761 265.045C225.235 265.483 223.791 265.745 222.327 265.86C221.528 265.923 220.725 265.947 219.924 265.927C219.253 265.91 218.332 265.836 217.915 265.764C216.361 265.496 215.36 265.197 214.176 264.359C213.294 263.735 211.951 264.202 211.44 265.077C210.854 266.079 211.273 267.187 212.158 267.813Z" fill="#211715"/>
<path d="M189.562 250.84C188.969 250.916 187.533 251.29 187.005 250.911C186.382 250.463 186.586 249.31 186.824 248.734C187.491 247.126 189.105 245.721 190.456 244.643C191.983 243.424 193.989 241.966 195.971 241.649C198.152 241.3 200.385 242.106 202.239 243.182C204.409 244.442 206.524 245.544 208.99 246.121C211.555 246.721 214.248 246.86 216.872 247.005C219.625 247.157 222.365 247.114 225.094 246.694C227.185 246.372 229.114 246.602 230.871 247.879C232.815 249.291 234.544 251.535 235.968 253.451C237.523 255.544 238.794 257.8 239.509 260.317C240.211 262.789 244.072 261.738 243.366 259.254C242.578 256.482 241.241 253.918 239.543 251.597C237.945 249.411 236.142 247.163 234.1 245.372C232.078 243.598 229.488 242.517 226.78 242.515C225.339 242.514 223.919 242.893 222.484 243.002C220.773 243.133 219.053 243.114 217.341 243.031C214.311 242.884 211.212 242.738 208.313 241.775C205.652 240.892 203.501 238.994 200.799 238.181C197.92 237.314 195.07 237.434 192.359 238.729C189.972 239.869 187.702 241.522 185.858 243.417C183.966 245.363 182.23 247.847 182.69 250.701C182.92 252.127 183.714 253.612 184.988 254.368C186.348 255.174 188.063 255.034 189.561 254.841C190.632 254.703 191.561 254.021 191.561 252.841C191.561 251.867 190.64 250.702 189.561 250.841L189.562 250.84Z" fill="#211715"/>
<path d="M199.619 252.488C197.716 253.821 195.843 255.199 193.988 256.598C192.108 258.015 190.188 259.425 188.447 261.014C186.291 262.982 185.02 266.457 186.769 269.105C188.975 272.445 193.062 271.78 196.086 270.084C197.831 269.105 199.344 267.779 200.971 266.625C202.778 265.343 204.621 264.112 206.398 262.789C207.263 262.145 207.704 261.058 207.116 260.053C206.617 259.2 205.251 258.687 204.38 259.335C201.693 261.335 198.911 263.198 196.231 265.207C195.153 266.015 193.925 266.859 192.68 267.281C192.382 267.382 192.076 267.471 191.766 267.528C191.402 267.594 191.987 267.52 191.63 267.544C191.485 267.554 191.341 267.555 191.197 267.551C190.849 267.541 191.436 267.612 191.1 267.548C190.998 267.529 190.895 267.504 190.796 267.472C190.56 267.395 190.602 267.425 190.381 267.224C190.037 266.912 189.971 266.654 189.957 266.372C189.932 265.883 190.049 265.469 190.297 265.015C190.605 264.451 191.03 264.054 191.57 263.58C193.186 262.161 194.573 261.131 196.178 259.923C197.978 258.569 199.794 257.234 201.639 255.942C202.523 255.323 202.934 254.192 202.357 253.206C201.846 252.332 200.51 251.866 199.621 252.488H199.619Z" fill="#211715"/>
<path d="M247.077 150.409C252.437 152.15 257.736 154.113 262.803 156.59C266.968 158.626 271.107 160.977 274.612 164.04C281.764 170.288 285.381 179.948 288.421 188.675C289.422 191.549 289.893 194.637 290.426 197.63C290.959 200.623 291.415 203.639 291.776 206.662C292.485 212.592 292.904 218.565 292.986 224.537C293.022 227.209 292.987 229.882 292.876 232.552C292.773 235.041 292.691 237.494 291.997 239.901C290.645 244.59 287.686 249.489 283.596 252.252C274.351 258.497 263.965 261.691 253.039 263.518C251.973 263.696 251.377 265.014 251.642 265.978C251.953 267.108 253.033 267.554 254.102 267.375C264.432 265.648 274.479 262.703 283.425 257.128C285.7 255.71 287.888 254.254 289.623 252.183C291.427 250.03 293.039 247.741 294.233 245.191C295.382 242.738 296.216 240.183 296.553 237.492C296.886 234.835 296.919 232.111 296.971 229.436C297.214 216.998 295.962 204.473 293.463 192.292C292.232 186.289 289.819 180.383 287.141 174.877C285.012 170.5 282.426 166.187 279.003 162.688C275.492 159.1 271.074 156.359 266.647 154.056C260.736 150.981 254.468 148.607 248.139 146.551C245.685 145.754 244.634 149.615 247.076 150.408L247.077 150.409Z" fill="#211715"/>
<path d="M90.25 138.464C96.207 138.626 102.164 138.789 108.122 138.951C110.969 139.028 113.815 139.106 116.662 139.182C117.962 139.217 119.263 139.252 120.563 139.287C120.718 139.291 122.226 139.473 122.331 139.334C122.272 139.412 121.996 139.186 122.083 139.097C122.21 138.966 122.107 139.339 122.099 139.062C122.092 138.802 122.704 138.939 122.068 138.98C121.95 138.988 121.823 139.027 121.707 139.051C121.07 139.182 120.431 139.301 119.794 139.426L112.691 140.818L94.554 144.372L88.859 145.488C88.671 145.525 88.476 145.58 88.285 145.6C87.824 145.649 88.71 145.687 87.928 145.546C86.83 145.349 85.569 145.482 84.453 145.452C83.102 145.415 81.751 145.377 80.4 145.339C69.087 145.022 57.775 144.68 46.461 144.365C43.886 144.293 43.888 148.293 46.461 148.365C57.111 148.662 67.76 148.982 78.409 149.283C81.103 149.359 83.796 149.434 86.49 149.507C87.541 149.535 88.57 149.601 89.604 149.407C91.417 149.066 93.225 148.697 95.036 148.343C101.459 147.085 107.882 145.826 114.304 144.568L121.471 143.164C123.462 142.774 125.468 142.328 125.99 139.956C126.257 138.743 125.903 137.385 125.033 136.487C123.967 135.387 122.594 135.342 121.159 135.304C117.93 135.218 114.701 135.131 111.472 135.043C104.398 134.851 97.324 134.657 90.251 134.465C87.676 134.395 87.678 138.395 90.251 138.465L90.25 138.464Z" fill="#D9D9D9"/>
<path d="M93.119 140.73C92.115 135.628 91.14 130.52 90.136 125.417C89.671 123.055 89.202 120.695 88.714 118.338C88.291 116.3 88.013 114.103 87.023 112.244C85.885 110.109 83.854 108.987 81.496 108.78C80.198 108.666 78.892 108.616 77.592 108.544C73.022 108.291 68.449 108.069 63.877 107.85C57.224 107.53 50.571 107.225 43.918 106.925C41.344 106.809 41.35 110.809 43.918 110.925C54.298 111.392 64.678 111.86 75.054 112.407C76.666 112.492 78.278 112.579 79.89 112.676C81.075 112.748 82.369 112.629 83.189 113.651C84.259 114.984 84.385 117.139 84.724 118.758C85.194 121.006 85.644 123.258 86.089 125.511C87.161 130.936 88.195 136.368 89.263 141.793C89.76 144.316 93.615 143.248 93.119 140.73Z" fill="#D9D9D9"/>
<path d="M319.84 145.864C325.799 146.093 331.759 146.322 337.719 146.534C340.571 146.636 343.424 146.733 346.276 146.824C347.58 146.866 348.884 146.906 350.187 146.944C350.343 146.949 351.854 147.134 351.96 146.994C351.901 147.073 351.625 146.845 351.714 146.757C351.846 146.625 351.731 147.005 351.735 146.722C351.739 146.458 352.335 146.599 351.708 146.64C351.589 146.648 351.463 146.687 351.347 146.711C350.71 146.842 350.071 146.961 349.433 147.086L342.327 148.478L324.185 152.032L318.488 153.148C318.3 153.185 318.105 153.24 317.914 153.26C317.453 153.308 318.338 153.347 317.557 153.206C316.46 153.008 315.2 153.139 314.084 153.105C312.733 153.063 311.383 153.02 310.032 152.975C298.717 152.597 287.406 152.103 276.09 151.786C273.515 151.714 273.517 155.714 276.09 155.786C286.743 156.085 297.391 156.543 308.042 156.908C310.734 157 313.427 157.088 316.12 157.166C317.171 157.196 318.199 157.262 319.233 157.068C321.047 156.727 322.855 156.358 324.666 156.004L343.94 152.229L351.109 150.825C353.099 150.435 355.102 149.989 355.621 147.617C355.886 146.404 355.533 145.047 354.663 144.148C353.596 143.047 352.222 143.004 350.785 142.963C347.548 142.87 344.311 142.765 341.075 142.653C333.996 142.41 326.919 142.138 319.841 141.866C317.267 141.767 317.271 145.767 319.841 145.866L319.84 145.864Z" fill="#D9D9D9"/>
<path d="M322.75 148.389C321.682 142.963 320.648 137.531 319.576 132.107C319.1 129.698 318.619 127.289 318.112 124.886C317.655 122.716 317.29 120.486 315.842 118.719C313.486 115.844 309.141 116.321 305.785 116.204C301.036 116.038 296.286 115.91 291.537 115.773C284.941 115.583 278.346 115.391 271.751 115.156C269.177 115.064 269.18 119.064 271.751 119.156C282.219 119.529 292.69 119.782 303.159 120.117C304.932 120.174 306.706 120.232 308.479 120.306C309.604 120.353 311.046 120.213 312.002 120.664C313.634 121.434 313.797 123.799 314.126 125.342C314.6 127.566 315.048 129.795 315.491 132.025C316.644 137.83 317.749 143.645 318.892 149.453C319.389 151.976 323.245 150.908 322.749 148.39L322.75 148.389Z" fill="#D9D9D9"/>
<path d="M375.125 153.04C371.966 155.228 368.04 155.69 364.335 154.838C362.325 154.376 360.565 153.42 358.841 152.31C357.79 151.634 356.984 150.798 356.832 149.504C356.429 146.086 360.652 144.795 363.075 143.606C366.664 141.845 370.436 140.236 374.388 139.513C376.38 139.149 377.535 139.812 378.209 141.732C379.063 144.165 379.73 146.655 380.237 149.182C380.744 151.709 384.6 150.636 384.094 148.119C383.53 145.308 382.801 142.489 381.758 139.814C380.895 137.602 379.11 135.874 376.711 135.471C374.312 135.068 371.608 135.955 369.354 136.691C366.91 137.489 364.531 138.502 362.207 139.599C358.184 141.497 353.388 143.348 352.86 148.375C352.332 153.402 356.813 156.25 360.882 157.932C366.019 160.055 372.53 159.691 377.146 156.495C379.248 155.039 377.251 151.571 375.127 153.041L375.125 153.04Z" fill="#D9D9D9"/>
<path d="M375.125 153.04C371.804 155.332 367.802 155.288 364.025 154.278C361.351 153.563 357.25 152.671 356.961 149.305C356.864 148.168 357.268 146.965 358.178 146.234C359.617 145.079 361.614 144.318 363.265 143.513C366.848 141.765 370.622 140.171 374.569 139.48C376.5 139.142 377.575 139.928 378.208 141.732C379.062 144.165 379.729 146.655 380.236 149.182C380.743 151.709 384.599 150.636 384.093 148.119C383.529 145.308 382.8 142.489 381.757 139.814C380.911 137.645 379.167 135.914 376.816 135.49C374.508 135.073 371.931 135.877 369.742 136.567C367.228 137.359 364.785 138.391 362.4 139.509C358.357 141.404 353.454 143.242 352.985 148.322C352.813 150.184 353.356 152.122 354.469 153.623C355.987 155.671 358.401 156.743 360.769 157.5C366.155 159.22 372.238 159.88 377.143 156.496C379.248 155.044 377.25 151.575 375.124 153.042L375.125 153.04Z" fill="#D9D9D9"/>
</g>
<defs>
<clipPath id="clip0_2_509">
<rect width="434.359" height="330.954" fill="white"/>
</clipPath>
</defs>
</svg>
