<svg width="655" height="750" viewBox="0 0 655 750" fill="none" xmlns="http://www.w3.org/2000/svg">
<g clip-path="url(#clip0_2_349)">
<path d="M14.5401 394.797C3.00015 385.872 -0.192413 370.462 13.9131 361.383C6.82162 348.627 9.76617 333.207 25.1554 330.087C16.677 318.401 17.8139 302.912 33.2607 297.972C25.6732 286.777 26.7527 272.489 40.4652 267.182C31.6794 254.967 33.2686 238.69 50.1519 234.479C43.1776 221.147 47.0944 205.248 64.6364 203.531C60.0153 190.113 65.4658 175.89 81.6308 175.442C81.732 160.567 92.3235 148.412 107.883 154.156C113.931 140.744 128.372 133.996 140.465 145.714C150.206 133.283 167.252 130.197 175.506 145.031C187.929 136.347 204.338 138.144 208.3 154.95C223.12 147.891 240.495 153.292 240.245 171.356C255.783 170.467 269.109 181.109 262.764 197.949C264.795 197.919 267.327 198.458 269.456 198.474C261.345 204.921 260.402 218.463 265.401 229.321C249.747 231.962 245.999 259.911 254.23 270.403C241.591 273.483 239.533 307.521 253.634 313.978C242.757 320.14 241.876 350.657 257.008 356.672C247.454 364.449 253.92 391.731 273.028 398.194C265.091 412.572 284.786 437.515 297.719 436.633C296.691 450.498 310.219 465.245 327.283 466.171L329.007 466.227C327.892 472.391 323.055 476.303 315.039 478.527C317.951 491.705 311.751 504.583 297.379 504.672C297.975 518.896 288.701 531.045 273.337 527.054C274.111 542.306 263.539 555.287 246.273 548.709C240.956 561.421 227.872 568.253 215.269 558.078C207.151 568.728 193.443 572.339 184.014 561.493L156.898 559.029C144.993 565.169 131.064 562.495 127.287 548.39C113.804 554.784 98.2125 550.569 96.5676 534.274C82.1506 535.066 69.6782 525.925 73.0691 511.147L73.0869 511.074L70.5075 510.993C57.0291 510.565 46.1221 501.335 49.9218 487.026C34.6953 487.246 22.1434 476.342 29.1118 459.495C14.9785 455.171 6.46057 441.644 16.7604 428.144C4.76013 420.166 0.563568 405.14 14.5401 394.797Z" fill="#EDD351"/>
<path d="M13.4168 395.918C10.5168 393.799 8.09247 391.098 6.29929 387.988C4.5061 384.879 3.38364 381.43 3.00391 377.862C2.53961 370.28 7.01193 364.06 13.1113 360.016L12.5418 362.183C9.15485 355.94 7.43454 348.369 9.65683 341.437C10.7854 338.14 12.7802 335.206 15.4328 332.941C18.0854 330.676 21.2985 329.164 24.7365 328.562L23.7881 330.892C21.6211 328.065 20.0572 324.826 19.1928 321.373C18.3284 317.92 18.1818 314.327 18.7621 310.815C20.29 303.546 26.0262 298.733 32.8498 296.447L31.9013 298.775C27.9504 293.242 26.3383 286.38 27.4132 279.671C28.1636 276.46 29.7164 273.491 31.9269 271.041C34.1374 268.59 36.9334 266.739 40.0543 265.659L39.1059 267.987C34.9094 262.027 32.437 254.413 34.2248 247.154C36.0939 239.573 42.4591 234.873 49.741 232.956L48.7926 235.283C45.4393 228.711 43.9552 220.757 46.8819 213.747C49.9573 206.375 57.0169 202.79 64.654 201.95L63.1242 203.954C61.8882 200.672 61.3386 197.172 61.5092 193.669C61.6798 190.167 62.5671 186.736 64.1163 183.589C67.6878 177.118 74.4995 174.155 81.6484 173.862L80.0611 175.446C80.1881 168.248 82.5036 160.652 88.0672 155.764C93.7757 150.747 101.335 150.161 108.322 152.633L106.536 153.359C109.556 146.869 114.77 141.032 121.804 138.9C129.122 136.68 136.243 139.55 141.61 144.601H139.366C144.128 138.659 151.055 133.994 158.852 133.552C166.65 133.111 173.117 137.653 176.908 144.248L174.736 143.68C180.793 139.534 188.486 137.143 195.784 138.984C203.349 140.901 208.044 147.247 209.861 154.544L207.53 153.597C214.741 150.25 223.306 149.042 230.745 152.379C238.336 155.788 241.856 163.35 241.856 171.372L240.269 169.787C247.737 169.437 255.803 171.479 261.045 177.102C266.541 182.995 266.964 191.078 264.319 198.387L262.787 196.38C265.029 196.42 267.24 196.828 269.48 196.905C270.74 196.951 271.724 198.688 270.603 199.611C262.2 206.569 262.704 219.38 266.795 228.529C266.914 228.74 266.983 228.974 266.998 229.215C267.013 229.456 266.973 229.698 266.882 229.921C266.791 230.145 266.65 230.345 266.47 230.507C266.291 230.669 266.077 230.788 265.845 230.856C257.851 232.35 253.874 240.342 252.352 247.615C250.87 254.718 251.047 263.591 255.62 269.611C255.741 269.821 255.812 270.056 255.829 270.297C255.845 270.539 255.806 270.781 255.715 271.005C255.623 271.23 255.482 271.43 255.301 271.592C255.12 271.753 254.905 271.872 254.672 271.938C247.331 273.901 245.68 284.935 245.505 291.192C245.295 298.683 246.894 308.985 254.464 312.618C254.7 312.76 254.895 312.96 255.031 313.2C255.167 313.44 255.238 313.71 255.238 313.985C255.238 314.261 255.167 314.531 255.031 314.771C254.895 315.011 254.7 315.211 254.464 315.353C248.227 319.053 246.995 328.61 247.176 335.124C247.374 342.554 249.89 351.994 257.464 355.153C258.456 355.565 259.18 356.936 258.164 357.801C252.692 362.442 253.864 371.486 255.837 377.515C257.126 381.838 259.385 385.81 262.443 389.13C265.501 392.45 269.277 395.03 273.484 396.675C273.716 396.743 273.929 396.863 274.108 397.025C274.287 397.187 274.428 397.387 274.519 397.611C274.61 397.834 274.649 398.075 274.634 398.316C274.619 398.557 274.55 398.791 274.432 399.002C270.42 406.598 274.452 415.919 278.954 422.345C283.004 428.124 290.03 435.417 297.754 435.057C298.174 435.06 298.576 435.228 298.873 435.524C299.17 435.821 299.338 436.222 299.342 436.641C298.393 452.707 314.29 464.183 329.037 464.65C329.28 464.655 329.519 464.714 329.736 464.824C329.952 464.933 330.142 465.091 330.289 465.284C330.436 465.477 330.538 465.7 330.586 465.938C330.635 466.176 330.629 466.422 330.568 466.657C329.035 474.221 322.433 478.064 315.489 480.062L316.598 478.113C318.257 484.696 317.304 491.664 313.937 497.562C312.14 500.284 309.684 502.51 306.796 504.032C303.907 505.554 300.681 506.322 297.415 506.267L299.002 504.682C299.249 508.191 298.782 511.712 297.63 515.036C296.479 518.36 294.666 521.417 292.302 524.024C287.129 529.215 279.873 530.289 272.95 528.593L274.96 527.066C275.256 534.395 273.184 542.341 267.523 547.384C261.446 552.797 253.237 552.944 245.896 550.25L247.682 549.521C246.446 552.71 244.563 555.608 242.151 558.035C239.739 560.461 236.85 562.363 233.666 563.62C226.703 566.029 219.755 563.57 214.185 559.211H216.429C210.981 566.181 202.143 571.386 193.063 569.114C191.077 568.605 189.19 567.767 187.48 566.635C186.659 566.092 185.875 565.496 185.131 564.852C184.545 564.343 184.01 563.794 183.466 563.24C183.371 563.141 184.288 563.263 183.948 563.095C182.315 562.706 180.635 562.554 178.958 562.644L160.549 560.97C159.674 560.891 158.799 560.788 157.922 560.732C156.848 560.661 157.269 560.645 156.561 561.002C152.965 562.776 149.014 563.715 145.003 563.749C140.582 563.807 136.272 562.364 132.782 559.654C129.291 556.945 126.827 553.132 125.794 548.84L128.126 549.787C121.467 552.861 113.619 554.101 106.663 551.215C99.5615 548.268 95.863 541.694 95.0177 534.302L96.6051 535.886C93.0049 536.177 89.3828 535.745 85.9529 534.614C82.5231 533.484 79.3551 531.678 76.6364 529.304C74.2338 526.915 72.5031 523.937 71.6182 520.669C70.7332 517.401 70.7251 513.958 71.5947 510.686L73.1245 512.692C65.8842 512.462 58.6936 511.183 53.2629 505.976C50.7907 503.484 49.0373 500.372 48.187 496.969C47.3368 493.566 47.4212 489.997 48.4315 486.638L49.9632 488.643C42.6218 488.672 34.8101 486.373 29.9231 480.603C24.7147 474.443 24.7385 466.31 27.6155 459.102L28.7227 461.051C21.8813 458.873 15.3415 454.531 12.3117 447.808C9.15683 440.813 10.9942 433.359 15.4228 427.374L15.9922 429.542C10.1092 425.545 5.22617 419.639 4.33527 412.392C3.37296 404.572 7.73813 398.035 13.7462 393.464C15.3712 392.228 16.9546 394.979 15.3494 396.201C10.2302 400.095 6.52185 405.831 7.52982 412.467C8.14053 415.415 9.34818 418.208 11.0787 420.673C12.8093 423.139 15.0262 425.225 17.5935 426.805C17.9537 427.02 18.2151 427.368 18.3215 427.774C18.428 428.179 18.371 428.61 18.1629 428.974C14.2997 434.195 12.3672 440.632 15.3137 446.769C16.8061 449.505 18.8387 451.91 21.2887 453.84C23.7387 455.769 26.5552 457.183 29.568 457.995C29.9717 458.11 30.314 458.379 30.5214 458.743C30.7288 459.108 30.7847 459.539 30.6771 459.944C28.1631 466.241 27.7564 473.429 32.5304 478.779C36.8955 483.663 43.598 485.499 49.9553 485.473C50.1986 485.477 50.4379 485.536 50.6551 485.645C50.8723 485.755 51.0618 485.912 51.2091 486.105C51.3565 486.298 51.4579 486.523 51.5057 486.761C51.5535 486.999 51.5465 487.245 51.4851 487.48C50.5914 490.386 50.5326 493.484 51.3156 496.422C52.0984 499.36 53.6916 502.019 55.9137 504.098C60.7075 508.398 66.918 509.297 73.1086 509.493C73.3514 509.498 73.5901 509.557 73.8067 509.667C74.0233 509.776 74.2123 509.933 74.3595 510.126C74.5067 510.319 74.6082 510.542 74.6565 510.78C74.7048 511.018 74.6986 511.263 74.6384 511.498C73.8831 514.324 73.9169 517.302 74.736 520.11C75.5552 522.918 77.1284 525.449 79.2853 527.429C84.1535 531.353 90.3561 533.24 96.5892 532.693C97.007 532.703 97.405 532.874 97.7005 533.169C97.996 533.464 98.1665 533.861 98.1766 534.278C98.3616 537.376 99.4244 540.359 101.241 542.878C103.058 545.397 105.554 547.349 108.439 548.507C114.422 550.401 120.913 549.869 126.507 547.026C126.718 546.908 126.953 546.84 127.194 546.825C127.435 546.81 127.677 546.85 127.901 546.941C128.125 547.031 128.325 547.171 128.488 547.35C128.65 547.529 128.771 547.741 128.84 547.972C129.709 551.695 131.861 554.994 134.92 557.292C137.979 559.59 141.751 560.741 145.574 560.544C147.456 560.471 149.322 560.168 151.13 559.641C152.947 558.818 154.807 558.096 156.704 557.478C157.871 557.433 159.039 557.524 160.186 557.747L176.633 559.241L182.944 559.813C185.264 560.025 186.119 561.635 187.924 563.065C196.881 570.148 207.943 564.917 214.163 556.961C214.465 556.671 214.867 556.51 215.285 556.51C215.704 556.51 216.106 556.671 216.407 556.961C221.308 560.799 227.505 562.725 233.491 560.294C238.771 557.812 242.872 553.369 244.918 547.913C245.094 547.613 245.365 547.379 245.687 547.248C246.01 547.116 246.367 547.095 246.704 547.186C253.132 549.543 260.394 549.761 265.654 544.764C270.434 540.23 272.004 533.432 271.758 527.058C271.761 526.815 271.82 526.576 271.929 526.359C272.039 526.142 272.196 525.953 272.39 525.805C272.583 525.658 272.808 525.556 273.047 525.509C273.286 525.461 273.532 525.468 273.768 525.529C279.817 527.011 286.032 526.058 290.421 521.37C294.333 516.721 296.264 510.728 295.8 504.674C295.806 504.256 295.975 503.857 296.272 503.561C296.568 503.265 296.968 503.096 297.387 503.09C300.199 503.16 302.98 502.491 305.452 501.152C307.924 499.813 310.001 497.85 311.475 495.458C314.179 490.395 314.909 484.512 313.524 478.943C313.422 478.538 313.48 478.109 313.687 477.745C313.893 477.382 314.233 477.112 314.634 476.992C320.548 475.287 326.177 472.28 327.493 465.799L329.023 467.806C320.181 467.652 311.721 464.181 305.328 458.082C302.354 455.367 299.996 452.047 298.414 448.346C296.831 444.646 296.06 440.65 296.153 436.627L297.74 438.212C288.825 438.636 280.887 430.624 276.198 423.929C270.978 416.476 267.101 406.051 271.678 397.388L272.627 399.717C267.897 397.911 263.646 395.045 260.201 391.339C256.757 387.633 254.211 383.187 252.761 378.343C250.446 371.258 249.557 360.931 255.906 355.545L256.607 358.196C247.741 354.498 244.372 344.57 244.005 335.637C243.684 327.788 245.424 317.007 252.847 312.604V315.337C244.094 311.138 241.983 299.361 242.33 290.658C242.64 282.967 245.057 271.207 253.809 268.87L252.86 271.197C247.686 264.388 247.6 254.211 249.388 246.227C251.208 238.106 256.12 229.444 264.98 227.788L264.031 230.118C259.4 219.747 258.779 205.266 268.337 197.351L269.458 200.054C267.218 199.977 265.007 199.569 262.765 199.53C262.522 199.527 262.282 199.469 262.065 199.359C261.847 199.25 261.657 199.093 261.51 198.899C261.362 198.706 261.261 198.481 261.213 198.243C261.166 198.004 261.173 197.758 261.236 197.523C263.563 191.096 263.454 184.027 258.394 178.924C253.686 174.171 246.735 172.634 240.247 172.937C239.828 172.932 239.427 172.763 239.13 172.467C238.834 172.171 238.665 171.771 238.66 171.352C238.66 164.42 235.759 157.959 229.136 155.097C222.753 152.341 215.247 153.466 209.115 156.315C208.904 156.432 208.669 156.501 208.428 156.516C208.187 156.531 207.945 156.492 207.721 156.401C207.497 156.31 207.296 156.17 207.134 155.991C206.971 155.812 206.851 155.599 206.782 155.368C205.173 148.901 201.191 143.41 194.409 141.899C188.059 140.483 181.512 142.838 176.321 146.395C175.956 146.607 175.521 146.666 175.113 146.559C174.704 146.453 174.354 146.19 174.139 145.827C170.765 139.968 165.21 136.121 158.265 136.751C151.519 137.371 145.705 141.703 141.598 146.831C141.298 147.124 140.895 147.288 140.476 147.288C140.057 147.288 139.654 147.124 139.354 146.831C134.622 142.378 128.441 139.926 122.048 142.137C116.07 144.205 111.853 149.388 109.264 154.952C109.088 155.252 108.818 155.487 108.495 155.618C108.172 155.75 107.815 155.772 107.478 155.681C101.389 153.528 94.8015 153.785 89.8926 158.377C87.7038 160.637 85.9878 163.31 84.8449 166.239C83.702 169.168 83.1549 172.296 83.2358 175.438C83.2276 175.856 83.0578 176.254 82.7618 176.55C82.4659 176.845 82.0668 177.015 81.6484 177.023C75.3824 177.278 69.545 179.883 66.6025 185.661C64.1577 191.191 64.0078 197.464 66.1858 203.105C66.246 203.34 66.2522 203.586 66.2038 203.823C66.1554 204.061 66.0537 204.285 65.9063 204.478C65.759 204.671 65.5698 204.828 65.3529 204.938C65.136 205.048 64.8971 205.107 64.654 205.111C58.1062 205.832 51.9117 209.09 49.5585 215.557C48.6405 218.554 48.3429 221.705 48.684 224.82C49.0251 227.935 49.9978 230.947 51.5427 233.675C51.6615 233.885 51.7311 234.12 51.7464 234.361C51.7617 234.602 51.7224 234.843 51.6312 235.067C51.54 235.291 51.3994 235.491 51.2198 235.653C51.0403 235.815 50.8264 235.934 50.5942 236.002C44.1397 237.7 38.6336 241.715 37.1752 248.506C35.8221 254.807 38.2586 261.27 41.8559 266.38C41.9747 266.591 42.0444 266.825 42.0597 267.066C42.0751 267.307 42.0356 267.549 41.9445 267.772C41.8533 267.996 41.7127 268.196 41.5331 268.358C41.3536 268.52 41.1397 268.64 40.9075 268.708C38.218 269.661 35.8282 271.306 33.9796 273.476C32.131 275.647 30.8891 278.266 30.3795 281.069C29.7514 286.779 31.2742 292.518 34.6514 297.168C34.771 297.378 34.8413 297.613 34.857 297.854C34.8727 298.096 34.8335 298.337 34.7422 298.561C34.6509 298.785 34.51 298.986 34.33 299.148C34.15 299.309 33.9356 299.428 33.7029 299.496C27.7028 301.502 22.8476 305.753 21.7345 312.184C20.6829 318.269 23.0679 324.383 26.5441 329.283C26.6669 329.493 26.7397 329.728 26.7571 329.97C26.7744 330.212 26.7357 330.455 26.6441 330.68C26.5524 330.905 26.4102 331.106 26.2285 331.267C26.0467 331.429 25.8301 331.546 25.5956 331.611C19.4685 332.946 14.3633 336.608 12.5775 342.811C11.1408 348.865 12.1185 355.239 15.3038 360.586C15.5057 360.951 15.5592 361.38 15.4532 361.783C15.3472 362.187 15.0898 362.534 14.7343 362.753C9.35721 366.318 5.57141 371.773 6.24405 378.436C6.87103 384.656 10.9167 389.911 15.6827 393.688C17.2621 394.944 15.0022 397.172 13.4168 395.918Z" fill="#EDD351"/>
<path d="M191.405 563.679C199.199 567.443 207.159 562.178 211.897 556.123C213.324 554.301 215.999 554.935 217.511 556.123C219.454 557.839 221.821 559.007 224.367 559.506C226.913 560.005 229.546 559.818 231.995 558.963C236.985 556.953 240.225 552.314 242.287 547.557C242.727 546.801 243.405 546.213 244.216 545.883C245.027 545.554 245.924 545.502 246.767 545.736C252.365 547.788 258.766 548.325 263.403 543.926C267.742 539.808 269.04 533.67 268.807 527.9C268.816 527.293 268.962 526.695 269.236 526.153C269.51 525.61 269.904 525.137 270.388 524.769C270.872 524.401 271.433 524.147 272.03 524.028C272.627 523.909 273.243 523.926 273.831 524.079C276.316 524.865 278.971 524.95 281.501 524.323C284.031 523.697 286.338 522.384 288.167 520.53C291.905 516.537 293.014 510.809 292.85 505.516C292.864 504.47 293.287 503.471 294.028 502.731C294.769 501.992 295.77 501.57 296.818 501.555C299.214 501.629 301.587 501.071 303.699 499.939C305.81 498.806 307.586 497.137 308.846 495.102C311.236 490.597 311.876 485.37 310.644 480.423C310.495 479.835 310.481 479.222 310.603 478.629C310.725 478.035 310.979 477.477 311.347 476.995C311.715 476.513 312.187 476.12 312.727 475.845C313.268 475.57 313.864 475.421 314.471 475.408C318.481 475.116 323.164 470.949 323.229 466.877C323.313 461.784 331.249 461.768 331.166 466.877C331.025 475.562 322.787 482.722 314.471 483.33L318.297 478.315C319.789 485.446 319.39 493.295 315.396 499.596C313.383 502.671 310.625 505.19 307.377 506.917C304.13 508.645 300.498 509.525 296.818 509.478L300.786 505.516C301.034 509.337 300.506 513.168 299.235 516.78C297.964 520.392 295.976 523.711 293.389 526.537C287.609 532.337 279.462 533.614 271.722 531.719L276.744 527.9C277.064 535.823 274.712 544.465 268.609 549.9C261.906 555.87 252.841 556.379 244.656 553.376L249.136 551.556C247.757 555.017 245.673 558.155 243.015 560.769C240.357 563.384 237.185 565.419 233.698 566.746C225.87 569.418 218.134 566.607 211.899 561.725H217.511C210.328 570.903 198.407 575.849 187.399 570.521C182.806 568.297 186.824 561.461 191.405 563.679Z" fill="#2A1E1E"/>
<path d="M198.709 743.2C198.709 719.517 197.219 704.462 196.29 680.796C194.576 637.146 191.417 596.022 189.234 552.447C188.119 530.212 184.056 466.788 183.746 457.752C183.395 447.488 184.502 434.888 184.589 422.404C192.966 418.878 203.185 409.672 210.26 401.547C220.088 388.655 229.461 365.338 227.001 353.917C224.769 352.941 222.311 352.593 219.896 352.913C217.576 358.15 211.483 376.382 205.336 384.054C196.429 395.167 191.812 399.394 184.129 400.313C183.361 382.136 181.516 356.825 180.595 341.178C180.103 332.859 177.544 300.064 174.18 291.995C171.766 291.546 169.279 291.682 166.928 292.391C165.557 296.402 164.92 328.986 165.067 341.399C165.226 354.922 164.869 367.03 164.623 380.681C164.462 389.546 162.103 448.242 162.057 455.155C148.729 446.285 130.173 422.741 123.318 407.751C120.467 401.518 115.356 391.192 113.324 385.527C111.149 385.205 108.929 385.655 107.052 386.799C107.468 393.036 108.386 399.23 109.796 405.321C112.749 417.385 117.838 428.826 124.822 439.103C134.299 454.222 146.595 467.383 161.043 477.874C161.265 483.556 161.932 535.607 161.932 555.636C161.932 595.278 161.853 634.965 160.128 674.478C159.136 697.412 157.728 723.492 151.319 745.494" fill="#FDFAED"/>
<path d="M194.74 743.2C194.719 717.986 192.913 692.758 191.764 667.577C190.506 640.192 188.716 612.835 187.097 585.469C184.968 549.494 182.996 513.508 180.867 477.531C180.51 471.478 180.129 465.423 179.851 459.366C179.286 447.052 180.514 434.72 180.627 422.408C180.62 421.715 180.798 421.032 181.144 420.431C181.49 419.829 181.99 419.331 182.593 418.987C189.38 415.713 195.527 411.254 200.742 405.822C205.678 401.119 209.865 395.692 213.161 389.728C216.479 383.783 219.153 377.502 221.14 370.991C222.642 365.998 224.164 359.899 223.179 354.975L225.003 357.352C223.371 356.763 221.614 356.603 219.902 356.888L223.328 354.926C223.162 355.312 223.168 355.296 223.346 354.876C223.25 355.11 223.154 355.343 223.06 355.577C222.902 355.973 222.744 356.369 222.586 356.766C222.148 357.877 221.719 358.992 221.289 360.105C220.296 362.644 219.304 365.18 218.273 367.697C216.17 373.245 213.563 378.589 210.483 383.662C207.005 389.029 202.794 393.885 197.971 398.089C194.094 401.507 189.269 403.668 184.135 404.287C181.942 404.574 180.248 402.237 180.167 400.325C179.395 382.321 178.071 364.346 176.946 346.361C176.196 334.35 175.294 322.351 173.788 310.409C173.067 304.699 172.534 298.446 170.359 293.06L173.137 295.833C171.418 295.51 169.644 295.647 167.996 296.229L170.774 293.456C170.646 293.912 170.546 294.375 170.474 294.843C170.289 295.806 170.534 294.237 170.448 295.041C170.395 295.552 170.339 296.061 170.289 296.572C170.071 298.913 169.936 301.262 169.817 303.61C169.498 309.807 169.327 316.015 169.202 322.218C168.908 336.677 169.172 351.136 168.905 365.607C168.508 386.801 167.672 407.994 166.897 429.172C166.579 437.83 166.115 446.503 166.043 455.167C166.034 455.861 165.844 456.54 165.492 457.138C165.139 457.736 164.637 458.232 164.034 458.577C163.431 458.922 162.749 459.105 162.054 459.107C161.359 459.109 160.676 458.93 160.071 458.587C150.628 452.218 142.809 443.405 135.834 434.502C128.739 425.473 122.695 415.668 117.816 405.277C114.917 399.123 111.852 392.987 109.516 386.593L113.322 389.481C112.598 389.386 111.866 389.372 111.139 389.439C111.076 389.439 109.467 389.934 109.866 389.592L111.026 386.791C111.097 391.126 111.653 395.44 112.683 399.652C113.531 404.29 114.725 408.858 116.255 413.319C121.09 426.368 128.079 438.517 136.934 449.262C141.056 454.489 145.554 459.409 150.392 463.983C152.547 466.008 154.77 467.96 157.061 469.836C159.212 471.601 161.886 473.108 163.845 475.063C165.559 476.774 165.081 480.458 165.123 482.724C165.191 486.29 165.25 489.859 165.299 493.434C165.583 512.775 165.825 532.119 165.895 551.468C166 582.498 165.895 613.544 165.115 644.561C164.718 660.28 164.19 676.009 163.23 691.702C162.529 706.656 160.696 721.535 157.746 736.212C156.996 739.681 156.13 743.122 155.148 746.534C153.739 751.424 146.079 749.344 147.495 744.426C153.196 724.619 154.728 703.903 155.749 683.421C156.869 660.993 157.424 638.54 157.698 616.089C158.127 581.185 158.023 546.279 157.605 511.377C157.472 500.216 157.496 489.031 157.077 477.876L159.043 481.296C144.658 470.701 132.275 457.638 122.469 442.716C113.328 429.382 107.169 414.24 104.413 398.319C103.664 394.758 103.213 391.141 103.064 387.506C103.09 382.392 109.147 381.144 113.314 381.564C114.174 381.598 115.002 381.895 115.687 382.415C116.372 382.935 116.88 383.653 117.141 384.472C119.596 391.188 122.941 397.586 125.955 404.063C128.721 409.983 131.977 415.662 135.69 421.041C139.907 427.195 144.548 433.049 149.579 438.561C153.864 443.503 158.717 447.924 164.039 451.732L158.069 455.153C158.188 440.66 159.031 426.146 159.567 411.663C160.238 393.551 160.843 375.452 161.061 357.326C161.307 336.895 160.287 316.211 162.385 295.845C162.473 294.479 162.665 293.122 162.96 291.785C163.819 288.519 167.059 288.14 169.952 287.859C173.127 287.552 176.714 287.685 178.038 291.076C178.544 292.431 178.951 293.821 179.256 295.235C181.214 304.855 182.536 314.592 183.212 324.385C185.29 346.514 186.449 368.781 187.627 390.97C187.792 394.084 187.943 397.199 188.078 400.315L184.109 396.354C187.97 395.649 191.494 393.701 194.141 390.808C198.29 386.916 201.889 382.478 204.838 377.616C209.725 369.161 212.56 359.808 216.449 350.905C216.798 350.306 217.298 349.81 217.899 349.466C218.501 349.122 219.183 348.942 219.876 348.944C222.985 348.724 227.987 348.779 230.096 351.509C231.614 353.474 231.424 357.085 231.313 359.467C230.885 365.533 229.574 371.503 227.42 377.191C225.162 383.58 222.315 389.747 218.915 395.611C215.477 401.438 211.24 406.758 206.328 411.415C200.54 417.015 194.026 422.58 186.574 425.821L188.538 422.4C188.429 434.387 187.242 446.392 187.718 458.38C187.905 463.06 188.207 467.738 188.478 472.415C189.443 488.956 190.463 505.492 191.455 522.033C194.143 567.136 196.915 612.252 199.183 657.377C199.935 672.323 200.469 687.285 201.278 702.222C202.018 715.875 202.645 729.518 202.657 743.192C202.657 748.291 194.721 748.299 194.721 743.192L194.74 743.2Z" fill="#2A1E1E"/>
<path d="M473.024 510.48C484.195 523.331 500.461 519.058 510.086 506.429C525.031 518.496 540.545 510.391 546.853 495.32C567.328 503.12 579.864 487.734 578.945 469.642C597.164 474.372 608.158 459.964 607.453 443.1C624.488 442.993 631.841 427.72 628.386 412.095C645.395 407.371 648.081 389.562 639.516 375.032C654.826 365.92 652.542 347.811 640.172 336.063C654.75 325.56 651.032 308.048 637.952 297.537C654.093 287.237 650.681 269.088 637.393 258.22C649 246.807 644.196 231.096 631.502 221.991C644.065 207.498 634.641 190.195 617.648 183.793C630.821 170.229 623.853 153.773 609.033 146.096C620.343 129.637 609.207 113.916 591.951 109.665C598.124 91.0269 583.705 79.1328 566.387 79.3823C573.909 59.4129 558.107 46.7919 539.682 47.8476C539.982 26.4283 519.378 20.0148 501.804 28.3931C497.106 8.46333 477.649 6.33407 462.915 16.6317C453.137 -0.958867 432.918 2.69949 421.364 17.4399C407.025 3.54525 389.901 11.5453 382.728 27.4503C364.276 20.6367 351.72 35.0523 351.599 52.6904C332.43 53.2212 325.969 70.0869 331.448 85.9979C310.638 88.034 305.995 106.886 314.265 122.696C294.242 127.692 292.359 146.994 302.778 161.478C286.508 167.769 285.238 184.712 294.235 197.987C275.913 203.846 274.569 222.211 284.623 236.07C266.369 239.776 262.883 258.055 271.292 273.188C254.567 283.953 258.353 302.229 272.036 312.802C255.464 325.065 260.438 342.881 274.698 352.337C262.484 368.347 272.587 384.387 289.346 389.511C281.078 409.494 295.967 422.422 314.021 422.162C309.517 439.131 322.451 450.076 338.426 450.583L341.48 450.681L341.458 450.768C337.436 468.291 352.228 479.123 369.321 478.191C371.274 497.514 389.758 502.512 405.749 494.929C410.229 511.656 426.747 514.833 440.869 507.546" fill="#FFA21F"/>
<path d="M476.623 507.785C480.744 512.392 486.201 515.26 492.508 514.186C498.955 513.087 504.167 508.753 508.074 503.736C509.495 501.912 512.181 502.548 513.685 503.736C518.819 507.773 525.481 509.809 531.741 507.226C537.755 504.744 541.726 499.212 544.218 493.429C544.658 492.673 545.336 492.085 546.147 491.755C546.958 491.426 547.855 491.374 548.698 491.608C555.559 494.14 563.429 494.673 569.107 489.309C574.407 484.302 576.052 476.789 575.768 469.747C575.776 469.14 575.922 468.542 576.196 468C576.47 467.457 576.864 466.984 577.348 466.616C577.832 466.248 578.394 465.995 578.99 465.875C579.587 465.756 580.203 465.775 580.792 465.929C587.237 467.513 593.792 466.549 598.473 461.571C603.06 456.693 604.489 449.699 604.277 443.208C604.291 442.162 604.714 441.163 605.455 440.423C606.196 439.683 607.197 439.261 608.245 439.247C611.208 439.337 614.143 438.648 616.755 437.249C619.367 435.849 621.564 433.789 623.126 431.274C626.084 425.751 626.88 419.327 625.36 413.25C625.105 412.237 625.251 411.164 625.768 410.256C626.286 409.347 627.135 408.674 628.138 408.375C631.148 407.65 633.901 406.114 636.097 403.934C638.292 401.754 639.846 399.015 640.589 396.014C642.129 389.555 640.135 382.743 636.896 377.132C636.384 376.22 636.246 375.145 636.512 374.134C636.778 373.123 637.426 372.254 638.321 371.711C641.057 370.204 643.321 367.97 644.862 365.256C646.403 362.543 647.161 359.456 647.051 356.338C646.772 349.604 642.885 343.531 638.176 338.966C637.758 338.532 637.443 338.01 637.254 337.438C637.065 336.867 637.007 336.26 637.084 335.663C637.161 335.066 637.372 334.494 637.7 333.988C638.028 333.483 638.465 333.058 638.98 332.744C641.494 331.02 643.499 328.653 644.786 325.892C646.073 323.131 646.595 320.076 646.297 317.045C645.488 310.311 641.051 304.622 635.954 300.441C635.531 300.01 635.212 299.489 635.019 298.917C634.827 298.345 634.767 297.737 634.843 297.139C634.919 296.54 635.13 295.967 635.46 295.461C635.79 294.956 636.23 294.531 636.748 294.22C642.403 290.512 646.163 284.829 645.516 277.901C644.883 271.127 640.45 265.347 635.385 261.124C634.65 260.376 634.239 259.37 634.239 258.323C634.239 257.275 634.65 256.269 635.385 255.521C637.483 253.593 639.051 251.161 639.94 248.457C640.829 245.752 641.009 242.865 640.462 240.071C638.937 234.154 635.328 228.983 630.297 225.503C629.787 225.186 629.354 224.759 629.029 224.253C628.704 223.748 628.497 223.176 628.421 222.581C628.345 221.985 628.402 221.38 628.59 220.809C628.777 220.239 629.089 219.717 629.503 219.282C631.688 216.914 633.156 213.977 633.739 210.811C634.321 207.645 633.994 204.379 632.795 201.39C630.053 194.895 623.823 190.197 617.4 187.706C616.741 187.508 616.144 187.145 615.666 186.651C615.188 186.157 614.845 185.549 614.669 184.885C614.493 184.221 614.491 183.523 614.662 182.858C614.834 182.193 615.173 181.583 615.648 181.086C620.202 176.275 622.714 170.135 620.727 163.587C618.805 157.248 613.517 152.625 607.83 149.611C606.932 149.074 606.281 148.208 606.015 147.198C605.749 146.187 605.89 145.113 606.408 144.205C610.279 138.424 611.997 131.513 608.434 125.143C604.963 118.94 598.402 115.315 591.697 113.596C590.687 113.308 589.83 112.636 589.311 111.725C588.791 110.813 588.651 109.735 588.919 108.721C590.985 102.238 590.743 95.2524 585.772 90.1501C580.963 85.1983 573.899 83.4157 567.181 83.4514C566.573 83.4446 565.975 83.2995 565.432 83.0272C564.889 82.7548 564.415 82.3624 564.047 81.8798C563.678 81.3972 563.425 80.8371 563.306 80.242C563.188 79.647 563.206 79.0328 563.361 78.4461C565.869 71.5612 566.018 63.9692 560.565 58.4411C555.363 53.1724 547.648 51.57 540.484 51.9166C539.435 51.9053 538.432 51.4843 537.69 50.7438C536.948 50.0034 536.527 49.0023 536.515 47.9552C536.539 40.486 533.484 33.4723 526.243 30.4775C519.356 27.6313 511.191 28.8533 504.616 31.9215C504.088 32.2164 503.5 32.3888 502.896 32.4258C502.292 32.4627 501.688 32.3633 501.128 32.1349C500.567 31.9065 500.066 31.555 499.661 31.1066C499.255 30.6581 498.956 30.1242 498.786 29.5446C497.064 22.5706 492.937 16.6839 485.619 15.036C478.637 13.4791 471.413 16.2521 465.71 20.1581C464.799 20.6789 463.72 20.8219 462.705 20.5563C461.69 20.2906 460.819 19.6377 460.282 18.7379C456.666 12.4155 450.809 8.29764 443.313 9.00475C435.85 9.70988 429.481 14.6874 424.961 20.3502C424.211 21.0819 423.204 21.4915 422.156 21.4915C421.107 21.4915 420.1 21.0819 419.35 20.3502C414.287 15.5648 407.759 12.9345 400.911 15.2955C394.324 17.5673 389.772 23.4579 386.947 29.5565C386.505 30.3108 385.826 30.8983 385.016 31.2275C384.205 31.5567 383.308 31.6092 382.464 31.3768C376 29.0752 368.948 29.095 363.68 34.0032C358.521 38.8044 356.468 45.9349 356.359 52.798C356.338 53.8423 355.914 54.8382 355.174 55.5767C354.434 56.3153 353.436 56.7392 352.39 56.7594C345.678 57.0209 339.529 59.7681 336.372 65.9261C333.338 71.8445 334.025 78.9492 336.065 85.0518C336.216 85.6392 336.232 86.2532 336.112 86.8477C335.992 87.4422 335.738 88.0018 335.37 88.4843C335.001 88.9668 334.528 89.3597 333.986 89.6335C333.444 89.9072 332.847 90.0548 332.239 90.0649C325.459 90.7998 318.898 94.1907 316.384 100.836C313.911 107.372 315.378 114.746 318.481 120.805C318.778 121.332 318.952 121.918 318.99 122.521C319.028 123.123 318.93 123.727 318.702 124.286C318.474 124.845 318.122 125.346 317.674 125.751C317.225 126.156 316.69 126.455 316.11 126.625C309.143 128.439 303.258 132.62 301.667 139.945C300.165 146.86 303.056 154.008 306.995 159.586C308.624 161.891 306.78 164.537 304.623 165.405C301.786 166.427 299.271 168.183 297.335 170.493C295.399 172.803 294.112 175.584 293.605 178.553C292.665 184.782 295.058 190.986 298.453 196.094C298.751 196.62 298.927 197.206 298.966 197.809C299.005 198.413 298.907 199.017 298.679 199.577C298.451 200.137 298.099 200.638 297.649 201.042C297.199 201.447 296.663 201.745 296.082 201.913C289.669 204.044 284.498 208.58 283.355 215.455C282.244 222.142 285.03 228.827 288.839 234.177C289.142 234.702 289.321 235.289 289.362 235.893C289.403 236.497 289.306 237.103 289.077 237.664C288.849 238.225 288.495 238.727 288.043 239.131C287.591 239.535 287.052 239.831 286.468 239.996C279.942 241.402 274.424 245.146 272.5 251.771C270.915 258.422 271.995 265.428 275.51 271.295C276.016 272.208 276.15 273.281 275.885 274.29C275.619 275.3 274.975 276.169 274.085 276.716C268.331 280.513 264.271 286.348 265.043 293.465C265.785 300.295 270.4 305.999 275.633 310.117C277.859 311.874 276.625 314.983 274.829 316.338C269.535 320.351 265.573 326.406 266.508 333.267C267.408 339.869 272.135 345.407 277.492 349.034C278.392 349.571 279.046 350.44 279.312 351.453C279.578 352.466 279.435 353.543 278.915 354.453C274.795 359.999 272.43 366.789 275.508 373.404C278.446 379.721 284.732 383.763 291.193 385.809C292.204 386.094 293.063 386.765 293.583 387.677C294.103 388.589 294.242 389.668 293.97 390.682C291.28 397.385 290.49 405.141 295.601 410.95C300.387 416.379 307.802 418.356 314.82 418.319C315.428 418.327 316.027 418.474 316.57 418.747C317.113 419.021 317.587 419.414 317.955 419.897C318.324 420.38 318.578 420.94 318.697 421.536C318.817 422.131 318.799 422.746 318.646 423.334C317.678 426.434 317.61 429.745 318.45 432.883C319.289 436.02 321.001 438.856 323.388 441.063C328.588 445.779 335.577 446.623 342.285 446.835C342.892 446.846 343.49 446.994 344.032 447.268C344.574 447.542 345.047 447.935 345.415 448.417C345.783 448.9 346.037 449.459 346.158 450.054C346.279 450.648 346.263 451.262 346.112 451.85C345.314 454.846 345.355 458.003 346.232 460.977C347.109 463.951 348.788 466.627 351.085 468.714C356.166 473.319 363.492 474.656 370.133 474.347C371.178 474.37 372.173 474.795 372.913 475.533C373.652 476.271 374.077 477.265 374.101 478.308C374.306 481.514 375.401 484.6 377.264 487.219C379.128 489.839 381.685 491.889 384.649 493.139C387.904 494.207 391.338 494.623 394.755 494.364C398.171 494.104 401.503 493.174 404.558 491.626C405.086 491.333 405.673 491.161 406.276 491.124C406.879 491.088 407.482 491.186 408.042 491.414C408.601 491.641 409.103 491.991 409.509 492.437C409.915 492.884 410.215 493.415 410.388 493.993C412.044 499.892 415.759 504.847 421.828 506.618C427.863 508.095 434.234 507.246 439.67 504.241C444.218 501.946 448.24 508.777 443.676 511.083C436.21 514.846 427.344 516.704 419.181 514.093C415.144 512.719 411.52 510.348 408.645 507.203C405.77 504.057 403.737 500.238 402.735 496.099L408.564 498.466C400.088 502.395 390.157 503.966 381.3 500.282C372.044 496.433 367.25 487.954 366.164 478.306L370.133 482.267C361.142 482.675 351.716 480.215 345.057 473.927C341.922 470.832 339.662 466.966 338.504 462.719C337.346 458.473 337.332 453.996 338.463 449.742L342.295 454.759C333.168 454.47 324.239 452.779 317.362 446.276C310.441 439.74 308.735 430.221 311.003 421.228L314.83 426.243C305.651 426.293 295.746 423.344 289.631 416.142C282.962 408.274 282.585 397.888 286.321 388.58L289.099 393.455C280.536 390.741 272.222 385.255 268.41 376.847C264.345 367.876 266.321 358.208 272.081 350.46L273.504 355.881C265.861 350.707 259.769 343.119 258.644 333.745C257.442 323.716 263.154 315.324 270.841 309.503L270.047 315.724C266.414 313.029 263.385 309.605 261.153 305.673C258.922 301.741 257.538 297.387 257.091 292.891C256.468 283.158 262.275 275.052 270.107 269.881L268.684 275.3C264.41 267.451 262.261 257.87 265.035 249.145C266.459 244.873 269.006 241.062 272.41 238.11C275.815 235.158 279.951 233.172 284.387 232.362L282.006 238.182C279.297 234.601 277.351 230.504 276.288 226.143C275.225 221.783 275.068 217.252 275.825 212.829C277.77 203.48 285.234 197.197 293.99 194.287L291.609 200.107C286.648 193.077 284.656 184.38 286.064 175.897C287.8 167.09 294.459 161.006 302.532 157.771L300.151 163.59C294.849 156.086 291.921 146.446 294.141 137.332C296.504 127.641 304.677 121.423 314.011 118.991L311.63 124.81C307.403 116.563 305.538 106.588 309.116 97.756C313.06 88.0169 322.169 83.2394 332.239 82.1481L328.412 87.1632C325.634 78.8344 325.479 69.3111 329.775 61.4517C334.338 53.107 343.188 49.1991 352.394 48.8426L348.426 52.804C348.569 43.766 351.533 34.1854 358.492 28.0254C365.791 21.5683 375.556 20.5344 384.58 23.7431L380.097 25.5634C383.883 17.3871 390.59 10.1694 399.393 7.4697C408.786 4.59175 418.082 8.24614 424.965 14.7508H419.354C425.342 7.25183 434.134 1.61079 443.884 1.04035C453.881 0.446139 462.317 6.30109 467.141 14.7389L461.71 13.3187C469.329 8.08966 479.08 5.22359 488.237 7.53705C497.907 9.96935 504.11 18.0981 506.431 27.457L500.602 25.0801C509.878 20.7562 520.69 19.3222 530.249 23.6362C539.877 27.9779 544.484 37.7665 544.452 47.9532L540.484 43.9918C549.841 43.5402 559.992 46.2261 566.562 53.2358C573.595 60.7406 574.431 71.1611 571.014 80.5417L567.187 75.5266C576.105 75.4751 585.574 78.2481 591.774 84.9508C598.358 92.0773 599.443 101.818 596.578 110.827L593.8 105.952C602.594 108.21 611.261 113.429 615.571 121.679C620.134 130.394 618.608 140.204 613.255 148.202L611.83 142.783C619.493 146.852 626.222 153.542 628.541 162.091C631.011 171.202 627.549 180.04 621.249 186.701L619.497 180.08C628.517 183.578 636.561 189.762 640.279 198.912C643.998 208.063 641.293 217.567 635.103 224.897L634.309 218.676C640.956 223.548 646.663 230.316 648.252 238.608C649.009 242.667 648.743 246.851 647.478 250.782C646.212 254.713 643.988 258.269 641.004 261.128V255.521C644.542 258.301 647.475 261.772 649.623 265.723C651.77 269.674 653.088 274.02 653.494 278.497C654.026 288.03 648.478 296.01 640.756 301.077L641.559 294.855C645.044 297.564 647.958 300.934 650.133 304.772C652.307 308.609 653.7 312.839 654.23 317.216C655.075 326.408 650.147 334.277 642.976 339.598L643.77 333.376C650.161 339.542 654.857 347.897 655 356.933C654.983 361.332 653.801 365.649 651.575 369.445C649.348 373.242 646.156 376.384 642.321 378.552L643.746 373.133C648.145 380.753 650.405 389.996 648.099 398.668C646.904 402.867 644.625 406.678 641.491 409.723C638.358 412.767 634.478 414.936 630.242 416.015L633.019 411.142C634.761 419.384 634.279 428.468 629.682 435.763C627.367 439.317 624.187 442.227 620.44 444.221C616.692 446.215 612.499 447.227 608.253 447.163L612.221 443.202C612.509 451.973 610.011 461.199 603.703 467.565C597.058 474.277 587.614 475.763 578.689 473.556L583.713 469.736C584.098 478.928 581.385 488.948 574.324 495.271C566.585 502.203 556.044 502.722 546.597 499.232L551.079 497.412C549.489 501.421 547.085 505.059 544.02 508.097C540.954 511.136 537.293 513.509 533.265 515.068C524.273 518.211 515.241 514.955 508.08 509.324H513.693C508.747 516.053 501.383 520.61 493.145 522.04C489.026 522.549 484.845 522.023 480.981 520.509C477.118 518.996 473.693 516.543 471.02 513.374C467.627 509.581 473.222 503.958 476.631 507.771L476.623 507.785Z" fill="#2A1E1E"/>
<path d="M485.246 741.719C485.246 713.866 483.492 696.163 482.401 668.326C480.385 616.986 476.671 568.623 474.101 517.377C472.792 491.231 468.012 416.632 467.647 406.006C467.234 393.923 468.262 375.325 468.367 360.648C480.888 355.382 492.073 347.392 501.106 337.26C511.146 325.463 520.672 299.385 518.521 283.892C516.237 282.68 513.636 282.196 511.068 282.505C508.34 288.665 501.618 311.96 493.012 321.164C481.57 333.401 475.185 335.891 467.813 337.424C466.891 316.331 464.692 288.011 463.665 267.779C463.298 260.571 458.823 219.687 456.403 211.059C453.563 210.529 450.637 210.686 447.871 211.519C447.063 218.077 446.833 253.052 446.603 267.319C446.345 283.22 445.45 299.303 445.158 315.359C444.97 325.785 442.194 394.819 442.14 402.94C426.465 392.507 404.64 364.815 396.58 347.187C393.227 339.858 387.215 327.711 384.826 321.042C382.407 320.695 378.488 321.386 377.45 322.537C377.22 325.758 379.389 338.884 380.677 344.325C384.148 358.515 390.133 371.971 398.35 384.058C414.025 404.306 426.626 417.807 440.95 429.655C441.21 436.34 441.993 497.558 441.993 521.114C441.993 567.736 441.9 614.405 439.874 660.872C438.698 687.846 437.692 719.121 430.152 744.997" fill="#FDFAED"/>
<path d="M481.278 741.719C481.254 711.612 479.095 681.49 477.707 651.43C476.183 618.61 474.018 585.824 472.093 553.025C469.585 510.347 467.2 467.657 464.702 424.981C464.335 418.71 463.909 412.437 463.684 406.164C463.137 391.004 464.28 375.806 464.399 360.646C464.392 359.953 464.57 359.27 464.915 358.669C465.261 358.068 465.76 357.569 466.363 357.225C481.205 350.572 495.461 340.952 503.622 326.54C507.383 319.818 510.298 312.658 512.301 305.222C514.448 298.328 515.213 291.079 514.551 283.89L516.517 287.308C514.817 286.516 512.926 286.225 511.066 286.468L514.493 284.508C514.92 283.529 514.314 284.961 514.247 285.132C514.049 285.658 513.85 286.189 513.652 286.716C513.235 287.839 512.832 288.966 512.428 290.093C511.342 293.108 510.257 296.12 509.108 299.109C506.702 305.947 503.594 312.518 499.836 318.718C495.499 325.056 490.028 330.54 483.697 334.895C479.25 338.018 474.2 340.182 468.869 341.249C468.281 341.398 467.666 341.413 467.07 341.292C466.475 341.171 465.915 340.918 465.432 340.55C464.949 340.183 464.555 339.711 464.28 339.171C464.006 338.63 463.857 338.034 463.845 337.428C462.853 315.224 461.067 293.06 459.859 270.876C459.139 257.606 457.464 244.371 455.74 231.205C455.118 224.778 454.062 218.4 452.577 212.115L455.355 214.888C453.212 214.469 450.997 214.627 448.936 215.347L451.849 211.529C451.299 216.223 451.327 221.02 451.212 225.74C451.029 233.267 450.926 240.794 450.829 248.32C450.593 266.493 450.057 284.636 449.466 302.801C448.703 326.318 447.909 349.832 447.085 373.346C446.724 383.206 446.196 393.082 446.117 402.95C446.107 403.643 445.917 404.322 445.564 404.92C445.212 405.518 444.709 406.013 444.107 406.358C443.504 406.703 442.822 406.886 442.127 406.888C441.432 406.889 440.749 406.71 440.144 406.368C428.938 398.816 419.686 388.288 411.435 377.707C406.957 372.028 402.803 366.101 398.993 359.954C395.861 354.62 393.023 349.12 390.492 343.477C387.177 336.444 383.675 329.424 381.008 322.111L384.834 325.021C383.307 324.768 381.743 324.883 380.27 325.356L381.433 322.555C381.514 327.776 382.187 332.97 383.439 338.04C384.428 343.411 385.813 348.702 387.584 353.87C390.027 360.826 393.114 367.541 396.804 373.926C401.437 381.629 406.766 388.892 412.725 395.625C417.814 401.672 423.11 407.553 428.7 413.144C431.311 415.756 433.987 418.301 436.73 420.78C437.977 421.909 439.239 423.022 440.515 424.119C441.886 425.308 443.873 426.443 444.589 428.14C445.523 430.355 445.037 433.765 445.081 436.118C445.16 440.399 445.226 444.68 445.279 448.959C445.609 471.682 445.896 494.408 445.962 517.133C446.067 553.948 445.95 590.783 444.994 627.591C444.517 645.89 443.839 664.194 442.855 682.476C442.21 699.851 440.229 717.15 436.93 734.222C436.091 738.203 435.11 742.15 433.985 746.062C432.579 750.955 424.918 748.875 426.332 743.957C432.985 720.846 434.319 696.575 435.398 672.679C436.589 646.192 437.358 619.694 437.706 593.184C438.224 551.924 438.103 510.662 437.61 469.404C437.454 456.165 437.485 442.898 436.987 429.667L438.148 432.468C430.701 426.273 423.66 419.606 417.068 412.51C409.115 404.191 401.719 395.358 394.929 386.068C384.582 370.999 377.769 353.797 374.998 335.738C374.171 331.699 373.66 327.602 373.468 323.484C373.435 317.849 380.298 316.623 384.824 317.088C385.683 317.122 386.512 317.42 387.196 317.94C387.881 318.46 388.389 319.178 388.651 319.996C390.861 326.059 393.754 331.88 396.504 337.709C399.016 343.035 401.399 348.405 404.372 353.495C411.314 365.268 419.585 376.207 429.023 386.1C433.556 391.111 438.625 395.611 444.14 399.519L438.17 402.94C438.343 381.71 439.622 360.45 440.394 339.236C441.43 310.833 442.458 282.412 442.809 253.993C442.912 245.506 443.007 237.018 443.206 228.533C443.327 222.888 443.249 217.136 443.906 211.519C443.934 210.659 444.23 209.829 444.752 209.144C445.274 208.46 445.996 207.954 446.819 207.698C450.883 206.543 458.807 205.181 460.357 210.481C461.026 213.096 461.529 215.75 461.863 218.427C463.2 226.826 464.244 235.277 465.218 243.723C467.222 260.933 468.181 278.128 469.302 295.419C470.21 309.417 471.161 323.415 471.782 337.428L466.758 333.609C471.525 332.683 476.03 330.722 479.955 327.865C485.573 323.908 490.349 318.878 494.007 313.065C500.09 302.845 502.935 291.325 507.646 280.511C507.994 279.912 508.494 279.415 509.095 279.07C509.697 278.725 510.379 278.545 511.072 278.548C514.555 278.33 521.106 278.787 522.352 282.838C523 285.947 523.103 289.144 522.656 292.288C522.023 299.62 520.443 306.84 517.955 313.769C512.924 328.24 505.273 340.728 493.181 350.362C486.188 355.871 478.525 360.477 470.375 364.068L472.341 360.648C472.226 374.574 471.367 388.498 471.548 402.429C471.617 408.012 471.994 413.59 472.314 419.164C473.421 438.537 474.629 457.902 475.79 477.271C477.052 498.354 478.131 519.443 479.32 540.529C481.171 573.316 483.373 606.09 485.044 638.881C485.951 656.707 486.576 674.533 487.54 692.36C488.429 708.809 489.213 725.249 489.227 741.729C489.227 746.827 481.29 746.835 481.29 741.729L481.278 741.719Z" fill="#2A1E1E"/>
<path d="M516.12 225.718C522.354 212.759 541.831 211.241 551.301 221.258C552.628 222.616 553.754 224.156 554.645 225.831C555.732 227.996 554.726 230.442 553.688 232.441C552.258 235.075 550.076 237.226 547.42 238.621C541.937 241.303 535.672 241.935 529.761 240.403C523.755 239.017 517.213 235.192 515.715 228.771C515.459 227.758 515.604 226.685 516.122 225.776C516.64 224.868 517.49 224.195 518.493 223.898C519.509 223.631 520.588 223.771 521.501 224.29C522.413 224.808 523.086 225.663 523.374 226.671C523.43 226.905 523.499 227.133 523.559 227.364C523.702 227.907 523.791 227.761 523.501 227.309C523.793 227.774 524.063 228.299 524.343 228.769C524.678 229.347 523.835 228.283 524.331 228.743C524.513 228.913 524.668 229.119 524.843 229.298C525.017 229.476 525.21 229.656 525.402 229.826C525.531 229.941 526.277 230.512 525.813 230.179C525.349 229.846 526.057 230.333 526.176 230.415C526.406 230.565 526.638 230.71 526.872 230.85C527.4 231.161 527.952 231.413 528.491 231.7C529.087 232.019 527.87 231.482 528.743 231.809C529.019 231.912 529.293 232.007 529.573 232.11C530.187 232.32 530.808 232.504 531.436 232.663C532.031 232.811 532.626 232.93 533.222 233.041C533.619 233.114 534.085 233.162 533.378 233.081C533.736 233.122 534.091 233.16 534.448 233.19C535.768 233.299 537.096 233.299 538.416 233.19C538.567 233.178 539.502 233.073 538.94 233.146C538.379 233.219 539.301 233.081 539.448 233.053C540.077 232.939 540.701 232.793 541.315 232.615C541.641 232.52 541.963 232.416 542.281 232.302C542.42 232.253 543.25 231.906 542.74 232.136C542.23 232.366 543.033 231.983 543.162 231.918C543.454 231.769 543.74 231.613 544.02 231.445C544.299 231.276 544.555 231.086 544.829 230.914C545.198 230.684 544.587 231.112 544.575 231.122C544.716 231.005 544.861 230.894 544.996 230.771C545.467 230.339 545.909 229.875 546.319 229.385C545.758 230.052 546.299 229.373 546.492 229.056C546.662 228.775 546.797 228.476 546.96 228.19C547.178 227.814 546.863 228.458 546.853 228.483C546.924 228.301 546.998 228.121 547.051 227.935C547.174 227.553 547.288 227.17 547.383 226.78L547.78 229.832C546.499 227.319 544.437 225.287 541.902 224.041C541.591 223.882 541.275 223.73 540.956 223.589C541.75 223.938 540.611 223.48 540.446 223.425C539.737 223.182 539.013 222.984 538.279 222.831C537.944 222.761 537.605 222.702 537.263 222.648C538.208 222.797 536.98 222.634 536.783 222.621C536.044 222.569 535.302 222.559 534.561 222.591C534.22 222.605 533.88 222.642 533.541 222.66C532.591 222.712 534.103 222.531 533.248 222.692C532.47 222.836 531.704 222.991 530.942 223.211C530.299 223.396 529.667 223.615 529.047 223.866C529.904 223.518 528.805 223.999 528.636 224.082C528.295 224.255 527.956 224.439 527.624 224.633C527.061 224.962 526.517 225.324 525.997 225.718C526.706 225.176 525.948 225.788 525.799 225.916C525.478 226.204 525.17 226.511 524.874 226.814C524.652 227.045 524.446 227.291 524.235 227.533C523.573 228.289 524.602 226.895 524.081 227.755C523.684 228.402 523.287 229.024 522.962 229.712C522.423 230.611 521.553 231.264 520.537 231.53C519.521 231.796 518.442 231.653 517.531 231.132C516.642 230.585 516 229.716 515.737 228.708C515.474 227.699 515.611 226.628 516.12 225.718Z" fill="#2A1E1E"/>
<path d="M386.887 249.243C381.53 237.755 361.405 235.378 353.787 249.36C357.194 264.061 384.383 260.777 386.887 249.243Z" fill="#EDD351"/>
<path d="M383.461 251.242C383.105 250.541 382.714 249.859 382.29 249.198C381.863 248.497 382.687 249.594 382.101 248.93C381.879 248.677 381.665 248.421 381.433 248.178C381.163 247.892 380.881 247.619 380.591 247.354C380.464 247.239 379.532 246.47 380.224 247.003C379.682 246.59 379.114 246.21 378.524 245.868C378.226 245.694 377.929 245.529 377.621 245.371C377.512 245.316 376.431 244.808 376.839 244.975C376.56 244.889 376.285 244.788 376.016 244.672C375.685 244.557 375.351 244.452 375.014 244.353C374.278 244.141 373.532 243.986 372.78 243.842C371.778 243.644 373.032 243.816 372.252 243.773C371.895 243.753 371.542 243.715 371.185 243.699C368.507 243.521 365.829 244.052 363.422 245.236C360.746 246.552 358.568 248.697 357.214 251.351L357.611 248.298C357.756 248.905 357.943 249.5 358.17 250.081C357.916 249.445 358.089 249.883 358.278 250.216C358.466 250.549 358.692 250.875 358.873 251.206C359.218 251.828 358.46 250.81 358.948 251.319C359.147 251.517 359.325 251.747 359.526 251.951C359.726 252.155 359.938 252.347 360.149 252.545C360.256 252.642 360.371 252.727 360.478 252.822C360.875 253.175 359.903 252.426 360.359 252.723C360.853 253.034 361.325 253.361 361.841 253.636C362.101 253.775 362.371 253.894 362.635 254.033C363.032 254.231 362.393 253.939 362.367 253.93C362.553 254.003 362.738 254.08 362.926 254.145C364.186 254.581 365.481 254.904 366.798 255.11C366.089 254.997 366.615 255.086 366.996 255.11C367.311 255.134 367.629 255.16 367.946 255.177C368.639 255.213 369.335 255.217 370.024 255.195C370.712 255.173 371.413 255.104 372.105 255.047C372.899 254.981 371.55 255.169 372.321 255.015C372.687 254.942 373.054 254.888 373.419 254.817C374.695 254.548 375.949 254.185 377.173 253.733C377.316 253.682 377.456 253.621 377.597 253.565C378.131 253.367 376.976 253.86 377.484 253.609C377.75 253.474 378.022 253.355 378.288 253.213C378.848 252.928 379.394 252.614 379.921 252.272C380.064 252.179 380.877 251.612 380.439 251.935C380 252.258 380.758 251.666 380.885 251.553C381.337 251.131 381.767 250.687 382.173 250.222C381.601 250.842 382.078 250.348 382.304 249.988C382.461 249.74 382.588 249.475 382.738 249.223C383.171 248.504 382.657 249.713 382.778 249.136C382.845 248.815 382.976 248.499 383.05 248.176C383.33 247.163 384.001 246.302 384.916 245.783C385.832 245.264 386.916 245.129 387.931 245.409C388.946 245.688 389.808 246.358 390.328 247.272C390.848 248.186 390.982 249.268 390.703 250.281C389.314 256.223 383.738 259.929 378.264 261.724C372.417 263.707 366.067 263.648 360.258 261.557C357.273 260.455 354.649 258.557 352.668 256.071C351.635 254.724 350.83 253.216 350.287 251.608C349.769 250.408 349.717 249.058 350.14 247.821C350.573 246.841 351.127 245.92 351.789 245.078C353.985 242.08 356.882 239.664 360.228 238.041C363.575 236.418 367.268 235.638 370.986 235.769C378.764 236.034 386.818 240.005 390.294 247.231C390.797 248.145 390.93 249.216 390.665 250.225C390.4 251.234 389.757 252.102 388.869 252.652C387.962 253.168 386.888 253.309 385.878 253.045C384.867 252.782 384 252.135 383.461 251.242Z" fill="#2A1E1E"/>
<path d="M545.871 153.167C547.002 141.097 564.375 132.495 575.742 142.67C577.403 157.004 551.839 162.762 545.871 153.167Z" fill="#EDD351"/>
<path d="M541.902 153.167C543.535 137.831 562.506 129.142 575.435 137.482C576.348 138.083 577.224 138.738 578.058 139.445C578.612 139.938 579.051 140.545 579.345 141.225C579.64 141.905 579.782 142.641 579.762 143.381C579.83 144.871 579.665 146.363 579.274 147.804C578.481 150.583 576.951 153.096 574.844 155.077C570.407 159.052 564.752 161.411 558.802 161.77C552.708 162.298 545.904 160.567 542.436 155.168C542.173 154.719 542.001 154.222 541.93 153.707C541.86 153.191 541.891 152.667 542.023 152.164C542.156 151.66 542.386 151.188 542.701 150.773C543.016 150.359 543.41 150.01 543.86 149.748C544.31 149.485 544.807 149.314 545.324 149.243C545.84 149.172 546.365 149.204 546.869 149.336C547.374 149.468 547.847 149.698 548.262 150.012C548.677 150.327 549.026 150.72 549.289 151.169C549.595 151.644 549.553 151.482 549.194 151.111C549.379 151.31 549.536 151.508 549.72 151.706C549.905 151.904 550.053 152.017 550.218 152.177C550.843 152.785 549.591 151.815 550.331 152.262C550.772 152.528 551.234 152.761 551.67 153.029C552.266 153.391 550.954 152.793 551.623 153.017C551.94 153.124 552.252 153.247 552.571 153.344C553.109 153.505 553.654 153.637 554.206 153.74C554.357 153.77 555.228 153.91 554.603 153.817C553.978 153.724 555.135 153.863 555.292 153.875C556.558 153.955 557.83 153.935 559.093 153.813C559.548 153.774 559.853 153.688 559.187 153.813C559.472 153.758 559.762 153.722 560.048 153.671C560.718 153.548 561.384 153.398 562.044 153.221C562.655 153.056 563.262 152.87 563.859 152.658C564.181 152.545 564.496 152.419 564.814 152.3C564.066 152.581 564.722 152.337 565.06 152.179C566.206 151.621 567.308 150.975 568.355 150.248C568.966 149.84 567.889 150.688 568.423 150.19C568.655 149.975 568.905 149.776 569.137 149.559C569.593 149.131 569.972 148.63 570.417 148.194C570.717 147.899 570.219 148.457 570.201 148.475C570.292 148.327 570.399 148.192 570.502 148.045C570.691 147.752 570.879 147.451 571.048 147.156C571.127 147.007 571.568 146.148 571.304 146.694C571.04 147.241 571.457 146.257 571.516 146.069C571.607 145.773 571.677 145.474 571.75 145.177C572.006 144.141 571.802 145.492 571.808 144.904C571.838 144.154 571.825 143.403 571.77 142.654L572.931 145.455C571.802 144.496 570.542 143.701 569.191 143.094C568.934 142.977 568.955 142.987 569.254 143.121C569.078 143.052 568.901 142.987 568.72 142.923C568.361 142.812 568.008 142.69 567.645 142.588C567.282 142.487 566.925 142.404 566.56 142.329C566.435 142.303 565.369 142.131 565.816 142.19C566.262 142.25 565.193 142.149 565.07 142.141C564.645 142.117 564.22 142.109 563.796 142.117C563.435 142.117 563.072 142.139 562.71 142.167C562.522 142.18 561.472 142.329 562.331 142.192C560.914 142.423 559.524 142.8 558.185 143.319C558.96 143.022 557.899 143.454 557.825 143.49C557.504 143.644 557.188 143.807 556.875 143.977C556.254 144.316 555.652 144.689 555.071 145.092C555.004 145.14 554.113 145.839 554.752 145.314C554.482 145.536 554.216 145.76 553.958 145.993C553.445 146.458 552.958 146.952 552.5 147.471C552.335 147.657 551.841 148.283 552.256 147.73C552.057 148.004 551.859 148.283 551.661 148.566C551.288 149.137 550.986 149.733 550.659 150.327C550.297 150.985 550.78 149.838 550.46 150.773C550.355 151.092 550.242 151.407 550.149 151.729C550.055 152.052 549.992 152.383 549.907 152.708C549.643 153.714 549.907 152.363 549.821 153.158C549.792 154.199 549.364 155.189 548.626 155.926C547.888 156.663 546.896 157.089 545.853 157.119C544.807 157.108 543.808 156.687 543.069 155.949C542.331 155.21 541.912 154.211 541.902 153.167Z" fill="#2A1E1E"/>
<path d="M536.805 157.16C533.74 169.996 529.31 182.468 523.588 194.364C517.363 208.181 509.763 221.34 500.903 233.641C496.343 240.016 491.213 245.965 485.576 251.414C481.867 254.92 476.25 249.326 479.963 245.811C489.84 236.034 498.289 224.918 505.06 212.788C512.303 200.534 518.433 187.657 523.376 174.311C525.736 168.033 527.666 161.602 529.152 155.063C530.241 150.083 537.894 152.191 536.805 157.168V157.16Z" fill="#2A1E1E"/>
<path d="M158.337 563.295C151.88 566.542 144.211 568.168 137.158 565.886C133.661 564.689 130.522 562.633 128.03 559.908C125.537 557.182 123.772 553.875 122.895 550.29L128.725 552.657C121.368 556.054 112.824 557.411 105.143 554.206C97.0992 550.85 92.992 543.492 92.0336 535.12L96.002 539.081C92.0886 539.374 88.1562 538.88 84.4371 537.63C80.718 536.38 77.2876 534.398 74.3487 531.802C71.6532 529.112 69.7124 525.762 68.7204 522.088C67.7283 518.414 67.7199 514.544 68.6958 510.866L72.5213 515.881C64.6362 515.632 56.8762 514.126 50.9772 508.469C45.0366 502.773 43.5901 494.591 45.5326 486.818L49.3601 491.833C41.4572 491.863 32.8915 489.322 27.6454 483.095C21.9032 476.285 21.5043 467.35 24.7247 459.283L27.5025 464.155C20.0896 461.792 12.9903 457.08 9.66681 449.821C8.05579 446.092 7.49411 441.996 8.04233 437.972C8.59055 433.949 10.2279 430.151 12.778 426.987L14.2007 432.406C7.58344 427.91 2.29565 421.348 1.36508 413.204C0.372986 404.489 5.28772 397.299 11.9565 392.224L11.153 398.447C8.02374 396.113 5.41858 393.152 3.50491 389.752C1.59128 386.353 0.41153 382.592 0.0415955 378.71C-0.476288 370.284 4.56155 363.298 11.3276 358.812L9.90289 364.231C6.22424 357.449 4.3631 349.177 6.77982 341.651C8.01505 337.956 10.2186 334.658 13.1617 332.101C16.1048 329.543 19.6801 327.819 23.5163 327.106L21.1353 332.926C18.8031 329.828 17.1324 326.286 16.2267 322.518C15.3209 318.75 15.1992 314.836 15.8693 311.019C17.5698 302.934 24.0481 297.523 31.6137 294.991L29.2327 300.811C24.9574 294.725 23.2584 287.203 24.5044 279.875C26.0402 272.235 31.826 267.024 38.8083 264.203L36.4372 270.023C34.03 266.82 32.3291 263.144 31.4465 259.238C30.5638 255.332 30.5194 251.284 31.3161 247.36C33.3796 238.989 40.4433 233.617 48.497 231.5L46.116 237.319C42.477 230.189 40.852 221.581 43.9652 213.947C47.4176 205.482 55.2749 201.37 64.035 200.405L60.2075 205.418C58.8892 201.829 58.3203 198.009 58.536 194.192C58.7516 190.375 59.7473 186.643 61.4616 183.224C65.4299 176.013 73.0808 172.647 81.0492 172.321L77.0809 176.282C77.2178 168.496 79.7655 160.209 85.7855 154.92C88.8514 152.307 92.5732 150.577 96.5503 149.917C100.527 149.258 104.61 149.693 108.357 151.177L103.875 152.997C105.42 149.388 107.702 146.14 110.576 143.462C113.45 140.783 116.853 138.733 120.566 137.442C128.701 134.975 136.717 138.136 142.689 143.753H137.078C139.594 140.433 142.777 137.674 146.422 135.652C150.067 133.63 154.095 132.389 158.247 132.009C166.88 131.518 174.174 136.605 178.351 143.872L172.922 142.452C176.176 140.072 179.894 138.403 183.837 137.552C187.779 136.702 191.856 136.69 195.804 137.516C204.155 139.631 209.532 146.657 211.546 154.736L205.717 152.369C213.778 148.628 223.044 147.417 231.344 151.151C239.644 154.885 243.646 163.413 243.63 172.196L239.662 168.234C247.71 167.858 256.43 170.178 262.083 176.203C268.137 182.654 268.948 191.591 266.063 199.696L262.236 194.681C264.978 194.252 267.77 194.24 270.516 194.647C271.527 194.932 272.385 195.603 272.905 196.515C273.425 197.427 273.564 198.506 273.293 199.52C272.995 200.521 272.32 201.368 271.411 201.885C270.501 202.401 269.427 202.547 268.412 202.293C266.351 202.103 264.273 202.21 262.242 202.61C261.632 202.606 261.031 202.463 260.485 202.191C259.939 201.919 259.463 201.526 259.093 201.041C258.724 200.557 258.471 199.994 258.353 199.396C258.236 198.799 258.257 198.182 258.416 197.594C260.414 191.983 260.553 185.884 256.093 181.414C251.817 177.13 245.517 175.89 239.668 176.163C238.619 176.151 237.617 175.73 236.875 174.989C236.134 174.249 235.712 173.249 235.699 172.202C235.699 166.127 233.273 160.409 227.344 157.998C224.476 157.013 221.438 156.614 218.413 156.823C215.387 157.032 212.433 157.846 209.729 159.216C209.201 159.511 208.614 159.683 208.011 159.721C207.408 159.758 206.804 159.66 206.244 159.432C205.684 159.205 205.182 158.855 204.776 158.408C204.371 157.961 204.071 157.428 203.899 156.849C202.476 151.141 199.177 146.375 193.185 145.04C187.484 143.769 181.583 146.114 176.928 149.297C176.017 149.817 174.938 149.96 173.923 149.694C172.908 149.429 172.038 148.776 171.5 147.877C168.545 142.727 163.801 139.338 157.684 139.978C151.567 140.618 146.412 144.718 142.691 149.362C141.941 150.094 140.934 150.503 139.886 150.503C138.837 150.503 137.83 150.094 137.08 149.362C132.951 145.478 127.661 143.305 122.09 145.278C116.707 147.184 113.054 152.013 110.73 157.002C110.289 157.756 109.61 158.344 108.799 158.673C107.989 159.002 107.092 159.055 106.248 158.822C100.984 156.96 95.2737 156.891 90.9701 160.908C89.0028 162.947 87.463 165.358 86.4409 167.999C85.4188 170.64 84.9349 173.458 85.0176 176.288C84.9973 177.332 84.5727 178.328 83.8328 179.067C83.093 179.805 82.0954 180.229 81.0492 180.249C75.6166 180.471 70.5669 182.666 68.0609 187.711C65.9564 192.691 65.8923 198.296 67.8823 203.323C68.0334 203.91 68.0493 204.524 67.9287 205.118C67.8082 205.713 67.5544 206.272 67.1863 206.755C66.8182 207.238 66.3454 207.631 65.8035 207.905C65.2615 208.179 64.6643 208.327 64.0568 208.338C58.5805 208.932 53.2888 211.669 51.257 217.039C50.4109 219.727 50.1283 222.561 50.4267 225.363C50.725 228.165 51.5979 230.876 52.9911 233.326C53.2875 233.853 53.4612 234.439 53.4992 235.041C53.5372 235.644 53.4387 236.247 53.2108 236.806C52.9829 237.366 52.6317 237.866 52.1831 238.271C51.7346 238.676 51.2003 238.975 50.62 239.146C44.9215 240.643 40.1536 243.986 38.8638 249.988C37.6476 255.651 40.096 261.476 43.3044 266.032C44.9315 268.343 43.0901 270.983 40.9333 271.851C38.6361 272.685 36.6035 274.116 35.0451 275.997C33.4868 277.877 32.4591 280.138 32.0681 282.547C31.6382 287.631 33.0708 292.698 36.0999 296.808C36.3986 297.334 36.5742 297.92 36.6134 298.523C36.6526 299.126 36.5544 299.731 36.3263 300.291C36.0981 300.851 35.7459 301.352 35.2961 301.756C34.8462 302.161 34.3104 302.459 33.7288 302.627C28.5204 304.37 24.304 308.042 23.425 313.656C22.5679 319.128 24.8874 324.549 27.9886 328.925C28.2908 329.451 28.4688 330.038 28.5092 330.643C28.5496 331.248 28.4512 331.854 28.2216 332.415C27.9921 332.976 27.6373 333.477 27.1843 333.881C26.7314 334.285 26.1921 334.58 25.6076 334.744C20.29 335.903 15.8158 338.854 14.2522 344.283C12.9776 349.718 13.8691 355.435 16.7384 360.226C17.2442 361.139 17.3784 362.211 17.1131 363.22C16.8478 364.229 16.2035 365.098 15.3138 365.645C10.649 368.741 7.31555 373.481 8.00406 379.276C8.66876 384.864 12.4764 389.461 16.7443 392.838C18.9706 394.601 17.7364 397.699 15.9507 399.059C11.6232 402.351 8.39102 407.349 9.26801 412.958C9.83078 415.55 10.9115 418.002 12.4457 420.167C13.9799 422.332 15.936 424.166 18.1968 425.559C19.0974 426.097 19.7509 426.966 20.0173 427.98C20.2836 428.993 20.1415 430.07 19.6214 430.98C16.2681 435.512 14.282 440.957 16.7701 446.376C19.1511 451.55 24.3437 454.834 29.6017 456.51C30.6128 456.795 31.4709 457.466 31.9906 458.378C32.5103 459.289 32.65 460.369 32.3796 461.382C30.197 466.863 29.4549 473.152 33.6217 477.905C37.5245 482.36 43.6358 483.927 49.3621 483.905C49.9703 483.913 50.5686 484.059 51.1118 484.332C51.655 484.606 52.1288 484.999 52.4974 485.482C52.866 485.965 53.1196 486.525 53.2392 487.12C53.3588 487.716 53.3411 488.33 53.1876 488.918C52.3998 491.424 52.3412 494.101 53.0184 496.639C53.6957 499.176 55.0809 501.47 57.013 503.252C61.3088 507.105 67.0053 507.778 72.5233 507.952C73.1309 507.963 73.7283 508.111 74.2706 508.385C74.8128 508.659 75.2858 509.052 75.6541 509.534C76.0224 510.017 76.2764 510.577 76.397 511.171C76.5177 511.766 76.5019 512.38 76.3508 512.968C75.7016 515.388 75.7347 517.94 76.4465 520.343C77.1583 522.746 78.5211 524.906 80.3846 526.585C84.593 530.338 90.5415 531.392 96.004 531.152C97.0488 531.177 98.0442 531.602 98.7832 532.339C99.5222 533.077 99.9481 534.071 99.9723 535.114C100.142 537.697 101.028 540.181 102.532 542.29C104.036 544.398 106.099 546.047 108.488 547.051C113.85 548.801 119.689 548.354 124.721 545.81C125.248 545.516 125.835 545.344 126.438 545.308C127.041 545.271 127.645 545.37 128.204 545.597C128.764 545.824 129.265 546.174 129.671 546.62C130.077 547.067 130.378 547.599 130.55 548.176C131.064 550.54 132.189 552.728 133.813 554.522C135.437 556.317 137.503 557.655 139.806 558.405C144.723 559.589 149.906 558.892 154.333 556.45C158.882 554.162 162.906 560.994 158.339 563.289L158.337 563.295Z" fill="#2A1E1E"/>
</g>
<defs>
<clipPath id="clip0_2_349">
<rect width="655" height="750" fill="white" transform="matrix(-1 0 0 1 655 0)"/>
</clipPath>
</defs>
</svg>
